<?xml version="1.0" standalone="no"?>
<!DOCTYPE svg PUBLIC "-//W3C//DTD SVG 1.1//EN" "http://www.w3.org/Graphics/SVG/1.1/DTD/svg11.dtd" >
<svg xmlns="http://www.w3.org/2000/svg" xmlns:xlink="http://www.w3.org/1999/xlink" version="1.1">
<metadata>
Created by FontForge 20170731 at Wed May  5 00:05:29 2021
 By Aleksey,,,
Copyright (c) 2018 by Gumpita Rahayu. All rights reserved.
</metadata>
<defs>
<font id="Mohave-Regular" horiz-adv-x="960" >
  <font-face 
    font-family="Mohave"
    font-weight="400"
    font-stretch="normal"
    units-per-em="2048"
    panose-1="0 0 5 0 0 0 0 0 0 0"
    ascent="1597"
    descent="-451"
    x-height="1114"
    cap-height="1536"
    bbox="-317 -825 1966 2019"
    underline-thickness="118"
    underline-position="-282"
    unicode-range="U+0020-FB02"
  />
<missing-glyph horiz-adv-x="1032" 
d="M168 0v1536h696v-1536h-696zM303 135h426v1266h-426v-1266z" />
    <glyph glyph-name="fi" unicode="fi" horiz-adv-x="1107" 
d="M215 0v958h-207v156h207v72q0 164 97 267t257 103h82v-163h-82q-87 0 -138.5 -57t-51.5 -150v-72h272v-156h-272v-958h-164zM801 1231v244h166v-244h-166zM801 0v1114h166v-1114h-166z" />
    <glyph glyph-name="fl" unicode="fl" horiz-adv-x="1107" 
d="M215 0v958h-207v156h207v72q0 164 97 267t257 103h82v-163h-82q-87 0 -138.5 -57t-51.5 -150v-72h272v-156h-272v-958h-164zM801 0v1536h166v-1536h-166z" />
    <glyph glyph-name="f_f" unicode="ff" horiz-adv-x="1318" 
d="M215 0v958h-207v156h207v72q0 164 97 267t257 103h82v-163h-82q-87 0 -138.5 -57t-51.5 -150v-72h272v-156h-272v-958h-164zM874 0v958h-206v156h206v72q0 164 97.5 267t257.5 103h82v-163h-82q-87 0 -139 -57t-52 -150v-72h273v-156h-273v-958h-164z" />
    <glyph glyph-name="f_f_i" unicode="ffi" horiz-adv-x="1767" 
d="M215 0v958h-207v156h207v72q0 164 97 267t257 103h82v-163h-82q-87 0 -138.5 -57t-51.5 -150v-72h272v-156h-272v-958h-164zM874 0v958h-206v156h206v72q0 164 97.5 267t257.5 103h82v-163h-82q-87 0 -139 -57t-52 -150v-72h273v-156h-273v-958h-164zM1460 1231v244h166
v-244h-166zM1460 0v1114h166v-1114h-166z" />
    <glyph glyph-name="f_f_l" unicode="ffl" horiz-adv-x="1767" 
d="M215 0v958h-207v156h207v72q0 164 97 267t257 103h82v-163h-82q-87 0 -138.5 -57t-51.5 -150v-72h272v-156h-272v-958h-164zM874 0v958h-206v156h206v72q0 164 97.5 267t257.5 103h82v-163h-82q-87 0 -139 -57t-52 -150v-72h273v-156h-273v-958h-164zM1460 0v1536h166
v-1536h-166z" />
    <glyph glyph-name=".notdef" horiz-adv-x="1032" 
d="M168 0v1536h696v-1536h-696zM303 135h426v1266h-426v-1266z" />
    <glyph glyph-name="uni0000" horiz-adv-x="1228" 
 />
    <glyph glyph-name="uni0000" horiz-adv-x="1228" 
 />
    <glyph glyph-name="nonmarkingreturn" horiz-adv-x="682" 
 />
    <glyph glyph-name="space" unicode=" " horiz-adv-x="446" 
 />
    <glyph glyph-name="exclam" unicode="!" horiz-adv-x="565" 
d="M197 430v1106h172v-1106h-172zM197 0v307h172v-307h-172z" />
    <glyph glyph-name="quotedbl" unicode="&#x22;" horiz-adv-x="872" 
d="M156 1077l82 459h163l-82 -459h-163zM469 1077l82 459h166l-82 -459h-166z" />
    <glyph glyph-name="numbersign" unicode="#" horiz-adv-x="1175" 
d="M1075 1012h-172v-439h172v-172h-172v-401h-172v401l-285 2v-403h-172v403h-174v170h174v441h-174v170h174v352h172v-352h285v352h172v-352h172v-172zM731 573v439l-285 2v-441h285z" />
    <glyph glyph-name="dollar" unicode="$" horiz-adv-x="1015" 
d="M874 1135h-172v55q0 78 -38 132t-103 69v-547q143 -17 228 -119t85 -258v-121q0 -156 -85 -258t-228 -119v-174h-112v176q-142 19 -225 119.5t-83 255.5v55h172v-55q0 -76 36.5 -129t99.5 -70v531q-142 19 -225 119.5t-83 255.5v137q0 155 83 255.5t225 119.5v176h112
v-174q143 -17 228 -119t85 -258v-55zM313 1053q0 -75 36.5 -128.5t99.5 -70.5v535q-63 -17 -99.5 -70t-36.5 -129v-137zM702 467q0 78 -38 132t-103 69v-523q65 15 103 69t38 132v121z" />
    <glyph glyph-name="percent" unicode="%" horiz-adv-x="1454" 
d="M356 834q-113 0 -181.5 68.5t-68.5 182.5v224q0 114 69 184t181 70q111 0 179.5 -70t68.5 -184v-224q0 -113 -68.5 -182t-179.5 -69zM317 0l674 1536h146l-674 -1536h-146zM356 967q51 0 82 32.5t31 85.5v224q0 54 -31 87.5t-82 33.5q-52 0 -83 -33.5t-31 -87.5v-224
q0 -53 31 -85.5t83 -32.5zM1098 -27q-111 0 -179.5 69t-68.5 183v224q0 114 68.5 183.5t179.5 69.5q112 0 180 -69.5t68 -183.5v-224q0 -114 -68 -183t-180 -69zM1098 106q51 0 81.5 33t30.5 86v224q0 54 -30.5 87t-81.5 33t-83 -33t-32 -87v-224q0 -53 32 -86t83 -33z" />
    <glyph glyph-name="ampersand" unicode="&#x26;" horiz-adv-x="1093" 
d="M524 -27q-165 0 -265.5 104t-100.5 275v140q0 109 42.5 193t118.5 132l-161 279v88q0 171 100.5 275t265.5 104q166 0 266.5 -104.5t100.5 -274.5v-56h-172v56q0 94 -53 150.5t-142 56.5q-88 0 -141 -56.5t-53 -150.5v-88l401 -682l82 440h143l-112 -637l110 -188v-29
h-159l-41 68q-86 -95 -230 -95zM524 145q98 0 150 64l-266 453q-78 -56 -78 -170v-140q0 -94 53 -150.5t141 -56.5z" />
    <glyph glyph-name="quotesingle" unicode="'" horiz-adv-x="557" 
d="M156 1077l82 459h163l-82 -459h-163z" />
    <glyph glyph-name="parenleft" unicode="(" horiz-adv-x="673" 
d="M510 -369q-165 0 -265 104t-100 275v1209q0 171 100 274.5t265 103.5h119v-172h-119q-88 0 -140.5 -56t-52.5 -150v-1209q0 -94 52.5 -150.5t140.5 -56.5h119v-172h-119z" />
    <glyph glyph-name="parenright" unicode=")" horiz-adv-x="673" 
d="M45 -369v172h119q88 0 140 56.5t52 150.5v1209q0 94 -52 150t-140 56h-119v172h119q165 0 264.5 -103.5t99.5 -274.5v-1209q0 -171 -99.5 -275t-264.5 -104h-119z" />
    <glyph glyph-name="asterisk" unicode="*" horiz-adv-x="925" 
d="M793 1339l-203 -116l203 -119l-62 -109l-205 119v-209h-125v209l-204 -119l-62 109l205 119l-205 118l60 109l206 -119v205h125v-207l207 119z" />
    <glyph glyph-name="plus" unicode="+" horiz-adv-x="1101" 
d="M989 643v-172h-350v-309h-174v309h-352v172h352v311h174v-311h350z" />
    <glyph glyph-name="comma" unicode="," horiz-adv-x="557" 
d="M156 -117l82 373h163l-82 -373h-163z" />
    <glyph glyph-name="hyphen" unicode="-" horiz-adv-x="872" 
d="M141 471v172h588v-172h-588z" />
    <glyph glyph-name="period" unicode="." horiz-adv-x="565" 
d="M197 0v256h172v-256h-172z" />
    <glyph glyph-name="slash" unicode="/" horiz-adv-x="727" 
d="M0 -102l549 1699h178l-549 -1699h-178z" />
    <glyph glyph-name="zero" unicode="0" horiz-adv-x="1021" 
d="M512 1569q165 0 265 -104t100 -275v-844q0 -171 -100 -275t-265 -104q-166 0 -266.5 104.5t-100.5 274.5v844q0 170 100.5 274.5t266.5 104.5zM317 1190v-844q0 -35 9 -65l295 1085q-48 31 -109 31q-89 0 -142 -56.5t-53 -150.5zM705 346v844q0 30 -7 61l-297 -1081
q48 -31 111 -31q88 0 140.5 56.5t52.5 150.5z" />
    <glyph glyph-name="one" unicode="1" horiz-adv-x="591" 
d="M252 0v1188h-213v172h41q82 0 127 40.5t45 112.5v23h172v-1536h-172z" />
    <glyph glyph-name="two" unicode="2" horiz-adv-x="915" 
d="M819 1038q0 -74 -30.5 -144.5t-79 -128t-107 -113t-117.5 -109.5t-107.5 -107t-79 -116t-30.5 -127v-21h551v-172h-731v147q0 94 31 179.5t80 149.5t109 122.5t119.5 111t108.5 102.5t80 108t31 118v152q0 94 -52 150.5t-140 56.5q-89 0 -142 -56.5t-53 -150.5v-55h-172
v55q0 170 100.5 274.5t266.5 104.5q165 0 264.5 -104.5t99.5 -274.5v-152z" />
    <glyph glyph-name="three" unicode="3" horiz-adv-x="948" 
d="M815 1079q0 -193 -121 -291q121 -105 121 -294v-148q0 -171 -99.5 -275t-264.5 -104q-166 0 -266.5 104.5t-100.5 274.5v55h172v-55q0 -94 53 -150.5t142 -56.5q88 0 140 56.5t52 150.5v148q0 94 -52 150t-140 56h-127v172h127q88 0 140 56.5t52 150.5v111
q0 94 -52 150.5t-140 56.5q-89 0 -142 -56.5t-53 -150.5v-55h-172v55q0 170 100.5 274.5t266.5 104.5q165 0 264.5 -104t99.5 -275v-111z" />
    <glyph glyph-name="four" unicode="4" horiz-adv-x="978" 
d="M782 494h140v-170h-140v-324h-172v324h-565v155l571 1057h166v-1042zM610 494v727l-385 -727h385z" />
    <glyph glyph-name="five" unicode="5" horiz-adv-x="989" 
d="M522 1024q160 0 259.5 -104.5t99.5 -274.5v-299q0 -170 -100.5 -274.5t-266.5 -104.5q-164 0 -264 104.5t-100 274.5v55h172v-55q0 -94 52 -150.5t140 -56.5q89 0 142 56.5t53 150.5v299q0 93 -54 150t-147 57q-86 0 -136 -56.5t-50 -150.5v-20h-172v911h708v-172h-536
v-422q73 82 200 82z" />
    <glyph glyph-name="six" unicode="6" horiz-adv-x="1003" 
d="M877 1135h-172v55q0 94 -52.5 150.5t-140.5 56.5q-89 0 -142 -56.5t-53 -150.5v-250q75 84 201 84q161 0 260 -104.5t99 -274.5v-299q0 -171 -100 -275t-265 -104q-166 0 -266.5 104.5t-100.5 274.5v844q0 170 100.5 274.5t266.5 104.5q165 0 265 -104t100 -275v-55z
M504 852q-86 0 -136.5 -56.5t-50.5 -150.5v-299q0 -94 53 -150.5t142 -56.5q88 0 140.5 56.5t52.5 150.5v299q0 93 -54 150t-147 57z" />
    <glyph glyph-name="seven" unicode="7" horiz-adv-x="798" 
d="M33 1536h715v-154l-386 -1382h-182l389 1364h-536v172z" />
    <glyph glyph-name="eight" unicode="8" horiz-adv-x="995" 
d="M864 1077q0 -192 -123 -291q123 -107 123 -294v-146q0 -171 -100.5 -275t-265.5 -104t-265 104t-100 275v146q0 189 121 294q-121 98 -121 291v113q0 171 100 275t265 104t265.5 -104t100.5 -275v-113zM692 1077v113q0 94 -52.5 150.5t-141.5 56.5q-88 0 -140.5 -56.5
t-52.5 -150.5v-113q0 -94 52.5 -150.5t140.5 -56.5q89 0 141.5 56.5t52.5 150.5zM692 346v146q0 93 -52.5 149.5t-141.5 56.5q-87 0 -140 -56.5t-53 -149.5v-146q0 -94 52.5 -150.5t140.5 -56.5q89 0 141.5 56.5t52.5 150.5z" />
    <glyph glyph-name="nine" unicode="9" horiz-adv-x="1005" 
d="M494 1569q165 0 265.5 -104t100.5 -275v-844q0 -171 -100.5 -275t-265.5 -104q-166 0 -266.5 104.5t-100.5 274.5v55h172v-55q0 -94 53.5 -150.5t141.5 -56.5q89 0 141.5 56.5t52.5 150.5v250q-75 -84 -203 -84q-160 0 -259 104.5t-99 274.5v299q0 170 100.5 274.5
t266.5 104.5zM502 684q86 0 136 56.5t50 150.5v299q0 94 -52.5 150.5t-141.5 56.5q-88 0 -141.5 -56.5t-53.5 -150.5v-299q0 -93 55 -150t148 -57z" />
    <glyph glyph-name="colon" unicode=":" horiz-adv-x="565" 
d="M197 674h172v-441h-172v441z" />
    <glyph glyph-name="semicolon" unicode=";" horiz-adv-x="561" 
d="M379 674l-19 -182h19l-53 -324h-172l32 199h-2l29 307h166z" />
    <glyph glyph-name="less" unicode="&#x3c;" horiz-adv-x="884" 
d="M760 0l-674 479v129l674 475v-180l-498 -360l498 -363v-180z" />
    <glyph glyph-name="equal" unicode="=" horiz-adv-x="1114" 
d="M211 676v172h692v-172h-692zM211 266v172h692v-172h-692z" />
    <glyph glyph-name="greater" unicode="&#x3e;" horiz-adv-x="884" 
d="M123 0v180l495 363l-495 360v180l672 -475v-129z" />
    <glyph glyph-name="question" unicode="?" horiz-adv-x="894" 
d="M334 354v72q0 88 30.5 164.5t73.5 130t86.5 102t74 103.5t30.5 112v152q0 94 -52.5 150.5t-140.5 56.5q-89 0 -141.5 -56.5t-52.5 -150.5v-55h-172v55q0 171 100.5 275t265.5 104t265 -104.5t100 -274.5v-152q0 -72 -30.5 -138.5t-73.5 -119.5t-86.5 -105t-74 -116.5
t-30.5 -132.5v-72h-172zM334 0v260h172v-260h-172z" />
    <glyph glyph-name="at" unicode="@" horiz-adv-x="1396" 
d="M696 1563q239 0 385 -146t146 -385v-1032h-164v78q-35 -47 -97.5 -76t-129.5 -29q-136 0 -220 95t-84 251v318q0 155 86 250.5t224 95.5q68 0 128 -27t93 -71v147q0 166 -101 266.5t-268 100.5q-160 0 -259 -101t-99 -266v-885q0 -148 89 -237.5t237 -89.5h421v-166h-421
q-221 0 -356.5 136t-135.5 357v885q0 239 145 385t381 146zM872 129q86 0 138.5 52t52.5 138v318q0 85 -52.5 136.5t-138.5 51.5q-78 0 -126 -51.5t-48 -136.5v-318q0 -86 48 -138t126 -52z" />
    <glyph glyph-name="A" unicode="A" horiz-adv-x="940" 
d="M563 1536l326 -1536h-178l-60 297h-360l-62 -297h-178l328 1536h184zM322 469h299l-150 760z" />
    <glyph glyph-name="B" unicode="B" horiz-adv-x="1042" 
d="M799 795q116 -98 116 -277v-166q0 -158 -93 -255t-247 -97h-399v1536h379q154 0 247 -97t93 -255v-131q0 -159 -96 -258zM348 1364v-494h207q76 0 122 50.5t46 132.5v131q0 82 -46 131t-122 49h-207zM743 352v166q0 82 -46 131t-122 49h-227v-526h227q76 0 122 49t46 131
z" />
    <glyph glyph-name="C" unicode="C" horiz-adv-x="974" 
d="M885 401v-55q0 -170 -100.5 -274.5t-266.5 -104.5q-165 0 -264.5 104t-99.5 275v844q0 171 99.5 275t264.5 104q166 0 266.5 -104.5t100.5 -274.5v-55h-172v55q0 94 -53 150.5t-142 56.5q-88 0 -140 -56.5t-52 -150.5v-844q0 -94 52 -150.5t140 -56.5q89 0 142 56.5
t53 150.5v55h172z" />
    <glyph glyph-name="D" unicode="D" horiz-adv-x="1038" 
d="M176 0v1536h352q166 0 266.5 -104.5t100.5 -274.5v-778q0 -170 -100.5 -274.5t-266.5 -104.5h-352zM348 172h180q89 0 142 56.5t53 150.5v778q0 94 -53 150.5t-142 56.5h-180v-1192z" />
    <glyph glyph-name="E" unicode="E" horiz-adv-x="882" 
d="M797 1536v-172h-449v-504h393v-172h-393v-516h449v-172h-621v1536h621z" />
    <glyph glyph-name="F" unicode="F" horiz-adv-x="854" 
d="M176 0v1536h621v-172h-449v-608h393v-172h-393v-584h-172z" />
    <glyph glyph-name="G" unicode="G" horiz-adv-x="1011" 
d="M518 -33q-165 0 -264.5 104t-99.5 275v844q0 171 99.5 275t264.5 104q166 0 266.5 -104.5t100.5 -274.5v-55h-172v55q0 94 -53 150.5t-142 56.5q-88 0 -140 -56.5t-52 -150.5v-844q0 -94 52 -150.5t140 -56.5q89 0 142 56.5t53 150.5v223h-195v172h367v-395
q0 -170 -100.5 -274.5t-266.5 -104.5z" />
    <glyph glyph-name="H" unicode="H" horiz-adv-x="1054" 
d="M176 0v1536h172v-780h359v780h172v-1536h-172v584h-359v-584h-172z" />
    <glyph glyph-name="I" unicode="I" horiz-adv-x="524" 
d="M348 0h-172v1536h172v-1536z" />
    <glyph glyph-name="J" unicode="J" horiz-adv-x="671" 
d="M35 -12v172h108q88 0 141.5 56.5t53.5 150.5v1169h172v-1169q0 -170 -100.5 -274.5t-266.5 -104.5h-108z" />
    <glyph glyph-name="K" unicode="K" horiz-adv-x="1007" 
d="M541 961l422 -961h-187l-352 788l-76 -110v-678h-172v1536h172v-575l400 575h184z" />
    <glyph glyph-name="L" unicode="L" horiz-adv-x="796" 
d="M348 1536v-1364h408v-172h-580v1536h172z" />
    <glyph glyph-name="M" unicode="M" horiz-adv-x="1335" 
d="M987 1536h172v-1536h-164v999l-264 -999h-129l-262 999v-999h-164v1536h172l320 -1221z" />
    <glyph glyph-name="N" unicode="N" horiz-adv-x="1075" 
d="M735 1536h164v-1536h-145l-414 1087v-1087h-164v1536h146l413 -1087v1087z" />
    <glyph glyph-name="O" unicode="O" horiz-adv-x="1038" 
d="M518 -33q-165 0 -264.5 104t-99.5 275v844q0 171 99.5 275t264.5 104q166 0 266.5 -104.5t100.5 -274.5v-844q0 -170 -100.5 -274.5t-266.5 -104.5zM518 139q89 0 142 56.5t53 150.5v844q0 94 -53 150.5t-142 56.5q-88 0 -140 -56.5t-52 -150.5v-844q0 -94 52 -150.5
t140 -56.5z" />
    <glyph glyph-name="P" unicode="P" horiz-adv-x="970" 
d="M176 0v1536h379q154 0 247 -97t93 -255v-172q0 -160 -93 -257.5t-247 -97.5h-207v-657h-172zM348 829h207q76 0 122 50.5t46 132.5v172q0 82 -46 131t-122 49h-207v-535z" />
    <glyph glyph-name="Q" unicode="Q" horiz-adv-x="1038" 
d="M885 346q0 -197 -131 -303l69 -229h-174l-49 161q-36 -8 -82 -8q-165 0 -264.5 104t-99.5 275v844q0 171 99.5 275t264.5 104q166 0 266.5 -104.5t100.5 -274.5v-844zM631 449l61 -203q21 43 21 100v844q0 94 -53 150.5t-142 56.5q-88 0 -140 -56.5t-52 -150.5v-844
q0 -94 52 -150.5t140 -56.5q21 0 31 2l-94 308h176z" />
    <glyph glyph-name="R" unicode="R" horiz-adv-x="1044" 
d="M895 971q0 -187 -125 -285q125 -77 125 -235v-451h-172v451q0 75 -46 120t-122 45h-207v-616h-172v1536h379q154 0 247 -97t93 -255v-213zM555 788q76 0 122 50.5t46 132.5v213q0 82 -46 131t-122 49h-207v-576h207z" />
    <glyph glyph-name="S" unicode="S" horiz-adv-x="964" 
d="M483 -33q-165 0 -265.5 104t-100.5 275v55h172v-55q0 -94 52.5 -150.5t141.5 -56.5q88 0 141.5 56.5t53.5 150.5v121q0 94 -53.5 150.5t-141.5 56.5q-165 0 -265.5 104t-100.5 275v137q0 171 100.5 275t265.5 104q166 0 266.5 -104.5t100.5 -274.5v-55h-172v55
q0 94 -53.5 150.5t-141.5 56.5q-89 0 -141.5 -56.5t-52.5 -150.5v-137q0 -93 52.5 -150t141.5 -57q166 0 266.5 -104.5t100.5 -274.5v-121q0 -170 -100.5 -274.5t-266.5 -104.5z" />
    <glyph glyph-name="T" unicode="T" horiz-adv-x="759" 
d="M295 0v1364h-258v172h688v-172h-258v-1364h-172z" />
    <glyph glyph-name="U" unicode="U" horiz-adv-x="1062" 
d="M897 1536v-1190q0 -170 -100.5 -274.5t-266.5 -104.5q-165 0 -264.5 104t-99.5 275v1190h172v-1190q0 -94 52 -150.5t140 -56.5q89 0 142 56.5t53 150.5v1190h172z" />
    <glyph glyph-name="V" unicode="V" horiz-adv-x="940" 
d="M711 1536h178l-326 -1536h-184l-328 1536h178l242 -1188z" />
    <glyph glyph-name="W" unicode="W" horiz-adv-x="1339" 
d="M1087 1536h177l-211 -1536h-185l-196 1063l-201 -1063h-184l-211 1536h176l147 -1149l195 1149h151l195 -1149z" />
    <glyph glyph-name="X" unicode="X" horiz-adv-x="935" 
d="M885 1536l-328 -766l328 -770h-178l-238 555l-240 -555h-178l328 770l-328 766h178l240 -553l238 553h178z" />
    <glyph glyph-name="Y" unicode="Y" 
d="M756 1536h176l-365 -762v-774h-172v774l-366 762h176l276 -584z" />
    <glyph glyph-name="Z" unicode="Z" horiz-adv-x="864" 
d="M795 1536v-131l-539 -1233h539v-172h-723v131l536 1233h-536v172h723z" />
    <glyph glyph-name="bracketleft" unicode="[" horiz-adv-x="696" 
d="M168 -369v1966h483v-172h-311v-1622h311v-172h-483z" />
    <glyph glyph-name="backslash" unicode="\" horiz-adv-x="727" 
d="M705 -102h-179l-549 1699h179z" />
    <glyph glyph-name="bracketright" unicode="]" horiz-adv-x="696" 
d="M45 -369v172h311v1622h-311v172h483v-1966h-483z" />
    <glyph glyph-name="asciicircum" unicode="^" horiz-adv-x="901" 
d="M92 1020l297 516h129l291 -516h-166l-190 352l-193 -352h-168z" />
    <glyph glyph-name="underscore" unicode="_" horiz-adv-x="1144" 
d="M197 -213v172h751v-172h-751z" />
    <glyph glyph-name="grave" unicode="`" horiz-adv-x="436" 
d="M236 1245l-185 352h176l135 -352h-126z" />
    <glyph glyph-name="a" unicode="a" horiz-adv-x="925" 
d="M446 1139q158 0 256.5 -100t98.5 -263v-776h-164v80q-82 -105 -246 -105q-149 0 -232 83t-83 218q0 194 198 277q39 17 97 33.5t100 28t82.5 29t62 46t21.5 68.5v24q0 87 -52 140t-139 53q-85 0 -134.5 -53t-49.5 -140v-34h-166v28q0 163 96.5 263t253.5 100zM428 131
q99 0 154 55t55 156v190q-46 -30 -146 -55.5t-118 -32.5q-64 -23 -98.5 -58t-34.5 -95q0 -71 50 -115.5t138 -44.5z" />
    <glyph glyph-name="b" unicode="b" horiz-adv-x="958" 
d="M524 1139q140 0 230 -92t90 -265v-450q0 -173 -90 -265t-230 -92q-138 0 -217 95v-70h-166v1536h166v-492q79 95 217 95zM678 332v450q0 87 -49.5 140t-136.5 53q-88 0 -136.5 -52.5t-48.5 -140.5v-452q0 -88 48.5 -139.5t136.5 -51.5q87 0 136.5 53t49.5 140z" />
    <glyph glyph-name="c" unicode="c" horiz-adv-x="886" 
d="M813 360v-20q0 -164 -96.5 -264.5t-253.5 -100.5q-158 0 -256 100.5t-98 264.5v436q0 163 98 263t256 100q157 0 253.5 -100t96.5 -263v-20h-166v26q0 87 -49.5 140t-134.5 53q-87 0 -138 -53t-51 -140v-450q0 -87 51 -140t138 -53q85 0 134.5 53t49.5 140v28h166z" />
    <glyph glyph-name="d" unicode="d" horiz-adv-x="958" 
d="M651 1536h164v-1536h-164v70q-82 -95 -217 -95q-141 0 -230 92t-89 265v450q0 173 89 265t230 92q136 0 217 -97v494zM465 139q88 0 137 51.5t49 139.5v452q0 88 -49 140.5t-137 52.5q-86 0 -136 -53t-50 -140v-450q0 -87 50 -140t136 -53z" />
    <glyph glyph-name="e" unicode="e" horiz-adv-x="915" 
d="M813 528h-539v-196q0 -87 51 -140t138 -53q85 0 134.5 53t49.5 140v28h166v-20q0 -164 -96.5 -264.5t-253.5 -100.5q-158 0 -256 100.5t-98 264.5v436q0 163 98 263t256 100q157 0 253.5 -100t96.5 -263v-248zM463 975q-87 0 -138 -53t-51 -140v-98h373v98
q0 87 -49.5 140t-134.5 53z" />
    <glyph glyph-name="f" unicode="f" horiz-adv-x="659" 
d="M215 0v958h-207v156h207v72q0 164 97 267t257 103h82v-163h-82q-87 0 -138.5 -57t-51.5 -150v-72h272v-156h-272v-958h-164z" />
    <glyph glyph-name="g" unicode="g" horiz-adv-x="937" 
d="M633 1114h164v-1126q0 -162 -98 -262.5t-255 -100.5q-158 0 -254 100.5t-96 264.5v28h164v-36q0 -87 50 -140t136 -53t137.5 53t51.5 140v231q-81 -94 -219 -94q-140 0 -229 91.5t-89 264.5v307q0 173 89 265t229 92q138 0 219 -97v72zM446 283q88 0 137.5 51.5
t49.5 138.5v309q0 88 -49.5 140.5t-137.5 52.5q-86 0 -136 -53t-50 -140v-307q0 -87 50 -139.5t136 -52.5z" />
    <glyph glyph-name="h" unicode="h" horiz-adv-x="962" 
d="M528 1141q134 0 218.5 -88t84.5 -246v-807h-163v784q0 87 -49 139t-132 52t-131.5 -52t-48.5 -139v-784h-166v1536h166v-494q80 99 221 99z" />
    <glyph glyph-name="i" unicode="i" horiz-adv-x="448" 
d="M141 1231v244h166v-244h-166zM141 0v1114h166v-1114h-166z" />
    <glyph glyph-name="j" unicode="j" horiz-adv-x="448" 
d="M141 1231v244h166v-244h-166zM-111 -375v164h66q84 0 135 57t51 150v1118h166v-1110q0 -171 -96.5 -275t-255.5 -104h-66z" />
    <glyph glyph-name="k" unicode="k" horiz-adv-x="878" 
d="M516 733l356 -733h-174l-290 590l-101 -131v-459h-166v1536h166v-831l328 409h176z" />
    <glyph glyph-name="l" unicode="l" horiz-adv-x="448" 
d="M141 0v1536h166v-1536h-166z" />
    <glyph glyph-name="m" unicode="m" horiz-adv-x="1488" 
d="M1055 1139q134 0 218.5 -87.5t84.5 -246.5v-805h-164v782q0 87 -49.5 140t-130.5 53q-83 0 -133 -53t-50 -140v-782h-163v782q0 87 -49 140t-132 53t-131.5 -53t-48.5 -140v-782h-166v1114h166v-74q80 99 221 99q90 0 160.5 -40t106.5 -118q79 158 260 158z" />
    <glyph glyph-name="n" unicode="n" 
d="M528 1139q139 0 221 -97t82 -260v-782h-163v782q0 87 -49 140t-132 53t-131.5 -53t-48.5 -140v-782h-166v1114h166v-76q78 101 221 101z" />
    <glyph glyph-name="o" unicode="o" horiz-adv-x="923" 
d="M463 -25q-158 0 -256 100.5t-98 264.5v436q0 163 98 263t256 100q157 0 253.5 -100t96.5 -263v-436q0 -164 -96.5 -264.5t-253.5 -100.5zM463 139q85 0 134.5 53t49.5 140v450q0 87 -49.5 140t-134.5 53q-87 0 -138 -53t-51 -140v-450q0 -87 51 -140t138 -53z" />
    <glyph glyph-name="p" unicode="p" horiz-adv-x="956" 
d="M524 1139q140 0 230 -92t90 -265v-450q0 -173 -90 -265t-230 -92q-138 0 -217 95v-439h-166v1483h166v-70q79 95 217 95zM678 332v450q0 87 -49.5 140t-136.5 53q-88 0 -136.5 -52.5t-48.5 -140.5v-452q0 -88 48.5 -139.5t136.5 -51.5q87 0 136.5 53t49.5 140z" />
    <glyph glyph-name="q" unicode="q" horiz-adv-x="956" 
d="M649 1114h166v-1474h-166v430q-79 -95 -217 -95q-140 0 -229.5 92t-89.5 265v450q0 173 89.5 265t229.5 92q138 0 217 -95v70zM465 139q88 0 136 51.5t48 139.5v452q0 88 -48 140.5t-136 52.5q-87 0 -136.5 -53t-49.5 -140v-450q0 -87 49.5 -140t136.5 -53z" />
    <glyph glyph-name="r" unicode="r" horiz-adv-x="583" 
d="M528 1126h50v-163h-91q-83 0 -131.5 -50.5t-48.5 -138.5v-774h-166v1114h166v-86q76 98 221 98z" />
    <glyph glyph-name="s" unicode="s" horiz-adv-x="866" 
d="M438 -25q-158 0 -254 93t-96 247v35h166v-43q0 -75 50.5 -121.5t133.5 -46.5q81 0 128.5 46.5t47.5 121.5q0 76 -48.5 124t-129.5 48q-158 0 -253 90t-95 238q0 150 95 241t253 91q155 0 249.5 -93t94.5 -247v-33h-166v41q0 77 -48 122.5t-130 45.5q-84 0 -133 -46.5
t-49 -121.5q0 -77 49 -124.5t133 -47.5q155 0 249.5 -90t94.5 -238q0 -150 -93.5 -241t-248.5 -91z" />
    <glyph glyph-name="t" unicode="t" horiz-adv-x="684" 
d="M559 -12q-160 0 -256 99.5t-96 268.5v605h-197v153h197v279h164v-279h268v-153h-268v-605q0 -93 51 -148.5t137 -55.5h80v-164h-80z" />
    <glyph glyph-name="u" unicode="u" 
d="M655 1114h164v-1114h-164v74q-80 -99 -221 -99q-137 0 -221 91t-84 264v784h164v-784q0 -86 49 -138.5t131 -52.5q83 0 132.5 52t49.5 139v784z" />
    <glyph glyph-name="v" unicode="v" horiz-adv-x="858" 
d="M664 1114h176l-310 -1114h-198l-314 1114h177l235 -866z" />
    <glyph glyph-name="w" unicode="w" horiz-adv-x="1144" 
d="M922 1114h172l-181 -1114h-182l-158 762l-159 -762h-183l-180 1114h170l111 -852l164 852h153l164 -852z" />
    <glyph glyph-name="x" unicode="x" horiz-adv-x="811" 
d="M793 1114l-304 -557l304 -557h-177l-210 387l-211 -387h-175l304 557l-304 557h175l211 -385l210 385h177z" />
    <glyph glyph-name="y" unicode="y" horiz-adv-x="858" 
d="M659 1114h181l-424 -1483h-176l100 349l-322 1134h181l231 -848z" />
    <glyph glyph-name="z" unicode="z" horiz-adv-x="782" 
d="M733 1114v-129l-475 -821h463v-164h-672v129l483 819h-473v166h674z" />
    <glyph glyph-name="braceleft" unicode="{" horiz-adv-x="774" 
d="M612 -369q-165 0 -265.5 104t-100.5 275v393q0 57 -31 92t-82 35h-102v172h102q51 0 82 34t31 91v392q0 170 100 274t266 104h117v-172h-117q-89 0 -141.5 -56t-52.5 -150v-392q0 -64 -24.5 -120t-67.5 -91q43 -37 67.5 -93.5t24.5 -119.5v-393q0 -94 52.5 -150.5
t141.5 -56.5h117v-172h-117z" />
    <glyph glyph-name="bar" unicode="|" horiz-adv-x="595" 
d="M383 -307h-172v1904h172v-1904z" />
    <glyph glyph-name="braceright" unicode="}" horiz-adv-x="774" 
d="M45 -369v172h119q88 0 140 56.5t52 150.5v393q0 63 25 119.5t68 93.5q-43 36 -68 91.5t-25 119.5v392q0 94 -52 150t-140 56h-119v172h119q165 0 264.5 -103.5t99.5 -274.5v-392q0 -57 31.5 -91t83.5 -34h102v-172h-102q-52 0 -83.5 -35t-31.5 -92v-393
q0 -171 -99.5 -275t-264.5 -104h-119z" />
    <glyph glyph-name="asciitilde" unicode="~" horiz-adv-x="1165" 
d="M178 406v43q0 111 61 173t173 62q47 0 88.5 -12.5t71.5 -31t56.5 -36.5t55 -30.5t55.5 -12.5q41 0 61.5 23.5t20.5 62.5v43h162v-53q0 -107 -55.5 -168t-149.5 -61q-52 0 -102 20.5t-82.5 45t-74.5 45t-79 20.5q-45 0 -72.5 -27t-27.5 -72v-34h-162z" />
    <glyph glyph-name="uni00A0" unicode="&#xa0;" horiz-adv-x="446" 
 />
    <glyph glyph-name="exclamdown" unicode="&#xa1;" horiz-adv-x="565" 
d="M197 807v307h172v-307h-172zM197 -422v1106h172v-1106h-172z" />
    <glyph glyph-name="cent" unicode="&#xa2;" horiz-adv-x="991" 
d="M860 756h-166v26q0 72 -35 122t-98 65v-824q63 15 98 65t35 122v28h166v-20q0 -150 -81.5 -248t-217.5 -115v-182h-112v185q-133 20 -213 117t-80 243v436q0 145 80 242t213 117v184h112v-182q136 -17 217.5 -115t81.5 -246v-20zM322 332q0 -69 33.5 -118.5t93.5 -66.5
v820q-60 -17 -93.5 -66.5t-33.5 -118.5v-450z" />
    <glyph glyph-name="sterling" unicode="&#xa3;" horiz-adv-x="1105" 
d="M1001 1128h-172v56q0 94 -52.5 150.5t-141.5 56.5q-88 0 -141.5 -56.5t-53.5 -150.5v-336h285v-158h-285v-532h451v-158h-768v158h145v532h-145v158h145v336q0 170 100.5 274.5t266.5 104.5q165 0 265.5 -104t100.5 -275v-56z" />
    <glyph glyph-name="currency" unicode="&#xa4;" horiz-adv-x="1148" 
d="M238 141l-88 90l137 138q-58 85 -58 198q0 114 58 197l-137 135l88 90l139 -137q80 59 196 59q117 0 199 -57l133 135l90 -90l-133 -133q56 -85 56 -199q0 -115 -58 -198l135 -138l-90 -90l-135 140q-78 -58 -197 -58q-114 0 -196 58zM573 369q85 0 142 55t57 143
t-57 143.5t-142 55.5q-83 0 -140.5 -55.5t-57.5 -143.5t56.5 -143t141.5 -55z" />
    <glyph glyph-name="yen" unicode="&#xa5;" horiz-adv-x="1064" 
d="M985 1536l-360 -752h209v-157h-213v-221h213v-156h-213v-250h-172v250h-218v156h218v221h-218v157h213l-364 752h178l277 -559l272 559h178z" />
    <glyph glyph-name="brokenbar" unicode="&#xa6;" horiz-adv-x="595" 
d="M383 850h-172v747h172v-747zM383 -307h-172v747h172v-747z" />
    <glyph glyph-name="section" unicode="&#xa7;" horiz-adv-x="1013" 
d="M514 -98q-158 0 -254 104t-96 275v20h164v-29q0 -92 51.5 -148t134.5 -56q80 0 128 46t48 122q0 77 -49 123.5t-131 46.5q-156 0 -251 90.5t-95 238.5q0 72 29.5 139t78.5 107q-52 39 -83 108.5t-31 141.5q0 150 94 241t248 91q157 0 253.5 -104.5t96.5 -274.5v-21h-164
v31q0 92 -51.5 148.5t-134.5 56.5q-79 0 -128.5 -46.5t-49.5 -121.5q0 -76 50 -123t132 -49q157 0 251.5 -90t94.5 -238q0 -71 -30.5 -138.5t-78.5 -109.5q51 -38 83 -106.5t32 -140.5q0 -151 -94 -242.5t-248 -91.5zM510 563q79 0 127.5 46.5t48.5 121.5q0 77 -50 124.5
t-132 47.5q-78 0 -127 -46.5t-49 -121.5q0 -78 49.5 -125t132.5 -47z" />
    <glyph glyph-name="dieresis" unicode="&#xa8;" horiz-adv-x="720" 
d="M141 1358v239h148v-239h-148zM434 1358v239h146v-239h-146z" />
    <glyph glyph-name="copyright" unicode="&#xa9;" horiz-adv-x="1722" 
d="M860 -27q-219 0 -386.5 99t-259 280t-91.5 418q0 236 91.5 416t259 278.5t386.5 98.5q220 0 388 -97t259.5 -274t91.5 -408q0 -181 -53.5 -332t-149.5 -256.5t-233.5 -164t-302.5 -58.5zM860 94q278 0 448.5 190t170.5 500q0 295 -170.5 476.5t-448.5 181.5
q-277 0 -446.5 -185t-169.5 -487q0 -304 169.5 -490t446.5 -186zM860 289q-101 0 -161 62.5t-60 164.5v504q0 102 60 164.5t161 62.5t161 -62.5t60 -164.5v-39h-120v39q0 46 -28 75t-73 29t-72.5 -29t-27.5 -75v-504q0 -46 27.5 -75t72.5 -29t73 29t28 75v39h120v-39
q0 -102 -60 -164.5t-161 -62.5z" />
    <glyph glyph-name="ordfeminine" unicode="&#xaa;" horiz-adv-x="743" 
d="M362 1556q96 0 154.5 -61t58.5 -160v-465h-114v41q-49 -55 -139 -55q-86 0 -135.5 50.5t-49.5 131.5q0 114 117 166q23 11 56 21.5t57 18t47 18t35 26.5t12 39v16q0 43 -27.5 71t-71.5 28t-70 -28t-26 -71v-26h-116v18q0 100 58.5 160.5t153.5 60.5zM352 963
q50 0 79.5 28.5t29.5 81.5v109q-23 -16 -78 -32t-59 -17q-70 -27 -70 -84q0 -37 26 -61.5t72 -24.5z" />
    <glyph glyph-name="guillemotleft" unicode="&#xab;" horiz-adv-x="1110" 
d="M504 0l-457 451v98l457 450v-200l-293 -299l293 -299v-201zM1012 0l-457 451v98l457 450v-200l-293 -299l293 -299v-201z" />
    <glyph glyph-name="logicalnot" unicode="&#xac;" horiz-adv-x="1150" 
d="M768 233v238h-623v172h795v-410h-172z" />
    <glyph glyph-name="uni00AD" unicode="&#xad;" horiz-adv-x="872" 
d="M152 471v172h587v-172h-587z" />
    <glyph glyph-name="registered" unicode="&#xae;" horiz-adv-x="1722" 
d="M860 -27q-219 0 -386.5 99t-259 280t-91.5 418q0 236 91.5 416t259 278.5t386.5 98.5q220 0 388 -97t259.5 -274t91.5 -408q0 -181 -53.5 -332t-149.5 -256.5t-233.5 -164t-302.5 -58.5zM860 94q278 0 448.5 190t170.5 500q0 295 -170.5 476.5t-448.5 181.5
q-277 0 -446.5 -185t-169.5 -487q0 -304 169.5 -490t446.5 -186zM641 307v922h227q95 0 153 -59.5t58 -157.5v-133q0 -110 -71 -168q71 -47 71 -138v-266h-121v266q0 40 -24.5 64.5t-65.5 24.5h-104v-355h-123zM764 784h104q41 0 65.5 26.5t24.5 68.5v133q0 43 -24.5 69.5
t-65.5 26.5h-104v-324z" />
    <glyph glyph-name="macron" unicode="&#xaf;" horiz-adv-x="737" 
d="M141 1536h453v-129h-453v129z" />
    <glyph glyph-name="degree" unicode="&#xb0;" horiz-adv-x="841" 
d="M418 1047q-106 0 -181 72t-75 186t75 186t181 72q109 0 184.5 -72t75.5 -186t-75.5 -186t-184.5 -72zM418 1167q56 0 96.5 39t40.5 99q0 61 -40.5 99t-96.5 38q-55 0 -95 -38t-40 -99q0 -60 40.5 -99t94.5 -39z" />
    <glyph glyph-name="plusminus" unicode="&#xb1;" horiz-adv-x="1067" 
d="M621 762h309v-172h-309v-268h-172v268h-312v172h312v270h172v-270zM137 0v172h793v-172h-793z" />
    <glyph glyph-name="uni00B2" unicode="&#xb2;" horiz-adv-x="579" 
d="M63 676v108q0 66 24 124t59.5 96t77.5 76t77.5 67t59.5 66.5t24 76.5v101q0 46 -27.5 76t-72.5 30q-44 0 -71.5 -30t-27.5 -76v-39h-123v39q0 101 62 164t160 63q101 0 162 -62.5t61 -164.5v-101q0 -62 -32.5 -117t-79 -96t-92.5 -81t-78.5 -87.5t-32.5 -97.5v-12h315
v-123h-445z" />
    <glyph glyph-name="uni00B3" unicode="&#xb3;" horiz-adv-x="602" 
d="M283 655q-100 0 -162 63.5t-62 164.5v39h123v-39q0 -46 28.5 -75.5t72.5 -29.5t72 29.5t28 75.5v100q0 46 -28 75t-72 29h-82v123h82q44 0 72 29t28 76v76q0 46 -28 76t-72 30t-72.5 -30t-28.5 -76v-39h-123v39q0 101 62 164t162 63q99 0 160 -62.5t61 -164.5v-76
q0 -107 -68 -166q68 -61 68 -166v-100q0 -102 -61 -165t-160 -63z" />
    <glyph glyph-name="acute" unicode="&#xb4;" horiz-adv-x="436" 
d="M74 1245l135 352h174l-182 -352h-127z" />
    <glyph glyph-name="uni00B5" unicode="&#xb5;" horiz-adv-x="1091" 
d="M741 1114h164v-1114h-164v76q-82 -101 -221 -101q-76 0 -143 31v-313h-166v1421h166v-770q0 -93 48.5 -149t133.5 -56t133.5 56t48.5 149v770z" />
    <glyph glyph-name="paragraph" unicode="&#xb6;" horiz-adv-x="942" 
d="M731 -307h-172v1083h-129q-154 0 -247 97t-93 255v56q0 158 93 255t247 97h301v-1843z" />
    <glyph glyph-name="periodcentered" unicode="&#xb7;" horiz-adv-x="550" 
d="M197 434v246h157v-246h-157z" />
    <glyph glyph-name="cedilla" unicode="&#xb8;" horiz-adv-x="540" 
d="M254 -96q91 10 150 -43.5t59 -130.5q0 -86 -55 -138.5t-146 -52.5h-139v125h139q32 0 53 18.5t21 47.5t-21 48t-53 19h-78l-57 37v205h127v-135z" />
    <glyph glyph-name="uni00B9" unicode="&#xb9;" horiz-adv-x="401" 
d="M158 676v706h-133v121h30q47 0 75 24.5t28 67.5v15h121v-934h-121z" />
    <glyph glyph-name="ordmasculine" unicode="&#xba;" horiz-adv-x="708" 
d="M354 856q-95 0 -154 61.5t-59 159.5v258q0 100 59 160.5t154 60.5t153 -60.5t58 -160.5v-258q0 -100 -58 -160.5t-153 -60.5zM354 971q44 0 70.5 27t26.5 71v274q0 43 -26.5 71t-70.5 28t-70 -28t-26 -71v-274q0 -43 26 -70.5t70 -27.5z" />
    <glyph glyph-name="guillemotright" unicode="&#xbb;" horiz-adv-x="1110" 
d="M98 0v201l293 299l-293 299v200l457 -450v-98zM604 0v201l295 299l-295 299v200l457 -450v-98z" />
    <glyph glyph-name="onequarter" unicode="&#xbc;" horiz-adv-x="1433" 
d="M158 614v707h-133v121h30q47 0 75 24.5t28 67.5v14h121v-934h-121zM205 0l674 1536h145l-674 -1536h-145zM1176 0v182h-330v111l338 629h112v-617h80v-123h-80v-182h-120zM973 305h203v385z" />
    <glyph glyph-name="onehalf" unicode="&#xbd;" horiz-adv-x="1406" 
d="M158 614v707h-133v121h30q47 0 75 24.5t28 67.5v14h121v-934h-121zM205 0l674 1536h145l-674 -1536h-145zM891 0v109q0 66 24 123.5t59.5 96t77 76t77 66.5t59.5 66.5t24 76.5v101q0 46 -27.5 76t-72.5 30q-44 0 -71 -30t-27 -76v-39h-123v39q0 101 61.5 164t159.5 63
q101 0 162 -62.5t61 -164.5v-101q0 -52 -23.5 -100t-58.5 -82.5t-75.5 -71.5t-75.5 -68.5t-58.5 -72.5t-23.5 -84v-12h315v-123h-444z" />
    <glyph glyph-name="threequarters" unicode="&#xbe;" horiz-adv-x="1634" 
d="M283 594q-100 0 -162 63t-62 164v39h123v-39q0 -46 28.5 -75t72.5 -29t72 29t28 75v101q0 46 -28 75t-72 29h-82v123h82q45 0 72.5 28.5t27.5 75.5v76q0 46 -28 76.5t-72 30.5t-72.5 -30.5t-28.5 -76.5v-39h-123v39q0 101 62 164t162 63q99 0 160 -62.5t61 -164.5v-76
q0 -107 -68 -166q68 -61 68 -165v-101q0 -102 -61 -164.5t-160 -62.5zM406 0l673 1536h146l-674 -1536h-145zM1376 0v182h-329v111l337 629h113v-617h80v-123h-80v-182h-121zM1174 305h202v385z" />
    <glyph glyph-name="questiondown" unicode="&#xbf;" horiz-adv-x="894" 
d="M561 1114v-262h-172v262h172zM561 758v-70q0 -88 -30.5 -164.5t-73.5 -130.5t-86.5 -103t-74 -104t-30.5 -112v-150q0 -94 52.5 -150.5t140.5 -56.5q89 0 141.5 56.5t52.5 150.5v56h172v-56q0 -171 -100.5 -275t-265.5 -104q-164 0 -264.5 104.5t-100.5 274.5v150
q0 72 30.5 138.5t73.5 120t86.5 106t74 117t30.5 132.5v70h172z" />
    <glyph glyph-name="Agrave" unicode="&#xc0;" horiz-adv-x="940" 
d="M539 1667h-127l-185 352h176zM563 1536l326 -1536h-178l-60 297h-360l-62 -297h-178l328 1536h184zM322 469h299l-150 760z" />
    <glyph glyph-name="Aacute" unicode="&#xc1;" horiz-adv-x="940" 
d="M715 2019l-183 -352h-126l135 352h174zM563 1536l326 -1536h-178l-60 297h-360l-62 -297h-178l328 1536h184zM322 469h299l-150 760z" />
    <glyph glyph-name="Acircumflex" unicode="&#xc2;" horiz-adv-x="940" 
d="M471 1909l-137 -189h-162l229 299h138l229 -299h-162zM563 1536l326 -1536h-178l-60 297h-360l-62 -297h-178l328 1536h184zM322 469h299l-150 760z" />
    <glyph glyph-name="Atilde" unicode="&#xc3;" horiz-adv-x="940" 
d="M334 1759v-39h-133v47q0 75 37 115.5t96 40.5q70 0 139 -51q4 -3 13.5 -11t13.5 -11t11.5 -9t12.5 -8.5l12 -6t13.5 -4.5t13.5 -1q19 0 29 16.5t10 38.5v43h131v-55q0 -74 -37 -114t-96 -40q-30 0 -56 8t-41.5 16.5t-37.5 24.5q-7 5 -25 19t-25 18.5t-19.5 10t-22.5 5.5
q-20 0 -29.5 -15.5t-9.5 -37.5zM563 1536l326 -1536h-178l-60 297h-360l-62 -297h-178l328 1536h184zM322 469h299l-150 760z" />
    <glyph glyph-name="Adieresis" unicode="&#xc4;" horiz-adv-x="940" 
d="M403 2019v-239h-147v239h147zM694 2019v-239h-145v239h145zM563 1536l326 -1536h-178l-60 297h-360l-62 -297h-178l328 1536h184zM322 469h299l-150 760z" />
    <glyph glyph-name="Aring" unicode="&#xc5;" horiz-adv-x="940" 
d="M471 1595q-79 0 -135.5 54.5t-56.5 138.5t56.5 138t135.5 54q80 0 136.5 -54t56.5 -138t-56.5 -138.5t-136.5 -54.5zM471 1872q-33 0 -58.5 -23.5t-25.5 -60.5t25.5 -60.5t58.5 -23.5q34 0 60 23.5t26 60.5t-26 60.5t-60 23.5zM563 1536l326 -1536h-178l-60 297h-360
l-62 -297h-178l328 1536h184zM322 469h299l-150 760z" />
    <glyph glyph-name="AE" unicode="&#xc6;" horiz-adv-x="1327" 
d="M51 0l328 1536h862v-172h-453v-504h398v-172h-398v-516h453v-172h-625v297h-325l-62 -297h-178zM324 469h292v895h-108z" />
    <glyph glyph-name="Ccedilla" unicode="&#xc7;" horiz-adv-x="974" 
d="M885 1135h-172v55q0 94 -53 150.5t-142 56.5q-88 0 -140 -56.5t-52 -150.5v-844q0 -94 52 -150.5t140 -56.5q89 0 142 56.5t53 150.5v55h172v-55q0 -151 -79.5 -251t-215.5 -122v-69q91 10 150 -43.5t59 -130.5q0 -86 -55 -138.5t-146 -52.5h-139v125h139q32 0 53 18.5
t21 47.5t-21 48t-53 19h-78l-57 37v137q-142 17 -225.5 118.5t-83.5 256.5v844q0 171 99.5 275t264.5 104q166 0 266.5 -104.5t100.5 -274.5v-55z" />
    <glyph glyph-name="Egrave" unicode="&#xc8;" horiz-adv-x="882" 
d="M375 1667l-185 352h177l135 -352h-127zM797 1536v-172h-449v-504h393v-172h-393v-516h449v-172h-621v1536h621z" />
    <glyph glyph-name="Eacute" unicode="&#xc9;" horiz-adv-x="882" 
d="M369 1667l135 352h174l-182 -352h-127zM797 1536v-172h-449v-504h393v-172h-393v-516h449v-172h-621v1536h621z" />
    <glyph glyph-name="Ecircumflex" unicode="&#xca;" horiz-adv-x="882" 
d="M135 1720l230 299h137l229 -299h-162l-135 189l-137 -189h-162zM797 1536v-172h-449v-504h393v-172h-393v-516h449v-172h-621v1536h621z" />
    <glyph glyph-name="Edieresis" unicode="&#xcb;" horiz-adv-x="882" 
d="M219 1780v239h148v-239h-148zM512 1780v239h145v-239h-145zM797 1536v-172h-449v-504h393v-172h-393v-516h449v-172h-621v1536h621z" />
    <glyph glyph-name="Igrave" unicode="&#xcc;" horiz-adv-x="524" 
d="M203 1667l-185 352h177l135 -352h-127zM348 0h-172v1536h172v-1536z" />
    <glyph glyph-name="Iacute" unicode="&#xcd;" horiz-adv-x="524" 
d="M197 1667l135 352h174l-182 -352h-127zM348 0h-172v1536h172v-1536z" />
    <glyph glyph-name="Icircumflex" unicode="&#xce;" horiz-adv-x="524" 
d="M-37 1720l230 299h137l229 -299h-162l-135 189l-137 -189h-162zM348 0h-172v1536h172v-1536z" />
    <glyph glyph-name="Idieresis" unicode="&#xcf;" horiz-adv-x="524" 
d="M47 1780v239h148v-239h-148zM340 1780v239h145v-239h-145zM348 0h-172v1536h172v-1536z" />
    <glyph glyph-name="Eth" unicode="&#xd0;" horiz-adv-x="1038" 
d="M528 1536q166 0 266.5 -104.5t100.5 -274.5v-778q0 -170 -100.5 -274.5t-266.5 -104.5h-352v696h-158v144h158v696h352zM723 379v778q0 94 -53 150.5t-142 56.5h-180v-524h156v-144h-156v-524h180q89 0 142 56.5t53 150.5z" />
    <glyph glyph-name="Ntilde" unicode="&#xd1;" horiz-adv-x="1075" 
d="M401 1759v-39h-133v47q0 75 37 115.5t96 40.5q71 0 140 -51q4 -3 13.5 -11t13.5 -11t11.5 -9t12.5 -8.5l12 -6t13.5 -4.5t13.5 -1q19 0 29 16.5t10 38.5v43h131v-55q0 -74 -37 -114t-96 -40q-67 0 -136 49q-7 5 -25 19t-25 18.5t-19.5 10t-22.5 5.5q-20 0 -29.5 -15.5
t-9.5 -37.5zM735 1536h164v-1536h-145l-414 1087v-1087h-164v1536h146l413 -1087v1087z" />
    <glyph glyph-name="Ograve" unicode="&#xd2;" horiz-adv-x="1038" 
d="M459 1667l-185 352h177l135 -352h-127zM518 -33q-165 0 -264.5 104t-99.5 275v844q0 171 99.5 275t264.5 104q166 0 266.5 -104.5t100.5 -274.5v-844q0 -170 -100.5 -274.5t-266.5 -104.5zM518 139q89 0 142 56.5t53 150.5v844q0 94 -53 150.5t-142 56.5
q-88 0 -140 -56.5t-52 -150.5v-844q0 -94 52 -150.5t140 -56.5z" />
    <glyph glyph-name="Oacute" unicode="&#xd3;" horiz-adv-x="1038" 
d="M453 1667l135 352h174l-182 -352h-127zM518 -33q-165 0 -264.5 104t-99.5 275v844q0 171 99.5 275t264.5 104q166 0 266.5 -104.5t100.5 -274.5v-844q0 -170 -100.5 -274.5t-266.5 -104.5zM518 139q89 0 142 56.5t53 150.5v844q0 94 -53 150.5t-142 56.5
q-88 0 -140 -56.5t-52 -150.5v-844q0 -94 52 -150.5t140 -56.5z" />
    <glyph glyph-name="Ocircumflex" unicode="&#xd4;" horiz-adv-x="1038" 
d="M219 1720l230 299h137l229 -299h-162l-135 189l-137 -189h-162zM518 -33q-165 0 -264.5 104t-99.5 275v844q0 171 99.5 275t264.5 104q166 0 266.5 -104.5t100.5 -274.5v-844q0 -170 -100.5 -274.5t-266.5 -104.5zM518 139q89 0 142 56.5t53 150.5v844q0 94 -53 150.5
t-142 56.5q-88 0 -140 -56.5t-52 -150.5v-844q0 -94 52 -150.5t140 -56.5z" />
    <glyph glyph-name="Otilde" unicode="&#xd5;" horiz-adv-x="1038" 
d="M647 1710q-30 0 -56 8t-41.5 16.5t-37.5 24.5q-7 5 -25 19t-25 18.5t-19.5 10t-22.5 5.5q-20 0 -29.5 -15.5t-9.5 -37.5v-39h-133v47q0 75 37 115.5t96 40.5q70 0 139 -51q4 -3 13.5 -11t13.5 -11t11.5 -9t12.5 -8.5l12 -6t13.5 -4.5t13.5 -1q19 0 29 16.5t10 38.5v43
h131v-55q0 -74 -37 -114t-96 -40zM518 -33q-165 0 -264.5 104t-99.5 275v844q0 171 99.5 275t264.5 104q166 0 266.5 -104.5t100.5 -274.5v-844q0 -170 -100.5 -274.5t-266.5 -104.5zM518 139q89 0 142 56.5t53 150.5v844q0 94 -53 150.5t-142 56.5q-88 0 -140 -56.5
t-52 -150.5v-844q0 -94 52 -150.5t140 -56.5z" />
    <glyph glyph-name="Odieresis" unicode="&#xd6;" horiz-adv-x="1038" 
d="M303 1780v239h148v-239h-148zM596 1780v239h145v-239h-145zM518 -33q-165 0 -264.5 104t-99.5 275v844q0 171 99.5 275t264.5 104q166 0 266.5 -104.5t100.5 -274.5v-844q0 -170 -100.5 -274.5t-266.5 -104.5zM518 139q89 0 142 56.5t53 150.5v844q0 94 -53 150.5
t-142 56.5q-88 0 -140 -56.5t-52 -150.5v-844q0 -94 52 -150.5t140 -56.5z" />
    <glyph glyph-name="multiply" unicode="&#xd7;" horiz-adv-x="923" 
d="M805 340l-123 -121l-219 219l-221 -221l-121 123l221 219l-219 219l121 123l219 -219l219 217l121 -121l-217 -217z" />
    <glyph glyph-name="Oslash" unicode="&#xd8;" horiz-adv-x="1038" 
d="M989 1604l-129 -263q25 -70 25 -151v-844q0 -170 -100.5 -274.5t-266.5 -104.5q-171 0 -276 115l-74 -152h-119l129 265q-24 67 -24 151v844q0 171 99.5 275t264.5 104q175 0 279 -117l73 152h119zM326 1190v-696l376 768q-17 63 -65.5 99t-118.5 36q-88 0 -140 -56.5
t-52 -150.5zM713 346v694l-377 -768q19 -62 66.5 -97.5t115.5 -35.5q89 0 142 56.5t53 150.5z" />
    <glyph glyph-name="Ugrave" unicode="&#xd9;" horiz-adv-x="1062" 
d="M473 1667l-184 352h176l135 -352h-127zM897 1536v-1190q0 -170 -100.5 -274.5t-266.5 -104.5q-165 0 -264.5 104t-99.5 275v1190h172v-1190q0 -94 52 -150.5t140 -56.5q89 0 142 56.5t53 150.5v1190h172z" />
    <glyph glyph-name="Uacute" unicode="&#xda;" horiz-adv-x="1062" 
d="M467 1667l135 352h174l-182 -352h-127zM897 1536v-1190q0 -170 -100.5 -274.5t-266.5 -104.5q-165 0 -264.5 104t-99.5 275v1190h172v-1190q0 -94 52 -150.5t140 -56.5q89 0 142 56.5t53 150.5v1190h172z" />
    <glyph glyph-name="Ucircumflex" unicode="&#xdb;" horiz-adv-x="1062" 
d="M233 1720l230 299h137l229 -299h-161l-136 189l-137 -189h-162zM897 1536v-1190q0 -170 -100.5 -274.5t-266.5 -104.5q-165 0 -264.5 104t-99.5 275v1190h172v-1190q0 -94 52 -150.5t140 -56.5q89 0 142 56.5t53 150.5v1190h172z" />
    <glyph glyph-name="Udieresis" unicode="&#xdc;" horiz-adv-x="1062" 
d="M317 1780v239h148v-239h-148zM610 1780v239h146v-239h-146zM897 1536v-1190q0 -170 -100.5 -274.5t-266.5 -104.5q-165 0 -264.5 104t-99.5 275v1190h172v-1190q0 -94 52 -150.5t140 -56.5q89 0 142 56.5t53 150.5v1190h172z" />
    <glyph glyph-name="Yacute" unicode="&#xdd;" 
d="M725 2019l-182 -352h-127l135 352h174zM756 1536h176l-365 -762v-774h-172v774l-366 762h176l276 -584z" />
    <glyph glyph-name="Thorn" unicode="&#xde;" horiz-adv-x="970" 
d="M176 0v1536h172v-227h207q154 0 247 -97.5t93 -257.5v-172q0 -158 -93 -255t-247 -97h-207v-430h-172zM348 602h207q76 0 122 49t46 131v172q0 82 -46 132.5t-122 50.5h-207v-535z" />
    <glyph glyph-name="germandbls" unicode="&#xdf;" horiz-adv-x="1011" 
d="M793 795q116 -98 116 -277v-176q0 -160 -93 -256t-247 -96h-104v172h104q76 0 122 49t46 131v176q0 82 -46 131t-122 49h-104v172h84q76 0 122 50.5t46 132.5v129q0 97 -56 156t-147 59q-90 0 -145.5 -59.5t-55.5 -155.5v-1428h-172v1428q0 174 102.5 280.5t270.5 106.5
q169 0 272 -106t103 -281v-129q0 -155 -96 -258z" />
    <glyph glyph-name="agrave" unicode="&#xe0;" horiz-adv-x="925" 
d="M514 1245h-127l-184 352h176zM446 1139q158 0 256.5 -100t98.5 -263v-776h-164v80q-82 -105 -246 -105q-149 0 -232 83t-83 218q0 194 198 277q39 17 97 33.5t100 28t82.5 29t62 46t21.5 68.5v24q0 87 -52 140t-139 53q-85 0 -134.5 -53t-49.5 -140v-34h-166v28
q0 163 96.5 263t253.5 100zM428 131q99 0 154 55t55 156v190q-46 -30 -146 -55.5t-118 -32.5q-64 -23 -98.5 -58t-34.5 -95q0 -71 50 -115.5t138 -44.5z" />
    <glyph glyph-name="aacute" unicode="&#xe1;" horiz-adv-x="925" 
d="M690 1597l-182 -352h-127l135 352h174zM446 1139q158 0 256.5 -100t98.5 -263v-776h-164v80q-82 -105 -246 -105q-149 0 -232 83t-83 218q0 194 198 277q39 17 97 33.5t100 28t82.5 29t62 46t21.5 68.5v24q0 87 -52 140t-139 53q-85 0 -134.5 -53t-49.5 -140v-34h-166v28
q0 163 96.5 263t253.5 100zM428 131q99 0 154 55t55 156v190q-46 -30 -146 -55.5t-118 -32.5q-64 -23 -98.5 -58t-34.5 -95q0 -71 50 -115.5t138 -44.5z" />
    <glyph glyph-name="acircumflex" unicode="&#xe2;" horiz-adv-x="925" 
d="M446 1487l-137 -189h-162l230 299h137l229 -299h-161zM446 1139q158 0 256.5 -100t98.5 -263v-776h-164v80q-82 -105 -246 -105q-149 0 -232 83t-83 218q0 194 198 277q39 17 97 33.5t100 28t82.5 29t62 46t21.5 68.5v24q0 87 -52 140t-139 53q-85 0 -134.5 -53
t-49.5 -140v-34h-166v28q0 163 96.5 263t253.5 100zM428 131q99 0 154 55t55 156v190q-46 -30 -146 -55.5t-118 -32.5q-64 -23 -98.5 -58t-34.5 -95q0 -71 50 -115.5t138 -44.5z" />
    <glyph glyph-name="atilde" unicode="&#xe3;" horiz-adv-x="925" 
d="M309 1337v-39h-133v48q0 75 37 115t96 40q71 0 140 -51q4 -3 13.5 -11t13.5 -11t11.5 -9t12.5 -8.5l12 -6t13.5 -4.5t13.5 -1q19 0 29 16.5t10 38.5v43h131v-55q0 -74 -37.5 -114t-96.5 -40q-30 0 -56 8t-41.5 16.5t-37.5 24.5q-8 6 -25 19t-25 18.5t-20 11t-22 5.5
q-20 0 -29.5 -16t-9.5 -38zM446 1139q158 0 256.5 -100t98.5 -263v-776h-164v80q-82 -105 -246 -105q-149 0 -232 83t-83 218q0 194 198 277q39 17 97 33.5t100 28t82.5 29t62 46t21.5 68.5v24q0 87 -52 140t-139 53q-85 0 -134.5 -53t-49.5 -140v-34h-166v28
q0 163 96.5 263t253.5 100zM428 131q99 0 154 55t55 156v190q-46 -30 -146 -55.5t-118 -32.5q-64 -23 -98.5 -58t-34.5 -95q0 -71 50 -115.5t138 -44.5z" />
    <glyph glyph-name="adieresis" unicode="&#xe4;" horiz-adv-x="925" 
d="M379 1597v-239h-148v239h148zM670 1597v-239h-146v239h146zM446 1139q158 0 256.5 -100t98.5 -263v-776h-164v80q-82 -105 -246 -105q-149 0 -232 83t-83 218q0 194 198 277q39 17 97 33.5t100 28t82.5 29t62 46t21.5 68.5v24q0 87 -52 140t-139 53q-85 0 -134.5 -53
t-49.5 -140v-34h-166v28q0 163 96.5 263t253.5 100zM428 131q99 0 154 55t55 156v190q-46 -30 -146 -55.5t-118 -32.5q-64 -23 -98.5 -58t-34.5 -95q0 -71 50 -115.5t138 -44.5z" />
    <glyph glyph-name="aring" unicode="&#xe5;" horiz-adv-x="925" 
d="M446 1174q-79 0 -135.5 54t-56.5 138t56.5 138.5t135.5 54.5q80 0 136.5 -54.5t56.5 -138.5t-56.5 -138t-136.5 -54zM446 1450q-33 0 -58.5 -23.5t-25.5 -60.5t25.5 -60.5t58.5 -23.5q34 0 60 23.5t26 60.5t-26 60.5t-60 23.5zM446 1139q158 0 256.5 -100t98.5 -263v-776
h-164v80q-82 -105 -246 -105q-149 0 -232 83t-83 218q0 194 198 277q39 17 97 33.5t100 28t82.5 29t62 46t21.5 68.5v24q0 87 -52 140t-139 53q-85 0 -134.5 -53t-49.5 -140v-34h-166v28q0 163 96.5 263t253.5 100zM428 131q99 0 154 55t55 156v190q-46 -30 -146 -55.5
t-118 -32.5q-64 -23 -98.5 -58t-34.5 -95q0 -71 50 -115.5t138 -44.5z" />
    <glyph glyph-name="ae" unicode="&#xe6;" horiz-adv-x="1441" 
d="M1339 528h-538v-196q0 -87 51 -140t137 -53t136.5 53t50.5 140v28h163v-20q0 -164 -96 -264.5t-254 -100.5q-101 0 -179.5 42.5t-123.5 119.5q-45 -81 -123.5 -121.5t-171.5 -40.5q-149 0 -232 83t-83 218q0 194 198 277q39 17 97 33.5t100 28t82.5 29t62 46t21.5 68.5
v24q0 87 -52 140t-139 53q-85 0 -134.5 -53t-49.5 -140v-34h-166v28q0 163 96.5 263t253.5 100q177 0 273 -119q96 119 270 119q158 0 254 -100t96 -263v-248zM801 782v-98h375v98q0 87 -50.5 140t-136.5 53t-137 -53t-51 -140zM637 342v190q-46 -30 -146 -55.5t-118 -32.5
q-64 -23 -98.5 -58t-34.5 -95q0 -71 50 -115.5t138 -44.5q99 0 154 55t55 156z" />
    <glyph glyph-name="ccedilla" unicode="&#xe7;" horiz-adv-x="886" 
d="M813 756h-166v26q0 87 -49.5 140t-134.5 53q-87 0 -138 -53t-51 -140v-450q0 -87 51 -140t138 -53q85 0 134.5 53t49.5 140v28h166v-20q0 -144 -75.5 -240t-202.5 -118v-78q91 10 149.5 -43t58.5 -131q0 -86 -54.5 -138.5t-145.5 -52.5h-140v125h140q32 0 52.5 18.5
t20.5 47.5t-20.5 48t-52.5 19h-78l-57 37v146q-136 17 -217.5 114.5t-81.5 245.5v436q0 163 98 263t256 100q157 0 253.5 -100t96.5 -263v-20z" />
    <glyph glyph-name="egrave" unicode="&#xe8;" horiz-adv-x="915" 
d="M530 1245h-127l-184 352h176zM813 528h-539v-196q0 -87 51 -140t138 -53q85 0 134.5 53t49.5 140v28h166v-20q0 -164 -96.5 -264.5t-253.5 -100.5q-158 0 -256 100.5t-98 264.5v436q0 163 98 263t256 100q157 0 253.5 -100t96.5 -263v-248zM463 975q-87 0 -138 -53
t-51 -140v-98h373v98q0 87 -49.5 140t-134.5 53z" />
    <glyph glyph-name="eacute" unicode="&#xe9;" horiz-adv-x="915" 
d="M707 1597l-183 -352h-127l135 352h175zM813 528h-539v-196q0 -87 51 -140t138 -53q85 0 134.5 53t49.5 140v28h166v-20q0 -164 -96.5 -264.5t-253.5 -100.5q-158 0 -256 100.5t-98 264.5v436q0 163 98 263t256 100q157 0 253.5 -100t96.5 -263v-248zM463 975
q-87 0 -138 -53t-51 -140v-98h373v98q0 87 -49.5 140t-134.5 53z" />
    <glyph glyph-name="ecircumflex" unicode="&#xea;" horiz-adv-x="915" 
d="M463 1487l-137 -189h-162l229 299h137l230 -299h-162zM813 528h-539v-196q0 -87 51 -140t138 -53q85 0 134.5 53t49.5 140v28h166v-20q0 -164 -96.5 -264.5t-253.5 -100.5q-158 0 -256 100.5t-98 264.5v436q0 163 98 263t256 100q157 0 253.5 -100t96.5 -263v-248z
M463 975q-87 0 -138 -53t-51 -140v-98h373v98q0 87 -49.5 140t-134.5 53z" />
    <glyph glyph-name="edieresis" unicode="&#xeb;" horiz-adv-x="915" 
d="M395 1597v-239h-147v239h147zM686 1597v-239h-145v239h145zM813 528h-539v-196q0 -87 51 -140t138 -53q85 0 134.5 53t49.5 140v28h166v-20q0 -164 -96.5 -264.5t-253.5 -100.5q-158 0 -256 100.5t-98 264.5v436q0 163 98 263t256 100q157 0 253.5 -100t96.5 -263v-248z
M463 975q-87 0 -138 -53t-51 -140v-98h373v98q0 87 -49.5 140t-134.5 53z" />
    <glyph glyph-name="igrave" unicode="&#xec;" horiz-adv-x="448" 
d="M166 1245l-184 352h176l135 -352h-127zM141 0v1114h166v-1114h-166z" />
    <glyph glyph-name="iacute" unicode="&#xed;" horiz-adv-x="448" 
d="M160 1245l135 352h174l-182 -352h-127zM141 0v1114h166v-1114h-166z" />
    <glyph glyph-name="icircumflex" unicode="&#xee;" horiz-adv-x="448" 
d="M-74 1298l230 299h137l229 -299h-162l-135 189l-137 -189h-162zM141 0v1114h166v-1114h-166z" />
    <glyph glyph-name="idieresis" unicode="&#xef;" horiz-adv-x="448" 
d="M10 1358v239h148v-239h-148zM303 1358v239h146v-239h-146zM141 0v1114h166v-1114h-166z" />
    <glyph glyph-name="eth" unicode="&#xf0;" horiz-adv-x="958" 
d="M928 1413v-121l-117 -30q4 -32 4 -54v-1208h-164v70q-82 -95 -217 -95q-141 0 -230 92t-89 265v450q0 173 89 265t230 92q136 0 217 -97v166v11l-174 -48v119l139 39q-50 72 -151 72h-47v135h84q94 0 166.5 -43.5t111.5 -120.5zM465 139q88 0 137 51.5t49 139.5v452
q0 88 -49 140.5t-137 52.5q-86 0 -136 -53t-50 -140v-450q0 -87 50 -140t136 -53z" />
    <glyph glyph-name="ntilde" unicode="&#xf1;" 
d="M350 1337v-39h-133v48q0 75 37 115t96 40q70 0 139 -51q2 -2 13 -11t14 -11t12 -9t13 -9t11.5 -5.5t14 -4.5t13.5 -1q19 0 28.5 16t9.5 39v43h132v-55q0 -74 -37.5 -114t-96.5 -40q-30 0 -56 8t-41.5 16.5t-37.5 24.5q-8 6 -25 19t-25 18.5t-20 11t-22 5.5
q-20 0 -29.5 -16t-9.5 -38zM528 1139q139 0 221 -97t82 -260v-782h-163v782q0 87 -49 140t-132 53t-131.5 -53t-48.5 -140v-782h-166v1114h166v-76q78 101 221 101z" />
    <glyph glyph-name="ograve" unicode="&#xf2;" horiz-adv-x="923" 
d="M403 1245l-184 352h176l135 -352h-127zM463 -25q-158 0 -256 100.5t-98 264.5v436q0 163 98 263t256 100q157 0 253.5 -100t96.5 -263v-436q0 -164 -96.5 -264.5t-253.5 -100.5zM463 139q85 0 134.5 53t49.5 140v450q0 87 -49.5 140t-134.5 53q-87 0 -138 -53t-51 -140
v-450q0 -87 51 -140t138 -53z" />
    <glyph glyph-name="oacute" unicode="&#xf3;" horiz-adv-x="923" 
d="M397 1245l135 352h175l-183 -352h-127zM463 -25q-158 0 -256 100.5t-98 264.5v436q0 163 98 263t256 100q157 0 253.5 -100t96.5 -263v-436q0 -164 -96.5 -264.5t-253.5 -100.5zM463 139q85 0 134.5 53t49.5 140v450q0 87 -49.5 140t-134.5 53q-87 0 -138 -53t-51 -140
v-450q0 -87 51 -140t138 -53z" />
    <glyph glyph-name="ocircumflex" unicode="&#xf4;" horiz-adv-x="923" 
d="M164 1298l229 299h137l230 -299h-162l-135 189l-137 -189h-162zM463 -25q-158 0 -256 100.5t-98 264.5v436q0 163 98 263t256 100q157 0 253.5 -100t96.5 -263v-436q0 -164 -96.5 -264.5t-253.5 -100.5zM463 139q85 0 134.5 53t49.5 140v450q0 87 -49.5 140t-134.5 53
q-87 0 -138 -53t-51 -140v-450q0 -87 51 -140t138 -53z" />
    <glyph glyph-name="otilde" unicode="&#xf5;" horiz-adv-x="923" 
d="M592 1288q-30 0 -56 8t-41.5 16.5t-37.5 24.5q-8 6 -25 19t-25 18.5t-20 11t-22 5.5q-20 0 -29.5 -16t-9.5 -38v-39h-133v48q0 75 37 115t96 40q70 0 139 -51q4 -3 13.5 -11t13.5 -11t11.5 -9t12.5 -8.5l12 -6t13.5 -4.5t13.5 -1q19 0 29 16.5t10 38.5v43h131v-55
q0 -74 -37 -114t-96 -40zM463 -25q-158 0 -256 100.5t-98 264.5v436q0 163 98 263t256 100q157 0 253.5 -100t96.5 -263v-436q0 -164 -96.5 -264.5t-253.5 -100.5zM463 139q85 0 134.5 53t49.5 140v450q0 87 -49.5 140t-134.5 53q-87 0 -138 -53t-51 -140v-450
q0 -87 51 -140t138 -53z" />
    <glyph glyph-name="odieresis" unicode="&#xf6;" horiz-adv-x="923" 
d="M248 1358v239h147v-239h-147zM541 1358v239h145v-239h-145zM463 -25q-158 0 -256 100.5t-98 264.5v436q0 163 98 263t256 100q157 0 253.5 -100t96.5 -263v-436q0 -164 -96.5 -264.5t-253.5 -100.5zM463 139q85 0 134.5 53t49.5 140v450q0 87 -49.5 140t-134.5 53
q-87 0 -138 -53t-51 -140v-450q0 -87 51 -140t138 -53z" />
    <glyph glyph-name="divide" unicode="&#xf7;" horiz-adv-x="1091" 
d="M461 729v256h172v-256h-172zM109 471v172h874v-172h-874zM461 133v256h172v-256h-172z" />
    <glyph glyph-name="oslash" unicode="&#xf8;" horiz-adv-x="923" 
d="M848 1155l-92 -168q57 -88 57 -211v-436q0 -164 -96.5 -264.5t-253.5 -100.5q-129 0 -219 68l-47 -84h-119l90 166q-59 86 -59 215v436q0 163 98 263t256 100q130 0 219 -70l47 86h119zM274 332v-10l326 598q-49 55 -137 55q-87 0 -138 -53t-51 -140v-450zM647 782v4
l-323 -593q54 -54 139 -54t134.5 53t49.5 140v450z" />
    <glyph glyph-name="ugrave" unicode="&#xf9;" 
d="M541 1245h-127l-185 352h177zM655 1114h164v-1114h-164v74q-80 -99 -221 -99q-137 0 -221 91t-84 264v784h164v-784q0 -86 49 -138.5t131 -52.5q83 0 132.5 52t49.5 139v784z" />
    <glyph glyph-name="uacute" unicode="&#xfa;" 
d="M717 1597l-182 -352h-127l135 352h174zM655 1114h164v-1114h-164v74q-80 -99 -221 -99q-137 0 -221 91t-84 264v784h164v-784q0 -86 49 -138.5t131 -52.5q83 0 132.5 52t49.5 139v784z" />
    <glyph glyph-name="ucircumflex" unicode="&#xfb;" 
d="M473 1487l-137 -189h-162l229 299h138l229 -299h-162zM655 1114h164v-1114h-164v74q-80 -99 -221 -99q-137 0 -221 91t-84 264v784h164v-784q0 -86 49 -138.5t131 -52.5q83 0 132.5 52t49.5 139v784z" />
    <glyph glyph-name="udieresis" unicode="&#xfc;" 
d="M406 1597v-239h-148v239h148zM696 1597v-239h-145v239h145zM655 1114h164v-1114h-164v74q-80 -99 -221 -99q-137 0 -221 91t-84 264v784h164v-784q0 -86 49 -138.5t131 -52.5q83 0 132.5 52t49.5 139v784z" />
    <glyph glyph-name="yacute" unicode="&#xfd;" horiz-adv-x="858" 
d="M674 1597l-182 -352h-127l135 352h174zM659 1114h181l-424 -1483h-176l100 349l-322 1134h181l231 -848z" />
    <glyph glyph-name="thorn" unicode="&#xfe;" horiz-adv-x="956" 
d="M524 1139q140 0 230 -92t90 -265v-450q0 -173 -90 -265t-230 -92q-138 0 -217 95v-439h-166v1905h166v-492q79 95 217 95zM678 332v450q0 87 -49.5 140t-136.5 53q-88 0 -136.5 -52.5t-48.5 -140.5v-452q0 -88 48.5 -139.5t136.5 -51.5q87 0 136.5 53t49.5 140z" />
    <glyph glyph-name="ydieresis" unicode="&#xff;" horiz-adv-x="858" 
d="M362 1597v-239h-147v239h147zM653 1597v-239h-145v239h145zM659 1114h181l-424 -1483h-176l100 349l-322 1134h181l231 -848z" />
    <glyph glyph-name="Amacron" unicode="&#x100;" horiz-adv-x="940" 
d="M696 1831v-129h-452v129h452zM563 1536l326 -1536h-178l-60 297h-360l-62 -297h-178l328 1536h184zM322 469h299l-150 760z" />
    <glyph glyph-name="amacron" unicode="&#x101;" horiz-adv-x="925" 
d="M672 1409v-129h-453v129h453zM446 1139q158 0 256.5 -100t98.5 -263v-776h-164v80q-82 -105 -246 -105q-149 0 -232 83t-83 218q0 194 198 277q39 17 97 33.5t100 28t82.5 29t62 46t21.5 68.5v24q0 87 -52 140t-139 53q-85 0 -134.5 -53t-49.5 -140v-34h-166v28
q0 163 96.5 263t253.5 100zM428 131q99 0 154 55t55 156v190q-46 -30 -146 -55.5t-118 -32.5q-64 -23 -98.5 -58t-34.5 -95q0 -71 50 -115.5t138 -44.5z" />
    <glyph glyph-name="Abreve" unicode="&#x102;" horiz-adv-x="940" 
d="M471 1778q-101 0 -166 61t-65 160v20h118v-20q0 -51 32.5 -83t80.5 -32t79.5 31.5t31.5 83.5v20h116v-20q0 -99 -63.5 -160t-163.5 -61zM563 1536l326 -1536h-178l-60 297h-360l-62 -297h-178l328 1536h184zM322 469h299l-150 760z" />
    <glyph glyph-name="abreve" unicode="&#x103;" horiz-adv-x="925" 
d="M446 1356q-101 0 -166 61t-65 160v20h119v-20q0 -52 32 -83.5t80 -31.5t79.5 31.5t31.5 83.5v20h117v-20q0 -99 -63.5 -160t-164.5 -61zM446 1139q158 0 256.5 -100t98.5 -263v-776h-164v80q-82 -105 -246 -105q-149 0 -232 83t-83 218q0 194 198 277q39 17 97 33.5
t100 28t82.5 29t62 46t21.5 68.5v24q0 87 -52 140t-139 53q-85 0 -134.5 -53t-49.5 -140v-34h-166v28q0 163 96.5 263t253.5 100zM428 131q99 0 154 55t55 156v190q-46 -30 -146 -55.5t-118 -32.5q-64 -23 -98.5 -58t-34.5 -95q0 -71 50 -115.5t138 -44.5z" />
    <glyph glyph-name="Aogonek" unicode="&#x104;" horiz-adv-x="940" 
d="M862 -309h31v-127h-39q-118 0 -185 56.5t-67 150.5q0 128 125 229h-16l-60 297h-360l-62 -297h-178l328 1536h184l326 -1536h-37q-121 -98 -121 -203q0 -48 34.5 -77t96.5 -29zM322 469h299l-150 760z" />
    <glyph glyph-name="aogonek" unicode="&#x105;" horiz-adv-x="925" 
d="M774 -309h31v-127h-39q-118 0 -185 56.5t-67 150.5q0 128 125 229h-2v80q-82 -105 -246 -105q-149 0 -232 83t-83 218q0 194 198 277q39 17 97 33.5t100 28t82.5 29t62 46t21.5 68.5v24q0 87 -52 140t-139 53q-85 0 -134.5 -53t-49.5 -140v-34h-166v28q0 163 96.5 263
t253.5 100q158 0 256.5 -100t98.5 -263v-776h-37q-121 -98 -121 -203q0 -48 34.5 -77t96.5 -29zM428 131q99 0 154 55t55 156v190q-46 -30 -146 -55.5t-118 -32.5q-64 -23 -98.5 -58t-34.5 -95q0 -71 50 -115.5t138 -44.5z" />
    <glyph glyph-name="Cacute" unicode="&#x106;" horiz-adv-x="974" 
d="M453 1667l135 352h174l-182 -352h-127zM885 401v-55q0 -170 -100.5 -274.5t-266.5 -104.5q-165 0 -264.5 104t-99.5 275v844q0 171 99.5 275t264.5 104q166 0 266.5 -104.5t100.5 -274.5v-55h-172v55q0 94 -53 150.5t-142 56.5q-88 0 -140 -56.5t-52 -150.5v-844
q0 -94 52 -150.5t140 -56.5q89 0 142 56.5t53 150.5v55h172z" />
    <glyph glyph-name="cacute" unicode="&#x107;" horiz-adv-x="886" 
d="M397 1245l135 352h175l-183 -352h-127zM813 360v-20q0 -164 -96.5 -264.5t-253.5 -100.5q-158 0 -256 100.5t-98 264.5v436q0 163 98 263t256 100q157 0 253.5 -100t96.5 -263v-20h-166v26q0 87 -49.5 140t-134.5 53q-87 0 -138 -53t-51 -140v-450q0 -87 51 -140t138 -53
q85 0 134.5 53t49.5 140v28h166z" />
    <glyph glyph-name="Ccircumflex" unicode="&#x108;" horiz-adv-x="974" 
d="M219 1720l230 299h137l229 -299h-162l-135 189l-137 -189h-162zM885 401v-55q0 -170 -100.5 -274.5t-266.5 -104.5q-165 0 -264.5 104t-99.5 275v844q0 171 99.5 275t264.5 104q166 0 266.5 -104.5t100.5 -274.5v-55h-172v55q0 94 -53 150.5t-142 56.5q-88 0 -140 -56.5
t-52 -150.5v-844q0 -94 52 -150.5t140 -56.5q89 0 142 56.5t53 150.5v55h172z" />
    <glyph glyph-name="ccircumflex" unicode="&#x109;" horiz-adv-x="886" 
d="M164 1298l229 299h137l230 -299h-162l-135 189l-137 -189h-162zM813 360v-20q0 -164 -96.5 -264.5t-253.5 -100.5q-158 0 -256 100.5t-98 264.5v436q0 163 98 263t256 100q157 0 253.5 -100t96.5 -263v-20h-166v26q0 87 -49.5 140t-134.5 53q-87 0 -138 -53t-51 -140
v-450q0 -87 51 -140t138 -53q85 0 134.5 53t49.5 140v28h166z" />
    <glyph glyph-name="Cdotaccent" unicode="&#x10a;" horiz-adv-x="974" 
d="M444 1718v240h148v-240h-148zM885 401v-55q0 -170 -100.5 -274.5t-266.5 -104.5q-165 0 -264.5 104t-99.5 275v844q0 171 99.5 275t264.5 104q166 0 266.5 -104.5t100.5 -274.5v-55h-172v55q0 94 -53 150.5t-142 56.5q-88 0 -140 -56.5t-52 -150.5v-844q0 -94 52 -150.5
t140 -56.5q89 0 142 56.5t53 150.5v55h172z" />
    <glyph glyph-name="cdotaccent" unicode="&#x10b;" horiz-adv-x="886" 
d="M389 1296v240h148v-240h-148zM813 360v-20q0 -164 -96.5 -264.5t-253.5 -100.5q-158 0 -256 100.5t-98 264.5v436q0 163 98 263t256 100q157 0 253.5 -100t96.5 -263v-20h-166v26q0 87 -49.5 140t-134.5 53q-87 0 -138 -53t-51 -140v-450q0 -87 51 -140t138 -53
q85 0 134.5 53t49.5 140v28h166z" />
    <glyph glyph-name="Ccaron" unicode="&#x10c;" horiz-adv-x="974" 
d="M449 1720l-230 299h162l137 -188l135 188h162l-229 -299h-137zM885 401v-55q0 -170 -100.5 -274.5t-266.5 -104.5q-165 0 -264.5 104t-99.5 275v844q0 171 99.5 275t264.5 104q166 0 266.5 -104.5t100.5 -274.5v-55h-172v55q0 94 -53 150.5t-142 56.5q-88 0 -140 -56.5
t-52 -150.5v-844q0 -94 52 -150.5t140 -56.5q89 0 142 56.5t53 150.5v55h172z" />
    <glyph glyph-name="ccaron" unicode="&#x10d;" horiz-adv-x="886" 
d="M393 1298l-229 299h162l137 -188l135 188h162l-230 -299h-137zM813 360v-20q0 -164 -96.5 -264.5t-253.5 -100.5q-158 0 -256 100.5t-98 264.5v436q0 163 98 263t256 100q157 0 253.5 -100t96.5 -263v-20h-166v26q0 87 -49.5 140t-134.5 53q-87 0 -138 -53t-51 -140v-450
q0 -87 51 -140t138 -53q85 0 134.5 53t49.5 140v28h166z" />
    <glyph glyph-name="Dcaron" unicode="&#x10e;" horiz-adv-x="1038" 
d="M451 1720l-230 299h162l137 -188l135 188h162l-229 -299h-137zM176 0v1536h352q166 0 266.5 -104.5t100.5 -274.5v-778q0 -170 -100.5 -274.5t-266.5 -104.5h-352zM348 172h180q89 0 142 56.5t53 150.5v778q0 94 -53 150.5t-142 56.5h-180v-1192z" />
    <glyph glyph-name="dcaron" unicode="&#x10f;" horiz-adv-x="1333" 
d="M651 1042v494h164v-1536h-164v70q-82 -95 -217 -95q-141 0 -230 92t-89 265v450q0 173 89 265t230 92q136 0 217 -97zM1014 1536h164l-82 -459h-164zM465 139q88 0 137 51.5t49 139.5v452q0 88 -49 140.5t-137 52.5q-86 0 -136 -53t-50 -140v-450q0 -87 50 -140t136 -53z
" />
    <glyph glyph-name="Dcroat" unicode="&#x110;" horiz-adv-x="1038" 
d="M528 1536q166 0 266.5 -104.5t100.5 -274.5v-778q0 -170 -100.5 -274.5t-266.5 -104.5h-352v696h-158v144h158v696h352zM723 379v778q0 94 -53 150.5t-142 56.5h-180v-524h156v-144h-156v-524h180q89 0 142 56.5t53 150.5z" />
    <glyph glyph-name="dcroat" unicode="&#x111;" horiz-adv-x="958" 
d="M975 1389v-144h-160v-1245h-164v70q-82 -95 -217 -95q-141 0 -230 92t-89 265v450q0 173 89 265t230 92q136 0 217 -97v203h-162v144h162v147h164v-147h160zM465 139q88 0 137 51.5t49 139.5v452q0 88 -49 140.5t-137 52.5q-86 0 -136 -53t-50 -140v-450q0 -87 50 -140
t136 -53z" />
    <glyph glyph-name="Emacron" unicode="&#x112;" horiz-adv-x="882" 
d="M207 1831h452v-129h-452v129zM797 1536v-172h-449v-504h393v-172h-393v-516h449v-172h-621v1536h621z" />
    <glyph glyph-name="emacron" unicode="&#x113;" horiz-adv-x="915" 
d="M688 1409v-129h-452v129h452zM813 528h-539v-196q0 -87 51 -140t138 -53q85 0 134.5 53t49.5 140v28h166v-20q0 -164 -96.5 -264.5t-253.5 -100.5q-158 0 -256 100.5t-98 264.5v436q0 163 98 263t256 100q157 0 253.5 -100t96.5 -263v-248zM463 975q-87 0 -138 -53
t-51 -140v-98h373v98q0 87 -49.5 140t-134.5 53z" />
    <glyph glyph-name="Ebreve" unicode="&#x114;" horiz-adv-x="882" 
d="M434 1778q-101 0 -166 61t-65 160v20h119v-20q0 -52 32 -83.5t80 -31.5t79.5 31.5t31.5 83.5v20h117v-20q0 -99 -63.5 -160t-164.5 -61zM797 1536v-172h-449v-504h393v-172h-393v-516h449v-172h-621v1536h621z" />
    <glyph glyph-name="ebreve" unicode="&#x115;" horiz-adv-x="915" 
d="M463 1356q-101 0 -166.5 61t-65.5 160v20h119v-20q0 -51 32.5 -83t80.5 -32t79 31.5t31 83.5v20h117v-20q0 -99 -63.5 -160t-163.5 -61zM813 528h-539v-196q0 -87 51 -140t138 -53q85 0 134.5 53t49.5 140v28h166v-20q0 -164 -96.5 -264.5t-253.5 -100.5
q-158 0 -256 100.5t-98 264.5v436q0 163 98 263t256 100q157 0 253.5 -100t96.5 -263v-248zM463 975q-87 0 -138 -53t-51 -140v-98h373v98q0 87 -49.5 140t-134.5 53z" />
    <glyph glyph-name="Edotaccent" unicode="&#x116;" horiz-adv-x="882" 
d="M360 1718v240h148v-240h-148zM797 1536v-172h-449v-504h393v-172h-393v-516h449v-172h-621v1536h621z" />
    <glyph glyph-name="edotaccent" unicode="&#x117;" horiz-adv-x="915" 
d="M537 1536v-240h-148v240h148zM813 528h-539v-196q0 -87 51 -140t138 -53q85 0 134.5 53t49.5 140v28h166v-20q0 -164 -96.5 -264.5t-253.5 -100.5q-158 0 -256 100.5t-98 264.5v436q0 163 98 263t256 100q157 0 253.5 -100t96.5 -263v-248zM463 975q-87 0 -138 -53
t-51 -140v-98h373v98q0 87 -49.5 140t-134.5 53z" />
    <glyph glyph-name="Eogonek" unicode="&#x118;" horiz-adv-x="882" 
d="M797 1364h-449v-504h393v-172h-393v-516h449v-172h-240q-121 -98 -121 -203q0 -48 34.5 -77t96.5 -29h31v-127h-39q-118 0 -185 56.5t-67 150.5q0 128 125 229h-256v1536h621v-172z" />
    <glyph glyph-name="eogonek" unicode="&#x119;" horiz-adv-x="915" 
d="M813 528h-539v-196q0 -87 51 -140t138 -53q85 0 134.5 53t49.5 140v28h166v-20q0 -132 -64 -224.5t-174 -123.5q-110 -93 -110 -195q0 -48 34.5 -77t96.5 -29h31v-127h-39q-118 0 -185 56.5t-67 150.5q0 114 96 204q-147 11 -235 110t-88 255v436q0 163 98 263t256 100
q157 0 253.5 -100t96.5 -263v-248zM463 975q-87 0 -138 -53t-51 -140v-98h373v98q0 87 -49.5 140t-134.5 53z" />
    <glyph glyph-name="Ecaron" unicode="&#x11a;" horiz-adv-x="882" 
d="M365 1720l-230 299h162l137 -188l135 188h162l-229 -299h-137zM797 1536v-172h-449v-504h393v-172h-393v-516h449v-172h-621v1536h621z" />
    <glyph glyph-name="ecaron" unicode="&#x11b;" horiz-adv-x="915" 
d="M530 1298h-137l-229 299h162l137 -188l135 188h162zM813 528h-539v-196q0 -87 51 -140t138 -53q85 0 134.5 53t49.5 140v28h166v-20q0 -164 -96.5 -264.5t-253.5 -100.5q-158 0 -256 100.5t-98 264.5v436q0 163 98 263t256 100q157 0 253.5 -100t96.5 -263v-248zM463 975
q-87 0 -138 -53t-51 -140v-98h373v98q0 87 -49.5 140t-134.5 53z" />
    <glyph glyph-name="Gcircumflex" unicode="&#x11c;" horiz-adv-x="1011" 
d="M219 1720l230 299h137l229 -299h-162l-135 189l-137 -189h-162zM518 -33q-165 0 -264.5 104t-99.5 275v844q0 171 99.5 275t264.5 104q166 0 266.5 -104.5t100.5 -274.5v-55h-172v55q0 94 -53 150.5t-142 56.5q-88 0 -140 -56.5t-52 -150.5v-844q0 -94 52 -150.5
t140 -56.5q89 0 142 56.5t53 150.5v223h-195v172h367v-395q0 -170 -100.5 -274.5t-266.5 -104.5z" />
    <glyph glyph-name="gcircumflex" unicode="&#x11d;" horiz-adv-x="937" 
d="M446 1487l-137 -189h-162l230 299h137l229 -299h-161zM633 1114h164v-1126q0 -162 -98 -262.5t-255 -100.5q-158 0 -254 100.5t-96 264.5v28h164v-36q0 -87 50 -140t136 -53t137.5 53t51.5 140v231q-81 -94 -219 -94q-140 0 -229 91.5t-89 264.5v307q0 173 89 265t229 92
q138 0 219 -97v72zM446 283q88 0 137.5 51.5t49.5 138.5v309q0 88 -49.5 140.5t-137.5 52.5q-86 0 -136 -53t-50 -140v-307q0 -87 50 -139.5t136 -52.5z" />
    <glyph glyph-name="Gbreve" unicode="&#x11e;" horiz-adv-x="1011" 
d="M518 1778q-101 0 -166 61t-65 160v20h119v-20q0 -52 32 -83.5t80 -31.5t79.5 31.5t31.5 83.5v20h116v-20q0 -99 -63.5 -160t-163.5 -61zM518 -33q-165 0 -264.5 104t-99.5 275v844q0 171 99.5 275t264.5 104q166 0 266.5 -104.5t100.5 -274.5v-55h-172v55q0 94 -53 150.5
t-142 56.5q-88 0 -140 -56.5t-52 -150.5v-844q0 -94 52 -150.5t140 -56.5q89 0 142 56.5t53 150.5v223h-195v172h367v-395q0 -170 -100.5 -274.5t-266.5 -104.5z" />
    <glyph glyph-name="gbreve" unicode="&#x11f;" horiz-adv-x="937" 
d="M446 1356q-101 0 -166 61t-65 160v20h119v-20q0 -52 32 -83.5t80 -31.5t79.5 31.5t31.5 83.5v20h117v-20q0 -99 -63.5 -160t-164.5 -61zM633 1114h164v-1126q0 -162 -98 -262.5t-255 -100.5q-158 0 -254 100.5t-96 264.5v28h164v-36q0 -87 50 -140t136 -53t137.5 53
t51.5 140v231q-81 -94 -219 -94q-140 0 -229 91.5t-89 264.5v307q0 173 89 265t229 92q138 0 219 -97v72zM446 283q88 0 137.5 51.5t49.5 138.5v309q0 88 -49.5 140.5t-137.5 52.5q-86 0 -136 -53t-50 -140v-307q0 -87 50 -139.5t136 -52.5z" />
    <glyph glyph-name="Gdotaccent" unicode="&#x120;" horiz-adv-x="1011" 
d="M444 1718v240h148v-240h-148zM518 -33q-165 0 -264.5 104t-99.5 275v844q0 171 99.5 275t264.5 104q166 0 266.5 -104.5t100.5 -274.5v-55h-172v55q0 94 -53 150.5t-142 56.5q-88 0 -140 -56.5t-52 -150.5v-844q0 -94 52 -150.5t140 -56.5q89 0 142 56.5t53 150.5v223
h-195v172h367v-395q0 -170 -100.5 -274.5t-266.5 -104.5z" />
    <glyph glyph-name="gdotaccent" unicode="&#x121;" horiz-adv-x="937" 
d="M520 1536v-240h-147v240h147zM633 1114h164v-1126q0 -162 -98 -262.5t-255 -100.5q-158 0 -254 100.5t-96 264.5v28h164v-36q0 -87 50 -140t136 -53t137.5 53t51.5 140v231q-81 -94 -219 -94q-140 0 -229 91.5t-89 264.5v307q0 173 89 265t229 92q138 0 219 -97v72z
M446 283q88 0 137.5 51.5t49.5 138.5v309q0 88 -49.5 140.5t-137.5 52.5q-86 0 -136 -53t-50 -140v-307q0 -87 50 -139.5t136 -52.5z" />
    <glyph glyph-name="Gcommaaccent" unicode="&#x122;" horiz-adv-x="1011" 
d="M518 -33q-165 0 -264.5 104t-99.5 275v844q0 171 99.5 275t264.5 104q166 0 266.5 -104.5t100.5 -274.5v-55h-172v55q0 94 -53 150.5t-142 56.5q-88 0 -140 -56.5t-52 -150.5v-844q0 -94 52 -150.5t140 -56.5q89 0 142 56.5t53 150.5v223h-195v172h367v-395
q0 -170 -100.5 -274.5t-266.5 -104.5zM391 -451l49 326h189l-125 -326h-113z" />
    <glyph glyph-name="gcommaaccent" unicode="&#x123;" horiz-adv-x="937" 
d="M633 1114h164v-1126q0 -162 -98 -262.5t-255 -100.5q-158 0 -254 100.5t-96 264.5v28h164v-36q0 -87 50 -140t136 -53t137.5 53t51.5 140v231q-81 -94 -219 -94q-140 0 -229 91.5t-89 264.5v307q0 173 89 265t229 92q138 0 219 -97v72zM446 283q88 0 137.5 51.5
t49.5 138.5v309q0 88 -49.5 140.5t-137.5 52.5q-86 0 -136 -53t-50 -140v-307q0 -87 50 -139.5t136 -52.5zM317 -825l50 325h188l-125 -325h-113z" />
    <glyph glyph-name="Hcircumflex" unicode="&#x124;" horiz-adv-x="1054" 
d="M229 1720l230 299h137l229 -299h-161l-136 189l-137 -189h-162zM176 0v1536h172v-780h359v780h172v-1536h-172v584h-359v-584h-172z" />
    <glyph glyph-name="hcircumflex" unicode="&#x125;" horiz-adv-x="962" 
d="M358 1720l-135 189l-137 -189h-162l230 299h137l229 -299h-162zM528 1141q134 0 218.5 -88t84.5 -246v-807h-163v784q0 87 -49 139t-132 52t-131.5 -52t-48.5 -139v-784h-166v1536h166v-494q80 99 221 99z" />
    <glyph glyph-name="Hbar" unicode="&#x126;" horiz-adv-x="1054" 
d="M989 1186v-144h-110v-1042h-172v584h-359v-584h-172v1042h-108v144h108v350h172v-350h359v350h172v-350h110zM707 756v286h-359v-286h359z" />
    <glyph glyph-name="hbar" unicode="&#x127;" horiz-adv-x="962" 
d="M528 1141q134 0 218.5 -88t84.5 -246v-807h-163v784q0 87 -49 139t-132 52t-131.5 -52t-48.5 -139v-784h-166v1264h-161v143h161v129h166v-129h158v-143h-158v-222q80 99 221 99z" />
    <glyph glyph-name="Itilde" unicode="&#x128;" horiz-adv-x="524" 
d="M391 1710q-30 0 -56 8t-41.5 16.5t-37.5 24.5q-7 5 -25 19t-25 18.5t-19.5 10t-22.5 5.5q-20 0 -29.5 -15.5t-9.5 -37.5v-39h-133v47q0 75 37 115.5t96 40.5q70 0 139 -51q4 -3 13.5 -11t13.5 -11t11.5 -9t12.5 -8.5l12 -6t13.5 -4.5t13.5 -1q19 0 29 16.5t10 38.5v43
h131v-55q0 -74 -37 -114t-96 -40zM348 0h-172v1536h172v-1536z" />
    <glyph glyph-name="itilde" unicode="&#x129;" horiz-adv-x="448" 
d="M354 1288q-30 0 -56 8t-41.5 16.5t-37.5 24.5q-8 6 -25 19t-25 18.5t-20 11t-22 5.5q-20 0 -29.5 -16t-9.5 -38v-39h-133v48q0 75 37 115t96 40q70 0 139 -51q4 -3 13.5 -11t13.5 -11t11.5 -9t12.5 -8.5l12 -6t13.5 -4.5t13.5 -1q19 0 29 16.5t10 38.5v43h131v-55
q0 -74 -37 -114t-96 -40zM141 0v1114h166v-1114h-166z" />
    <glyph glyph-name="Imacron" unicode="&#x12a;" horiz-adv-x="524" 
d="M35 1831h452v-129h-452v129zM348 0h-172v1536h172v-1536z" />
    <glyph glyph-name="imacron" unicode="&#x12b;" horiz-adv-x="448" 
d="M-2 1409h453v-129h-453v129zM141 0v1114h166v-1114h-166z" />
    <glyph glyph-name="Iogonek" unicode="&#x12e;" horiz-adv-x="524" 
d="M295 0q-121 -98 -121 -203q0 -48 34.5 -77t96.5 -29h31v-127h-39q-118 0 -185 56.5t-67 150.5q0 131 131 235v1530h172v-1536h-53z" />
    <glyph glyph-name="iogonek" unicode="&#x12f;" horiz-adv-x="448" 
d="M299 1536v-240h-147v240h147zM258 0q-121 -98 -121 -203q0 -48 34.5 -77t96.5 -29h31v-127h-39q-118 0 -185 56.5t-67 150.5q0 132 133 235v1108h166v-1114h-49z" />
    <glyph glyph-name="Idotaccent" unicode="&#x130;" horiz-adv-x="524" 
d="M188 1718v240h148v-240h-148zM348 0h-172v1536h172v-1536z" />
    <glyph glyph-name="dotlessi" unicode="&#x131;" horiz-adv-x="448" 
d="M141 0v1114h166v-1114h-166z" />
    <glyph glyph-name="IJ" unicode="&#x132;" horiz-adv-x="1196" 
d="M348 0h-172v1536h172v-1536zM559 -12v172h109q88 0 141 56.5t53 150.5v1169h172v-1169q0 -171 -100.5 -275t-265.5 -104h-109z" />
    <glyph glyph-name="ij" unicode="&#x133;" horiz-adv-x="897" 
d="M141 1231v244h166v-244h-166zM590 1231v244h166v-244h-166zM141 0v1114h166v-1114h-166zM338 -375v164h65q84 0 135.5 57t51.5 150v1118h166v-1110q0 -171 -97 -275t-256 -104h-65z" />
    <glyph glyph-name="Jcircumflex" unicode="&#x134;" horiz-adv-x="671" 
d="M121 1720l229 299h137l230 -299h-162l-135 189l-137 -189h-162zM35 -12v172h108q88 0 141.5 56.5t53.5 150.5v1169h172v-1169q0 -170 -100.5 -274.5t-266.5 -104.5h-108z" />
    <glyph glyph-name="jcircumflex" unicode="&#x135;" horiz-adv-x="448" 
d="M-74 1298l230 299h137l229 -299h-162l-135 189l-137 -189h-162zM-111 -375v164h66q84 0 135 57t51 150v1118h166v-1110q0 -171 -96.5 -275t-255.5 -104h-66z" />
    <glyph glyph-name="Kcommaaccent" unicode="&#x136;" horiz-adv-x="1007" 
d="M541 961l422 -961h-187l-352 788l-76 -110v-678h-172v1536h172v-575l400 575h184zM360 -451l50 326h188l-125 -326h-113z" />
    <glyph glyph-name="kcommaaccent" unicode="&#x137;" horiz-adv-x="878" 
d="M516 733l356 -733h-174l-290 590l-101 -131v-459h-166v1536h166v-831l328 409h176zM299 -451l49 326h189l-125 -326h-113z" />
    <glyph glyph-name="kgreenlandic" unicode="&#x138;" horiz-adv-x="876" 
d="M872 0h-174l-391 688v-688h-166v1114h166v-401l328 401h176l-342 -420z" />
    <glyph glyph-name="Lacute" unicode="&#x139;" horiz-adv-x="796" 
d="M309 1667l135 352h174l-182 -352h-127zM348 1536v-1364h408v-172h-580v1536h172z" />
    <glyph glyph-name="lacute" unicode="&#x13a;" horiz-adv-x="448" 
d="M160 1667l135 352h174l-182 -352h-127zM141 0v1536h166v-1536h-166z" />
    <glyph glyph-name="Lcommaaccent" unicode="&#x13b;" horiz-adv-x="796" 
d="M348 1536v-1364h408v-172h-580v1536h172zM248 -451l49 326h188l-125 -326h-112z" />
    <glyph glyph-name="lcommaaccent" unicode="&#x13c;" horiz-adv-x="448" 
d="M141 0v1536h166v-1536h-166zM98 -451l49 326h189l-125 -326h-113z" />
    <glyph glyph-name="Lcaron" unicode="&#x13d;" horiz-adv-x="796" 
d="M305 1720l-229 299h162l137 -188l135 188h162l-230 -299h-137zM348 1536v-1364h408v-172h-580v1536h172z" />
    <glyph glyph-name="lcaron" unicode="&#x13e;" horiz-adv-x="901" 
d="M141 0v1536h166v-1536h-166zM500 1077l82 459h163l-81 -459h-164z" />
    <glyph glyph-name="Ldot" unicode="&#x13f;" horiz-adv-x="794" 
d="M348 1536v-1364h408v-172h-580v1536h172zM489 647v246h158v-246h-158z" />
    <glyph glyph-name="ldot" unicode="&#x140;" horiz-adv-x="753" 
d="M141 0v1536h166v-1536h-166zM455 645v246h157v-246h-157z" />
    <glyph glyph-name="Lslash" unicode="&#x141;" horiz-adv-x="796" 
d="M348 172h408v-172h-580v659l-203 -71v157l203 72v719h172v-657l201 71v-157l-201 -72v-549z" />
    <glyph glyph-name="lslash" unicode="&#x142;" horiz-adv-x="448" 
d="M485 920v-166l-178 -47v-707h-166v664l-176 -48v164l176 47v709h166v-664z" />
    <glyph glyph-name="Nacute" unicode="&#x143;" horiz-adv-x="1075" 
d="M782 2019l-182 -352h-127l135 352h174zM735 1536h164v-1536h-145l-414 1087v-1087h-164v1536h146l413 -1087v1087z" />
    <glyph glyph-name="nacute" unicode="&#x144;" 
d="M731 1597l-182 -352h-127l135 352h174zM528 1139q139 0 221 -97t82 -260v-782h-163v782q0 87 -49 140t-132 53t-131.5 -53t-48.5 -140v-782h-166v1114h166v-76q78 101 221 101z" />
    <glyph glyph-name="Ncommaaccent" unicode="&#x145;" horiz-adv-x="1075" 
d="M735 1536h164v-1536h-145l-414 1087v-1087h-164v1536h146l413 -1087v1087zM412 -451l49 326h188l-125 -326h-112z" />
    <glyph glyph-name="ncommaaccent" unicode="&#x146;" 
d="M528 1139q139 0 221 -97t82 -260v-782h-163v782q0 87 -49 140t-132 53t-131.5 -53t-48.5 -140v-782h-166v1114h166v-76q78 101 221 101zM360 -451l50 326h188l-125 -326h-113z" />
    <glyph glyph-name="Ncaron" unicode="&#x147;" horiz-adv-x="1075" 
d="M606 1720h-137l-229 299h161l138 -188l135 188h162zM735 1536h164v-1536h-145l-414 1087v-1087h-164v1536h146l413 -1087v1087z" />
    <glyph glyph-name="ncaron" unicode="&#x148;" 
d="M555 1298h-137l-230 299h162l137 -188l136 188h161zM528 1139q139 0 221 -97t82 -260v-782h-163v782q0 87 -49 140t-132 53t-131.5 -53t-48.5 -140v-782h-166v1114h166v-76q78 101 221 101z" />
    <glyph glyph-name="napostrophe" unicode="&#x149;" horiz-adv-x="1333" 
d="M156 1253v283h172v-283l-54 -176h-102l53 176h-69zM901 1139q139 0 221 -97t82 -260v-782h-164v782q0 87 -48.5 140t-131.5 53t-131.5 -53t-48.5 -140v-782h-166v1114h166v-76q78 101 221 101z" />
    <glyph glyph-name="Omacron" unicode="&#x14c;" horiz-adv-x="1038" 
d="M291 1831h452v-129h-452v129zM518 -33q-165 0 -264.5 104t-99.5 275v844q0 171 99.5 275t264.5 104q166 0 266.5 -104.5t100.5 -274.5v-844q0 -170 -100.5 -274.5t-266.5 -104.5zM518 139q89 0 142 56.5t53 150.5v844q0 94 -53 150.5t-142 56.5q-88 0 -140 -56.5
t-52 -150.5v-844q0 -94 52 -150.5t140 -56.5z" />
    <glyph glyph-name="omacron" unicode="&#x14d;" horiz-adv-x="923" 
d="M236 1409h452v-129h-452v129zM463 -25q-158 0 -256 100.5t-98 264.5v436q0 163 98 263t256 100q157 0 253.5 -100t96.5 -263v-436q0 -164 -96.5 -264.5t-253.5 -100.5zM463 139q85 0 134.5 53t49.5 140v450q0 87 -49.5 140t-134.5 53q-87 0 -138 -53t-51 -140v-450
q0 -87 51 -140t138 -53z" />
    <glyph glyph-name="Obreve" unicode="&#x14e;" horiz-adv-x="1038" 
d="M518 1778q-101 0 -166 61t-65 160v20h119v-20q0 -52 32 -83.5t80 -31.5t79.5 31.5t31.5 83.5v20h116v-20q0 -99 -63.5 -160t-163.5 -61zM518 -33q-165 0 -264.5 104t-99.5 275v844q0 171 99.5 275t264.5 104q166 0 266.5 -104.5t100.5 -274.5v-844q0 -170 -100.5 -274.5
t-266.5 -104.5zM518 139q89 0 142 56.5t53 150.5v844q0 94 -53 150.5t-142 56.5q-88 0 -140 -56.5t-52 -150.5v-844q0 -94 52 -150.5t140 -56.5z" />
    <glyph glyph-name="obreve" unicode="&#x14f;" horiz-adv-x="923" 
d="M463 1356q-101 0 -166.5 61t-65.5 160v20h119v-20q0 -51 32.5 -83t80.5 -32t79 31.5t31 83.5v20h117v-20q0 -99 -63.5 -160t-163.5 -61zM463 -25q-158 0 -256 100.5t-98 264.5v436q0 163 98 263t256 100q157 0 253.5 -100t96.5 -263v-436q0 -164 -96.5 -264.5
t-253.5 -100.5zM463 139q85 0 134.5 53t49.5 140v450q0 87 -49.5 140t-134.5 53q-87 0 -138 -53t-51 -140v-450q0 -87 51 -140t138 -53z" />
    <glyph glyph-name="Ohungarumlaut" unicode="&#x150;" horiz-adv-x="1038" 
d="M293 1667l135 352h174l-182 -352h-127zM600 1667l135 352h174l-182 -352h-127zM518 -33q-165 0 -264.5 104t-99.5 275v844q0 171 99.5 275t264.5 104q166 0 266.5 -104.5t100.5 -274.5v-844q0 -170 -100.5 -274.5t-266.5 -104.5zM518 139q89 0 142 56.5t53 150.5v844
q0 94 -53 150.5t-142 56.5q-88 0 -140 -56.5t-52 -150.5v-844q0 -94 52 -150.5t140 -56.5z" />
    <glyph glyph-name="ohungarumlaut" unicode="&#x151;" horiz-adv-x="923" 
d="M238 1245l135 352h174l-182 -352h-127zM545 1245l135 352h174l-182 -352h-127zM463 -25q-158 0 -256 100.5t-98 264.5v436q0 163 98 263t256 100q157 0 253.5 -100t96.5 -263v-436q0 -164 -96.5 -264.5t-253.5 -100.5zM463 139q85 0 134.5 53t49.5 140v450
q0 87 -49.5 140t-134.5 53q-87 0 -138 -53t-51 -140v-450q0 -87 51 -140t138 -53z" />
    <glyph glyph-name="OE" unicode="&#x152;" horiz-adv-x="1488" 
d="M518 -33q-165 0 -264.5 104t-99.5 275v844q0 171 99.5 275t264.5 104q161 0 262 -101v68h623v-172h-451v-504h396v-172h-396v-516h451v-172h-623v68q-101 -101 -262 -101zM518 139q89 0 142 56.5t53 150.5v844q0 94 -53 150.5t-142 56.5q-88 0 -140 -56.5t-52 -150.5
v-844q0 -94 52 -150.5t140 -56.5z" />
    <glyph glyph-name="oe" unicode="&#x153;" horiz-adv-x="1454" 
d="M1352 528h-539v-196q0 -87 51 -140t137 -53t136.5 53t50.5 140v28h164v-20q0 -164 -97 -264.5t-254 -100.5q-174 0 -270 119q-96 -119 -268 -119q-158 0 -256 100.5t-98 264.5v436q0 163 98 263t256 100q172 0 268 -119q96 119 270 119q157 0 254 -100t97 -263v-248z
M647 332v450q0 87 -49.5 140t-134.5 53q-87 0 -138 -53t-51 -140v-450q0 -87 51 -140t138 -53q85 0 134.5 53t49.5 140zM813 782v-98h375v98q0 87 -50.5 140t-136.5 53t-137 -53t-51 -140z" />
    <glyph glyph-name="Racute" unicode="&#x154;" horiz-adv-x="1044" 
d="M766 2019l-182 -352h-127l135 352h174zM895 971q0 -187 -125 -285q125 -77 125 -235v-451h-172v451q0 75 -46 120t-122 45h-207v-616h-172v1536h379q154 0 247 -97t93 -255v-213zM555 788q76 0 122 50.5t46 132.5v213q0 82 -46 131t-122 49h-207v-576h207z" />
    <glyph glyph-name="racute" unicode="&#x155;" horiz-adv-x="583" 
d="M606 1597l-182 -352h-127l135 352h174zM307 1028q76 98 221 98h50v-163h-91q-83 0 -131.5 -50.5t-48.5 -138.5v-774h-166v1114h166v-86z" />
    <glyph glyph-name="Rcommaaccent" unicode="&#x156;" horiz-adv-x="1044" 
d="M895 971q0 -187 -125 -285q125 -77 125 -235v-451h-172v451q0 75 -46 120t-122 45h-207v-616h-172v1536h379q154 0 247 -97t93 -255v-213zM555 788q76 0 122 50.5t46 132.5v213q0 82 -46 131t-122 49h-207v-576h207zM395 -451l49 326h189l-125 -326h-113z" />
    <glyph glyph-name="rcommaaccent" unicode="&#x157;" horiz-adv-x="583" 
d="M528 1126h50v-163h-91q-83 0 -131.5 -50.5t-48.5 -138.5v-774h-166v1114h166v-86q76 98 221 98zM96 -451l49 326h189l-125 -326h-113z" />
    <glyph glyph-name="Rcaron" unicode="&#x158;" horiz-adv-x="1044" 
d="M590 1720h-137l-230 299h162l137 -188l135 188h162zM895 971q0 -187 -125 -285q125 -77 125 -235v-451h-172v451q0 75 -46 120t-122 45h-207v-616h-172v1536h379q154 0 247 -97t93 -255v-213zM555 788q76 0 122 50.5t46 132.5v213q0 82 -46 131t-122 49h-207v-576h207z
" />
    <glyph glyph-name="rcaron" unicode="&#x159;" horiz-adv-x="583" 
d="M430 1298h-137l-230 299h162l137 -188l136 188h161zM307 1028q76 98 221 98h50v-163h-91q-83 0 -131.5 -50.5t-48.5 -138.5v-774h-166v1114h166v-86z" />
    <glyph glyph-name="Sacute" unicode="&#x15a;" horiz-adv-x="964" 
d="M418 1667l135 352h174l-182 -352h-127zM483 -33q-165 0 -265.5 104t-100.5 275v55h172v-55q0 -94 52.5 -150.5t141.5 -56.5q88 0 141.5 56.5t53.5 150.5v121q0 94 -53.5 150.5t-141.5 56.5q-165 0 -265.5 104t-100.5 275v137q0 171 100.5 275t265.5 104
q166 0 266.5 -104.5t100.5 -274.5v-55h-172v55q0 94 -53.5 150.5t-141.5 56.5q-89 0 -141.5 -56.5t-52.5 -150.5v-137q0 -93 52.5 -150t141.5 -57q166 0 266.5 -104.5t100.5 -274.5v-121q0 -170 -100.5 -274.5t-266.5 -104.5z" />
    <glyph glyph-name="sacute" unicode="&#x15b;" horiz-adv-x="866" 
d="M369 1245l135 352h174l-182 -352h-127zM438 -25q-158 0 -254 93t-96 247v35h166v-43q0 -75 50.5 -121.5t133.5 -46.5q81 0 128.5 46.5t47.5 121.5q0 76 -48.5 124t-129.5 48q-158 0 -253 90t-95 238q0 150 95 241t253 91q155 0 249.5 -93t94.5 -247v-33h-166v41
q0 77 -48 122.5t-130 45.5q-84 0 -133 -46.5t-49 -121.5q0 -77 49 -124.5t133 -47.5q155 0 249.5 -90t94.5 -238q0 -150 -93.5 -241t-248.5 -91z" />
    <glyph glyph-name="Scircumflex" unicode="&#x15c;" horiz-adv-x="964" 
d="M184 1720l230 299h137l229 -299h-162l-135 189l-137 -189h-162zM483 -33q-165 0 -265.5 104t-100.5 275v55h172v-55q0 -94 52.5 -150.5t141.5 -56.5q88 0 141.5 56.5t53.5 150.5v121q0 94 -53.5 150.5t-141.5 56.5q-165 0 -265.5 104t-100.5 275v137q0 171 100.5 275
t265.5 104q166 0 266.5 -104.5t100.5 -274.5v-55h-172v55q0 94 -53.5 150.5t-141.5 56.5q-89 0 -141.5 -56.5t-52.5 -150.5v-137q0 -93 52.5 -150t141.5 -57q166 0 266.5 -104.5t100.5 -274.5v-121q0 -170 -100.5 -274.5t-266.5 -104.5z" />
    <glyph glyph-name="scircumflex" unicode="&#x15d;" horiz-adv-x="866" 
d="M135 1298l230 299h137l229 -299h-162l-135 189l-137 -189h-162zM438 -25q-158 0 -254 93t-96 247v35h166v-43q0 -75 50.5 -121.5t133.5 -46.5q81 0 128.5 46.5t47.5 121.5q0 76 -48.5 124t-129.5 48q-158 0 -253 90t-95 238q0 150 95 241t253 91q155 0 249.5 -93
t94.5 -247v-33h-166v41q0 77 -48 122.5t-130 45.5q-84 0 -133 -46.5t-49 -121.5q0 -77 49 -124.5t133 -47.5q155 0 249.5 -90t94.5 -238q0 -150 -93.5 -241t-248.5 -91z" />
    <glyph glyph-name="Scedilla" unicode="&#x15e;" horiz-adv-x="964" 
d="M850 1135h-172v55q0 94 -53.5 150.5t-141.5 56.5q-89 0 -141.5 -56.5t-52.5 -150.5v-137q0 -93 52.5 -150t141.5 -57q166 0 266.5 -104.5t100.5 -274.5v-121q0 -151 -79.5 -251t-215.5 -122v-69q91 10 150 -43.5t59 -130.5q0 -86 -55 -138.5t-146 -52.5h-139v125h139
q32 0 53 18.5t21 47.5t-21 48t-53 19h-78l-57 37v137q-143 17 -227 118.5t-84 256.5v55h172v-55q0 -94 52.5 -150.5t141.5 -56.5q88 0 141.5 56.5t53.5 150.5v121q0 94 -53.5 150.5t-141.5 56.5q-165 0 -265.5 104t-100.5 275v137q0 171 100.5 275t265.5 104
q166 0 266.5 -104.5t100.5 -274.5v-55z" />
    <glyph glyph-name="scedilla" unicode="&#x15f;" horiz-adv-x="866" 
d="M780 766h-166v41q0 77 -48 122.5t-130 45.5q-84 0 -133 -46.5t-49 -121.5q0 -77 49 -124.5t133 -47.5q155 0 249.5 -90t94.5 -238q0 -132 -74 -219.5t-200 -107.5v-76q91 10 150 -43.5t59 -130.5q0 -86 -55 -138.5t-146 -52.5h-139v125h139q32 0 53 18.5t21 47.5t-21 48
t-53 19h-78l-57 37v146q-134 17 -212.5 107t-78.5 228v35h166v-43q0 -75 50.5 -121.5t133.5 -46.5q81 0 128.5 46.5t47.5 121.5q0 76 -48.5 124t-129.5 48q-158 0 -253 90t-95 238q0 150 95 241t253 91q155 0 249.5 -93t94.5 -247v-33z" />
    <glyph glyph-name="Scaron" unicode="&#x160;" horiz-adv-x="964" 
d="M414 1720l-230 299h162l137 -188l135 188h162l-229 -299h-137zM483 -33q-165 0 -265.5 104t-100.5 275v55h172v-55q0 -94 52.5 -150.5t141.5 -56.5q88 0 141.5 56.5t53.5 150.5v121q0 94 -53.5 150.5t-141.5 56.5q-165 0 -265.5 104t-100.5 275v137q0 171 100.5 275
t265.5 104q166 0 266.5 -104.5t100.5 -274.5v-55h-172v55q0 94 -53.5 150.5t-141.5 56.5q-89 0 -141.5 -56.5t-52.5 -150.5v-137q0 -93 52.5 -150t141.5 -57q166 0 266.5 -104.5t100.5 -274.5v-121q0 -170 -100.5 -274.5t-266.5 -104.5z" />
    <glyph glyph-name="scaron" unicode="&#x161;" horiz-adv-x="866" 
d="M365 1298l-230 299h162l137 -188l135 188h162l-229 -299h-137zM438 -25q-158 0 -254 93t-96 247v35h166v-43q0 -75 50.5 -121.5t133.5 -46.5q81 0 128.5 46.5t47.5 121.5q0 76 -48.5 124t-129.5 48q-158 0 -253 90t-95 238q0 150 95 241t253 91q155 0 249.5 -93
t94.5 -247v-33h-166v41q0 77 -48 122.5t-130 45.5q-84 0 -133 -46.5t-49 -121.5q0 -77 49 -124.5t133 -47.5q155 0 249.5 -90t94.5 -238q0 -150 -93.5 -241t-248.5 -91z" />
    <glyph glyph-name="uni0162" unicode="&#x162;" horiz-adv-x="759" 
d="M467 0h-21v-96q91 10 150 -43.5t59 -130.5q0 -86 -54.5 -138.5t-145.5 -52.5h-140v125h140q32 0 52.5 18.5t20.5 47.5t-20.5 48t-52.5 19h-78l-58 37v166h-24v1364h-258v172h688v-172h-258v-1364z" />
    <glyph glyph-name="uni0163" unicode="&#x163;" horiz-adv-x="684" 
d="M565 -96q91 10 150 -43.5t59 -130.5q0 -86 -55 -138.5t-146 -52.5h-139v125h139q32 0 53 18.5t21 47.5t-21 48t-53 19h-77l-58 37v170q-108 34 -169.5 126t-61.5 226v605h-197v153h197v279h164v-279h268v-153h-268v-605q0 -93 51 -148.5t137 -55.5h80v-164h-74v-84z" />
    <glyph glyph-name="Tcaron" unicode="&#x164;" horiz-adv-x="759" 
d="M311 1720l-229 299h162l137 -188l135 188h162l-229 -299h-138zM295 0v1364h-258v172h688v-172h-258v-1364h-172z" />
    <glyph glyph-name="tcaron" unicode="&#x165;" horiz-adv-x="1148" 
d="M748 1077l81 459h164l-82 -459h-163zM559 -12q-160 0 -256 99.5t-96 268.5v605h-197v153h197v279h164v-279h268v-153h-268v-605q0 -93 51 -148.5t137 -55.5h80v-164h-80z" />
    <glyph glyph-name="Tbar" unicode="&#x166;" horiz-adv-x="759" 
d="M725 1364h-258v-524h156v-144h-156v-696h-172v696h-158v144h158v524h-258v172h688v-172z" />
    <glyph glyph-name="tbar" unicode="&#x167;" horiz-adv-x="684" 
d="M647 481h-276v-125q0 -93 51 -148.5t137 -55.5h80v-164h-80q-160 0 -256 99.5t-96 268.5v125h-174v154h174v326h-197v153h197v279h164v-279h268v-153h-268v-326h276v-154z" />
    <glyph glyph-name="Utilde" unicode="&#x168;" horiz-adv-x="1062" 
d="M662 1710q-67 0 -136 49q-7 5 -25 19t-25 18.5t-19.5 10t-22.5 5.5q-20 0 -29.5 -15.5t-9.5 -37.5v-39h-133v47q0 75 37 115.5t96 40.5q71 0 140 -51q4 -3 13.5 -11t13.5 -11t11.5 -9t12.5 -8.5l12 -6t13.5 -4.5t13.5 -1q19 0 29 16.5t10 38.5v43h131v-55q0 -74 -37 -114
t-96 -40zM897 1536v-1190q0 -170 -100.5 -274.5t-266.5 -104.5q-165 0 -264.5 104t-99.5 275v1190h172v-1190q0 -94 52 -150.5t140 -56.5q89 0 142 56.5t53 150.5v1190h172z" />
    <glyph glyph-name="utilde" unicode="&#x169;" 
d="M336 1337v-39h-133v48q0 75 37 115t96 40q70 0 139 -51q4 -3 13.5 -11t13.5 -11t11.5 -9t12.5 -8.5l12 -6t13.5 -4.5t13.5 -1q19 0 29 16.5t10 38.5v43h131v-55q0 -74 -37 -114t-96 -40q-30 0 -56 8t-41.5 16.5t-37.5 24.5q-8 6 -25 19t-25 18.5t-20 11t-22 5.5
q-20 0 -29.5 -16t-9.5 -38zM655 1114h164v-1114h-164v74q-80 -99 -221 -99q-137 0 -221 91t-84 264v784h164v-784q0 -86 49 -138.5t131 -52.5q83 0 132.5 52t49.5 139v784z" />
    <glyph glyph-name="Umacron" unicode="&#x16a;" horiz-adv-x="1062" 
d="M305 1831h453v-129h-453v129zM897 1536v-1190q0 -170 -100.5 -274.5t-266.5 -104.5q-165 0 -264.5 104t-99.5 275v1190h172v-1190q0 -94 52 -150.5t140 -56.5q89 0 142 56.5t53 150.5v1190h172z" />
    <glyph glyph-name="umacron" unicode="&#x16b;" 
d="M698 1409v-129h-452v129h452zM655 1114h164v-1114h-164v74q-80 -99 -221 -99q-137 0 -221 91t-84 264v784h164v-784q0 -86 49 -138.5t131 -52.5q83 0 132.5 52t49.5 139v784z" />
    <glyph glyph-name="Ubreve" unicode="&#x16c;" horiz-adv-x="1062" 
d="M532 1778q-101 0 -166 61t-65 160v20h119v-20q0 -52 32 -83.5t80 -31.5t79.5 31.5t31.5 83.5v20h117v-20q0 -99 -63.5 -160t-164.5 -61zM897 1536v-1190q0 -170 -100.5 -274.5t-266.5 -104.5q-165 0 -264.5 104t-99.5 275v1190h172v-1190q0 -94 52 -150.5t140 -56.5
q89 0 142 56.5t53 150.5v1190h172z" />
    <glyph glyph-name="ubreve" unicode="&#x16d;" 
d="M473 1356q-101 0 -166 61t-65 160v20h118v-20q0 -51 32.5 -83t80.5 -32t79.5 31.5t31.5 83.5v20h116v-20q0 -99 -63.5 -160t-163.5 -61zM655 1114h164v-1114h-164v74q-80 -99 -221 -99q-137 0 -221 91t-84 264v784h164v-784q0 -86 49 -138.5t131 -52.5q83 0 132.5 52
t49.5 139v784z" />
    <glyph glyph-name="Uring" unicode="&#x16e;" horiz-adv-x="1062" 
d="M532 1595q-79 0 -135.5 54.5t-56.5 138.5t56.5 138t135.5 54q80 0 136.5 -54t56.5 -138t-56.5 -138.5t-136.5 -54.5zM532 1704q34 0 60 23.5t26 60.5t-26 60.5t-60 23.5q-32 0 -57.5 -23.5t-25.5 -60.5t25.5 -60.5t57.5 -23.5zM897 1536v-1190q0 -170 -100.5 -274.5
t-266.5 -104.5q-165 0 -264.5 104t-99.5 275v1190h172v-1190q0 -94 52 -150.5t140 -56.5q89 0 142 56.5t53 150.5v1190h172z" />
    <glyph glyph-name="uring" unicode="&#x16f;" 
d="M473 1174q-79 0 -135.5 54t-56.5 138t56.5 138.5t135.5 54.5q80 0 136.5 -54.5t56.5 -138.5t-56.5 -138t-136.5 -54zM473 1450q-33 0 -58.5 -23.5t-25.5 -60.5t25.5 -60.5t58.5 -23.5q34 0 60 23.5t26 60.5t-26 60.5t-60 23.5zM655 1114h164v-1114h-164v74
q-80 -99 -221 -99q-137 0 -221 91t-84 264v784h164v-784q0 -86 49 -138.5t131 -52.5q83 0 132.5 52t49.5 139v784z" />
    <glyph glyph-name="Uhungarumlaut" unicode="&#x170;" horiz-adv-x="1062" 
d="M307 1667l135 352h174l-182 -352h-127zM614 1667l136 352h174l-183 -352h-127zM897 1536v-1190q0 -170 -100.5 -274.5t-266.5 -104.5q-165 0 -264.5 104t-99.5 275v1190h172v-1190q0 -94 52 -150.5t140 -56.5q89 0 142 56.5t53 150.5v1190h172z" />
    <glyph glyph-name="uhungarumlaut" unicode="&#x171;" 
d="M557 1597l-182 -352h-127l135 352h174zM682 1245h-127l135 352h174zM655 330v784h164v-1114h-164v74q-80 -99 -221 -99q-137 0 -221 91t-84 264v784h164v-784q0 -86 49 -138.5t131 -52.5q83 0 132.5 52t49.5 139z" />
    <glyph glyph-name="Uogonek" unicode="&#x172;" horiz-adv-x="1062" 
d="M725 1536h172v-1190q0 -161 -89.5 -264t-240.5 -113q-86 -83 -86 -172q0 -48 34.5 -77t96.5 -29h31v-127h-39q-118 0 -185 56.5t-67 150.5q0 113 97 204q-131 25 -207 124.5t-76 246.5v1190h172v-1190q0 -94 52 -150.5t140 -56.5q89 0 142 56.5t53 150.5v1190z" />
    <glyph glyph-name="uogonek" unicode="&#x173;" 
d="M766 0q-121 -98 -121 -203q0 -48 34.5 -77t96.5 -29h31v-127h-39q-118 0 -185 56.5t-67 150.5q0 133 139 241v62q-80 -99 -221 -99q-137 0 -221 91t-84 264v784h164v-784q0 -86 49 -138.5t131 -52.5q83 0 132.5 52t49.5 139v784h164v-1114h-53z" />
    <glyph glyph-name="Wcircumflex" unicode="&#x174;" horiz-adv-x="1339" 
d="M672 1909l-137 -189h-162l229 299h137l230 -299h-162zM1087 1536h177l-211 -1536h-185l-196 1063l-201 -1063h-184l-211 1536h176l147 -1149l195 1149h151l195 -1149z" />
    <glyph glyph-name="wcircumflex" unicode="&#x175;" horiz-adv-x="1144" 
d="M573 1487l-137 -189h-162l230 299h137l229 -299h-161zM922 1114h172l-181 -1114h-182l-158 762l-159 -762h-183l-180 1114h170l111 -852l164 852h153l164 -852z" />
    <glyph glyph-name="Ycircumflex" unicode="&#x176;" 
d="M481 1909l-137 -189h-162l230 299h137l229 -299h-162zM756 1536h176l-365 -762v-774h-172v774l-366 762h176l276 -584z" />
    <glyph glyph-name="ycircumflex" unicode="&#x177;" horiz-adv-x="858" 
d="M430 1487l-137 -189h-162l229 299h138l229 -299h-162zM659 1114h181l-424 -1483h-176l100 349l-322 1134h181l231 -848z" />
    <glyph glyph-name="Ydieresis" unicode="&#x178;" 
d="M414 2019v-239h-148v239h148zM705 2019v-239h-146v239h146zM756 1536h176l-365 -762v-774h-172v774l-366 762h176l276 -584z" />
    <glyph glyph-name="Zacute" unicode="&#x179;" horiz-adv-x="864" 
d="M676 2019l-182 -352h-127l135 352h174zM795 1536v-131l-539 -1233h539v-172h-723v131l536 1233h-536v172h723z" />
    <glyph glyph-name="zacute" unicode="&#x17a;" horiz-adv-x="782" 
d="M637 1597l-182 -352h-127l135 352h174zM733 1114v-129l-475 -821h463v-164h-672v129l483 819h-473v166h674z" />
    <glyph glyph-name="Zdotaccent" unicode="&#x17b;" horiz-adv-x="864" 
d="M506 1958v-240h-148v240h148zM795 1536v-131l-539 -1233h539v-172h-723v131l536 1233h-536v172h723z" />
    <glyph glyph-name="zdotaccent" unicode="&#x17c;" horiz-adv-x="782" 
d="M467 1536v-240h-148v240h148zM733 1114v-129l-475 -821h463v-164h-672v129l483 819h-473v166h674z" />
    <glyph glyph-name="Zcaron" unicode="&#x17d;" horiz-adv-x="864" 
d="M500 1720h-138l-229 299h162l137 -188l135 188h162zM795 1536v-131l-539 -1233h539v-172h-723v131l536 1233h-536v172h723z" />
    <glyph glyph-name="zcaron" unicode="&#x17e;" horiz-adv-x="782" 
d="M461 1298h-137l-230 299h162l137 -188l135 188h162zM733 1114v-129l-475 -821h463v-164h-672v129l483 819h-473v166h674z" />
    <glyph glyph-name="longs" unicode="&#x17f;" horiz-adv-x="575" 
d="M215 0v958h-207v156h207v72q0 164 97 267t257 103h82v-163h-82q-87 0 -138.5 -57t-51.5 -150v-1186h-164z" />
    <glyph glyph-name="florin" unicode="&#x192;" horiz-adv-x="1099" 
d="M82 -369v164h100q85 0 142.5 57.5t66.5 149.5l78 752h-205v155h223l29 277q15 163 119.5 266.5t255.5 103.5h100v-163h-100q-86 0 -144 -57t-67 -150l-29 -277h340v-155h-356l-80 -752q-17 -164 -120.5 -267.5t-252.5 -103.5h-100z" />
    <glyph glyph-name="Scommaaccent" unicode="&#x218;" horiz-adv-x="964" 
d="M483 -33q-165 0 -265.5 104t-100.5 275v55h172v-55q0 -94 52.5 -150.5t141.5 -56.5q88 0 141.5 56.5t53.5 150.5v121q0 94 -53.5 150.5t-141.5 56.5q-165 0 -265.5 104t-100.5 275v137q0 171 100.5 275t265.5 104q166 0 266.5 -104.5t100.5 -274.5v-55h-172v55
q0 94 -53.5 150.5t-141.5 56.5q-89 0 -141.5 -56.5t-52.5 -150.5v-137q0 -93 52.5 -150t141.5 -57q166 0 266.5 -104.5t100.5 -274.5v-121q0 -170 -100.5 -274.5t-266.5 -104.5zM356 -451l50 326h188l-125 -326h-113z" />
    <glyph glyph-name="scommaaccent" unicode="&#x219;" horiz-adv-x="866" 
d="M438 -25q-158 0 -254 93t-96 247v35h166v-43q0 -75 50.5 -121.5t133.5 -46.5q81 0 128.5 46.5t47.5 121.5q0 76 -48.5 124t-129.5 48q-158 0 -253 90t-95 238q0 150 95 241t253 91q155 0 249.5 -93t94.5 -247v-33h-166v41q0 77 -48 122.5t-130 45.5q-84 0 -133 -46.5
t-49 -121.5q0 -77 49 -124.5t133 -47.5q155 0 249.5 -90t94.5 -238q0 -150 -93.5 -241t-248.5 -91zM307 -451l49 326h189l-125 -326h-113z" />
    <glyph glyph-name="uni021A" unicode="&#x21a;" horiz-adv-x="759" 
d="M295 0v1364h-258v172h688v-172h-258v-1364h-172zM248 -451l49 326h188l-125 -326h-112z" />
    <glyph glyph-name="uni021B" unicode="&#x21b;" horiz-adv-x="684" 
d="M559 -12q-160 0 -256 99.5t-96 268.5v605h-197v153h197v279h164v-279h268v-153h-268v-605q0 -93 51 -148.5t137 -55.5h80v-164h-80zM367 -451l49 326h188l-125 -326h-112z" />
    <glyph glyph-name="uni0237" unicode="&#x237;" horiz-adv-x="448" 
d="M-111 -375v164h66q84 0 135 57t51 150v1118h166v-1110q0 -171 -96.5 -275t-255.5 -104h-66z" />
    <glyph glyph-name="circumflex" unicode="&#x2c6;" horiz-adv-x="671" 
d="M37 1298l229 299h137l230 -299h-162l-135 189l-137 -189h-162z" />
    <glyph glyph-name="caron" unicode="&#x2c7;" horiz-adv-x="671" 
d="M266 1298l-229 299h162l137 -188l135 188h162l-230 -299h-137z" />
    <glyph glyph-name="uni02C9" unicode="&#x2c9;" horiz-adv-x="737" 
d="M141 1536h453v-129h-453v129z" />
    <glyph glyph-name="breve" unicode="&#x2d8;" horiz-adv-x="663" 
d="M332 1356q-101 0 -166.5 61t-65.5 160v20h119v-20q0 -51 32.5 -83t80.5 -32t79 31.5t31 83.5v20h117v-20q0 -99 -63.5 -160t-163.5 -61z" />
    <glyph glyph-name="dotaccent" unicode="&#x2d9;" horiz-adv-x="430" 
d="M141 1296v240h148v-240h-148z" />
    <glyph glyph-name="ring" unicode="&#x2da;" horiz-adv-x="595" 
d="M297 1212q-79 0 -136 54.5t-57 138.5t57 138t136 54q80 0 136 -54t56 -138t-56 -138.5t-136 -54.5zM297 1321q34 0 60 23.5t26 60.5t-26 60.5t-60 23.5q-33 0 -58.5 -23.5t-25.5 -60.5t25.5 -60.5t58.5 -23.5z" />
    <glyph glyph-name="ogonek" unicode="&#x2db;" horiz-adv-x="456" 
d="M340 -436q-118 0 -185 56.5t-67 150.5q0 88 53.5 157.5t163.5 134.5h33v-63q-121 -98 -121 -203q0 -48 34.5 -77t96.5 -29h31v-127h-39z" />
    <glyph glyph-name="tilde" unicode="&#x2dc;" horiz-adv-x="782" 
d="M524 1384q-29 0 -56 8t-42 17t-37 25q-7 5 -25 19t-25 18.5t-19.5 10t-22.5 5.5q-20 0 -29.5 -15.5t-9.5 -37.5v-39h-133v47q0 75 37 115t96 40q70 0 139 -51q4 -3 13.5 -11t13.5 -11t11.5 -9t12.5 -8.5l12 -6t13.5 -4.5t13.5 -1q19 0 29 16.5t10 38.5v43h131v-55
q0 -74 -37 -114t-96 -40z" />
    <glyph glyph-name="hungarumlaut" unicode="&#x2dd;" horiz-adv-x="743" 
d="M74 1245l135 352h174l-182 -352h-127zM381 1245l135 352h174l-182 -352h-127z" />
    <glyph glyph-name="uni0326" unicode="&#x326;" horiz-adv-x="0" 
d="M-317 -451l49 326h188l-125 -326h-112z" />
    <glyph glyph-name="uni0394" unicode="&#x394;" horiz-adv-x="940" 
d="M51 0l328 1536h184l326 -1536h-838zM260 172h420l-209 1038z" />
    <glyph glyph-name="uni03A9" unicode="&#x3a9;" horiz-adv-x="1222" 
d="M987 172h166v-172h-481v172q89 0 141.5 56.5t52.5 150.5v749q0 121 -70 195t-186 74q-114 0 -184 -74t-70 -195v-749q0 -94 52.5 -150.5t140.5 -56.5v-172h-481v172h168q-52 93 -52 207v749q0 198 117 319.5t309 121.5q193 0 310.5 -121.5t117.5 -319.5v-749
q0 -116 -51 -207z" />
    <glyph glyph-name="pi" unicode="&#x3c0;" horiz-adv-x="1085" 
d="M977 -12q-160 0 -256 99.5t-96 268.5v605h-254v-961h-164v961h-197v153h1030v-153h-252v-605q0 -92 51.5 -148t137.5 -56h63v-164h-63z" />
    <glyph glyph-name="Wgrave" unicode="&#x1e80;" horiz-adv-x="1339" 
d="M739 1667h-127l-184 352h176zM1087 1536h177l-211 -1536h-185l-196 1063l-201 -1063h-184l-211 1536h176l147 -1149l195 1149h151l195 -1149z" />
    <glyph glyph-name="wgrave" unicode="&#x1e81;" horiz-adv-x="1144" 
d="M641 1245h-127l-184 352h176zM922 1114h172l-181 -1114h-182l-158 762l-159 -762h-183l-180 1114h170l111 -852l164 852h153l164 -852z" />
    <glyph glyph-name="Wacute" unicode="&#x1e82;" horiz-adv-x="1339" 
d="M915 2019l-182 -352h-127l135 352h174zM1087 1536h177l-211 -1536h-185l-196 1063l-201 -1063h-184l-211 1536h176l147 -1149l195 1149h151l195 -1149z" />
    <glyph glyph-name="wacute" unicode="&#x1e83;" horiz-adv-x="1144" 
d="M817 1597l-182 -352h-127l135 352h174zM922 1114h172l-181 -1114h-182l-158 762l-159 -762h-183l-180 1114h170l111 -852l164 852h153l164 -852z" />
    <glyph glyph-name="Wdieresis" unicode="&#x1e84;" horiz-adv-x="1339" 
d="M604 2019v-239h-147v239h147zM895 2019v-239h-145v239h145zM1087 1536h177l-211 -1536h-185l-196 1063l-201 -1063h-184l-211 1536h176l147 -1149l195 1149h151l195 -1149z" />
    <glyph glyph-name="wdieresis" unicode="&#x1e85;" horiz-adv-x="1144" 
d="M506 1597v-239h-148v239h148zM797 1597v-239h-146v239h146zM922 1114h172l-181 -1114h-182l-158 762l-159 -762h-183l-180 1114h170l111 -852l164 852h153l164 -852z" />
    <glyph glyph-name="endash" unicode="&#x2013;" horiz-adv-x="1077" 
d="M141 471v172h793v-172h-793z" />
    <glyph glyph-name="emdash" unicode="&#x2014;" horiz-adv-x="1282" 
d="M141 471v172h998v-172h-998z" />
    <glyph glyph-name="quoteleft" unicode="&#x2018;" horiz-adv-x="485" 
d="M158 1077v281l53 178h102l-53 -178h70v-281h-172z" />
    <glyph glyph-name="quoteright" unicode="&#x2019;" horiz-adv-x="485" 
d="M172 1077l53 176h-69v283h172v-283l-54 -176h-102z" />
    <glyph glyph-name="quotesinglbase" unicode="&#x201a;" horiz-adv-x="485" 
d="M172 -178l53 178h-69v283h172v-283l-54 -178h-102z" />
    <glyph glyph-name="quotedblleft" unicode="&#x201c;" horiz-adv-x="780" 
d="M158 1077v281l53 178h102l-53 -178h70v-281h-172zM453 1077v281l53 178h102l-53 -178h70v-281h-172z" />
    <glyph glyph-name="quotedblright" unicode="&#x201d;" horiz-adv-x="780" 
d="M172 1077l53 176h-69v283h172v-283l-54 -176h-102zM467 1077l53 176h-69v283h172v-283l-54 -176h-102z" />
    <glyph glyph-name="quotedblbase" unicode="&#x201e;" horiz-adv-x="780" 
d="M172 -178l53 178h-69v283h172v-283l-54 -178h-102zM467 -178l53 178h-69v283h172v-283l-54 -178h-102z" />
    <glyph glyph-name="dagger" unicode="&#x2020;" horiz-adv-x="862" 
d="M350 567v559h-252v156h252v254h162v-254h252v-156h-252v-559h-162z" />
    <glyph glyph-name="daggerdbl" unicode="&#x2021;" horiz-adv-x="952" 
d="M395 567v256h-252v154h252v149h-252v156h252v254h162v-254h252v-156h-252v-149h252v-154h-252v-256h-162z" />
    <glyph glyph-name="bullet" unicode="&#x2022;" horiz-adv-x="737" 
d="M369 344q-88 0 -150.5 62.5t-62.5 150.5q0 87 63 150t150 63t149 -63t62 -150q0 -88 -61.5 -150.5t-149.5 -62.5z" />
    <glyph glyph-name="ellipsis" unicode="&#x2026;" horiz-adv-x="1318" 
d="M197 0v256h172v-256h-172zM573 0v256h172v-256h-172zM950 0v256h172v-256h-172z" />
    <glyph glyph-name="perthousand" unicode="&#x2030;" horiz-adv-x="2072" 
d="M356 834q-113 0 -181.5 68.5t-68.5 182.5v224q0 114 69 184t181 70q111 0 179.5 -70t68.5 -184v-224q0 -113 -68.5 -182t-179.5 -69zM317 0l674 1536h146l-674 -1536h-146zM356 967q51 0 82 32.5t31 85.5v224q0 54 -31 87.5t-82 33.5q-52 0 -83 -33.5t-31 -87.5v-224
q0 -53 31 -85.5t83 -32.5zM1098 -27q-111 0 -179.5 69t-68.5 183v224q0 114 68.5 183.5t179.5 69.5q112 0 180 -69.5t68 -183.5v-224q0 -114 -68 -183t-180 -69zM1718 -27q-113 0 -181.5 69t-68.5 183v224q0 114 68.5 183.5t181.5 69.5q112 0 180 -69.5t68 -183.5v-224
q0 -114 -68 -183t-180 -69zM1098 106q51 0 81.5 33t30.5 86v224q0 54 -30.5 87t-81.5 33t-83 -33t-32 -87v-224q0 -53 32 -86t83 -33zM1718 106q51 0 82 33t31 86v224q0 54 -31 87t-82 33q-52 0 -83 -33t-31 -87v-224q0 -53 31 -86t83 -33z" />
    <glyph glyph-name="guilsinglleft" unicode="&#x2039;" horiz-adv-x="602" 
d="M504 0l-457 451v98l457 450v-200l-293 -299l293 -299v-201z" />
    <glyph glyph-name="guilsinglright" unicode="&#x203a;" horiz-adv-x="602" 
d="M98 0v201l293 299l-293 299v200l457 -450v-98z" />
    <glyph glyph-name="fraction" unicode="&#x2044;" horiz-adv-x="425" 
d="M-197 0l674 1536h146l-674 -1536h-146z" />
    <glyph glyph-name="uni2070" unicode="&#x2070;" horiz-adv-x="653" 
d="M328 1618q98 0 159.5 -63t61.5 -164v-508q0 -101 -61.5 -164.5t-159.5 -63.5q-101 0 -162.5 63t-61.5 165v508q0 102 61.5 164.5t162.5 62.5zM328 1497q-45 0 -73 -30t-28 -76v-467l158 557q-26 16 -57 16zM328 778q44 0 71 29.5t27 75.5v469l-158 -557q27 -17 60 -17z
" />
    <glyph glyph-name="uni2074" unicode="&#x2074;" horiz-adv-x="606" 
d="M348 676v182h-330v111l338 628h113v-616h80v-123h-80v-182h-121zM145 981h203v385z" />
    <glyph glyph-name="uni2075" unicode="&#x2075;" horiz-adv-x="630" 
d="M330 655q-100 0 -162 63.5t-62 164.5v39h123v-39q0 -46 28 -75.5t73 -29.5q44 0 71 29.5t27 75.5v178q0 46 -27.5 75t-74.5 29q-44 0 -70.5 -29t-26.5 -75v-12h-123v548h426v-120h-303v-232q40 43 107 43q95 0 155 -63t60 -164v-178q0 -102 -61 -165t-160 -63z" />
    <glyph glyph-name="uni2076" unicode="&#x2076;" horiz-adv-x="641" 
d="M328 655q-101 0 -162.5 63t-61.5 165v508q0 102 61.5 164.5t162.5 62.5q98 0 159.5 -63t61.5 -164v-39h-123v39q0 46 -27 76t-71 30q-45 0 -73 -30t-28 -76v-146q37 43 107 43q95 0 155 -63t60 -164v-178q0 -101 -61.5 -164.5t-159.5 -63.5zM328 778q44 0 71 29.5
t27 75.5v178q0 46 -27.5 75t-74.5 29q-45 0 -71 -28.5t-26 -75.5v-178q0 -46 28 -75.5t73 -29.5z" />
    <glyph glyph-name="uni2077" unicode="&#x2077;" horiz-adv-x="473" 
d="M86 676l233 801h-311v120h434v-110l-227 -811h-129z" />
    <glyph glyph-name="uni2078" unicode="&#x2078;" horiz-adv-x="638" 
d="M322 655q-101 0 -162.5 63t-61.5 165v98q0 106 66 166q-66 60 -66 166v78q0 102 61.5 164.5t162.5 62.5q98 0 158.5 -63t60.5 -164v-78q0 -106 -66 -166q66 -60 66 -166v-98q0 -101 -60.5 -164.5t-158.5 -63.5zM322 1208q44 0 71 29t27 76v78q0 46 -27.5 76t-70.5 30
q-45 0 -74 -30t-29 -76v-78q0 -47 28 -76t75 -29zM322 778q43 0 70.5 29.5t27.5 75.5v98q0 47 -27.5 75.5t-70.5 28.5q-46 0 -74.5 -28.5t-28.5 -75.5v-98q0 -46 28.5 -75.5t74.5 -29.5z" />
    <glyph glyph-name="uni2079" unicode="&#x2079;" horiz-adv-x="641" 
d="M315 655q-100 0 -161.5 63.5t-61.5 164.5v39h123v-39q0 -46 27.5 -75.5t72.5 -29.5q44 0 71.5 29.5t27.5 75.5v145q-37 -43 -107 -43q-95 0 -155 63t-60 164v179q0 101 61.5 164t161.5 63t161 -63t61 -164v-508q0 -102 -61.5 -165t-160.5 -63zM317 1108q45 0 71 28.5
t26 75.5v179q0 46 -27.5 76t-71.5 30q-45 0 -72.5 -30t-27.5 -76v-179q0 -46 27.5 -75t74.5 -29z" />
    <glyph glyph-name="uni2080" unicode="&#x2080;" horiz-adv-x="653" 
d="M328 881q98 0 159.5 -63.5t61.5 -164.5v-508q0 -101 -61.5 -164t-159.5 -63q-101 0 -162.5 62.5t-61.5 164.5v508q0 102 61.5 165t162.5 63zM328 760q-45 0 -73 -30.5t-28 -76.5v-467l158 557q-27 17 -57 17zM328 41q44 0 71 29t27 75v469l-158 -557q26 -16 60 -16z" />
    <glyph glyph-name="uni2081" unicode="&#x2081;" horiz-adv-x="401" 
d="M158 -61v694h-133v121h30q47 0 75 24.5t28 67.5v14h121v-921h-121z" />
    <glyph glyph-name="uni2082" unicode="&#x2082;" horiz-adv-x="579" 
d="M63 -61v108q0 66 24 124t59.5 96t77.5 76t77.5 67t59.5 66.5t24 76.5v100q0 47 -27.5 77t-72.5 30q-44 0 -71.5 -30.5t-27.5 -76.5v-39h-123v39q0 101 62 164.5t160 63.5q101 0 162 -63t61 -165v-100q0 -62 -32.5 -117t-79 -96t-92.5 -81t-78.5 -87.5t-32.5 -97.5v-13
h315v-122h-445z" />
    <glyph glyph-name="uni2083" unicode="&#x2083;" horiz-adv-x="602" 
d="M283 -82q-100 0 -162 63t-62 164v39h123v-39q0 -46 28.5 -75t72.5 -29t72 29t28 75v101q0 46 -28 75t-72 29h-82v123h82q44 0 72 29t28 76v75q0 46 -28 76.5t-72 30.5t-72.5 -30.5t-28.5 -76.5v-39h-123v39q0 101 62 164.5t162 63.5q99 0 160 -63t61 -165v-75
q0 -107 -68 -166q68 -61 68 -166v-101q0 -102 -61 -164.5t-160 -62.5z" />
    <glyph glyph-name="uni2084" unicode="&#x2084;" horiz-adv-x="606" 
d="M348 -61v182h-330v110l338 629h113v-616h80v-123h-80v-182h-121zM145 244h203v385z" />
    <glyph glyph-name="uni2085" unicode="&#x2085;" horiz-adv-x="630" 
d="M330 -82q-100 0 -162 63t-62 164v39h123v-39q0 -46 28 -75t73 -29q44 0 71 29t27 75v179q0 46 -27.5 75t-74.5 29q-44 0 -70.5 -29t-26.5 -75v-13h-123v549h426v-121h-303v-231q40 43 107 43q95 0 155 -63t60 -164v-179q0 -102 -61 -164.5t-160 -62.5z" />
    <glyph glyph-name="uni2086" unicode="&#x2086;" horiz-adv-x="641" 
d="M328 -82q-101 0 -162.5 62.5t-61.5 164.5v508q0 102 61.5 165t162.5 63q98 0 159.5 -63.5t61.5 -164.5v-39h-123v39q0 46 -27 76.5t-71 30.5q-45 0 -73 -30.5t-28 -76.5v-145q37 43 107 43q95 0 155 -63t60 -164v-179q0 -101 -61.5 -164t-159.5 -63zM328 41q44 0 71 29
t27 75v179q0 46 -27.5 75t-74.5 29q-45 0 -71 -28.5t-26 -75.5v-179q0 -46 28 -75t73 -29z" />
    <glyph glyph-name="uni2087" unicode="&#x2087;" horiz-adv-x="473" 
d="M86 -61l233 800h-311v121h434v-110l-227 -811h-129z" />
    <glyph glyph-name="uni2088" unicode="&#x2088;" horiz-adv-x="638" 
d="M322 -82q-101 0 -162.5 62.5t-61.5 164.5v99q0 106 66 166q-66 60 -66 165v78q0 102 61.5 165t162.5 63q98 0 158.5 -63.5t60.5 -164.5v-78q0 -105 -66 -165q66 -60 66 -166v-99q0 -101 -60.5 -164t-158.5 -63zM322 471q44 0 71 28.5t27 75.5v78q0 46 -27.5 76.5
t-70.5 30.5q-45 0 -74 -30.5t-29 -76.5v-78q0 -47 28 -75.5t75 -28.5zM322 41q43 0 70.5 29t27.5 75v99q0 47 -27.5 75.5t-70.5 28.5q-46 0 -74.5 -28.5t-28.5 -75.5v-99q0 -46 28.5 -75t74.5 -29z" />
    <glyph glyph-name="uni2089" unicode="&#x2089;" horiz-adv-x="641" 
d="M315 -82q-100 0 -161.5 63t-61.5 164v39h123v-39q0 -46 27.5 -75t72.5 -29q44 0 71.5 29t27.5 75v146q-37 -43 -107 -43q-95 0 -155 63t-60 164v178q0 101 61.5 164.5t161.5 63.5q99 0 160.5 -63t61.5 -165v-508q0 -101 -61 -164t-161 -63zM317 371q45 0 71 28.5t26 75.5
v178q0 46 -27.5 76.5t-71.5 30.5q-45 0 -72.5 -30t-27.5 -77v-178q0 -46 27.5 -75t74.5 -29z" />
    <glyph glyph-name="franc" unicode="&#x20a3;" horiz-adv-x="985" 
d="M877 1364h-449v-608h393v-172h-393v-228h143v-157h-143v-199h-172v199h-156v157h156v1180h621v-172z" />
    <glyph glyph-name="lira" unicode="&#x20a4;" horiz-adv-x="1130" 
d="M1024 1128h-172v56q0 94 -52.5 150.5t-140.5 56.5q-89 0 -141.5 -56.5t-52.5 -150.5v-336h283v-158h-283v-180h283v-156h-283v-196h450v-158h-768v158h146v196h-146v156h146v180h-146v158h146v336q0 171 100.5 275t265.5 104t265 -104t100 -275v-56z" />
    <glyph glyph-name="peseta" unicode="&#x20a7;" horiz-adv-x="1153" 
d="M1057 1165v-157h-94q-2 -158 -95 -254.5t-245 -96.5h-207v-657h-172v1008h-109v157h109v371h379q154 0 247 -97t93 -255v-19h94zM416 1364v-199h375v19q0 82 -46 131t-122 49h-207zM623 829q75 0 120.5 49.5t47.5 129.5h-375v-179h207z" />
    <glyph glyph-name="Euro" unicode="&#x20ac;" horiz-adv-x="1138" 
d="M1001 1128h-172v56q0 94 -52 150.5t-140 56.5q-89 0 -142 -56.5t-53 -150.5v-148h283v-157h-283v-222h283v-155h-283v-150q0 -94 53 -150.5t142 -56.5q88 0 140 56.5t52 150.5v56h172v-56q0 -171 -99.5 -275t-264.5 -104q-166 0 -266.5 104.5t-100.5 274.5v150h-145v155
h145v222h-145v157h145v148q0 170 100.5 274.5t266.5 104.5q165 0 264.5 -104t99.5 -275v-56z" />
    <glyph glyph-name="uni2113" unicode="&#x2113;" horiz-adv-x="1212" 
d="M680 -25q-105 0 -189 66.5t-137 187.5q-132 -61 -252 -98l-30 121q105 27 245 94q-34 124 -34 289q0 227 64.5 416t175.5 297t243 108q138 0 226.5 -115.5t88.5 -285.5q0 -104 -37 -204t-96 -179t-141.5 -154t-163 -129.5t-172.5 -103.5q36 -91 92 -142t125 -51
q93 0 164 76.5t86 193.5l121 -14q-23 -163 -131.5 -268t-247.5 -105zM444 414q99 54 182.5 116.5t159 143t119 179t43.5 202.5q0 120 -53 200t-135 80q-88 0 -166 -90t-126 -244.5t-50 -334.5q-3 -116 26 -252z" />
    <glyph glyph-name="trademark" unicode="&#x2122;" horiz-adv-x="1423" 
d="M242 614v801h-148v121h420v-121h-149v-801h-123zM608 614v922h117l184 -707l185 707h118v-922h-114v537l-144 -537h-88l-143 537v-537h-115z" />
    <glyph glyph-name="estimated" unicode="&#x212e;" horiz-adv-x="1458" 
d="M745 -33q-135 0 -251.5 46t-196.5 125t-126 185.5t-46 225.5q0 121 46.5 229.5t127.5 188t196 126t246 46.5q132 0 247.5 -46.5t196.5 -125.5t128 -187.5t47 -228.5v-12h-989q-6 0 -6 -11v-315q0 -17 16 -37q69 -82 154.5 -127t209.5 -45q125 0 213 47.5t172 145.5h97
q-97 -115 -206.5 -172.5t-275.5 -57.5zM371 565h745q4 0 4 15v317q0 21 -14 39q-84 88 -162.5 128t-202.5 40q-220 0 -358 -174q-13 -14 -15.5 -20t-2.5 -19v-311q0 -15 6 -15z" />
    <glyph glyph-name="oneeighth" unicode="&#x215b;" horiz-adv-x="1466" 
d="M158 614v707h-133v121h30q47 0 75 24.5t28 67.5v14h121v-934h-121zM205 0l674 1536h145l-674 -1536h-145zM1149 -20q-101 0 -162 62.5t-61 164.5v98q0 107 65 166q-65 59 -65 166v78q0 102 61 164.5t162 62.5q98 0 158.5 -63t60.5 -164v-78q0 -107 -65 -166
q65 -59 65 -166v-98q0 -101 -60.5 -164t-158.5 -63zM1149 532q44 0 71 29t27 76v78q0 46 -27.5 76t-70.5 30q-45 0 -73.5 -30t-28.5 -76v-78q0 -48 27.5 -76.5t74.5 -28.5zM1149 102q43 0 70.5 29.5t27.5 75.5v98q0 47 -27.5 76t-70.5 29q-46 0 -74 -29t-28 -76v-98
q0 -46 28.5 -75.5t73.5 -29.5z" />
    <glyph glyph-name="threeeighths" unicode="&#x215c;" horiz-adv-x="1667" 
d="M283 594q-100 0 -162 63t-62 164v39h123v-39q0 -46 28.5 -75t72.5 -29t72 29t28 75v101q0 46 -28 75t-72 29h-82v123h82q45 0 72.5 28.5t27.5 75.5v76q0 46 -28 76.5t-72 30.5t-72.5 -30.5t-28.5 -76.5v-39h-123v39q0 101 62 164t162 63q99 0 160 -62.5t61 -164.5v-76
q0 -107 -68 -166q68 -61 68 -165v-101q0 -102 -61 -164.5t-160 -62.5zM406 0l673 1536h146l-674 -1536h-145zM1350 -20q-101 0 -162.5 62.5t-61.5 164.5v98q0 106 66 166q-66 60 -66 166v78q0 102 61.5 164.5t162.5 62.5q98 0 158.5 -63t60.5 -164v-78q0 -106 -66 -166
q66 -60 66 -166v-98q0 -101 -60.5 -164t-158.5 -63zM1350 532q44 0 71 29t27 76v78q0 46 -27.5 76t-70.5 30q-45 0 -74 -30t-29 -76v-78q0 -47 28 -76t75 -29zM1350 102q43 0 70.5 29.5t27.5 75.5v98q0 47 -27.5 76t-70.5 29q-46 0 -74.5 -29t-28.5 -76v-98
q0 -46 28.5 -75.5t74.5 -29.5z" />
    <glyph glyph-name="fiveeighths" unicode="&#x215d;" horiz-adv-x="1695" 
d="M330 594q-100 0 -162 63t-62 164v39h123v-39q0 -46 28 -75t73 -29q44 0 71 29t27 75v178q0 46 -27.5 75.5t-74.5 29.5q-44 0 -70.5 -29.5t-26.5 -75.5v-12h-123v549h426v-121h-303v-231q40 43 107 43q95 0 155 -63.5t60 -164.5v-178q0 -102 -61 -164.5t-160 -62.5zM434 0
l674 1536h145l-673 -1536h-146zM1378 -20q-101 0 -162 62.5t-61 164.5v98q0 106 66 166q-66 60 -66 166v78q0 102 61 164.5t162 62.5q98 0 158.5 -63t60.5 -164v-78q0 -107 -65 -166q65 -59 65 -166v-98q0 -101 -60.5 -164t-158.5 -63zM1378 532q44 0 71.5 29t27.5 76v78
q0 46 -28 76t-71 30q-45 0 -73.5 -30t-28.5 -76v-78q0 -48 27.5 -76.5t74.5 -28.5zM1378 102q43 0 71 29.5t28 75.5v98q0 47 -28 76t-71 29q-46 0 -74 -29t-28 -76v-98q0 -46 28.5 -75.5t73.5 -29.5z" />
    <glyph glyph-name="seveneighths" unicode="&#x215e;" horiz-adv-x="1538" 
d="M86 614l233 801h-311v121h434v-111l-227 -811h-129zM276 0l674 1536h146l-674 -1536h-146zM1221 -20q-101 0 -162.5 62.5t-61.5 164.5v98q0 106 66 166q-66 60 -66 166v78q0 102 61.5 164.5t162.5 62.5q98 0 158.5 -63t60.5 -164v-78q0 -106 -66 -166q66 -60 66 -166v-98
q0 -101 -60.5 -164t-158.5 -63zM1221 532q44 0 71 29t27 76v78q0 46 -27.5 76t-70.5 30q-45 0 -74 -30t-29 -76v-78q0 -47 28 -76t75 -29zM1221 102q43 0 70.5 29.5t27.5 75.5v98q0 47 -27.5 76t-70.5 29q-46 0 -74.5 -29t-28.5 -76v-98q0 -46 28.5 -75.5t74.5 -29.5z" />
    <glyph glyph-name="arrowleft" unicode="&#x2190;" horiz-adv-x="1161" 
d="M1038 678v-160h-614v-256l-336 336l336 336v-256h614z" />
    <glyph glyph-name="arrowup" unicode="&#x2191;" horiz-adv-x="819" 
d="M745 737h-253v-614h-160v614h-258l336 336z" />
    <glyph glyph-name="arrowright" unicode="&#x2192;" horiz-adv-x="1161" 
d="M1071 598l-334 -336v256h-614v160h614v256z" />
    <glyph glyph-name="arrowdown" unicode="&#x2193;" horiz-adv-x="819" 
d="M492 457h253l-335 -334l-336 334h258v616h160v-616z" />
    <glyph glyph-name="arrowboth" unicode="&#x2194;" horiz-adv-x="1359" 
d="M424 262l-336 336l336 336v-256h512v256l334 -336l-334 -336v256h-512v-256z" />
    <glyph glyph-name="arrowupdn" unicode="&#x2195;" horiz-adv-x="849" 
d="M424 0l-334 334h254v512h-254l334 336l338 -336h-258v-512h258z" />
    <glyph glyph-name="uni2196" unicode="&#x2196;" horiz-adv-x="974" 
d="M897 317l-113 -112l-434 434l-180 -180v473l475 2l-182 -182z" />
    <glyph glyph-name="uni2197" unicode="&#x2197;" horiz-adv-x="974" 
d="M805 932v-473l-180 180l-435 -434l-112 112l434 435l-182 182z" />
    <glyph glyph-name="uni2198" unicode="&#x2198;" horiz-adv-x="974" 
d="M625 500l180 180v-473l-475 -2l182 182l-434 434l112 113z" />
    <glyph glyph-name="uni2199" unicode="&#x2199;" horiz-adv-x="974" 
d="M897 821l-434 -434l182 -182l-475 2v473l180 -180l434 434z" />
    <glyph glyph-name="partialdiff" unicode="&#x2202;" horiz-adv-x="1021" 
d="M510 1536q140 0 226.5 -90.5t86.5 -237.5v-1208h-164v72q-78 -97 -219 -97q-140 0 -228.5 92t-88.5 265v246q0 173 88.5 264.5t228.5 91.5q142 0 219 -96v370q0 87 -51 140t-135 53h-47v135h84zM473 139q88 0 137 51.5t49 139.5v248q0 88 -49 140t-137 52
q-86 0 -136 -52.5t-50 -139.5v-246q0 -87 50 -140t136 -53z" />
    <glyph glyph-name="emptyset" unicode="&#x2205;" horiz-adv-x="1464" 
d="M1096 1104q116 -81 180.5 -211.5t64.5 -296.5q0 -137 -47 -254t-128.5 -197t-193.5 -125t-241 -45q-127 0 -242 45l-71 -126h-170l110 198q-112 81 -175.5 211.5t-63.5 292.5q0 184 81 325.5t219.5 217t311.5 75.5q127 0 234 -40l67 118h170zM281 596q0 -113 42 -205
t117 -153l445 790q-73 25 -154 25q-193 0 -321.5 -126t-128.5 -331zM731 137q192 0 320.5 128t128.5 331q0 116 -43.5 209t-120.5 153l-447 -794q86 -27 162 -27z" />
    <glyph glyph-name="product" unicode="&#x220f;" horiz-adv-x="1253" 
d="M299 -246v1610h-231v172h1118v-172h-234v-1610h-172v1610h-309v-1610h-172z" />
    <glyph glyph-name="summation" unicode="&#x2211;" horiz-adv-x="921" 
d="M109 -246v131l303 760l-303 760v131h720v-172h-536l289 -719l-291 -719h538v-172h-720z" />
    <glyph glyph-name="minus" unicode="&#x2212;" horiz-adv-x="1216" 
d="M211 471v172h795v-172h-795z" />
    <glyph glyph-name="uni2215" unicode="&#x2215;" horiz-adv-x="866" 
d="M92 -102l549 1699h178l-549 -1699h-178z" />
    <glyph glyph-name="uni2219" unicode="&#x2219;" horiz-adv-x="835" 
d="M471 299q-106 0 -182 76t-76 182q0 105 76.5 181.5t181.5 76.5t179.5 -76.5t74.5 -181.5q0 -106 -74.5 -182t-179.5 -76z" />
    <glyph glyph-name="radical" unicode="&#x221a;" horiz-adv-x="1198" 
d="M322 0l-236 842h172l162 -588l346 1282h362v-162h-229l-379 -1374h-198z" />
    <glyph glyph-name="infinity" unicode="&#x221e;" horiz-adv-x="1609" 
d="M1161 909q128 0 209.5 -86.5t81.5 -218.5q0 -130 -81.5 -216.5t-209.5 -86.5h-37q-48 0 -94 19t-88.5 56t-71 67.5t-65.5 76.5q-37 -46 -65.5 -76.5t-71 -67.5t-89 -56t-94.5 -19h-39q-126 0 -207 86.5t-81 216.5q0 132 80.5 218.5t207.5 86.5h39q49 0 94 -16.5t88 -51
t70 -61.5t68 -73q39 45 67 73t70 61.5t87.5 50.5t94.5 17h37zM496 426q22 0 44 8.5t37.5 17t41 32t36 35t41.5 47t41 46.5q-9 9 -32.5 34t-34.5 35.5t-31.5 30.5t-35 29t-33.5 20.5t-37 16t-37 4.5h-37q-69 0 -114.5 -52t-45.5 -126t45.5 -126t114.5 -52h37zM1151 426
q69 0 114.5 52t45.5 126t-45.5 126t-114.5 52h-37q-22 0 -45 -8t-39.5 -17t-42.5 -31t-37 -33t-41 -41.5t-39 -39.5q8 -9 35.5 -40t36.5 -40.5t31.5 -32.5t35 -31.5t32 -21t37 -16.5t36.5 -4h37z" />
    <glyph glyph-name="integral" unicode="&#x222b;" horiz-adv-x="837" 
d="M66 -369v164h81q87 0 139 57t52 150v1184q0 164 96.5 267t255.5 103h82v-163h-82q-86 0 -137 -57t-51 -150v-1184q0 -164 -97.5 -267.5t-257.5 -103.5h-81z" />
    <glyph glyph-name="approxequal" unicode="&#x2248;" horiz-adv-x="1124" 
d="M147 666v43q0 111 61 174t173 63q57 0 108 -19t82 -42.5t68 -42.5t70 -19q41 0 61.5 23t20.5 63v41h163v-53q0 -105 -56 -167t-150 -62q-52 0 -102 20.5t-82.5 45t-74.5 45t-79 20.5q-45 0 -73 -26t-28 -71v-36h-162zM147 145v43q0 111 61 173.5t173 62.5q57 0 108 -19
t82 -42.5t68 -42.5t70 -19q41 0 61.5 23.5t20.5 62.5v41h163v-51q0 -107 -56 -168.5t-150 -61.5q-52 0 -102 20.5t-82.5 45.5t-74.5 45.5t-79 20.5q-45 0 -73 -27t-28 -72v-35h-162z" />
    <glyph glyph-name="notequal" unicode="&#x2260;" horiz-adv-x="985" 
d="M838 676h-240l-88 -238h328v-172h-392l-100 -266h-131l100 266h-168v172h232l88 238h-320v172h383l101 266h131l-100 -266h176v-172z" />
    <glyph glyph-name="lessequal" unicode="&#x2264;" horiz-adv-x="921" 
d="M778 279l-672 479v129l672 475v-180l-495 -361l495 -362v-180zM106 0v152h672v-152h-672z" />
    <glyph glyph-name="greaterequal" unicode="&#x2265;" horiz-adv-x="921" 
d="M139 279v180l498 362l-498 361v180l674 -475v-129zM139 0v152h674v-152h-674z" />
    <glyph glyph-name="lozenge" unicode="&#x25ca;" horiz-adv-x="933" 
d="M369 0l-273 768l273 768h198l271 -768l-271 -768h-198zM467 231l192 537l-192 537l-195 -537z" />
    <glyph glyph-name="uniF8FF" unicode="&#xf8ff;" horiz-adv-x="1517" 
d="M762 567v422h47v-268l149 158h58l-111 -119l119 -193h-57l-95 156l-63 -66v-90h-47zM305 567q-92 0 -92 86v185h-72v41h72v75h47v-75h80v-41h-80v-185q0 -22 11.5 -31.5t37.5 -9.5h31v-45h-35zM539 559q-70 0 -113 45.5t-43 120.5q0 72 43 117t113 45t113.5 -45
t43.5 -119t-43.5 -119t-113.5 -45zM1204 559q-71 0 -114 45.5t-43 120.5q0 72 42.5 117t112.5 45q71 0 114.5 -45.5t43.5 -118.5q0 -74 -43 -119t-113 -45zM539 600q51 0 80.5 34t29.5 91q0 55 -29.5 88t-80.5 33q-50 0 -80.5 -33.5t-30.5 -87.5q0 -57 30.5 -91t80.5 -34z
M1204 600q51 0 80 34t29 91q0 55 -29.5 88t-79.5 33q-51 0 -80.5 -33t-29.5 -88q0 -57 29.5 -91t80.5 -34zM305 109q-92 0 -92 86v184h-72v41h72v76h47v-76h80v-41h-80v-184q0 -22 11.5 -31.5t37.5 -9.5h31v-45h-35zM727 10v410h47v-45q40 53 107 53q64 0 102.5 -45
t38.5 -119t-38.5 -119t-102.5 -45q-68 0 -107 54v-144h-47zM1227 100q-72 0 -115 45t-43 119q0 73 42.5 118.5t111.5 45.5q67 0 107 -43t40 -115q0 -18 -2 -26h-252q6 -46 36 -74.5t75 -28.5q33 0 58.5 16.5t31.5 41.5h49q-8 -44 -46 -71.5t-93 -27.5zM391 0v45h35
q27 0 39.5 6.5t21.5 26.5l13 28l-129 314h53l104 -258l95 258h53l-135 -340q-19 -46 -43.5 -63t-71.5 -17h-35zM872 141q45 0 74 33t29 90t-29 90t-74 33q-44 0 -71 -32.5t-27 -88.5v-4q0 -56 27 -88.5t71 -32.5zM1116 285h209q0 47 -27.5 74.5t-74.5 27.5q-46 0 -74 -27.5
t-33 -74.5z" />
    <glyph glyph-name="G.ss03" horiz-adv-x="1011" 
d="M518 -33q-165 0 -264.5 104t-99.5 275v844q0 171 99.5 275t264.5 104q166 0 266.5 -104.5t100.5 -274.5v-55h-172v55q0 94 -53 150.5t-142 56.5q-88 0 -140 -56.5t-52 -150.5v-844q0 -94 52 -150.5t140 -56.5q89 0 142 56.5t53 150.5v428h-195v172h367v-600
q0 -170 -100.5 -274.5t-266.5 -104.5z" />
    <glyph glyph-name="Gbreve.ss03" horiz-adv-x="1011" 
d="M518 1778q-101 0 -166 61t-65 160v20h119v-20q0 -52 32 -83.5t80 -31.5t79.5 31.5t31.5 83.5v20h116v-20q0 -99 -63.5 -160t-163.5 -61zM518 -33q-165 0 -264.5 104t-99.5 275v844q0 171 99.5 275t264.5 104q166 0 266.5 -104.5t100.5 -274.5v-55h-172v55q0 94 -53 150.5
t-142 56.5q-88 0 -140 -56.5t-52 -150.5v-844q0 -94 52 -150.5t140 -56.5q89 0 142 56.5t53 150.5v428h-195v172h367v-600q0 -170 -100.5 -274.5t-266.5 -104.5z" />
    <glyph glyph-name="Gcircumflex.ss03" horiz-adv-x="1011" 
d="M219 1720l230 299h137l229 -299h-162l-135 189l-137 -189h-162zM518 -33q-165 0 -264.5 104t-99.5 275v844q0 171 99.5 275t264.5 104q166 0 266.5 -104.5t100.5 -274.5v-55h-172v55q0 94 -53 150.5t-142 56.5q-88 0 -140 -56.5t-52 -150.5v-844q0 -94 52 -150.5
t140 -56.5q89 0 142 56.5t53 150.5v428h-195v172h367v-600q0 -170 -100.5 -274.5t-266.5 -104.5z" />
    <glyph glyph-name="Gcommaaccent.ss03" horiz-adv-x="1011" 
d="M518 -33q-165 0 -264.5 104t-99.5 275v844q0 171 99.5 275t264.5 104q166 0 266.5 -104.5t100.5 -274.5v-55h-172v55q0 94 -53 150.5t-142 56.5q-88 0 -140 -56.5t-52 -150.5v-844q0 -94 52 -150.5t140 -56.5q89 0 142 56.5t53 150.5v428h-195v172h367v-600
q0 -170 -100.5 -274.5t-266.5 -104.5zM391 -451l49 326h189l-125 -326h-113z" />
    <glyph glyph-name="Gdotaccent.ss03" horiz-adv-x="1011" 
d="M444 1718v240h148v-240h-148zM518 -33q-165 0 -264.5 104t-99.5 275v844q0 171 99.5 275t264.5 104q166 0 266.5 -104.5t100.5 -274.5v-55h-172v55q0 94 -53 150.5t-142 56.5q-88 0 -140 -56.5t-52 -150.5v-844q0 -94 52 -150.5t140 -56.5q89 0 142 56.5t53 150.5v428
h-195v172h367v-600q0 -170 -100.5 -274.5t-266.5 -104.5z" />
    <glyph glyph-name="IJ.ss04" horiz-adv-x="1456" 
d="M348 0h-172v1536h172v-1536zM928 -12q-166 0 -266.5 104.5t-100.5 274.5v20h172v-20q0 -94 53 -150.5t142 -56.5q88 0 140 56.5t52 150.5v1169h172v-1169q0 -171 -99.5 -275t-264.5 -104z" />
    <glyph glyph-name="J.ss04" horiz-adv-x="931" 
d="M403 -12q-165 0 -265.5 104t-100.5 275v20h172v-20q0 -94 52.5 -150.5t141.5 -56.5q88 0 140.5 56.5t52.5 150.5v1169h172v-1169q0 -171 -100 -275t-265 -104z" />
    <glyph glyph-name="Jcircumflex.ss04" horiz-adv-x="931" 
d="M381 1720l229 299h138l229 -299h-162l-135 189l-137 -189h-162zM403 -12q-165 0 -265.5 104t-100.5 275v20h172v-20q0 -94 52.5 -150.5t141.5 -56.5q88 0 140.5 56.5t52.5 150.5v1169h172v-1169q0 -171 -100 -275t-265 -104z" />
    <glyph glyph-name="a.ss01" horiz-adv-x="958" 
d="M651 1114h164v-1114h-164v70q-82 -95 -217 -95q-141 0 -230 92t-89 265v450q0 173 89 265t230 92q136 0 217 -97v72zM465 139q88 0 137 51.5t49 139.5v452q0 88 -49 140.5t-137 52.5q-86 0 -136 -53t-50 -140v-450q0 -87 50 -140t136 -53z" />
    <glyph glyph-name="aacute.ss01" horiz-adv-x="958" 
d="M725 1597l-182 -352h-127l135 352h174zM651 1114h164v-1114h-164v70q-82 -95 -217 -95q-141 0 -230 92t-89 265v450q0 173 89 265t230 92q136 0 217 -97v72zM465 139q88 0 137 51.5t49 139.5v452q0 88 -49 140.5t-137 52.5q-86 0 -136 -53t-50 -140v-450q0 -87 50 -140
t136 -53z" />
    <glyph glyph-name="abreve.ss01" horiz-adv-x="958" 
d="M481 1356q-101 0 -166 61t-65 160v20h119v-20q0 -52 32 -83.5t80 -31.5t79.5 31.5t31.5 83.5v20h117v-20q0 -99 -63.5 -160t-164.5 -61zM651 1114h164v-1114h-164v70q-82 -95 -217 -95q-141 0 -230 92t-89 265v450q0 173 89 265t230 92q136 0 217 -97v72zM465 139
q88 0 137 51.5t49 139.5v452q0 88 -49 140.5t-137 52.5q-86 0 -136 -53t-50 -140v-450q0 -87 50 -140t136 -53z" />
    <glyph glyph-name="acircumflex.ss01" horiz-adv-x="958" 
d="M481 1487l-137 -189h-162l230 299h137l229 -299h-162zM651 1114h164v-1114h-164v70q-82 -95 -217 -95q-141 0 -230 92t-89 265v450q0 173 89 265t230 92q136 0 217 -97v72zM465 139q88 0 137 51.5t49 139.5v452q0 88 -49 140.5t-137 52.5q-86 0 -136 -53t-50 -140v-450
q0 -87 50 -140t136 -53z" />
    <glyph glyph-name="adieresis.ss01" horiz-adv-x="958" 
d="M414 1597v-239h-148v239h148zM705 1597v-239h-146v239h146zM651 1114h164v-1114h-164v70q-82 -95 -217 -95q-141 0 -230 92t-89 265v450q0 173 89 265t230 92q136 0 217 -97v72zM465 139q88 0 137 51.5t49 139.5v452q0 88 -49 140.5t-137 52.5q-86 0 -136 -53t-50 -140
v-450q0 -87 50 -140t136 -53z" />
    <glyph glyph-name="agrave.ss01" horiz-adv-x="958" 
d="M549 1245h-127l-184 352h176zM651 1114h164v-1114h-164v70q-82 -95 -217 -95q-141 0 -230 92t-89 265v450q0 173 89 265t230 92q136 0 217 -97v72zM465 139q88 0 137 51.5t49 139.5v452q0 88 -49 140.5t-137 52.5q-86 0 -136 -53t-50 -140v-450q0 -87 50 -140t136 -53z
" />
    <glyph glyph-name="amacron.ss01" horiz-adv-x="958" 
d="M707 1409v-129h-453v129h453zM651 1114h164v-1114h-164v70q-82 -95 -217 -95q-141 0 -230 92t-89 265v450q0 173 89 265t230 92q136 0 217 -97v72zM465 139q88 0 137 51.5t49 139.5v452q0 88 -49 140.5t-137 52.5q-86 0 -136 -53t-50 -140v-450q0 -87 50 -140t136 -53z
" />
    <glyph glyph-name="aogonek.ss01" horiz-adv-x="925" 
d="M764 0q-121 -98 -121 -203q0 -48 34.5 -77t96.5 -29h31v-127h-39q-118 0 -185 56.5t-67 150.5q0 70 34 127.5t103 111.5v60q-82 -95 -217 -95q-141 0 -230 92t-89 265v450q0 173 89 265t230 92q136 0 217 -97v72h164v-1114h-51zM465 139q88 0 137 51.5t49 139.5v452
q0 88 -49 140.5t-137 52.5q-86 0 -136 -53t-50 -140v-450q0 -87 50 -140t136 -53z" />
    <glyph glyph-name="aring.ss01" horiz-adv-x="958" 
d="M481 1174q-79 0 -135.5 54t-56.5 138t56.5 138.5t135.5 54.5q80 0 136.5 -54.5t56.5 -138.5t-56.5 -138t-136.5 -54zM481 1450q-33 0 -58.5 -23.5t-25.5 -60.5t25.5 -60.5t58.5 -23.5q34 0 60 23.5t26 60.5t-26 60.5t-60 23.5zM651 1114h164v-1114h-164v70
q-82 -95 -217 -95q-141 0 -230 92t-89 265v450q0 173 89 265t230 92q136 0 217 -97v72zM465 139q88 0 137 51.5t49 139.5v452q0 88 -49 140.5t-137 52.5q-86 0 -136 -53t-50 -140v-450q0 -87 50 -140t136 -53z" />
    <glyph glyph-name="atilde.ss01" horiz-adv-x="958" 
d="M344 1337v-39h-133v48q0 75 37 115t96 40q70 0 139 -51q4 -3 13.5 -11t13.5 -11t11.5 -9t12.5 -8.5l12 -6t13.5 -4.5t13.5 -1q19 0 29 16.5t10 38.5v43h131v-55q0 -74 -37 -114t-96 -40q-30 0 -56 8t-41.5 16.5t-37.5 24.5q-8 6 -25 19t-25 18.5t-20 11t-22 5.5
q-20 0 -29.5 -16t-9.5 -38zM651 1114h164v-1114h-164v70q-82 -95 -217 -95q-141 0 -230 92t-89 265v450q0 173 89 265t230 92q136 0 217 -97v72zM465 139q88 0 137 51.5t49 139.5v452q0 88 -49 140.5t-137 52.5q-86 0 -136 -53t-50 -140v-450q0 -87 50 -140t136 -53z" />
    <glyph glyph-name="y.ss02" horiz-adv-x="948" 
d="M641 1114h166v-1126q0 -162 -98.5 -262.5t-255.5 -100.5t-254 100.5t-97 264.5v28h164v-36q0 -87 50.5 -140t136.5 -53t137 53t51 140v231q-81 -94 -217 -94q-141 0 -230.5 91.5t-89.5 264.5v639h166v-639q0 -87 49.5 -139.5t135.5 -52.5q89 0 137.5 51t48.5 139v641z
" />
    <glyph glyph-name="yacute.ss02" horiz-adv-x="948" 
d="M698 1597l-182 -352h-127l135 352h174zM641 1114h166v-1126q0 -162 -98.5 -262.5t-255.5 -100.5t-254 100.5t-97 264.5v28h164v-36q0 -87 50.5 -140t136.5 -53t137 53t51 140v231q-81 -94 -217 -94q-141 0 -230.5 91.5t-89.5 264.5v639h166v-639q0 -87 49.5 -139.5
t135.5 -52.5q89 0 137.5 51t48.5 139v641z" />
    <glyph glyph-name="ycircumflex.ss02" horiz-adv-x="948" 
d="M455 1487l-138 -189h-161l229 299h137l230 -299h-162zM641 1114h166v-1126q0 -162 -98.5 -262.5t-255.5 -100.5t-254 100.5t-97 264.5v28h164v-36q0 -87 50.5 -140t136.5 -53t137 53t51 140v231q-81 -94 -217 -94q-141 0 -230.5 91.5t-89.5 264.5v639h166v-639
q0 -87 49.5 -139.5t135.5 -52.5q89 0 137.5 51t48.5 139v641z" />
    <glyph glyph-name="ydieresis.ss02" horiz-adv-x="948" 
d="M387 1597v-239h-147v239h147zM678 1597v-239h-146v239h146zM641 1114h166v-1126q0 -162 -98.5 -262.5t-255.5 -100.5t-254 100.5t-97 264.5v28h164v-36q0 -87 50.5 -140t136.5 -53t137 53t51 140v231q-81 -94 -217 -94q-141 0 -230.5 91.5t-89.5 264.5v639h166v-639
q0 -87 49.5 -139.5t135.5 -52.5q89 0 137.5 51t48.5 139v641z" />
    <glyph glyph-name="longs_t" horiz-adv-x="1259" 
d="M215 0v958h-207v156h207v72q0 164 97 267t257 103h82v-163h-82q-87 0 -138.5 -57t-51.5 -150v-1186h-164zM1135 -12q-161 0 -257 99.5t-96 268.5v605h-196v153h196v279h164v-279h268v-153h-268v-605q0 -92 51.5 -148t137.5 -56h79v-164h-79z" />
    <glyph glyph-name="zero.tf" horiz-adv-x="983" 
d="M492 1569q161 0 258.5 -104t97.5 -275v-844q0 -171 -97.5 -275t-258.5 -104t-260 104.5t-99 274.5v844q0 170 99 274.5t260 104.5zM305 1190v-844q0 -32 6 -59l285 1079q-45 31 -104 31q-85 0 -136 -56.5t-51 -150.5zM678 346v844q0 32 -6 59l-285 -1079q45 -31 105 -31
q83 0 134.5 57t51.5 150z" />
    <glyph glyph-name="one.tf" horiz-adv-x="983" 
d="M74 0v172h332v1016h-242v172h43q94 0 146.5 40.5t52.5 112.5v23h172v-1364h329v-172h-833z" />
    <glyph glyph-name="two.tf" horiz-adv-x="983" 
d="M868 1038q0 -74 -32 -144.5t-83.5 -128t-113 -113t-123.5 -109.5t-113.5 -107t-83.5 -116t-32 -127v-21h581v-172h-762v147q0 94 32.5 179.5t84.5 149.5t115 122.5t126 111t115 102.5t84.5 108t32.5 118v152q0 94 -57.5 150.5t-151.5 56.5t-151 -56.5t-57 -150.5v-55
h-173v55q0 170 104.5 274.5t276.5 104.5q171 0 276 -105t105 -274v-152z" />
    <glyph glyph-name="three.tf" horiz-adv-x="983" 
d="M842 1079q0 -193 -127 -291q127 -105 127 -294v-148q0 -170 -103 -274.5t-272 -104.5t-272 104.5t-103 274.5v55h172v-55q0 -93 56 -150t147 -57q92 0 147.5 56.5t55.5 150.5v148q0 94 -55.5 150t-147.5 56h-129v172h129q92 0 147.5 56.5t55.5 150.5v111
q0 94 -55.5 150.5t-147.5 56.5q-91 0 -147 -57t-56 -150v-55h-172v55q0 170 103 274.5t272 104.5t272 -104.5t103 -274.5v-111z" />
    <glyph glyph-name="four.tf" horiz-adv-x="983" 
d="M786 494h140v-170h-140v-324h-172v324h-565v155l569 1057h168v-1042zM614 494v727l-385 -727h385z" />
    <glyph glyph-name="five.tf" horiz-adv-x="983" 
d="M518 1024q160 0 259.5 -104.5t99.5 -274.5v-299q0 -170 -100.5 -274.5t-264.5 -104.5t-264.5 104.5t-100.5 274.5v55h172v-55q0 -94 52.5 -150.5t140.5 -56.5t140.5 56.5t52.5 150.5v299q0 93 -54 150t-147 57q-85 0 -135 -56.5t-50 -150.5v-20h-172v911h707v-172h-535
v-422q76 82 199 82z" />
    <glyph glyph-name="six.tf" horiz-adv-x="983" 
d="M862 1135h-172v55q0 94 -51.5 150.5t-136.5 56.5q-86 0 -138.5 -56.5t-52.5 -150.5v-248q73 82 197 82q158 0 256 -104.5t98 -274.5v-299q0 -171 -98.5 -275t-261.5 -104q-164 0 -263.5 104t-99.5 275v844q0 171 99.5 275t263.5 104q163 0 261.5 -104t98.5 -275v-55z
M494 852q-83 0 -133 -56.5t-50 -150.5v-299q0 -94 52.5 -150.5t138.5 -56.5q85 0 136.5 56.5t51.5 150.5v299q0 93 -53 150t-143 57z" />
    <glyph glyph-name="seven.tf" horiz-adv-x="983" 
d="M80 1536h803v-154l-441 -1382h-182l438 1364h-618v172z" />
    <glyph glyph-name="eight.tf" horiz-adv-x="983" 
d="M854 1077q0 -192 -119 -293q119 -103 119 -292v-146q0 -171 -99 -275t-263 -104t-263.5 104t-99.5 275v146q0 189 119 292q-119 101 -119 293v113q0 171 99.5 275t263.5 104t263 -104t99 -275v-113zM682 1077v113q0 94 -52 150.5t-138 56.5t-138.5 -56.5t-52.5 -150.5
v-113q0 -94 52.5 -150.5t138.5 -56.5t138 56.5t52 150.5zM682 346v146q0 93 -52 149.5t-138 56.5t-138.5 -57t-52.5 -149v-146q0 -94 52.5 -150.5t138.5 -56.5t138 56.5t52 150.5z" />
    <glyph glyph-name="nine.tf" horiz-adv-x="983" 
d="M483 1569q163 0 262 -104.5t99 -274.5v-844q0 -170 -99 -274.5t-262 -104.5q-164 0 -263 104t-99 275v55h172v-55q0 -94 52 -150.5t138 -56.5t137.5 56.5t51.5 150.5v248q-73 -82 -197 -82q-158 0 -256 104.5t-98 274.5v299q0 171 99 275t263 104zM489 684
q84 0 133.5 56.5t49.5 150.5v299q0 94 -51.5 150.5t-137.5 56.5t-138 -56.5t-52 -150.5v-299q0 -93 53 -150t143 -57z" />
    <glyph glyph-name="zero.dnom" horiz-adv-x="653" 
d="M328 942q98 0 159.5 -63t61.5 -164v-508q0 -101 -61.5 -164t-159.5 -63q-101 0 -162.5 62.5t-61.5 164.5v508q0 102 61.5 164.5t162.5 62.5zM328 821q-45 0 -73 -30t-28 -76v-467l158 557q-26 16 -57 16zM328 102q44 0 71 29.5t27 75.5v469l-158 -557q27 -17 60 -17z" />
    <glyph glyph-name="one.dnom" horiz-adv-x="401" 
d="M158 0v694h-133v121h30q47 0 75 24.5t28 67.5v15h121v-922h-121z" />
    <glyph glyph-name="two.dnom" horiz-adv-x="579" 
d="M63 0v109q0 66 24 123.5t59.5 96t77.5 76t77.5 66.5t59.5 66.5t24 76.5v101q0 46 -27.5 76t-72.5 30q-44 0 -71.5 -30t-27.5 -76v-39h-123v39q0 101 62 164t160 63q101 0 162 -62.5t61 -164.5v-101q0 -62 -32.5 -117t-79 -96t-92.5 -81t-78.5 -87.5t-32.5 -97.5v-12h315
v-123h-445z" />
    <glyph glyph-name="three.dnom" horiz-adv-x="602" 
d="M283 -20q-100 0 -162 63t-62 164v39h123v-39q0 -46 28.5 -75.5t72.5 -29.5t72 29.5t28 75.5v100q0 46 -28 75.5t-72 29.5h-82v123h82q45 0 72.5 28.5t27.5 75.5v76q0 46 -28 76t-72 30t-72.5 -30t-28.5 -76v-39h-123v39q0 101 62 164t162 63q99 0 160 -62.5t61 -164.5
v-76q0 -107 -68 -166q68 -61 68 -166v-100q0 -102 -61 -164.5t-160 -62.5z" />
    <glyph glyph-name="four.dnom" horiz-adv-x="606" 
d="M348 0v182h-330v111l338 629h113v-617h80v-123h-80v-182h-121zM145 305h203v385z" />
    <glyph glyph-name="five.dnom" horiz-adv-x="630" 
d="M330 -20q-100 0 -162 63t-62 164v39h123v-39q0 -46 28 -75.5t73 -29.5q44 0 71 29.5t27 75.5v178q0 46 -27.5 75t-74.5 29q-44 0 -70.5 -29t-26.5 -75v-12h-123v549h426v-121h-303v-232q40 43 107 43q95 0 155 -63t60 -164v-178q0 -102 -61 -164.5t-160 -62.5z" />
    <glyph glyph-name="six.dnom" horiz-adv-x="641" 
d="M328 -20q-101 0 -162.5 62.5t-61.5 164.5v508q0 102 61.5 164.5t162.5 62.5q98 0 159.5 -63t61.5 -164v-39h-123v39q0 46 -27 76t-71 30q-45 0 -73 -30t-28 -76v-146q37 43 107 43q95 0 155 -63t60 -164v-178q0 -101 -61.5 -164t-159.5 -63zM328 102q44 0 71 29.5
t27 75.5v178q0 46 -27.5 75t-74.5 29q-45 0 -71 -28.5t-26 -75.5v-178q0 -46 28 -75.5t73 -29.5z" />
    <glyph glyph-name="seven.dnom" horiz-adv-x="473" 
d="M86 0l233 801h-311v121h434v-111l-227 -811h-129z" />
    <glyph glyph-name="eight.dnom" horiz-adv-x="638" 
d="M322 -20q-101 0 -162.5 62.5t-61.5 164.5v98q0 106 66 166q-66 60 -66 166v78q0 102 61.5 164.5t162.5 62.5q98 0 158.5 -63t60.5 -164v-78q0 -106 -66 -166q66 -60 66 -166v-98q0 -101 -60.5 -164t-158.5 -63zM322 532q44 0 71 29t27 76v78q0 46 -27.5 76t-70.5 30
q-45 0 -74 -30t-29 -76v-78q0 -47 28 -76t75 -29zM322 102q43 0 70.5 29.5t27.5 75.5v98q0 47 -27.5 76t-70.5 29q-46 0 -74.5 -29t-28.5 -76v-98q0 -46 28.5 -75.5t74.5 -29.5z" />
    <glyph glyph-name="nine.dnom" horiz-adv-x="641" 
d="M315 -20q-100 0 -161.5 63t-61.5 164v39h123v-39q0 -46 27.5 -75.5t72.5 -29.5q44 0 71.5 29.5t27.5 75.5v145q-37 -43 -107 -43q-95 0 -155 63.5t-60 164.5v178q0 101 61.5 164t161.5 63t161 -63t61 -164v-508q0 -101 -61 -164t-161 -63zM317 432q45 0 71 29t26 76v178
q0 46 -27.5 76t-71.5 30q-45 0 -72.5 -30t-27.5 -76v-178q0 -46 27.5 -75.5t74.5 -29.5z" />
    <glyph glyph-name="zero.numr" horiz-adv-x="653" 
d="M328 1556q98 0 159.5 -63t61.5 -164v-508q0 -101 -61.5 -164t-159.5 -63q-101 0 -162.5 62.5t-61.5 164.5v508q0 102 61.5 164.5t162.5 62.5zM328 1436q-45 0 -73 -30.5t-28 -76.5v-467l158 557q-27 17 -57 17zM328 717q44 0 71 29t27 75v469l-158 -557q26 -16 60 -16z
" />
    <glyph glyph-name="one.numr" horiz-adv-x="401" 
d="M158 614v707h-133v121h30q47 0 75 24.5t28 67.5v14h121v-934h-121z" />
    <glyph glyph-name="two.numr" horiz-adv-x="579" 
d="M63 614v109q0 66 24 124t59.5 96t77.5 76t77.5 67t59.5 66.5t24 76.5v100q0 47 -27.5 77t-72.5 30q-44 0 -71.5 -30.5t-27.5 -76.5v-39h-123v39q0 101 62 164t160 63q101 0 162 -62.5t61 -164.5v-100q0 -62 -32.5 -117t-79 -96t-92.5 -81t-78.5 -87.5t-32.5 -97.5v-13
h315v-123h-445z" />
    <glyph glyph-name="three.numr" horiz-adv-x="602" 
d="M283 594q-100 0 -162 63t-62 164v39h123v-39q0 -46 28.5 -75t72.5 -29t72 29t28 75v101q0 46 -28 75t-72 29h-82v123h82q45 0 72.5 28.5t27.5 75.5v76q0 46 -28 76.5t-72 30.5t-72.5 -30.5t-28.5 -76.5v-39h-123v39q0 101 62 164t162 63q99 0 160 -62.5t61 -164.5v-76
q0 -107 -68 -166q68 -61 68 -165v-101q0 -102 -61 -164.5t-160 -62.5z" />
    <glyph glyph-name="four.numr" horiz-adv-x="606" 
d="M348 614v183h-330v110l338 629h113v-616h80v-123h-80v-183h-121zM145 920h203v385z" />
    <glyph glyph-name="five.numr" horiz-adv-x="630" 
d="M330 594q-100 0 -162 63t-62 164v39h123v-39q0 -46 28 -75t73 -29q44 0 71 29t27 75v178q0 46 -27.5 75.5t-74.5 29.5q-44 0 -70.5 -29.5t-26.5 -75.5v-12h-123v549h426v-121h-303v-231q40 43 107 43q95 0 155 -63.5t60 -164.5v-178q0 -102 -61 -164.5t-160 -62.5z" />
    <glyph glyph-name="six.numr" horiz-adv-x="641" 
d="M328 594q-101 0 -162.5 62.5t-61.5 164.5v508q0 102 61.5 164.5t162.5 62.5q98 0 159.5 -63t61.5 -164v-39h-123v39q0 46 -27 76.5t-71 30.5q-45 0 -73 -30.5t-28 -76.5v-145q37 43 107 43q95 0 155 -63.5t60 -164.5v-178q0 -101 -61.5 -164t-159.5 -63zM328 717
q44 0 71 29t27 75v178q0 46 -27.5 75.5t-74.5 29.5q-45 0 -71 -29t-26 -76v-178q0 -46 28 -75t73 -29z" />
    <glyph glyph-name="seven.numr" horiz-adv-x="473" 
d="M86 614l233 801h-311v121h434v-111l-227 -811h-129z" />
    <glyph glyph-name="eight.numr" horiz-adv-x="638" 
d="M322 594q-101 0 -162.5 62.5t-61.5 164.5v99q0 105 66 165q-66 60 -66 166v78q0 102 61.5 164.5t162.5 62.5q98 0 158.5 -63t60.5 -164v-78q0 -106 -66 -166q66 -60 66 -165v-99q0 -101 -60.5 -164t-158.5 -63zM322 1147q44 0 71 28.5t27 75.5v78q0 46 -27.5 76.5
t-70.5 30.5q-45 0 -74 -30.5t-29 -76.5v-78q0 -47 28 -75.5t75 -28.5zM322 717q43 0 70.5 29t27.5 75v99q0 47 -27.5 75.5t-70.5 28.5q-46 0 -74.5 -28.5t-28.5 -75.5v-99q0 -46 28.5 -75t74.5 -29z" />
    <glyph glyph-name="nine.numr" horiz-adv-x="641" 
d="M315 594q-100 0 -161.5 63t-61.5 164v39h123v-39q0 -46 27.5 -75t72.5 -29q44 0 71.5 29t27.5 75v146q-37 -43 -107 -43q-95 0 -155 63t-60 164v178q0 101 61.5 164t161.5 63t161 -63t61 -164v-508q0 -101 -61 -164t-161 -63zM317 1047q45 0 71 28.5t26 75.5v178
q0 46 -27.5 76.5t-71.5 30.5q-45 0 -72.5 -30t-27.5 -77v-178q0 -46 27.5 -75t74.5 -29z" />
    <glyph glyph-name="acute.case" horiz-adv-x="436" 
d="M84 1245l135 352h174l-182 -352h-127z" />
    <glyph glyph-name="breve.case" horiz-adv-x="663" 
d="M352 1356q-101 0 -166 61t-65 160v20h119v-20q0 -52 32 -83.5t80 -31.5t79.5 31.5t31.5 83.5v20h117v-20q0 -99 -63.5 -160t-164.5 -61z" />
    <glyph glyph-name="caron.case" horiz-adv-x="671" 
d="M297 1298l-229 299h161l138 -188l135 188h162l-230 -299h-137z" />
    <glyph glyph-name="circumflex.case" horiz-adv-x="671" 
d="M70 1298l229 299h137l230 -299h-162l-135 189l-138 -189h-161z" />
    <glyph glyph-name="dieresis.case" horiz-adv-x="720" 
d="M172 1358v239h147v-239h-147zM465 1358v239h145v-239h-145z" />
    <glyph glyph-name="dotaccent.case" horiz-adv-x="430" 
d="M172 1296v240h147v-240h-147z" />
    <glyph glyph-name="grave.case" horiz-adv-x="436" 
d="M266 1245l-184 352h176l135 -352h-127z" />
    <glyph glyph-name="hungarumlaut.case" horiz-adv-x="743" 
d="M102 1245l136 352h174l-183 -352h-127zM410 1245l135 352h174l-182 -352h-127z" />
    <glyph glyph-name="macron.case" horiz-adv-x="737" 
d="M152 1536h452v-129h-452v129z" />
    <glyph glyph-name="ring.case" horiz-adv-x="595" 
d="M328 1212q-79 0 -136 54.5t-57 138.5t57 138t136 54q80 0 136 -54t56 -138t-56 -138.5t-136 -54.5zM328 1321q34 0 60 23.5t26 60.5t-26 60.5t-60 23.5q-33 0 -58.5 -23.5t-25.5 -60.5t25.5 -60.5t58.5 -23.5z" />
    <glyph glyph-name="tilde.case" horiz-adv-x="782" 
d="M545 1384q-29 0 -56 8t-42 17t-37 25q-7 5 -20.5 15.5t-20.5 15.5t-17 11t-18.5 8.5t-16.5 2.5q-38 0 -38 -53v-39h-134v47q0 75 37 115t97 40q70 0 139 -51q4 -3 13.5 -11t13.5 -11t11.5 -9t12.5 -8.5l12 -6t13.5 -4.5t13.5 -1q19 0 29 16.5t10 38.5v43h131v-55
q0 -74 -37 -114t-96 -40z" />
    <glyph glyph-name="caron.salt" horiz-adv-x="448" 
d="M100 1077l82 459h164l-82 -459h-164z" />
    </font>
</defs>
</svg>
