<?xml version="1.0" standalone="no"?>
<!DOCTYPE svg PUBLIC "-//W3C//DTD SVG 1.1//EN" "http://www.w3.org/Graphics/SVG/1.1/DTD/svg11.dtd" >
<svg xmlns="http://www.w3.org/2000/svg" xmlns:xlink="http://www.w3.org/1999/xlink" version="1.1">
<metadata>
Created by FontForge 20170731 at Wed May  5 00:05:29 2021
 By Aleksey,,,
Copyright (c) 2018 by Gumpita Rahayu. All rights reserved.
</metadata>
<defs>
<font id="Mohave-Medium" horiz-adv-x="479" >
  <font-face 
    font-family="Mohave Medium"
    font-weight="500"
    font-stretch="normal"
    units-per-em="2048"
    panose-1="0 0 6 0 0 0 0 0 0 0"
    ascent="1597"
    descent="-451"
    x-height="1122"
    cap-height="1536"
    bbox="-348 -825 1964 2011"
    underline-thickness="147"
    underline-position="-310"
    unicode-range="U+0020-FB02"
  />
<missing-glyph horiz-adv-x="1001" 
d="M152 0v1536h696v-1536h-696zM313 160h375v1216h-375v-1216z" />
    <glyph glyph-name="fi" unicode="fi" horiz-adv-x="1148" 
d="M209 0v915h-205v207h205v72q0 160 97.5 261t258.5 101h103v-223h-103q-62 0 -97.5 -37.5t-35.5 -101.5v-72h236v-207h-236v-915h-223zM799 1217v258h223v-258h-223zM799 0v1122h223v-1122h-223z" />
    <glyph glyph-name="fl" unicode="fl" horiz-adv-x="1148" 
d="M209 0v915h-205v207h205v72q0 160 97.5 261t258.5 101h103v-223h-103q-62 0 -97.5 -37.5t-35.5 -101.5v-72h236v-207h-236v-915h-223zM799 0v1536h223v-1536h-223z" />
    <glyph glyph-name="f_f" unicode="ff" horiz-adv-x="1339" 
d="M209 0v915h-205v207h205v72q0 160 97.5 261t258.5 101h103v-223h-103q-62 0 -97.5 -37.5t-35.5 -101.5v-72h236v-207h-236v-915h-223zM879 0v915h-205v207h205v72q0 160 97.5 261t258.5 101h102v-223h-102q-62 0 -97.5 -37.5t-35.5 -101.5v-72h235v-207h-235v-915h-223z
" />
    <glyph glyph-name="f_f_i" unicode="ffi" horiz-adv-x="1818" 
d="M209 0v915h-205v207h205v72q0 160 97.5 261t258.5 101h103v-223h-103q-62 0 -97.5 -37.5t-35.5 -101.5v-72h236v-207h-236v-915h-223zM879 0v915h-205v207h205v72q0 160 97.5 261t258.5 101h102v-223h-102q-62 0 -97.5 -37.5t-35.5 -101.5v-72h235v-207h-235v-915h-223z
M1468 1217v258h224v-258h-224zM1468 0v1122h224v-1122h-224z" />
    <glyph glyph-name="f_f_l" unicode="ffl" horiz-adv-x="1818" 
d="M209 0v915h-205v207h205v72q0 160 97.5 261t258.5 101h103v-223h-103q-62 0 -97.5 -37.5t-35.5 -101.5v-72h236v-207h-236v-915h-223zM879 0v915h-205v207h205v72q0 160 97.5 261t258.5 101h102v-223h-102q-62 0 -97.5 -37.5t-35.5 -101.5v-72h235v-207h-235v-915h-223z
M1468 0v1536h224v-1536h-224z" />
    <glyph glyph-name=".notdef" horiz-adv-x="1001" 
d="M152 0v1536h696v-1536h-696zM313 160h375v1216h-375v-1216z" />
    <glyph glyph-name="uni0000" horiz-adv-x="1228" 
 />
    <glyph glyph-name="uni0000" horiz-adv-x="1228" 
 />
    <glyph glyph-name="nonmarkingreturn" horiz-adv-x="682" 
 />
    <glyph glyph-name="space" unicode=" " horiz-adv-x="475" 
 />
    <glyph glyph-name="exclam" unicode="!" horiz-adv-x="595" 
d="M178 430v1106h240v-1106h-240zM178 0v307h240v-307h-240z" />
    <glyph glyph-name="quotedbl" unicode="&#x22;" horiz-adv-x="935" 
d="M137 1042l82 494h223l-82 -494h-223zM494 1042l81 494h224l-82 -494h-223z" />
    <glyph glyph-name="numbersign" unicode="#" horiz-adv-x="1226" 
d="M1128 991h-174v-344h174v-237h-174v-410h-239v410l-201 2v-412h-240v412h-178v237h178v344h-178v238h178v305h240v-305h201v305h239v-305h174v-240zM715 647v344l-201 2v-344z" />
    <glyph glyph-name="dollar" unicode="$" horiz-adv-x="997" 
d="M874 1118h-239v72q0 105 -86 133v-455q150 -15 237.5 -116t87.5 -260v-146q0 -159 -87.5 -260.5t-237.5 -116.5v-174h-113v176q-143 20 -226 121t-83 254v74h240v-74q0 -94 69 -125v414q-143 20 -226 121t-83 254v180q0 153 83 254t226 121v176h113v-174
q150 -15 237.5 -116.5t87.5 -260.5v-72zM367 1010q0 -94 69 -125v430q-69 -31 -69 -125v-180zM635 492q0 105 -86 133v-412q86 28 86 133v146z" />
    <glyph glyph-name="percent" unicode="%" horiz-adv-x="1425" 
d="M340 827q-114 0 -184 70t-70 184v232q0 114 70 184t184 70q112 0 181 -70t69 -184v-232q0 -114 -69 -184t-181 -70zM279 0l677 1536h191l-678 -1536h-190zM340 1010q30 0 49 19.5t19 51.5v232q0 33 -19 53t-49 20q-32 0 -52 -20t-20 -53v-232q0 -32 20 -51.5t52 -19.5z
M1087 -31q-114 0 -182.5 69t-68.5 183v234q0 114 68.5 184t182.5 70q112 0 181 -70t69 -184v-234q0 -114 -68.5 -183t-181.5 -69zM1087 150q31 0 50.5 19.5t19.5 51.5v234q0 32 -19.5 51.5t-50.5 19.5q-32 0 -51.5 -19.5t-19.5 -51.5v-234q0 -32 19.5 -51.5t51.5 -19.5z" />
    <glyph glyph-name="ampersand" unicode="&#x26;" horiz-adv-x="1071" 
d="M508 -31q-170 0 -271.5 104t-101.5 275v103q0 114 46.5 201t129.5 132l-176 320v84q0 171 101.5 275t271.5 104t272.5 -104t102.5 -275v-72h-240v72q0 63 -36 101t-99 38q-62 0 -97.5 -37.5t-35.5 -101.5v-84l299 -526l55 360h203l-94 -651l133 -238v-49h-219l-29 53
q-84 -84 -215 -84zM508 209q68 0 104 45l-180 315q-57 -39 -57 -118v-103q0 -64 35.5 -101.5t97.5 -37.5z" />
    <glyph glyph-name="quotesingle" unicode="'" horiz-adv-x="579" 
d="M137 1042l82 494h223l-82 -494h-223z" />
    <glyph glyph-name="parenleft" unicode="(" horiz-adv-x="675" 
d="M502 -369q-170 0 -271.5 104t-101.5 275v1209q0 171 101.5 274.5t271.5 103.5h135v-239h-135q-62 0 -97.5 -37.5t-35.5 -101.5v-1209q0 -64 35.5 -101.5t97.5 -37.5h135v-240h-135z" />
    <glyph glyph-name="parenright" unicode=")" horiz-adv-x="677" 
d="M41 -369v240h133q63 0 99 38t36 101v1209q0 63 -36 101t-99 38h-133v239h133q170 0 272.5 -103.5t102.5 -274.5v-1209q0 -171 -102.5 -275t-272.5 -104h-133z" />
    <glyph glyph-name="asterisk" unicode="*" horiz-adv-x="915" 
d="M807 1309l-182 -107l182 -104l-82 -142l-184 107v-201h-164v197l-182 -105l-82 142l184 106l-184 107l80 143l184 -106v190h164v-193l184 107z" />
    <glyph glyph-name="plus" unicode="+" horiz-adv-x="1101" 
d="M997 682v-240h-325v-284h-240v284h-328v240h328v287h240v-287h325z" />
    <glyph glyph-name="comma" unicode="," horiz-adv-x="579" 
d="M137 -135l82 405h223l-82 -405h-223z" />
    <glyph glyph-name="hyphen" unicode="-" horiz-adv-x="862" 
d="M129 442v240h604v-240h-604z" />
    <glyph glyph-name="period" unicode="." horiz-adv-x="595" 
d="M178 0v270h240v-270h-240z" />
    <glyph glyph-name="slash" unicode="/" horiz-adv-x="761" 
d="M-14 -102l549 1699h241l-549 -1699h-241z" />
    <glyph glyph-name="zero" unicode="0" horiz-adv-x="1007" 
d="M504 1569q170 0 272.5 -104t102.5 -275v-844q0 -171 -102.5 -275t-272.5 -104t-272.5 104t-102.5 275v844q0 171 102.5 275t272.5 104zM504 1329q-63 0 -99 -38t-36 -101v-668l213 787q-33 20 -78 20zM504 207q63 0 99 38t36 101v662l-213 -781q33 -20 78 -20z" />
    <glyph glyph-name="one" unicode="1" horiz-adv-x="649" 
d="M258 0v1120h-229v240h57q82 0 127 40.5t45 112.5v23h240v-1536h-240z" />
    <glyph glyph-name="two" unicode="2" horiz-adv-x="921" 
d="M829 1004q0 -76 -27.5 -143t-71 -116.5t-96 -95t-105.5 -88t-96.5 -85.5t-71 -96.5t-27.5 -113.5v-26h495v-240h-747v217q0 98 28 181.5t73 141.5t99 108t108 91t99 80t73 86t28 99v186q0 64 -35.5 101.5t-97.5 37.5q-63 0 -99 -38t-36 -101v-72h-240v72q0 171 102 275
t273 104q170 0 271 -104t101 -275v-186z" />
    <glyph glyph-name="three" unicode="3" horiz-adv-x="940" 
d="M819 1190v-141q0 -157 -88 -258q88 -106 88 -261v-184q0 -171 -102 -275t-273 -104q-170 0 -271 104t-101 275v74h239v-74q0 -64 35.5 -101.5t97.5 -37.5q63 0 99.5 38t36.5 101v184q0 63 -36.5 101.5t-99.5 38.5h-147v239h147q63 0 99.5 38.5t36.5 101.5v141
q0 63 -36.5 101t-99.5 38q-62 0 -97.5 -37.5t-35.5 -101.5v-72h-239v72q0 171 101 275t271 104q171 0 273 -104t102 -275z" />
    <glyph glyph-name="four" unicode="4" horiz-adv-x="983" 
d="M803 522h123v-237h-123v-285h-240v285h-528v209l553 1042h215v-1014zM563 522v547l-278 -547h278z" />
    <glyph glyph-name="five" unicode="5" horiz-adv-x="974" 
d="M524 1016q160 0 259.5 -104.5t99.5 -274.5v-291q0 -171 -101.5 -275t-271.5 -104q-171 0 -273 104t-102 275v74h240v-74q0 -63 36 -101t99 -38q62 0 97.5 37.5t35.5 101.5v291q0 64 -36 101.5t-101 37.5q-61 0 -96 -37.5t-35 -101.5v-16h-240v915h701v-240h-461v-327
q59 47 149 47z" />
    <glyph glyph-name="six" unicode="6" horiz-adv-x="989" 
d="M879 1118h-240v72q0 63 -36 101t-99 38t-99 -38t-36 -101v-221q59 47 151 47q159 0 259 -105t100 -274v-291q0 -171 -102.5 -275t-272.5 -104t-272.5 104t-102.5 275v844q0 171 102.5 275t272.5 104t272.5 -104t102.5 -275v-72zM502 776q-62 0 -97.5 -37.5t-35.5 -101.5
v-291q0 -63 36 -101t99 -38t99 38t36 101v291q0 64 -36.5 101.5t-100.5 37.5z" />
    <glyph glyph-name="seven" unicode="7" horiz-adv-x="802" 
d="M27 1536h735v-221l-377 -1315h-250l389 1296h-497v240z" />
    <glyph glyph-name="eight" unicode="8" horiz-adv-x="987" 
d="M868 1190v-146q0 -157 -88 -258q88 -106 88 -260v-180q0 -171 -102 -275t-272 -104t-272.5 104t-102.5 275v180q0 156 90 260q-90 96 -90 258v146q0 171 102.5 275t272.5 104t272 -104t102 -275zM629 1044v146q0 63 -36 101t-99 38t-99.5 -38t-36.5 -101v-146
q0 -63 36.5 -101t99.5 -38t99 38t36 101zM629 346v180q0 64 -36.5 102t-98.5 38q-63 0 -99.5 -38.5t-36.5 -101.5v-180q0 -63 36.5 -101t99.5 -38t99 38t36 101z" />
    <glyph glyph-name="nine" unicode="9" horiz-adv-x="991" 
d="M487 1569q170 0 272.5 -104t102.5 -275v-844q0 -171 -102.5 -275t-272.5 -104t-272 104t-102 275v74h239v-74q0 -63 36 -101t99 -38t99.5 38t36.5 101v221q-59 -47 -152 -47q-159 0 -258.5 104.5t-99.5 274.5v291q0 171 102 275t272 104zM489 760q61 0 97.5 38t36.5 101
v291q0 63 -36.5 101t-99.5 38t-99 -38t-36 -101v-291q0 -64 36.5 -101.5t100.5 -37.5z" />
    <glyph glyph-name="colon" unicode=":" horiz-adv-x="595" 
d="M178 500v270h240v-270h-240zM178 147v271h240v-271h-240z" />
    <glyph glyph-name="semicolon" unicode=";" horiz-adv-x="583" 
d="M164 477l18 293h240l-19 -293h-239zM135 37l64 381h223l-64 -381h-223z" />
    <glyph glyph-name="less" unicode="&#x3c;" horiz-adv-x="886" 
d="M762 0l-692 473v172l692 467v-256l-432 -295l432 -303v-258z" />
    <glyph glyph-name="equal" unicode="=" horiz-adv-x="1089" 
d="M190 647v240h709v-240h-709zM190 238v239h709v-239h-709z" />
    <glyph glyph-name="greater" unicode="&#x3e;" horiz-adv-x="888" 
d="M125 0v258l430 303l-430 295v256l690 -467v-172z" />
    <glyph glyph-name="question" unicode="?" horiz-adv-x="878" 
d="M274 362v54q0 72 15.5 133t41 103.5t55.5 79t60.5 67.5t56 61t41 66.5t15.5 77.5v186q0 64 -35.5 101.5t-97.5 37.5q-63 0 -99 -38t-36 -101v-72h-240v72q0 171 102.5 275t272.5 104t271.5 -104t101.5 -275v-186q0 -83 -29.5 -152t-71.5 -117t-83.5 -93t-71 -102.5
t-29.5 -123.5v-54h-240zM274 0v279h240v-279h-240z" />
    <glyph glyph-name="at" unicode="@" horiz-adv-x="1417" 
d="M713 1567q254 0 407.5 -154t153.5 -407v-1006h-223v53q-37 -39 -93.5 -61.5t-117.5 -22.5q-130 0 -211.5 98.5t-81.5 258.5v272q0 160 86.5 258t222.5 98q59 0 111.5 -19t83.5 -52v123q0 153 -91.5 245t-246.5 92q-153 0 -247.5 -92.5t-94.5 -244.5v-871
q0 -146 95 -234.5t249 -88.5h383v-224h-383q-255 0 -411.5 150.5t-156.5 396.5v871q0 251 156.5 406t409.5 155zM909 176q63 0 102.5 41.5t39.5 108.5v272q0 67 -39 107t-103 40q-63 0 -101 -40t-38 -107v-272q0 -68 38 -109t101 -41z" />
    <glyph glyph-name="A" unicode="A" horiz-adv-x="937" 
d="M600 1536l299 -1536h-246l-43 260h-280l-47 -260h-244l303 1536h258zM367 500h206l-102 612z" />
    <glyph glyph-name="B" unicode="B" horiz-adv-x="1034" 
d="M829 776q95 -105 95 -262v-143q0 -168 -100 -269.5t-265 -101.5h-399v1536h379q165 0 264.5 -101.5t99.5 -267.5v-153q0 -142 -74 -238zM399 1296v-411h140q58 0 91.5 35t33.5 94v153q0 59 -33.5 94t-91.5 35h-140zM684 371v143q0 59 -33.5 95t-91.5 36h-160v-405h160
q58 0 91.5 35.5t33.5 95.5z" />
    <glyph glyph-name="C" unicode="C" horiz-adv-x="962" 
d="M885 420v-74q0 -171 -102.5 -275t-272.5 -104t-271.5 104t-101.5 275v844q0 171 101.5 275t271.5 104t272.5 -104t102.5 -275v-72h-240v72q0 63 -36 101t-99 38q-62 0 -97.5 -37.5t-35.5 -101.5v-844q0 -64 35.5 -101.5t97.5 -37.5q63 0 99 38t36 101v74h240z" />
    <glyph glyph-name="D" unicode="D" horiz-adv-x="1030" 
d="M160 0v1536h368q170 0 272.5 -104t102.5 -275v-778q0 -171 -102.5 -275t-272.5 -104h-368zM399 240h129q63 0 99.5 38t36.5 101v778q0 63 -36.5 101t-99.5 38h-129v-1056z" />
    <glyph glyph-name="E" unicode="E" horiz-adv-x="878" 
d="M788 1536v-240h-389v-376h334v-240h-334v-440h389v-240h-628v1536h628z" />
    <glyph glyph-name="F" unicode="F" horiz-adv-x="841" 
d="M160 0v1536h628v-240h-389v-532h334v-240h-334v-524h-239z" />
    <glyph glyph-name="G" unicode="G" horiz-adv-x="999" 
d="M510 -33q-170 0 -271.5 104t-101.5 275v844q0 171 101.5 275t271.5 104t272.5 -104t102.5 -275v-72h-240v72q0 63 -36 101t-99 38q-62 0 -97.5 -37.5t-35.5 -101.5v-844q0 -64 35.5 -101.5t97.5 -37.5q63 0 99 38t36 101v174h-151v240h391v-414q0 -171 -102.5 -275
t-272.5 -104z" />
    <glyph glyph-name="H" unicode="H" horiz-adv-x="1030" 
d="M160 0v1536h239v-772h232v772h239v-1536h-239v524h-232v-524h-239z" />
    <glyph glyph-name="I" unicode="I" horiz-adv-x="557" 
d="M399 0h-239v1536h239v-1536z" />
    <glyph glyph-name="J" unicode="J" horiz-adv-x="673" 
d="M25 -14v239h129q62 0 97.5 38t35.5 102v1171h239v-1171q0 -171 -101 -275t-271 -104h-129z" />
    <glyph glyph-name="K" unicode="K" horiz-adv-x="1019" 
d="M983 1536l-373 -559l371 -977h-258l-279 731l-45 -69v-662h-239v1536h239v-483l326 483h258z" />
    <glyph glyph-name="L" unicode="L" horiz-adv-x="782" 
d="M399 1536v-1296h349v-240h-588v1536h239z" />
    <glyph glyph-name="M" unicode="M" horiz-adv-x="1347" 
d="M971 1536h219v-1536h-223v780l-213 -780h-160l-211 774v-774h-223v1536h219l295 -1120z" />
    <glyph glyph-name="N" unicode="N" horiz-adv-x="1050" 
d="M668 1536h223v-1536h-184l-324 893v-893h-223v1536h182l326 -893v893z" />
    <glyph glyph-name="O" unicode="O" horiz-adv-x="1021" 
d="M510 -33q-170 0 -271.5 104t-101.5 275v844q0 171 101.5 275t271.5 104t272.5 -104t102.5 -275v-844q0 -171 -102.5 -275t-272.5 -104zM510 207q63 0 99 38t36 101v844q0 63 -36 101t-99 38q-62 0 -97.5 -37.5t-35.5 -101.5v-844q0 -64 35.5 -101.5t97.5 -37.5z" />
    <glyph glyph-name="P" unicode="P" horiz-adv-x="966" 
d="M160 0v1536h379q165 0 264.5 -101.5t99.5 -267.5v-194q0 -166 -99.5 -267.5t-264.5 -101.5h-140v-604h-239zM399 844h140q58 0 91.5 35t33.5 94v194q0 59 -33.5 94t-91.5 35h-140v-452z" />
    <glyph glyph-name="Q" unicode="Q" horiz-adv-x="1021" 
d="M885 1190v-844q0 -166 -101 -272l68 -262h-244l-41 159q-36 -4 -57 -4q-170 0 -271.5 104t-101.5 275v844q0 171 101.5 275t271.5 104t272.5 -104t102.5 -275zM377 346q0 -62 34 -100t93 -39l-64 242h205v741q0 63 -36 101t-99 38q-62 0 -97.5 -37.5t-35.5 -101.5v-844z
" />
    <glyph glyph-name="R" unicode="R" horiz-adv-x="1036" 
d="M903 932q0 -177 -110 -281q110 -74 110 -215v-436h-239v436q0 58 -33.5 92.5t-91.5 34.5h-140v-563h-239v1536h379q165 0 264.5 -101.5t99.5 -267.5v-235zM664 932v235q0 59 -33.5 94t-91.5 35h-140v-493h140q58 0 91.5 35t33.5 94z" />
    <glyph glyph-name="S" unicode="S" horiz-adv-x="956" 
d="M481 -33q-171 0 -273 104t-102 275v74h240v-74q0 -63 36 -101t99 -38q62 0 97.5 37.5t35.5 101.5v146q0 64 -35.5 101.5t-97.5 37.5q-171 0 -273 104t-102 275v180q0 171 102 275t273 104q170 0 271.5 -104t101.5 -275v-72h-240v72q0 64 -35.5 101.5t-97.5 37.5
q-63 0 -99 -38t-36 -101v-180q0 -64 36.5 -102t98.5 -38q170 0 271.5 -103.5t101.5 -274.5v-146q0 -171 -101.5 -275t-271.5 -104z" />
    <glyph glyph-name="T" unicode="T" horiz-adv-x="765" 
d="M262 0v1296h-235v240h712v-240h-237v-1296h-240z" />
    <glyph glyph-name="U" unicode="U" horiz-adv-x="1046" 
d="M897 1536v-1190q0 -171 -102.5 -275t-272.5 -104t-271 104t-101 275v1190h239v-1190q0 -64 35.5 -101.5t97.5 -37.5q63 0 99 38t36 101v1190h240z" />
    <glyph glyph-name="V" unicode="V" horiz-adv-x="937" 
d="M653 1536h246l-299 -1536h-258l-303 1536h244l188 -1090z" />
    <glyph glyph-name="W" unicode="W" horiz-adv-x="1376" 
d="M1067 1536h244l-197 -1536h-258l-168 897l-170 -897h-258l-197 1536h246l113 -1014l168 1014h196l168 -1014z" />
    <glyph glyph-name="X" unicode="X" horiz-adv-x="927" 
d="M889 1536l-301 -768l301 -768h-244l-180 453l-182 -453h-244l303 768l-303 768h246l180 -451l178 451h246z" />
    <glyph glyph-name="Y" unicode="Y" horiz-adv-x="940" 
d="M680 1536h246l-334 -811v-725h-240v725l-338 811h246l211 -555z" />
    <glyph glyph-name="Z" unicode="Z" horiz-adv-x="884" 
d="M817 1536v-176l-491 -1120h491v-240h-749l-2 176l493 1120h-491v240h749z" />
    <glyph glyph-name="bracketleft" unicode="[" horiz-adv-x="700" 
d="M152 -369v1966h510v-239h-271v-1487h271v-240h-510z" />
    <glyph glyph-name="backslash" unicode="\" horiz-adv-x="761" 
d="M768 -102h-242l-549 1699h242z" />
    <glyph glyph-name="bracketright" unicode="]" horiz-adv-x="700" 
d="M41 -369v240h268v1487h-268v239h508v-1966h-508z" />
    <glyph glyph-name="asciicircum" unicode="^" horiz-adv-x="933" 
d="M68 993l317 543h172l309 -543h-237l-158 301l-162 -301h-241z" />
    <glyph glyph-name="underscore" unicode="_" horiz-adv-x="1124" 
d="M178 -281v240h768v-240h-768z" />
    <glyph glyph-name="grave" unicode="`" horiz-adv-x="464" 
d="M229 1245l-194 352h239l125 -352h-170z" />
    <glyph glyph-name="a" unicode="a" horiz-adv-x="909" 
d="M442 1149q161 0 259 -103.5t98 -271.5v-774h-226v59q-77 -86 -215 -86q-139 0 -215.5 85t-76.5 221q0 192 176 280q37 19 90 37.5t91 31.5t74.5 31.5t56 45t19.5 63.5v23q0 61 -35 97t-96 36q-62 0 -97.5 -36t-35.5 -97v-54h-223v37q0 168 97 271.5t259 103.5zM426 182
q66 0 106.5 37.5t40.5 112.5v168q-29 -23 -101 -46.5t-85 -29.5q-47 -20 -72.5 -47.5t-25.5 -73.5q0 -52 36 -86.5t101 -34.5z" />
    <glyph glyph-name="b" unicode="b" horiz-adv-x="944" 
d="M553 1149q58 0 107.5 -18.5t91 -58.5t65 -112t23.5 -169v-459q0 -98 -23.5 -170t-65 -112t-91 -58.5t-107.5 -18.5q-128 0 -201 82v-55h-223v1536h223v-469q73 82 201 82zM616 332v459q0 61 -35.5 97t-97.5 36t-96.5 -36t-34.5 -97v-459q0 -61 34.5 -98t96.5 -37t97.5 37
t35.5 98z" />
    <glyph glyph-name="c" unicode="c" horiz-adv-x="870" 
d="M807 369v-21q0 -169 -96.5 -272t-257.5 -103q-162 0 -259.5 103t-97.5 272v426q0 168 97.5 271.5t259.5 103.5q160 0 257 -103.5t97 -271.5v-20h-223v37q0 61 -35 97t-96 36q-62 0 -98 -36t-36 -97v-459q0 -61 36 -98t98 -37q61 0 96 37t35 98v37h223z" />
    <glyph glyph-name="d" unicode="d" horiz-adv-x="944" 
d="M594 1536h223v-1536h-223v55q-73 -82 -201 -82q-59 0 -109 18.5t-91.5 58.5t-65 112t-23.5 170v459q0 98 23.5 169.5t65 111.5t91.5 58.5t109 18.5q128 0 201 -82v469zM461 197q62 0 97.5 37t35.5 98v459q0 61 -35.5 97t-97.5 36q-61 0 -96 -36t-35 -97v-459
q0 -61 35 -98t96 -37z" />
    <glyph glyph-name="e" unicode="e" horiz-adv-x="899" 
d="M807 508h-488v-176q0 -61 36 -98t98 -37q61 0 96 37t35 98v37h223v-21q0 -169 -96.5 -272t-257.5 -103q-162 0 -259.5 103t-97.5 272v426q0 168 97.5 271.5t259.5 103.5q160 0 257 -103.5t97 -271.5v-266zM453 924q-62 0 -98 -36t-36 -97v-74h265v74q0 61 -35 97t-96 36z
" />
    <glyph glyph-name="f" unicode="f" horiz-adv-x="669" 
d="M209 0v915h-205v207h205v72q0 160 97.5 261t258.5 101h103v-223h-103q-62 0 -97.5 -37.5t-35.5 -101.5v-72h236v-207h-236v-915h-223z" />
    <glyph glyph-name="g" unicode="g" horiz-adv-x="929" 
d="M578 1122h225v-1126q0 -167 -98.5 -269t-258.5 -102q-162 0 -259 103t-97 272v39h223v-55q0 -61 35.5 -98.5t97.5 -37.5q61 0 96.5 37.5t35.5 98.5v215q-73 -82 -199 -82q-59 0 -109 18.5t-91.5 58t-65 111.5t-23.5 170v316q0 98 23.5 169.5t65 111.5t91.5 58.5t109 18.5
q126 0 199 -82v55zM446 340q62 0 97 37t35 98v316q0 61 -35 97t-97 36t-96.5 -36t-34.5 -97v-316q0 -61 34.5 -98t96.5 -37z" />
    <glyph glyph-name="h" unicode="h" horiz-adv-x="954" 
d="M553 1149q57 0 106.5 -17.5t90 -53t63.5 -97.5t23 -143v-838h-224v791q0 61 -35 98t-94 37q-61 0 -96 -37t-35 -98v-791h-223v1536h223v-469q73 82 201 82z" />
    <glyph glyph-name="i" unicode="i" 
d="M129 1217v258h223v-258h-223zM129 0v1122h223v-1122h-223z" />
    <glyph glyph-name="j" unicode="j" 
d="M129 1217v258h223v-258h-223zM-74 -375v223h70q61 0 97 38.5t36 101.5v1134h223v-1118q0 -171 -97 -275t-259 -104h-70z" />
    <glyph glyph-name="k" unicode="k" horiz-adv-x="901" 
d="M582 768l323 -768h-235l-234 565l-84 -112v-453h-223v1536h223v-756l258 342h234z" />
    <glyph glyph-name="l" unicode="l" 
d="M129 0v1536h223v-1536h-223z" />
    <glyph glyph-name="m" unicode="m" horiz-adv-x="1437" 
d="M1038 1149q57 0 105.5 -17.5t89 -53t63.5 -97.5t23 -143v-838h-223v791q0 60 -34.5 96.5t-94.5 36.5q-61 0 -96 -36t-35 -97v-791h-224v791q0 60 -34.5 96.5t-94.5 36.5q-61 0 -96 -36t-35 -97v-791h-223v1122h223v-55q73 82 201 82q79 0 144.5 -33t101.5 -102
q74 135 239 135z" />
    <glyph glyph-name="n" unicode="n" horiz-adv-x="950" 
d="M553 1149q132 0 207.5 -95.5t75.5 -262.5v-791h-224v791q0 60 -34.5 96.5t-94.5 36.5q-61 0 -96 -36t-35 -97v-791h-223v1122h223v-61q73 88 201 88z" />
    <glyph glyph-name="o" unicode="o" horiz-adv-x="903" 
d="M453 -27q-162 0 -259.5 103t-97.5 272v426q0 168 97.5 271.5t259.5 103.5q160 0 257 -103.5t97 -271.5v-426q0 -169 -96.5 -272t-257.5 -103zM453 197q61 0 96 37t35 98v459q0 61 -35 97t-96 36q-62 0 -98 -36t-36 -97v-459q0 -61 36 -98t98 -37z" />
    <glyph glyph-name="p" unicode="p" horiz-adv-x="944" 
d="M553 1149q58 0 107.5 -18.5t91 -58.5t65 -112t23.5 -169v-459q0 -98 -23.5 -170t-65 -112t-91 -58.5t-107.5 -18.5q-128 0 -201 82v-424h-223v1491h223v-55q73 82 201 82zM616 332v459q0 61 -35.5 97t-97.5 36t-96.5 -36t-34.5 -97v-459q0 -61 34.5 -98t96.5 -37t97.5 37
t35.5 98z" />
    <glyph glyph-name="q" unicode="q" horiz-adv-x="944" 
d="M592 1122h225v-1474h-225v407q-73 -82 -199 -82q-59 0 -109 18.5t-91.5 58.5t-65 112t-23.5 170v459q0 98 23.5 169.5t65 111.5t91.5 58.5t109 18.5q126 0 199 -82v55zM461 197q62 0 96.5 37t34.5 98v459q0 61 -34.5 97t-96.5 36t-96.5 -36t-34.5 -97v-459
q0 -61 34.5 -98t96.5 -37z" />
    <glyph glyph-name="r" unicode="r" horiz-adv-x="606" 
d="M553 1137h51v-226h-121q-62 0 -96.5 -32t-34.5 -91v-788h-223v1122h223v-67q76 82 201 82z" />
    <glyph glyph-name="s" unicode="s" horiz-adv-x="862" 
d="M434 -27q-162 0 -259 101t-97 266v25h223v-41q0 -58 35.5 -92.5t97.5 -34.5q59 0 93 36t34 93t-35 95t-94 38q-162 0 -258 93.5t-96 246.5q0 158 96 254t258 96q160 0 256 -101t96 -266v-24h-223v41q0 57 -34.5 91t-94.5 34t-95.5 -35t-35.5 -90q0 -58 35.5 -95.5
t95.5 -37.5q160 0 256 -94t96 -246q0 -158 -95.5 -255.5t-254.5 -97.5z" />
    <glyph glyph-name="t" unicode="t" horiz-adv-x="694" 
d="M547 -14q-164 0 -260.5 96.5t-96.5 265.5v567h-188v207h188v271h226v-271h233v-207h-233v-567q0 -64 35 -101.5t96 -37.5h102v-223h-102z" />
    <glyph glyph-name="u" unicode="u" horiz-adv-x="952" 
d="M600 1122h225v-1122h-225v55q-73 -82 -201 -82q-58 0 -106.5 18.5t-89 58.5t-63.5 112t-23 170v790h223v-790q0 -61 35 -98t96 -37t95 37t34 98v790z" />
    <glyph glyph-name="v" unicode="v" horiz-adv-x="870" 
d="M618 1122h244l-293 -1122h-264l-299 1122h244l188 -764z" />
    <glyph glyph-name="w" unicode="w" horiz-adv-x="1200" 
d="M934 1122h233l-192 -1122h-234l-139 674l-143 -674h-234l-192 1122h233l94 -743l142 743h198l140 -743z" />
    <glyph glyph-name="x" unicode="x" horiz-adv-x="831" 
d="M825 1122l-297 -561l297 -561h-231l-176 334l-178 -334h-234l301 561l-301 561h234l178 -334l176 334h231z" />
    <glyph glyph-name="y" unicode="y" horiz-adv-x="866" 
d="M616 1122h244l-411 -1491h-230l100 363l-313 1128h244l186 -747z" />
    <glyph glyph-name="z" unicode="z" horiz-adv-x="808" 
d="M756 1122v-176l-426 -723h424v-223h-703v176l443 723h-439v223h701z" />
    <glyph glyph-name="braceleft" unicode="{" horiz-adv-x="751" 
d="M575 -369q-170 0 -271 104t-101 275v402q0 38 -21.5 61t-58.5 23h-103v239h103q36 0 58 23.5t22 60.5v400q0 171 101 274.5t271 103.5h136v-239h-136q-62 0 -97.5 -37.5t-35.5 -101.5v-400q0 -56 -26.5 -111t-69.5 -92q43 -39 69.5 -94t26.5 -110v-402q0 -64 35.5 -101.5
t97.5 -37.5h136v-240h-136z" />
    <glyph glyph-name="bar" unicode="|" horiz-adv-x="622" 
d="M430 -307h-240v1904h240v-1904z" />
    <glyph glyph-name="braceright" unicode="}" horiz-adv-x="751" 
d="M41 -369v240h133q63 0 99 38t36 101v402q0 55 25.5 110.5t68.5 93.5q-43 37 -68.5 91.5t-25.5 111.5v400q0 63 -36 101t-99 38h-133v239h133q170 0 272.5 -103.5t102.5 -274.5v-400q0 -37 22 -60.5t58 -23.5h102v-239h-102q-37 0 -58.5 -23t-21.5 -61v-402
q0 -171 -102.5 -275t-272.5 -104h-133z" />
    <glyph glyph-name="asciitilde" unicode="~" horiz-adv-x="1218" 
d="M152 381v55q0 132 70.5 204.5t205.5 72.5q64 0 117 -17.5t82 -38t63.5 -38t65.5 -17.5q78 0 78 78v45h231v-61q0 -129 -65.5 -202t-180.5 -73q-57 0 -110 20t-85.5 43.5t-73.5 43.5t-77 20q-43 0 -67.5 -24.5t-24.5 -67.5v-43h-229z" />
    <glyph glyph-name="uni00A0" unicode="&#xa0;" horiz-adv-x="475" 
 />
    <glyph glyph-name="exclamdown" unicode="&#xa1;" horiz-adv-x="595" 
d="M178 815v307h240v-307h-240zM178 -414v1106h240v-1106h-240z" />
    <glyph glyph-name="cent" unicode="&#xa2;" horiz-adv-x="956" 
d="M846 754h-223v37q0 94 -76 122v-706q36 13 56 46.5t20 78.5v37h223v-21q0 -154 -80.5 -254t-218.5 -117v-182h-113v182q-138 19 -218.5 118.5t-80.5 252.5v426q0 152 80.5 252t218.5 119v182h113v-182q138 -17 218.5 -117.5t80.5 -253.5v-20zM358 332q0 -94 76 -125v706
q-76 -28 -76 -122v-459z" />
    <glyph glyph-name="sterling" unicode="&#xa3;" horiz-adv-x="1087" 
d="M999 1116h-239v72q0 63 -36 101t-99 38q-62 0 -97.5 -37.5t-35.5 -101.5v-314h231v-208h-231v-457h403v-209h-782v209h139v457h-139v208h139v314q0 171 101.5 275t271.5 104q171 0 272.5 -104t101.5 -275v-72z" />
    <glyph glyph-name="currency" unicode="&#xa4;" horiz-adv-x="1134" 
d="M233 127l-114 115l147 149q-47 83 -47 187q0 101 47 184l-147 147l114 115l148 -147q84 49 188 49q108 0 185 -47l147 145l115 -115l-148 -145q47 -80 47 -186q0 -111 -49 -187l150 -149l-115 -115l-149 149q-79 -49 -183 -49q-102 0 -186 52zM569 426q62 0 106 43
t44 109q0 67 -44 109t-106 42q-64 0 -108.5 -42t-44.5 -109q0 -66 45 -109t108 -43z" />
    <glyph glyph-name="yen" unicode="&#xa5;" horiz-adv-x="1036" 
d="M975 1536l-330 -799h178v-209h-182v-133h182v-209h-182v-186h-240v186h-186v209h186v133h-186v209h182l-334 799h246l211 -514l209 514h246z" />
    <glyph glyph-name="brokenbar" unicode="&#xa6;" horiz-adv-x="622" 
d="M430 848h-240v749h240v-749zM430 -307h-240v749h240v-749z" />
    <glyph glyph-name="section" unicode="&#xa7;" horiz-adv-x="993" 
d="M500 -74q-160 0 -258.5 104.5t-98.5 274.5v21h224v-37q0 -63 36.5 -101t96.5 -38q58 0 93.5 34t35.5 92q0 60 -36 97t-95 37q-160 0 -257.5 94t-97.5 248q0 65 23.5 129t62.5 104q-40 40 -64 104.5t-24 129.5q0 157 97.5 252.5t255.5 95.5q160 0 258 -104.5t98 -274.5
v-21h-223v37q0 63 -36.5 101t-96.5 38q-57 0 -92 -34t-35 -90q0 -60 35.5 -98t93.5 -38q160 0 257 -93t97 -247q0 -66 -24 -130.5t-62 -104.5q40 -40 64 -103.5t24 -128.5q0 -158 -97 -254t-255 -96zM498 616q59 2 94 36t35 91q0 60 -36 97t-95 37q-57 0 -93 -35t-36 -90
q0 -61 36 -98.5t95 -37.5z" />
    <glyph glyph-name="dieresis" unicode="&#xa8;" horiz-adv-x="782" 
d="M129 1337v260h197v-260h-197zM457 1337v260h196v-260h-196z" />
    <glyph glyph-name="copyright" unicode="&#xa9;" horiz-adv-x="1691" 
d="M844 -31q-333 0 -537.5 220.5t-204.5 580.5q0 359 204.5 578t537.5 219q221 0 390 -97.5t262 -275.5t93 -410q0 -242 -93 -427.5t-262 -286.5t-390 -101zM844 125q265 0 427.5 181.5t162.5 477.5q0 283 -162 455t-428 172q-263 0 -424.5 -176.5t-161.5 -464.5
q0 -290 161.5 -467.5t424.5 -177.5zM846 287q-104 0 -166 62.5t-62 164.5v508q0 102 62 164.5t166 62.5q102 0 163.5 -62.5t61.5 -164.5v-47h-156v47q0 32 -18 52t-51 20t-52.5 -20.5t-19.5 -51.5v-508q0 -31 19.5 -51.5t52.5 -20.5t51 20t18 52v47h156v-47
q0 -102 -61.5 -164.5t-163.5 -62.5z" />
    <glyph glyph-name="ordfeminine" unicode="&#xaa;" horiz-adv-x="671" 
d="M328 1556q98 0 156.5 -62.5t58.5 -162.5v-465h-146v33q-46 -49 -123 -49q-81 0 -126.5 51t-45.5 133q0 66 27.5 105t77.5 63q25 13 65.5 28.5t64 25t42 28.5t18.5 45v12q0 33 -18 52.5t-51 19.5q-32 0 -51 -20t-19 -52v-34h-143v24q0 101 58 163t155 62zM322 983
q33 0 54 20t21 60v98q-11 -9 -27 -16t-38.5 -15t-32.5 -12q-51 -23 -51 -67q0 -27 19.5 -47.5t54.5 -20.5z" />
    <glyph glyph-name="guillemotleft" unicode="&#xab;" horiz-adv-x="1234" 
d="M543 0l-508 442v142l508 442v-272l-275 -242l275 -240v-272zM1135 0l-508 442v142l508 442v-272l-273 -242l273 -240v-272z" />
    <glyph glyph-name="logicalnot" unicode="&#xac;" horiz-adv-x="1140" 
d="M711 225v217h-570v240h809v-457h-239z" />
    <glyph glyph-name="uni00AD" unicode="&#xad;" horiz-adv-x="862" 
d="M150 442v240h604v-240h-604z" />
    <glyph glyph-name="registered" unicode="&#xae;" horiz-adv-x="1691" 
d="M844 -31q-333 0 -537.5 220.5t-204.5 580.5q0 359 204.5 578t537.5 219q221 0 390 -97.5t262 -275.5t93 -410q0 -242 -93 -427.5t-262 -286.5t-390 -101zM844 125q265 0 427.5 181.5t162.5 477.5q0 283 -162 455t-428 172q-263 0 -424.5 -176.5t-161.5 -464.5
q0 -290 161.5 -467.5t424.5 -177.5zM618 307v922h228q102 0 162.5 -61.5t60.5 -163.5v-144q0 -106 -63 -166q63 -46 63 -127v-260h-156v260q0 30 -18 49t-49 19h-72v-328h-156zM774 791h72q32 0 49.5 19t17.5 50v144q0 31 -17.5 50t-49.5 19h-72v-282z" />
    <glyph glyph-name="macron" unicode="&#xaf;" horiz-adv-x="735" 
d="M129 1536h479v-164h-479v164z" />
    <glyph glyph-name="degree" unicode="&#xb0;" horiz-adv-x="843" 
d="M420 999q-117 0 -200 80t-83 203q0 125 83 205t200 80t201 -80.5t84 -204.5q0 -123 -84 -203t-201 -80zM420 1163q52 0 86.5 32.5t34.5 86.5t-34.5 87.5t-86.5 33.5q-51 0 -85 -33.5t-34 -87.5t34 -86.5t85 -32.5z" />
    <glyph glyph-name="plusminus" unicode="&#xb1;" horiz-adv-x="1073" 
d="M657 856h285v-240h-285v-243h-239v243h-287v240h287v246h239v-246zM131 0v240h811v-240h-811z" />
    <glyph glyph-name="uni00B2" unicode="&#xb2;" horiz-adv-x="602" 
d="M72 676v143q0 59 16.5 108.5t42.5 83t57.5 62t63.5 51.5t58 45t42.5 48.5t16.5 56.5v117q0 31 -20 51t-52 20t-51 -20t-19 -51v-48h-155v48q0 101 62 164t163 63q102 0 164.5 -62.5t62.5 -164.5v-117q0 -46 -16 -86t-41.5 -68.5t-56 -54t-61 -49t-56 -47.5t-41.5 -55
t-16 -66v-17h288v-155h-452z" />
    <glyph glyph-name="uni00B3" unicode="&#xb3;" horiz-adv-x="614" 
d="M291 655q-102 0 -165 63t-63 165v47h156v-47q0 -31 19.5 -51.5t52.5 -20.5q30 0 49.5 20.5t19.5 51.5v118q0 31 -19.5 51.5t-49.5 20.5h-94v156h94q31 0 50 19.5t19 51.5v91q0 31 -19 51t-50 20q-33 0 -52.5 -20t-19.5 -51v-48h-156v48q0 101 62.5 164t165.5 63
q101 0 163 -63t62 -164v-91q0 -95 -51 -149q51 -57 51 -150v-118q0 -102 -62 -165t-163 -63z" />
    <glyph glyph-name="acute" unicode="&#xb4;" horiz-adv-x="464" 
d="M66 1245l124 352h240l-194 -352h-170z" />
    <glyph glyph-name="uni00B5" unicode="&#xb5;" horiz-adv-x="1064" 
d="M676 1122h225v-1122h-225v55q-73 -82 -201 -82q-23 0 -59 4v-284h-226v1429h226v-786q0 -64 34 -101.5t95 -37.5q62 0 96.5 38t34.5 101v786z" />
    <glyph glyph-name="paragraph" unicode="&#xb6;" horiz-adv-x="978" 
d="M786 -307h-239v1044h-111q-167 0 -266.5 101.5t-99.5 269.5v59q0 166 99.5 267.5t266.5 101.5h350v-1843z" />
    <glyph glyph-name="periodcentered" unicode="&#xb7;" horiz-adv-x="563" 
d="M178 438v246h207v-246h-207z" />
    <glyph glyph-name="cedilla" unicode="&#xb8;" horiz-adv-x="571" 
d="M281 -106q101 13 167 -47t66 -148q0 -101 -63.5 -162t-167.5 -61h-168v166h168q65 0 65 57q0 27 -17.5 43t-47.5 16h-93l-73 39v246h164v-149z" />
    <glyph glyph-name="uni00B9" unicode="&#xb9;" horiz-adv-x="444" 
d="M166 676v663h-141v156h38q47 0 75 24.5t28 67.5v15h156v-926h-156z" />
    <glyph glyph-name="ordmasculine" unicode="&#xba;" horiz-adv-x="653" 
d="M326 850q-96 0 -154.5 62.5t-58.5 164.5v254q0 101 58 163t155 62q98 0 157.5 -62t59.5 -163v-254q0 -102 -59 -164.5t-158 -62.5zM326 995q33 0 52 19.5t19 50.5v276q0 33 -19 52.5t-52 19.5q-32 0 -50 -19.5t-18 -52.5v-276q0 -31 18 -50.5t50 -19.5z" />
    <glyph glyph-name="guillemotright" unicode="&#xbb;" horiz-adv-x="1234" 
d="M100 0v272l273 240l-273 242v272l508 -442v-142zM692 0v272l273 240l-273 242v272l508 -442v-142z" />
    <glyph glyph-name="onequarter" unicode="&#xbc;" horiz-adv-x="1564" 
d="M166 614v664h-141v156h38q47 0 75 24.5t28 67.5v14h156v-926h-156zM256 0l678 1536h190l-678 -1536h-190zM1270 0v162h-309v135l327 625h137v-603h72v-157h-72v-162h-155zM1122 319h148v295z" />
    <glyph glyph-name="onehalf" unicode="&#xbd;" horiz-adv-x="1538" 
d="M166 614v664h-141v156h38q47 0 75 24.5t28 67.5v14h156v-926h-156zM256 0l678 1536h190l-678 -1536h-190zM1008 0v143q0 59 16.5 108.5t42.5 83t57.5 62t63.5 51.5t58 45t42.5 48.5t16.5 56.5v117q0 31 -20 51t-52 20t-51 -20t-19 -51v-47h-155v47q0 101 62 164t163 63
q102 0 164.5 -62.5t62.5 -164.5v-117q0 -54 -21.5 -99t-53.5 -74.5t-69.5 -60t-69.5 -55.5t-53.5 -61t-21.5 -76v-16h289v-156h-452z" />
    <glyph glyph-name="threequarters" unicode="&#xbe;" horiz-adv-x="1734" 
d="M291 594q-103 0 -165.5 63t-62.5 164v47h156v-47q0 -31 19.5 -51t52.5 -20q31 0 50 20t19 51v119q0 31 -19.5 51.5t-49.5 20.5h-94v155h94q31 0 50 20t19 52v90q0 31 -19.5 51.5t-49.5 20.5q-33 0 -52.5 -20.5t-19.5 -51.5v-47h-156v47q0 101 62.5 164t165.5 63
q101 0 163 -63t62 -164v-90q0 -95 -51 -149q51 -57 51 -150v-119q0 -101 -62 -164t-163 -63zM426 0l678 1536h190l-678 -1536h-190zM1440 0v162h-310v135l328 625h137v-603h72v-157h-72v-162h-155zM1292 319h148v295z" />
    <glyph glyph-name="questiondown" unicode="&#xbf;" horiz-adv-x="880" 
d="M604 1122v-278h-239v278h239zM604 760v-53q0 -72 -15.5 -133t-41 -103.5t-55.5 -79t-60.5 -67.5t-56 -61t-41 -66.5t-15.5 -77.5v-187q0 -63 36.5 -101t99.5 -38q62 0 97.5 37.5t35.5 101.5v72h239v-72q0 -171 -101 -274.5t-271 -103.5q-171 0 -273 103.5t-102 274.5v187
q0 61 15.5 114t41 92t55.5 74.5t60.5 69t56 67.5t41 78t15.5 93v53h239z" />
    <glyph glyph-name="Agrave" unicode="&#xc0;" horiz-adv-x="937" 
d="M559 1659h-170l-194 352h239zM600 1536l299 -1536h-246l-43 260h-280l-47 -260h-244l303 1536h258zM367 500h206l-102 612z" />
    <glyph glyph-name="Aacute" unicode="&#xc1;" horiz-adv-x="937" 
d="M748 2011l-195 -352h-170l125 352h240zM600 1536l299 -1536h-246l-43 260h-280l-47 -260h-244l303 1536h258zM367 500h206l-102 612z" />
    <glyph glyph-name="Acircumflex" unicode="&#xc2;" horiz-adv-x="937" 
d="M469 1874l-123 -170h-211l238 307h188l238 -307h-211zM600 1536l299 -1536h-246l-43 260h-280l-47 -260h-244l303 1536h258zM367 500h206l-102 612z" />
    <glyph glyph-name="Atilde" unicode="&#xc3;" horiz-adv-x="937" 
d="M352 1757v-53h-180v68q0 77 38.5 121t102.5 44q87 0 156 -53q3 -2 14.5 -11t15 -11.5t13 -8.5t15 -8t14 -4t16.5 -2q27 0 27 37v53h180v-71q0 -76 -38.5 -120t-102.5 -44q-36 0 -69 9.5t-49.5 19t-41.5 26.5q-2 2 -9.5 7.5t-10 7.5t-9 6.5t-9.5 6t-8.5 5t-9 4.5t-8.5 3
t-9.5 2.5t-8.5 0.5q-29 0 -29 -35zM600 1536l299 -1536h-246l-43 260h-280l-47 -260h-244l303 1536h258zM367 500h206l-102 612z" />
    <glyph glyph-name="Adieresis" unicode="&#xc4;" horiz-adv-x="937" 
d="M406 2011v-260h-197v260h197zM733 2011v-260h-196v260h196zM600 1536l299 -1536h-246l-43 260h-280l-47 -260h-244l303 1536h258zM367 500h206l-102 612z" />
    <glyph glyph-name="Aring" unicode="&#xc5;" horiz-adv-x="937" 
d="M469 1581q-89 0 -151 59.5t-62 153.5q0 95 62 155t151 60q90 0 152.5 -60t62.5 -155t-62.5 -154t-152.5 -59zM469 1872q-32 0 -54 -22t-22 -56q0 -33 22.5 -54.5t53.5 -21.5q32 0 55 21.5t23 54.5q0 34 -23 56t-55 22zM600 1536l299 -1536h-246l-43 260h-280l-47 -260
h-244l303 1536h258zM367 500h206l-102 612z" />
    <glyph glyph-name="AE" unicode="&#xc6;" horiz-adv-x="1341" 
d="M39 0l303 1536h911v-240h-393v-376h338v-240h-338v-440h393v-240h-632v260h-289l-49 -260h-244zM375 500h246v796h-99z" />
    <glyph glyph-name="Ccedilla" unicode="&#xc7;" horiz-adv-x="962" 
d="M885 1118h-240v72q0 63 -36 101t-99 38q-62 0 -97.5 -37.5t-35.5 -101.5v-844q0 -64 35.5 -101.5t97.5 -37.5q63 0 99 38t36 101v74h240v-74q0 -146 -75.5 -244.5t-205.5 -124.5v-83q102 13 168 -47t66 -148q0 -101 -63.5 -162t-168.5 -61h-168v166h168q31 0 48.5 15
t17.5 42t-18 43t-48 16h-92l-74 39v174q-140 22 -221.5 122.5t-81.5 252.5v844q0 171 101.5 275t271.5 104t272.5 -104t102.5 -275v-72z" />
    <glyph glyph-name="Egrave" unicode="&#xc8;" horiz-adv-x="878" 
d="M356 1659l-194 352h239l125 -352h-170zM788 1536v-240h-389v-376h334v-240h-334v-440h389v-240h-628v1536h628z" />
    <glyph glyph-name="Eacute" unicode="&#xc9;" horiz-adv-x="878" 
d="M350 1659l125 352h240l-195 -352h-170zM788 1536v-240h-389v-376h334v-240h-334v-440h389v-240h-628v1536h628z" />
    <glyph glyph-name="Ecircumflex" unicode="&#xca;" horiz-adv-x="878" 
d="M102 1704l238 307h188l238 -307h-211l-119 170l-123 -170h-211zM788 1536v-240h-389v-376h334v-240h-334v-440h389v-240h-628v1536h628z" />
    <glyph glyph-name="Edieresis" unicode="&#xcb;" horiz-adv-x="878" 
d="M176 1751v260h197v-260h-197zM504 1751v260h196v-260h-196zM788 1536v-240h-389v-376h334v-240h-334v-440h389v-240h-628v1536h628z" />
    <glyph glyph-name="Igrave" unicode="&#xcc;" horiz-adv-x="557" 
d="M201 1659l-195 352h240l125 -352h-170zM399 0h-239v1536h239v-1536z" />
    <glyph glyph-name="Iacute" unicode="&#xcd;" horiz-adv-x="557" 
d="M195 1659l124 352h240l-194 -352h-170zM399 0h-239v1536h239v-1536z" />
    <glyph glyph-name="Icircumflex" unicode="&#xce;" horiz-adv-x="557" 
d="M-53 1704l237 307h189l237 -307h-211l-118 170l-123 -170h-211zM399 0h-239v1536h239v-1536z" />
    <glyph glyph-name="Idieresis" unicode="&#xcf;" horiz-adv-x="557" 
d="M20 1751v260h197v-260h-197zM348 1751v260h197v-260h-197zM399 0h-239v1536h239v-1536z" />
    <glyph glyph-name="Eth" unicode="&#xd0;" horiz-adv-x="1030" 
d="M528 1536q170 0 272.5 -104t102.5 -275v-778q0 -171 -102.5 -275t-272.5 -104h-368v668h-127v202h127v666h368zM664 379v778q0 63 -36.5 101t-99.5 38h-129v-426h136v-202h-136v-428h129q63 0 99.5 38t36.5 101z" />
    <glyph glyph-name="Ntilde" unicode="&#xd1;" horiz-adv-x="1050" 
d="M408 1757v-53h-181v68q0 77 39 121t103 44q86 0 155 -53q3 -2 14.5 -11t15 -11.5t13 -8.5t15 -8t14 -4t16.5 -2q27 0 27 37v53h180v-71q0 -76 -38.5 -120t-102.5 -44q-36 0 -69 9.5t-49.5 19t-41.5 26.5q-2 2 -9.5 7.5t-10 7.5t-9 6.5t-9.5 6t-8.5 5t-9 4.5t-8.5 3
t-9.5 2.5t-8.5 0.5q-28 0 -28 -35zM668 1536h223v-1536h-184l-324 893v-893h-223v1536h182l326 -893v893z" />
    <glyph glyph-name="Ograve" unicode="&#xd2;" horiz-adv-x="1021" 
d="M430 1659l-194 352h239l125 -352h-170zM510 -33q-170 0 -271.5 104t-101.5 275v844q0 171 101.5 275t271.5 104t272.5 -104t102.5 -275v-844q0 -171 -102.5 -275t-272.5 -104zM510 207q63 0 99 38t36 101v844q0 63 -36 101t-99 38q-62 0 -97.5 -37.5t-35.5 -101.5v-844
q0 -64 35.5 -101.5t97.5 -37.5z" />
    <glyph glyph-name="Oacute" unicode="&#xd3;" horiz-adv-x="1021" 
d="M424 1659l125 352h239l-194 -352h-170zM510 -33q-170 0 -271.5 104t-101.5 275v844q0 171 101.5 275t271.5 104t272.5 -104t102.5 -275v-844q0 -171 -102.5 -275t-272.5 -104zM510 207q63 0 99 38t36 101v844q0 63 -36 101t-99 38q-62 0 -97.5 -37.5t-35.5 -101.5v-844
q0 -64 35.5 -101.5t97.5 -37.5z" />
    <glyph glyph-name="Ocircumflex" unicode="&#xd4;" horiz-adv-x="1021" 
d="M176 1704l238 307h188l238 -307h-211l-119 170l-123 -170h-211zM510 -33q-170 0 -271.5 104t-101.5 275v844q0 171 101.5 275t271.5 104t272.5 -104t102.5 -275v-844q0 -171 -102.5 -275t-272.5 -104zM510 207q63 0 99 38t36 101v844q0 63 -36 101t-99 38
q-62 0 -97.5 -37.5t-35.5 -101.5v-844q0 -64 35.5 -101.5t97.5 -37.5z" />
    <glyph glyph-name="Otilde" unicode="&#xd5;" horiz-adv-x="1021" 
d="M664 1694q-36 0 -69 9.5t-49.5 19t-41.5 26.5q-2 2 -9.5 7.5t-10 7.5t-9 6.5t-9.5 6t-8.5 5t-9 4.5t-8.5 3t-9.5 2.5t-8.5 0.5q-29 0 -29 -35v-53h-180v68q0 77 38.5 121t102.5 44q87 0 156 -53q3 -2 14.5 -11t15 -11.5t13 -8.5t15 -8t14 -4t16.5 -2q27 0 27 37v53h180
v-71q0 -76 -38.5 -120t-102.5 -44zM510 -33q-170 0 -271.5 104t-101.5 275v844q0 171 101.5 275t271.5 104t272.5 -104t102.5 -275v-844q0 -171 -102.5 -275t-272.5 -104zM510 207q63 0 99 38t36 101v844q0 63 -36 101t-99 38q-62 0 -97.5 -37.5t-35.5 -101.5v-844
q0 -64 35.5 -101.5t97.5 -37.5z" />
    <glyph glyph-name="Odieresis" unicode="&#xd6;" horiz-adv-x="1021" 
d="M250 1751v260h196v-260h-196zM578 1751v260h196v-260h-196zM510 -33q-170 0 -271.5 104t-101.5 275v844q0 171 101.5 275t271.5 104t272.5 -104t102.5 -275v-844q0 -171 -102.5 -275t-272.5 -104zM510 207q63 0 99 38t36 101v844q0 63 -36 101t-99 38q-62 0 -97.5 -37.5
t-35.5 -101.5v-844q0 -64 35.5 -101.5t97.5 -37.5z" />
    <glyph glyph-name="multiply" unicode="&#xd7;" horiz-adv-x="942" 
d="M844 362l-172 -169l-201 202l-203 -202l-170 169l203 203l-201 201l170 170l201 -201l201 201l170 -170l-201 -201z" />
    <glyph glyph-name="Oslash" unicode="&#xd8;" horiz-adv-x="1021" 
d="M1010 1604l-144 -283q19 -62 19 -131v-844q0 -171 -102.5 -275t-272.5 -104q-174 0 -277 109l-73 -146h-148l144 283q-19 65 -19 133v844q0 171 101.5 275t271.5 104q173 0 278 -111l74 146h148zM377 1190v-543l268 529v14q0 63 -36 101t-99 38q-62 0 -97.5 -37.5
t-35.5 -101.5zM645 346v541l-268 -529v-12q0 -64 35.5 -101.5t97.5 -37.5q63 0 99 38t36 101z" />
    <glyph glyph-name="Ugrave" unicode="&#xd9;" horiz-adv-x="1046" 
d="M442 1659l-194 352h239l125 -352h-170zM897 1536v-1190q0 -171 -102.5 -275t-272.5 -104t-271 104t-101 275v1190h239v-1190q0 -64 35.5 -101.5t97.5 -37.5q63 0 99 38t36 101v1190h240z" />
    <glyph glyph-name="Uacute" unicode="&#xda;" horiz-adv-x="1046" 
d="M436 1659l125 352h240l-195 -352h-170zM897 1536v-1190q0 -171 -102.5 -275t-272.5 -104t-271 104t-101 275v1190h239v-1190q0 -64 35.5 -101.5t97.5 -37.5q63 0 99 38t36 101v1190h240z" />
    <glyph glyph-name="Ucircumflex" unicode="&#xdb;" horiz-adv-x="1046" 
d="M188 1704l238 307h188l238 -307h-211l-119 170l-123 -170h-211zM897 1536v-1190q0 -171 -102.5 -275t-272.5 -104t-271 104t-101 275v1190h239v-1190q0 -64 35.5 -101.5t97.5 -37.5q63 0 99 38t36 101v1190h240z" />
    <glyph glyph-name="Udieresis" unicode="&#xdc;" horiz-adv-x="1046" 
d="M262 1751v260h197v-260h-197zM590 1751v260h196v-260h-196zM897 1536v-1190q0 -171 -102.5 -275t-272.5 -104t-271 104t-101 275v1190h239v-1190q0 -64 35.5 -101.5t97.5 -37.5q63 0 99 38t36 101v1190h240z" />
    <glyph glyph-name="Yacute" unicode="&#xdd;" horiz-adv-x="940" 
d="M750 2011l-195 -352h-170l125 352h240zM680 1536h246l-334 -811v-725h-240v725l-338 811h246l211 -555z" />
    <glyph glyph-name="Thorn" unicode="&#xde;" horiz-adv-x="966" 
d="M160 0v1536h239v-201h140q165 0 264.5 -101t99.5 -269v-193q0 -167 -99.5 -269t-264.5 -102h-140v-401h-239zM399 641h140q58 0 91.5 36t33.5 95v193q0 59 -33.5 95t-91.5 36h-140v-455z" />
    <glyph glyph-name="germandbls" unicode="&#xdf;" horiz-adv-x="1021" 
d="M836 776q94 -109 94 -262v-168q0 -167 -100.5 -269t-266.5 -102h-78v240h78q59 0 93 36t34 95v168q0 59 -34 95t-93 36h-76v240h56q59 0 93 35t34 94v160q0 70 -42 112.5t-110 42.5t-108.5 -42.5t-40.5 -112.5v-1420h-240v1420q0 178 107 286.5t282 108.5t283 -108.5
t108 -286.5v-160q0 -143 -73 -238z" />
    <glyph glyph-name="agrave" unicode="&#xe0;" horiz-adv-x="909" 
d="M532 1245h-170l-194 352h240zM442 1149q161 0 259 -103.5t98 -271.5v-774h-226v59q-77 -86 -215 -86q-139 0 -215.5 85t-76.5 221q0 192 176 280q37 19 90 37.5t91 31.5t74.5 31.5t56 45t19.5 63.5v23q0 61 -35 97t-96 36q-62 0 -97.5 -36t-35.5 -97v-54h-223v37
q0 168 97 271.5t259 103.5zM426 182q66 0 106.5 37.5t40.5 112.5v168q-29 -23 -101 -46.5t-85 -29.5q-47 -20 -72.5 -47.5t-25.5 -73.5q0 -52 36 -86.5t101 -34.5z" />
    <glyph glyph-name="aacute" unicode="&#xe1;" horiz-adv-x="909" 
d="M721 1597l-195 -352h-170l125 352h240zM442 1149q161 0 259 -103.5t98 -271.5v-774h-226v59q-77 -86 -215 -86q-139 0 -215.5 85t-76.5 221q0 192 176 280q37 19 90 37.5t91 31.5t74.5 31.5t56 45t19.5 63.5v23q0 61 -35 97t-96 36q-62 0 -97.5 -36t-35.5 -97v-54h-223
v37q0 168 97 271.5t259 103.5zM426 182q66 0 106.5 37.5t40.5 112.5v168q-29 -23 -101 -46.5t-85 -29.5q-47 -20 -72.5 -47.5t-25.5 -73.5q0 -52 36 -86.5t101 -34.5z" />
    <glyph glyph-name="acircumflex" unicode="&#xe2;" horiz-adv-x="909" 
d="M442 1460l-123 -170h-210l237 307h189l237 -307h-211zM442 1149q161 0 259 -103.5t98 -271.5v-774h-226v59q-77 -86 -215 -86q-139 0 -215.5 85t-76.5 221q0 192 176 280q37 19 90 37.5t91 31.5t74.5 31.5t56 45t19.5 63.5v23q0 61 -35 97t-96 36q-62 0 -97.5 -36
t-35.5 -97v-54h-223v37q0 168 97 271.5t259 103.5zM426 182q66 0 106.5 37.5t40.5 112.5v168q-29 -23 -101 -46.5t-85 -29.5q-47 -20 -72.5 -47.5t-25.5 -73.5q0 -52 36 -86.5t101 -34.5z" />
    <glyph glyph-name="atilde" unicode="&#xe3;" horiz-adv-x="909" 
d="M326 1343v-53h-181v68q0 77 39 121.5t103 44.5q85 0 155 -54q3 -2 14.5 -11t15 -11.5t13 -8.5t15 -8t14 -4t16.5 -2q27 0 27 37v54h180v-72q0 -76 -38.5 -120t-102.5 -44q-36 0 -69 9.5t-49.5 19t-41.5 26.5q-2 2 -9.5 7.5t-10 7.5t-9 6.5t-9.5 6t-8.5 5t-9 4.5t-8.5 3
t-9.5 2.5t-8.5 0.5q-28 0 -28 -35zM442 1149q161 0 259 -103.5t98 -271.5v-774h-226v59q-77 -86 -215 -86q-139 0 -215.5 85t-76.5 221q0 192 176 280q37 19 90 37.5t91 31.5t74.5 31.5t56 45t19.5 63.5v23q0 61 -35 97t-96 36q-62 0 -97.5 -36t-35.5 -97v-54h-223v37
q0 168 97 271.5t259 103.5zM426 182q66 0 106.5 37.5t40.5 112.5v168q-29 -23 -101 -46.5t-85 -29.5q-47 -20 -72.5 -47.5t-25.5 -73.5q0 -52 36 -86.5t101 -34.5z" />
    <glyph glyph-name="adieresis" unicode="&#xe4;" horiz-adv-x="909" 
d="M379 1597v-260h-197v260h197zM707 1597v-260h-197v260h197zM442 1149q161 0 259 -103.5t98 -271.5v-774h-226v59q-77 -86 -215 -86q-139 0 -215.5 85t-76.5 221q0 192 176 280q37 19 90 37.5t91 31.5t74.5 31.5t56 45t19.5 63.5v23q0 61 -35 97t-96 36q-62 0 -97.5 -36
t-35.5 -97v-54h-223v37q0 168 97 271.5t259 103.5zM426 182q66 0 106.5 37.5t40.5 112.5v168q-29 -23 -101 -46.5t-85 -29.5q-47 -20 -72.5 -47.5t-25.5 -73.5q0 -52 36 -86.5t101 -34.5z" />
    <glyph glyph-name="aring" unicode="&#xe5;" horiz-adv-x="909" 
d="M442 1167q-89 0 -151 59.5t-62 153.5q0 95 62 155t151 60q90 0 152.5 -60t62.5 -155t-62.5 -154t-152.5 -59zM442 1458q-32 0 -53.5 -22t-21.5 -56q0 -33 22 -54t53 -21q32 0 55 21t23 54q0 34 -23 56t-55 22zM442 1149q161 0 259 -103.5t98 -271.5v-774h-226v59
q-77 -86 -215 -86q-139 0 -215.5 85t-76.5 221q0 192 176 280q37 19 90 37.5t91 31.5t74.5 31.5t56 45t19.5 63.5v23q0 61 -35 97t-96 36q-62 0 -97.5 -36t-35.5 -97v-54h-223v37q0 168 97 271.5t259 103.5zM426 182q66 0 106.5 37.5t40.5 112.5v168q-29 -23 -101 -46.5
t-85 -29.5q-47 -20 -72.5 -47.5t-25.5 -73.5q0 -52 36 -86.5t101 -34.5z" />
    <glyph glyph-name="ae" unicode="&#xe6;" horiz-adv-x="1376" 
d="M1286 508h-487v-176q0 -61 35.5 -98t97.5 -37q61 0 96 37t35 98v37h223v-21q0 -169 -96.5 -272t-257.5 -103q-97 0 -175 40.5t-124 111.5q-41 -78 -114 -115t-161 -37q-139 0 -215.5 85t-76.5 221q0 192 176 280q37 19 90 37.5t91 31.5t74.5 31.5t56 45t19.5 63.5v23
q0 61 -35 97t-96 36q-62 0 -97.5 -36t-35.5 -97v-54h-223v37q0 168 97 271.5t259 103.5q147 0 246 -90q93 90 244 90q160 0 257 -103.5t97 -271.5v-266zM799 791v-74h264v74q0 61 -35 97t-96 36q-62 0 -97.5 -36t-35.5 -97zM573 332v168q-29 -23 -101 -46.5t-85 -29.5
q-47 -20 -72.5 -47.5t-25.5 -73.5q0 -52 36 -86.5t101 -34.5q66 0 106.5 37.5t40.5 112.5z" />
    <glyph glyph-name="ccedilla" unicode="&#xe7;" horiz-adv-x="870" 
d="M807 754h-223v37q0 61 -35 97t-96 36q-62 0 -98 -36t-36 -97v-459q0 -61 36 -98t98 -37q61 0 96 37t35 98v37h223v-21q0 -142 -70 -239t-190 -125v-90q101 13 167 -47t66 -148q0 -101 -63.5 -162t-167.5 -61h-168v166h168q65 0 65 57q0 27 -17.5 43t-47.5 16h-92l-74 39
v183q-133 22 -210 120t-77 248v426q0 168 97.5 271.5t259.5 103.5q160 0 257 -103.5t97 -271.5v-20z" />
    <glyph glyph-name="egrave" unicode="&#xe8;" horiz-adv-x="899" 
d="M543 1245h-170l-195 352h240zM807 508h-488v-176q0 -61 36 -98t98 -37q61 0 96 37t35 98v37h223v-21q0 -169 -96.5 -272t-257.5 -103q-162 0 -259.5 103t-97.5 272v426q0 168 97.5 271.5t259.5 103.5q160 0 257 -103.5t97 -271.5v-266zM453 924q-62 0 -98 -36t-36 -97
v-74h265v74q0 61 -35 97t-96 36z" />
    <glyph glyph-name="eacute" unicode="&#xe9;" horiz-adv-x="899" 
d="M731 1597l-194 -352h-170l125 352h239zM807 508h-488v-176q0 -61 36 -98t98 -37q61 0 96 37t35 98v37h223v-21q0 -169 -96.5 -272t-257.5 -103q-162 0 -259.5 103t-97.5 272v426q0 168 97.5 271.5t259.5 103.5q160 0 257 -103.5t97 -271.5v-266zM453 924q-62 0 -98 -36
t-36 -97v-74h265v74q0 61 -35 97t-96 36z" />
    <glyph glyph-name="ecircumflex" unicode="&#xea;" horiz-adv-x="899" 
d="M453 1460l-123 -170h-211l237 307h189l237 -307h-211zM807 508h-488v-176q0 -61 36 -98t98 -37q61 0 96 37t35 98v37h223v-21q0 -169 -96.5 -272t-257.5 -103q-162 0 -259.5 103t-97.5 272v426q0 168 97.5 271.5t259.5 103.5q160 0 257 -103.5t97 -271.5v-266zM453 924
q-62 0 -98 -36t-36 -97v-74h265v74q0 61 -35 97t-96 36z" />
    <glyph glyph-name="edieresis" unicode="&#xeb;" horiz-adv-x="899" 
d="M389 1597v-260h-196v260h196zM717 1597v-260h-197v260h197zM807 508h-488v-176q0 -61 36 -98t98 -37q61 0 96 37t35 98v37h223v-21q0 -169 -96.5 -272t-257.5 -103q-162 0 -259.5 103t-97.5 272v426q0 168 97.5 271.5t259.5 103.5q160 0 257 -103.5t97 -271.5v-266z
M453 924q-62 0 -98 -36t-36 -97v-74h265v74q0 61 -35 97t-96 36z" />
    <glyph glyph-name="igrave" unicode="&#xec;" 
d="M162 1245l-195 352h240l125 -352h-170zM129 0v1122h223v-1122h-223z" />
    <glyph glyph-name="iacute" unicode="&#xed;" 
d="M156 1245l125 352h239l-194 -352h-170zM129 0v1122h223v-1122h-223z" />
    <glyph glyph-name="icircumflex" unicode="&#xee;" 
d="M-92 1290l237 307h189l237 -307h-211l-118 170l-123 -170h-211zM129 0v1122h223v-1122h-223z" />
    <glyph glyph-name="idieresis" unicode="&#xef;" 
d="M-18 1337v260h196v-260h-196zM309 1337v260h197v-260h-197zM129 0v1122h223v-1122h-223z" />
    <glyph glyph-name="eth" unicode="&#xf0;" horiz-adv-x="944" 
d="M907 1409v-135l-90 -25v-8v-1241h-223v55q-73 -82 -201 -82q-59 0 -109 18.5t-91.5 58.5t-65 112t-23.5 170v459q0 98 23.5 169.5t65 111.5t91.5 58.5t109 18.5q128 0 201 -82v123l-127 -33v135l104 29q-36 55 -110 55h-53v160h133q88 0 152.5 -41.5t97.5 -116.5z
M461 197q62 0 97.5 37t35.5 98v459q0 61 -35.5 97t-97.5 36q-61 0 -96 -36t-35 -97v-459q0 -61 35 -98t96 -37z" />
    <glyph glyph-name="ntilde" unicode="&#xf1;" horiz-adv-x="950" 
d="M365 1343v-53h-181v68q0 77 39 121.5t103 44.5q85 0 155 -54q3 -2 14.5 -11t15 -11.5t13 -8.5t15 -8t14 -4t16.5 -2q27 0 27 37v54h180v-72q0 -76 -38.5 -120t-102.5 -44q-36 0 -69 9.5t-49.5 19t-41.5 26.5q-2 2 -9.5 7.5t-10 7.5t-9 6.5t-9.5 6t-8.5 5t-9 4.5t-8.5 3
t-9.5 2.5t-8.5 0.5q-28 0 -28 -35zM553 1149q132 0 207.5 -95.5t75.5 -262.5v-791h-224v791q0 60 -34.5 96.5t-94.5 36.5q-61 0 -96 -36t-35 -97v-791h-223v1122h223v-61q73 88 201 88z" />
    <glyph glyph-name="ograve" unicode="&#xf2;" horiz-adv-x="903" 
d="M373 1245l-195 352h240l125 -352h-170zM453 -27q-162 0 -259.5 103t-97.5 272v426q0 168 97.5 271.5t259.5 103.5q160 0 257 -103.5t97 -271.5v-426q0 -169 -96.5 -272t-257.5 -103zM453 197q61 0 96 37t35 98v459q0 61 -35 97t-96 36q-62 0 -98 -36t-36 -97v-459
q0 -61 36 -98t98 -37z" />
    <glyph glyph-name="oacute" unicode="&#xf3;" horiz-adv-x="903" 
d="M367 1245l125 352h239l-194 -352h-170zM453 -27q-162 0 -259.5 103t-97.5 272v426q0 168 97.5 271.5t259.5 103.5q160 0 257 -103.5t97 -271.5v-426q0 -169 -96.5 -272t-257.5 -103zM453 197q61 0 96 37t35 98v459q0 61 -35 97t-96 36q-62 0 -98 -36t-36 -97v-459
q0 -61 36 -98t98 -37z" />
    <glyph glyph-name="ocircumflex" unicode="&#xf4;" horiz-adv-x="903" 
d="M119 1290l237 307h189l237 -307h-211l-118 170l-123 -170h-211zM453 -27q-162 0 -259.5 103t-97.5 272v426q0 168 97.5 271.5t259.5 103.5q160 0 257 -103.5t97 -271.5v-426q0 -169 -96.5 -272t-257.5 -103zM453 197q61 0 96 37t35 98v459q0 61 -35 97t-96 36
q-62 0 -98 -36t-36 -97v-459q0 -61 36 -98t98 -37z" />
    <glyph glyph-name="otilde" unicode="&#xf5;" horiz-adv-x="903" 
d="M606 1280q-36 0 -69 9.5t-49.5 19t-41.5 26.5q-3 2 -12.5 9.5t-12.5 9.5t-11 7.5t-12 7t-10.5 4.5t-11.5 4t-11 1q-29 0 -29 -35v-53h-180v68q0 77 38.5 121.5t102.5 44.5q86 0 156 -54q3 -2 14.5 -11t15 -11.5t13 -8.5t15 -8t14 -4t16.5 -2q26 0 26 37v54h181v-72
q0 -76 -39 -120t-103 -44zM453 -27q-162 0 -259.5 103t-97.5 272v426q0 168 97.5 271.5t259.5 103.5q160 0 257 -103.5t97 -271.5v-426q0 -169 -96.5 -272t-257.5 -103zM453 197q61 0 96 37t35 98v459q0 61 -35 97t-96 36q-62 0 -98 -36t-36 -97v-459q0 -61 36 -98t98 -37z
" />
    <glyph glyph-name="odieresis" unicode="&#xf6;" horiz-adv-x="903" 
d="M193 1337v260h196v-260h-196zM520 1337v260h197v-260h-197zM453 -27q-162 0 -259.5 103t-97.5 272v426q0 168 97.5 271.5t259.5 103.5q160 0 257 -103.5t97 -271.5v-426q0 -169 -96.5 -272t-257.5 -103zM453 197q61 0 96 37t35 98v459q0 61 -35 97t-96 36q-62 0 -98 -36
t-36 -97v-459q0 -61 36 -98t98 -37z" />
    <glyph glyph-name="divide" unicode="&#xf7;" horiz-adv-x="1079" 
d="M422 762v270h240v-270h-240zM94 442v240h891v-240h-891zM422 94v271h240v-271h-240z" />
    <glyph glyph-name="oslash" unicode="&#xf8;" horiz-adv-x="903" 
d="M846 1163l-92 -174q53 -89 53 -215v-426q0 -169 -96.5 -272t-257.5 -103q-121 0 -209 60l-39 -74h-148l93 174q-54 91 -54 215v426q0 168 97.5 271.5t259.5 103.5q120 0 206 -59l39 73h148zM319 791v-340l232 434q-36 39 -98 39t-98 -36t-36 -97zM584 332v340l-232 -436
q36 -39 101 -39q61 0 96 37t35 98z" />
    <glyph glyph-name="ugrave" unicode="&#xf9;" horiz-adv-x="952" 
d="M565 1245h-170l-194 352h239zM600 1122h225v-1122h-225v55q-73 -82 -201 -82q-58 0 -106.5 18.5t-89 58.5t-63.5 112t-23 170v790h223v-790q0 -61 35 -98t96 -37t95 37t34 98v790z" />
    <glyph glyph-name="uacute" unicode="&#xfa;" horiz-adv-x="952" 
d="M754 1597l-195 -352h-170l125 352h240zM600 1122h225v-1122h-225v55q-73 -82 -201 -82q-58 0 -106.5 18.5t-89 58.5t-63.5 112t-23 170v790h223v-790q0 -61 35 -98t96 -37t95 37t34 98v790z" />
    <glyph glyph-name="ucircumflex" unicode="&#xfb;" horiz-adv-x="952" 
d="M475 1460l-123 -170h-211l238 307h188l238 -307h-211zM600 1122h225v-1122h-225v55q-73 -82 -201 -82q-58 0 -106.5 18.5t-89 58.5t-63.5 112t-23 170v790h223v-790q0 -61 35 -98t96 -37t95 37t34 98v790z" />
    <glyph glyph-name="udieresis" unicode="&#xfc;" horiz-adv-x="952" 
d="M412 1597v-260h-197v260h197zM739 1597v-260h-196v260h196zM600 1122h225v-1122h-225v55q-73 -82 -201 -82q-58 0 -106.5 18.5t-89 58.5t-63.5 112t-23 170v790h223v-790q0 -61 35 -98t96 -37t95 37t34 98v790z" />
    <glyph glyph-name="yacute" unicode="&#xfd;" horiz-adv-x="866" 
d="M713 1597l-195 -352h-170l125 352h240zM616 1122h244l-411 -1491h-230l100 363l-313 1128h244l186 -747z" />
    <glyph glyph-name="thorn" unicode="&#xfe;" horiz-adv-x="944" 
d="M553 1149q58 0 107.5 -18.5t91 -58.5t65 -112t23.5 -169v-459q0 -98 -23.5 -170t-65 -112t-91 -58.5t-107.5 -18.5q-128 0 -201 82v-424h-223v1905h223v-469q73 82 201 82zM616 332v459q0 61 -35.5 97t-97.5 36t-96.5 -36t-34.5 -97v-459q0 -61 34.5 -98t96.5 -37
t97.5 37t35.5 98z" />
    <glyph glyph-name="ydieresis" unicode="&#xff;" horiz-adv-x="866" 
d="M371 1597v-260h-197v260h197zM698 1597v-260h-196v260h196zM616 1122h244l-411 -1491h-230l100 363l-313 1128h244l186 -747z" />
    <glyph glyph-name="Amacron" unicode="&#x100;" horiz-adv-x="937" 
d="M711 1839v-164h-480v164h480zM600 1536l299 -1536h-246l-43 260h-280l-47 -260h-244l303 1536h258zM367 500h206l-102 612z" />
    <glyph glyph-name="amacron" unicode="&#x101;" horiz-adv-x="909" 
d="M684 1425v-163h-479v163h479zM442 1149q161 0 259 -103.5t98 -271.5v-774h-226v59q-77 -86 -215 -86q-139 0 -215.5 85t-76.5 221q0 192 176 280q37 19 90 37.5t91 31.5t74.5 31.5t56 45t19.5 63.5v23q0 61 -35 97t-96 36q-62 0 -97.5 -36t-35.5 -97v-54h-223v37
q0 168 97 271.5t259 103.5zM426 182q66 0 106.5 37.5t40.5 112.5v168q-29 -23 -101 -46.5t-85 -29.5q-47 -20 -72.5 -47.5t-25.5 -73.5q0 -52 36 -86.5t101 -34.5z" />
    <glyph glyph-name="Abreve" unicode="&#x102;" horiz-adv-x="937" 
d="M469 1747q-113 0 -182.5 66t-69.5 174v24h154v-24q0 -47 27.5 -75t70.5 -28t69.5 28t26.5 75v24h154v-24q0 -109 -68.5 -174.5t-181.5 -65.5zM600 1536l299 -1536h-246l-43 260h-280l-47 -260h-244l303 1536h258zM367 500h206l-102 612z" />
    <glyph glyph-name="abreve" unicode="&#x103;" horiz-adv-x="909" 
d="M442 1333q-113 0 -182.5 66t-69.5 174v24h154v-24q0 -47 27.5 -75t70.5 -28t70 28t27 75v24h153v-24q0 -109 -68.5 -174.5t-181.5 -65.5zM442 1149q161 0 259 -103.5t98 -271.5v-774h-226v59q-77 -86 -215 -86q-139 0 -215.5 85t-76.5 221q0 192 176 280q37 19 90 37.5
t91 31.5t74.5 31.5t56 45t19.5 63.5v23q0 61 -35 97t-96 36q-62 0 -97.5 -36t-35.5 -97v-54h-223v37q0 168 97 271.5t259 103.5zM426 182q66 0 106.5 37.5t40.5 112.5v168q-29 -23 -101 -46.5t-85 -29.5q-47 -20 -72.5 -47.5t-25.5 -73.5q0 -52 36 -86.5t101 -34.5z" />
    <glyph glyph-name="Aogonek" unicode="&#x104;" horiz-adv-x="937" 
d="M866 -319h37v-164h-53q-133 0 -210 67.5t-77 175.5q0 134 121 240h-31l-43 260h-280l-47 -260h-244l303 1536h258l299 -1536h-53q-119 -96 -119 -201q0 -52 37 -85t102 -33zM367 500h206l-102 612z" />
    <glyph glyph-name="aogonek" unicode="&#x105;" horiz-adv-x="909" 
d="M768 -319h37v-164h-53q-133 0 -210 67.5t-77 175.5q0 134 121 240h-13v59q-77 -86 -215 -86q-139 0 -215.5 85t-76.5 221q0 192 176 280q37 19 90 37.5t91 31.5t74.5 31.5t56 45t19.5 63.5v23q0 61 -35 97t-96 36q-62 0 -97.5 -36t-35.5 -97v-54h-223v37q0 168 97 271.5
t259 103.5q161 0 259 -103.5t98 -271.5v-774h-51q-119 -96 -119 -201q0 -52 37 -85t102 -33zM426 182q66 0 106.5 37.5t40.5 112.5v168q-29 -23 -101 -46.5t-85 -29.5q-47 -20 -72.5 -47.5t-25.5 -73.5q0 -52 36 -86.5t101 -34.5z" />
    <glyph glyph-name="Cacute" unicode="&#x106;" horiz-adv-x="962" 
d="M424 1659l125 352h239l-194 -352h-170zM885 420v-74q0 -171 -102.5 -275t-272.5 -104t-271.5 104t-101.5 275v844q0 171 101.5 275t271.5 104t272.5 -104t102.5 -275v-72h-240v72q0 63 -36 101t-99 38q-62 0 -97.5 -37.5t-35.5 -101.5v-844q0 -64 35.5 -101.5t97.5 -37.5
q63 0 99 38t36 101v74h240z" />
    <glyph glyph-name="cacute" unicode="&#x107;" horiz-adv-x="870" 
d="M367 1245l125 352h239l-194 -352h-170zM807 369v-21q0 -169 -96.5 -272t-257.5 -103q-162 0 -259.5 103t-97.5 272v426q0 168 97.5 271.5t259.5 103.5q160 0 257 -103.5t97 -271.5v-20h-223v37q0 61 -35 97t-96 36q-62 0 -98 -36t-36 -97v-459q0 -61 36 -98t98 -37
q61 0 96 37t35 98v37h223z" />
    <glyph glyph-name="Ccircumflex" unicode="&#x108;" horiz-adv-x="962" 
d="M176 1704l238 307h188l238 -307h-211l-119 170l-123 -170h-211zM885 420v-74q0 -171 -102.5 -275t-272.5 -104t-271.5 104t-101.5 275v844q0 171 101.5 275t271.5 104t272.5 -104t102.5 -275v-72h-240v72q0 63 -36 101t-99 38q-62 0 -97.5 -37.5t-35.5 -101.5v-844
q0 -64 35.5 -101.5t97.5 -37.5q63 0 99 38t36 101v74h240z" />
    <glyph glyph-name="ccircumflex" unicode="&#x109;" horiz-adv-x="870" 
d="M119 1290l237 307h189l237 -307h-211l-118 170l-123 -170h-211zM807 369v-21q0 -169 -96.5 -272t-257.5 -103q-162 0 -259.5 103t-97.5 272v426q0 168 97.5 271.5t259.5 103.5q160 0 257 -103.5t97 -271.5v-20h-223v37q0 61 -35 97t-96 36q-62 0 -98 -36t-36 -97v-459
q0 -61 36 -98t98 -37q61 0 96 37t35 98v37h223z" />
    <glyph glyph-name="Cdotaccent" unicode="&#x10a;" horiz-adv-x="962" 
d="M412 1690v260h196v-260h-196zM885 420v-74q0 -171 -102.5 -275t-272.5 -104t-271.5 104t-101.5 275v844q0 171 101.5 275t271.5 104t272.5 -104t102.5 -275v-72h-240v72q0 63 -36 101t-99 38q-62 0 -97.5 -37.5t-35.5 -101.5v-844q0 -64 35.5 -101.5t97.5 -37.5
q63 0 99 38t36 101v74h240z" />
    <glyph glyph-name="cdotaccent" unicode="&#x10b;" horiz-adv-x="870" 
d="M354 1276v260h197v-260h-197zM807 369v-21q0 -169 -96.5 -272t-257.5 -103q-162 0 -259.5 103t-97.5 272v426q0 168 97.5 271.5t259.5 103.5q160 0 257 -103.5t97 -271.5v-20h-223v37q0 61 -35 97t-96 36q-62 0 -98 -36t-36 -97v-459q0 -61 36 -98t98 -37q61 0 96 37
t35 98v37h223z" />
    <glyph glyph-name="Ccaron" unicode="&#x10c;" horiz-adv-x="962" 
d="M414 1704l-238 307h211l123 -170l119 170h211l-238 -307h-188zM885 420v-74q0 -171 -102.5 -275t-272.5 -104t-271.5 104t-101.5 275v844q0 171 101.5 275t271.5 104t272.5 -104t102.5 -275v-72h-240v72q0 63 -36 101t-99 38q-62 0 -97.5 -37.5t-35.5 -101.5v-844
q0 -64 35.5 -101.5t97.5 -37.5q63 0 99 38t36 101v74h240z" />
    <glyph glyph-name="ccaron" unicode="&#x10d;" horiz-adv-x="870" 
d="M356 1290l-237 307h211l123 -170l118 170h211l-237 -307h-189zM807 369v-21q0 -169 -96.5 -272t-257.5 -103q-162 0 -259.5 103t-97.5 272v426q0 168 97.5 271.5t259.5 103.5q160 0 257 -103.5t97 -271.5v-20h-223v37q0 61 -35 97t-96 36q-62 0 -98 -36t-36 -97v-459
q0 -61 36 -98t98 -37q61 0 96 37t35 98v37h223z" />
    <glyph glyph-name="Dcaron" unicode="&#x10e;" horiz-adv-x="1030" 
d="M418 1704l-238 307h211l123 -170l119 170h211l-238 -307h-188zM160 0v1536h368q170 0 272.5 -104t102.5 -275v-778q0 -171 -102.5 -275t-272.5 -104h-368zM399 240h129q63 0 99.5 38t36.5 101v778q0 63 -36.5 101t-99.5 38h-129v-1056z" />
    <glyph glyph-name="dcaron" unicode="&#x10f;" horiz-adv-x="1345" 
d="M594 1067v469h223v-1536h-223v55q-73 -82 -201 -82q-59 0 -109 18.5t-91.5 58.5t-65 112t-23.5 170v459q0 98 23.5 169.5t65 111.5t91.5 58.5t109 18.5q128 0 201 -82zM991 1536h223l-81 -494h-224zM461 197q62 0 97.5 37t35.5 98v459q0 61 -35.5 97t-97.5 36
q-61 0 -96 -36t-35 -97v-459q0 -61 35 -98t96 -37z" />
    <glyph glyph-name="Dcroat" unicode="&#x110;" horiz-adv-x="1030" 
d="M528 1536q170 0 272.5 -104t102.5 -275v-778q0 -171 -102.5 -275t-272.5 -104h-368v668h-127v202h127v666h368zM664 379v778q0 63 -36.5 101t-99.5 38h-129v-426h136v-202h-136v-428h129q63 0 99.5 38t36.5 101z" />
    <glyph glyph-name="dcroat" unicode="&#x111;" horiz-adv-x="944" 
d="M956 1423v-202h-139v-1221h-223v55q-73 -82 -201 -82q-59 0 -109 18.5t-91.5 58.5t-65 112t-23.5 170v459q0 98 23.5 169.5t65 111.5t91.5 58.5t109 18.5q128 0 201 -82v154h-139v202h139v113h223v-113h139zM461 197q62 0 97.5 37t35.5 98v459q0 61 -35.5 97t-97.5 36
q-61 0 -96 -36t-35 -97v-459q0 -61 35 -98t96 -37z" />
    <glyph glyph-name="Emacron" unicode="&#x112;" horiz-adv-x="878" 
d="M199 1839h479v-164h-479v164zM788 1536v-240h-389v-376h334v-240h-334v-440h389v-240h-628v1536h628z" />
    <glyph glyph-name="emacron" unicode="&#x113;" horiz-adv-x="899" 
d="M694 1425v-163h-479v163h479zM807 508h-488v-176q0 -61 36 -98t98 -37q61 0 96 37t35 98v37h223v-21q0 -169 -96.5 -272t-257.5 -103q-162 0 -259.5 103t-97.5 272v426q0 168 97.5 271.5t259.5 103.5q160 0 257 -103.5t97 -271.5v-266zM453 924q-62 0 -98 -36t-36 -97
v-74h265v74q0 61 -35 97t-96 36z" />
    <glyph glyph-name="Ebreve" unicode="&#x114;" horiz-adv-x="878" 
d="M436 1747q-113 0 -182.5 66t-69.5 174v24h154v-24q0 -47 27.5 -75t70.5 -28t69.5 28t26.5 75v24h154v-24q0 -109 -68.5 -174.5t-181.5 -65.5zM788 1536v-240h-389v-376h334v-240h-334v-440h389v-240h-628v1536h628z" />
    <glyph glyph-name="ebreve" unicode="&#x115;" horiz-adv-x="899" 
d="M453 1333q-113 0 -182.5 66t-69.5 174v24h153v-24q0 -47 28 -75t71 -28t69.5 28t26.5 75v24h153v-24q0 -109 -68 -174.5t-181 -65.5zM807 508h-488v-176q0 -61 36 -98t98 -37q61 0 96 37t35 98v37h223v-21q0 -169 -96.5 -272t-257.5 -103q-162 0 -259.5 103t-97.5 272
v426q0 168 97.5 271.5t259.5 103.5q160 0 257 -103.5t97 -271.5v-266zM453 924q-62 0 -98 -36t-36 -97v-74h265v74q0 61 -35 97t-96 36z" />
    <glyph glyph-name="Edotaccent" unicode="&#x116;" horiz-adv-x="878" 
d="M338 1690v260h197v-260h-197zM788 1536v-240h-389v-376h334v-240h-334v-440h389v-240h-628v1536h628z" />
    <glyph glyph-name="edotaccent" unicode="&#x117;" horiz-adv-x="899" 
d="M551 1536v-260h-197v260h197zM807 508h-488v-176q0 -61 36 -98t98 -37q61 0 96 37t35 98v37h223v-21q0 -169 -96.5 -272t-257.5 -103q-162 0 -259.5 103t-97.5 272v426q0 168 97.5 271.5t259.5 103.5q160 0 257 -103.5t97 -271.5v-266zM453 924q-62 0 -98 -36t-36 -97
v-74h265v74q0 61 -35 97t-96 36z" />
    <glyph glyph-name="Eogonek" unicode="&#x118;" horiz-adv-x="878" 
d="M788 1296h-389v-376h334v-240h-334v-440h389v-240h-233q-119 -96 -119 -201q0 -52 37 -85t102 -33h37v-164h-53q-133 0 -210 67.5t-77 175.5q0 134 121 240h-233v1536h628v-240z" />
    <glyph glyph-name="eogonek" unicode="&#x119;" horiz-adv-x="899" 
d="M807 508h-488v-176q0 -61 36 -98t98 -37q61 0 96 37t35 98v37h223v-21q0 -131 -60.5 -225t-166.5 -129q-111 -91 -111 -195q0 -52 37 -85t102 -33h37v-164h-53q-133 0 -210 67.5t-77 175.5q0 119 96 215q-141 17 -223 117.5t-82 255.5v426q0 168 97.5 271.5t259.5 103.5
q160 0 257 -103.5t97 -271.5v-266zM453 924q-62 0 -98 -36t-36 -97v-74h265v74q0 61 -35 97t-96 36z" />
    <glyph glyph-name="Ecaron" unicode="&#x11a;" horiz-adv-x="878" 
d="M340 1704l-238 307h211l123 -170l119 170h211l-238 -307h-188zM788 1536v-240h-389v-376h334v-240h-334v-440h389v-240h-628v1536h628z" />
    <glyph glyph-name="ecaron" unicode="&#x11b;" horiz-adv-x="899" 
d="M545 1290h-189l-237 307h211l123 -170l118 170h211zM807 508h-488v-176q0 -61 36 -98t98 -37q61 0 96 37t35 98v37h223v-21q0 -169 -96.5 -272t-257.5 -103q-162 0 -259.5 103t-97.5 272v426q0 168 97.5 271.5t259.5 103.5q160 0 257 -103.5t97 -271.5v-266zM453 924
q-62 0 -98 -36t-36 -97v-74h265v74q0 61 -35 97t-96 36z" />
    <glyph glyph-name="Gcircumflex" unicode="&#x11c;" horiz-adv-x="999" 
d="M176 1704l238 307h188l238 -307h-211l-119 170l-123 -170h-211zM510 -33q-170 0 -271.5 104t-101.5 275v844q0 171 101.5 275t271.5 104t272.5 -104t102.5 -275v-72h-240v72q0 63 -36 101t-99 38q-62 0 -97.5 -37.5t-35.5 -101.5v-844q0 -64 35.5 -101.5t97.5 -37.5
q63 0 99 38t36 101v174h-151v240h391v-414q0 -171 -102.5 -275t-272.5 -104z" />
    <glyph glyph-name="gcircumflex" unicode="&#x11d;" horiz-adv-x="929" 
d="M446 1460l-122 -170h-211l237 307h189l237 -307h-211zM578 1122h225v-1126q0 -167 -98.5 -269t-258.5 -102q-162 0 -259 103t-97 272v39h223v-55q0 -61 35.5 -98.5t97.5 -37.5q61 0 96.5 37.5t35.5 98.5v215q-73 -82 -199 -82q-59 0 -109 18.5t-91.5 58t-65 111.5
t-23.5 170v316q0 98 23.5 169.5t65 111.5t91.5 58.5t109 18.5q126 0 199 -82v55zM446 340q62 0 97 37t35 98v316q0 61 -35 97t-97 36t-96.5 -36t-34.5 -97v-316q0 -61 34.5 -98t96.5 -37z" />
    <glyph glyph-name="Gbreve" unicode="&#x11e;" horiz-adv-x="999" 
d="M510 1747q-113 0 -182.5 66t-69.5 174v24h154v-24q0 -47 27.5 -75t70.5 -28t69.5 28t26.5 75v24h154v-24q0 -109 -68.5 -174.5t-181.5 -65.5zM510 -33q-170 0 -271.5 104t-101.5 275v844q0 171 101.5 275t271.5 104t272.5 -104t102.5 -275v-72h-240v72q0 63 -36 101
t-99 38q-62 0 -97.5 -37.5t-35.5 -101.5v-844q0 -64 35.5 -101.5t97.5 -37.5q63 0 99 38t36 101v174h-151v240h391v-414q0 -171 -102.5 -275t-272.5 -104z" />
    <glyph glyph-name="gbreve" unicode="&#x11f;" horiz-adv-x="929" 
d="M446 1333q-113 0 -182 66t-69 174v24h153v-24q0 -47 27.5 -75t70.5 -28t70 28t27 75v24h153v-24q0 -109 -68.5 -174.5t-181.5 -65.5zM578 1122h225v-1126q0 -167 -98.5 -269t-258.5 -102q-162 0 -259 103t-97 272v39h223v-55q0 -61 35.5 -98.5t97.5 -37.5q61 0 96.5 37.5
t35.5 98.5v215q-73 -82 -199 -82q-59 0 -109 18.5t-91.5 58t-65 111.5t-23.5 170v316q0 98 23.5 169.5t65 111.5t91.5 58.5t109 18.5q126 0 199 -82v55zM446 340q62 0 97 37t35 98v316q0 61 -35 97t-97 36t-96.5 -36t-34.5 -97v-316q0 -61 34.5 -98t96.5 -37z" />
    <glyph glyph-name="Gdotaccent" unicode="&#x120;" horiz-adv-x="999" 
d="M412 1690v260h196v-260h-196zM510 -33q-170 0 -271.5 104t-101.5 275v844q0 171 101.5 275t271.5 104t272.5 -104t102.5 -275v-72h-240v72q0 63 -36 101t-99 38q-62 0 -97.5 -37.5t-35.5 -101.5v-844q0 -64 35.5 -101.5t97.5 -37.5q63 0 99 38t36 101v174h-151v240h391
v-414q0 -171 -102.5 -275t-272.5 -104z" />
    <glyph glyph-name="gdotaccent" unicode="&#x121;" horiz-adv-x="929" 
d="M545 1536v-260h-197v260h197zM578 1122h225v-1126q0 -167 -98.5 -269t-258.5 -102q-162 0 -259 103t-97 272v39h223v-55q0 -61 35.5 -98.5t97.5 -37.5q61 0 96.5 37.5t35.5 98.5v215q-73 -82 -199 -82q-59 0 -109 18.5t-91.5 58t-65 111.5t-23.5 170v316q0 98 23.5 169.5
t65 111.5t91.5 58.5t109 18.5q126 0 199 -82v55zM446 340q62 0 97 37t35 98v316q0 61 -35 97t-97 36t-96.5 -36t-34.5 -97v-316q0 -61 34.5 -98t96.5 -37z" />
    <glyph glyph-name="Gcommaaccent" unicode="&#x122;" horiz-adv-x="999" 
d="M510 -33q-170 0 -271.5 104t-101.5 275v844q0 171 101.5 275t271.5 104t272.5 -104t102.5 -275v-72h-240v72q0 63 -36 101t-99 38q-62 0 -97.5 -37.5t-35.5 -101.5v-844q0 -64 35.5 -101.5t97.5 -37.5q63 0 99 38t36 101v174h-151v240h391v-414q0 -171 -102.5 -275
t-272.5 -104zM346 -451l55 340h240l-149 -340h-146z" />
    <glyph glyph-name="gcommaaccent" unicode="&#x123;" horiz-adv-x="929" 
d="M578 1122h225v-1126q0 -167 -98.5 -269t-258.5 -102q-162 0 -259 103t-97 272v39h223v-55q0 -61 35.5 -98.5t97.5 -37.5q61 0 96.5 37.5t35.5 98.5v215q-73 -82 -199 -82q-59 0 -109 18.5t-91.5 58t-65 111.5t-23.5 170v316q0 98 23.5 169.5t65 111.5t91.5 58.5t109 18.5
q126 0 199 -82v55zM446 340q62 0 97 37t35 98v316q0 61 -35 97t-97 36t-96.5 -36t-34.5 -97v-316q0 -61 34.5 -98t96.5 -37zM283 -825l55 340h240l-150 -340h-145z" />
    <glyph glyph-name="Hcircumflex" unicode="&#x124;" horiz-adv-x="1030" 
d="M180 1704l238 307h188l238 -307h-211l-119 170l-123 -170h-211zM160 0v1536h239v-772h232v772h239v-1536h-239v524h-232v-524h-239z" />
    <glyph glyph-name="hcircumflex" unicode="&#x125;" horiz-adv-x="954" 
d="M356 1704l-118 170l-123 -170h-211l237 307h189l237 -307h-211zM553 1149q57 0 106.5 -17.5t90 -53t63.5 -97.5t23 -143v-838h-224v791q0 61 -35 98t-94 37q-61 0 -96 -37t-35 -98v-791h-223v1536h223v-469q73 82 201 82z" />
    <glyph glyph-name="Hbar" unicode="&#x126;" horiz-adv-x="1030" 
d="M975 1225v-203h-105v-1022h-239v524h-232v-524h-239v1022h-107v203h107v311h239v-311h232v311h239v-311h105zM631 764v258h-232v-258h232z" />
    <glyph glyph-name="hbar" unicode="&#x127;" horiz-adv-x="954" 
d="M553 1149q57 0 106.5 -17.5t90 -53t63.5 -97.5t23 -143v-838h-224v791q0 61 -35 98t-94 37q-61 0 -96 -37t-35 -98v-791h-223v1237h-141v203h141v96h223v-96h137v-203h-137v-170q73 82 201 82z" />
    <glyph glyph-name="Itilde" unicode="&#x128;" horiz-adv-x="557" 
d="M434 1694q-36 0 -69 9.5t-49.5 19t-41.5 26.5q-3 2 -12.5 9.5t-12.5 9.5t-11 7.5t-12 7t-10.5 4.5t-11.5 4t-11 1q-29 0 -29 -35v-53h-180v68q0 77 38.5 121t102.5 44q87 0 156 -53q3 -2 14.5 -11t15 -11.5t13 -8.5t15 -8t14 -4t16.5 -2q26 0 26 37v53h180v-71
q0 -76 -38.5 -120t-102.5 -44zM399 0h-239v1536h239v-1536z" />
    <glyph glyph-name="itilde" unicode="&#x129;" 
d="M395 1280q-36 0 -69 10t-48.5 19t-41.5 26q-2 2 -9.5 7.5t-10 7.5t-9 6.5t-9.5 6t-8.5 5t-9 4.5t-8.5 3t-9.5 2.5t-8.5 0.5q-29 0 -29 -35v-53h-180v68q0 77 38.5 121.5t102.5 44.5q86 0 156 -54q3 -2 14.5 -11t15 -11.5t13 -8.5t15 -8t14 -4t16.5 -2q26 0 26 37v54h181
v-72q0 -76 -39 -120t-103 -44zM129 0v1122h223v-1122h-223z" />
    <glyph glyph-name="Imacron" unicode="&#x12a;" horiz-adv-x="557" 
d="M43 1839h479v-164h-479v164zM399 0h-239v1536h239v-1536z" />
    <glyph glyph-name="imacron" unicode="&#x12b;" 
d="M4 1425h479v-163h-479v163zM129 0v1122h223v-1122h-223z" />
    <glyph glyph-name="Iogonek" unicode="&#x12e;" horiz-adv-x="557" 
d="M315 0q-118 -95 -118 -201q0 -52 37 -85t102 -33h37v-164h-54q-133 0 -209.5 67.5t-76.5 175.5q0 138 127 244v1532h239v-1536h-84z" />
    <glyph glyph-name="iogonek" unicode="&#x12f;" 
d="M340 1536v-260h-197v260h197zM283 0q-119 -96 -119 -201q0 -52 37 -85t102 -33h37v-164h-53q-133 0 -210 67.5t-77 175.5q0 135 129 246v1116h223v-1122h-69z" />
    <glyph glyph-name="Idotaccent" unicode="&#x130;" horiz-adv-x="557" 
d="M182 1690v260h197v-260h-197zM399 0h-239v1536h239v-1536z" />
    <glyph glyph-name="dotlessi" unicode="&#x131;" 
d="M129 0v1122h223v-1122h-223z" />
    <glyph glyph-name="IJ" unicode="&#x132;" horiz-adv-x="1230" 
d="M399 0h-239v1536h239v-1536zM582 -14v239h129q62 0 97.5 38t35.5 102v1171h239v-1171q0 -171 -101 -275t-271 -104h-129z" />
    <glyph glyph-name="ij" unicode="&#x133;" horiz-adv-x="958" 
d="M129 1217v258h223v-258h-223zM608 1217v258h223v-258h-223zM129 0v1122h223v-1122h-223zM406 -375v223h69q61 0 97 38.5t36 101.5v1134h223v-1118q0 -171 -97 -275t-259 -104h-69z" />
    <glyph glyph-name="Jcircumflex" unicode="&#x134;" horiz-adv-x="673" 
d="M70 1704l237 307h189l237 -307h-211l-119 170l-122 -170h-211zM25 -14v239h129q62 0 97.5 38t35.5 102v1171h239v-1171q0 -171 -101 -275t-271 -104h-129z" />
    <glyph glyph-name="jcircumflex" unicode="&#x135;" 
d="M-92 1290l237 307h189l237 -307h-211l-118 170l-123 -170h-211zM-74 -375v223h70q61 0 97 38.5t36 101.5v1134h223v-1118q0 -171 -97 -275t-259 -104h-70z" />
    <glyph glyph-name="Kcommaaccent" unicode="&#x136;" horiz-adv-x="1019" 
d="M983 1536l-373 -559l371 -977h-258l-279 731l-45 -69v-662h-239v1536h239v-483l326 483h258zM332 -451l55 340h240l-150 -340h-145z" />
    <glyph glyph-name="kcommaaccent" unicode="&#x137;" horiz-adv-x="901" 
d="M582 768l323 -768h-235l-234 565l-84 -112v-453h-223v1536h223v-756l258 342h234zM276 -451l56 340h239l-149 -340h-146z" />
    <glyph glyph-name="kgreenlandic" unicode="&#x138;" horiz-adv-x="901" 
d="M905 0h-235l-318 731v-731h-223v1122h223v-340l258 340h234l-279 -368z" />
    <glyph glyph-name="Lacute" unicode="&#x139;" horiz-adv-x="782" 
d="M281 1659l125 352h239l-194 -352h-170zM399 1536v-1296h349v-240h-588v1536h239z" />
    <glyph glyph-name="lacute" unicode="&#x13a;" 
d="M156 1659l125 352h239l-194 -352h-170zM129 0v1536h223v-1536h-223z" />
    <glyph glyph-name="Lcommaaccent" unicode="&#x13b;" horiz-adv-x="782" 
d="M399 1536v-1296h349v-240h-588v1536h239zM203 -451l55 340h240l-150 -340h-145z" />
    <glyph glyph-name="lcommaaccent" unicode="&#x13c;" 
d="M129 0v1536h223v-1536h-223zM78 -451l55 340h240l-150 -340h-145z" />
    <glyph glyph-name="Lcaron" unicode="&#x13d;" horiz-adv-x="782" 
d="M270 1704l-237 307h211l123 -170l118 170h211l-237 -307h-189zM399 1536v-1296h349v-240h-588v1536h239z" />
    <glyph glyph-name="lcaron" unicode="&#x13e;" horiz-adv-x="970" 
d="M129 0v1536h223v-1536h-223zM532 1042l82 494h224l-82 -494h-224z" />
    <glyph glyph-name="Ldot" unicode="&#x13f;" horiz-adv-x="778" 
d="M399 1536v-1296h349v-240h-588v1536h239zM502 645v246h207v-246h-207z" />
    <glyph glyph-name="ldot" unicode="&#x140;" horiz-adv-x="821" 
d="M129 0v1536h223v-1536h-223zM485 645v246h207v-246h-207z" />
    <glyph glyph-name="Lslash" unicode="&#x141;" horiz-adv-x="782" 
d="M399 240h349v-240h-588v623l-180 -62v209l180 61v705h239v-623l181 62v-209l-181 -61v-465z" />
    <glyph glyph-name="lslash" unicode="&#x142;" 
d="M535 961v-230l-183 -47v-684h-223v627l-182 -47v229l182 47v680h223v-623z" />
    <glyph glyph-name="Nacute" unicode="&#x143;" horiz-adv-x="1050" 
d="M803 2011l-195 -352h-170l125 352h240zM668 1536h223v-1536h-184l-324 893v-893h-223v1536h182l326 -893v893z" />
    <glyph glyph-name="nacute" unicode="&#x144;" horiz-adv-x="950" 
d="M760 1597l-195 -352h-170l125 352h240zM553 1149q132 0 207.5 -95.5t75.5 -262.5v-791h-224v791q0 60 -34.5 96.5t-94.5 36.5q-61 0 -96 -36t-35 -97v-791h-223v1122h223v-61q73 88 201 88z" />
    <glyph glyph-name="Ncommaaccent" unicode="&#x145;" horiz-adv-x="1050" 
d="M668 1536h223v-1536h-184l-324 893v-893h-223v1536h182l326 -893v893zM360 -451l56 340h239l-149 -340h-146z" />
    <glyph glyph-name="ncommaaccent" unicode="&#x146;" horiz-adv-x="950" 
d="M553 1149q132 0 207.5 -95.5t75.5 -262.5v-791h-224v791q0 60 -34.5 96.5t-94.5 36.5q-61 0 -96 -36t-35 -97v-791h-223v1122h223v-61q73 88 201 88zM317 -451l56 340h239l-149 -340h-146z" />
    <glyph glyph-name="Ncaron" unicode="&#x147;" horiz-adv-x="1050" 
d="M616 1704h-188l-238 307h211l123 -170l119 170h211zM668 1536h223v-1536h-184l-324 893v-893h-223v1536h182l326 -893v893z" />
    <glyph glyph-name="ncaron" unicode="&#x148;" horiz-adv-x="950" 
d="M573 1290h-188l-238 307h211l123 -170l119 170h211zM553 1149q132 0 207.5 -95.5t75.5 -262.5v-791h-224v791q0 60 -34.5 96.5t-94.5 36.5q-61 0 -96 -36t-35 -97v-791h-223v1122h223v-61q73 88 201 88z" />
    <glyph glyph-name="napostrophe" unicode="&#x149;" horiz-adv-x="1341" 
d="M133 1245v291h240v-291l-62 -203h-149l61 203h-90zM944 1149q132 0 207.5 -95.5t75.5 -262.5v-791h-223v791q0 60 -35 96.5t-95 36.5q-61 0 -96 -36t-35 -97v-791h-223v1122h223v-61q73 88 201 88z" />
    <glyph glyph-name="Omacron" unicode="&#x14c;" horiz-adv-x="1021" 
d="M272 1839h480v-164h-480v164zM510 -33q-170 0 -271.5 104t-101.5 275v844q0 171 101.5 275t271.5 104t272.5 -104t102.5 -275v-844q0 -171 -102.5 -275t-272.5 -104zM510 207q63 0 99 38t36 101v844q0 63 -36 101t-99 38q-62 0 -97.5 -37.5t-35.5 -101.5v-844
q0 -64 35.5 -101.5t97.5 -37.5z" />
    <glyph glyph-name="omacron" unicode="&#x14d;" horiz-adv-x="903" 
d="M215 1425h479v-163h-479v163zM453 -27q-162 0 -259.5 103t-97.5 272v426q0 168 97.5 271.5t259.5 103.5q160 0 257 -103.5t97 -271.5v-426q0 -169 -96.5 -272t-257.5 -103zM453 197q61 0 96 37t35 98v459q0 61 -35 97t-96 36q-62 0 -98 -36t-36 -97v-459q0 -61 36 -98
t98 -37z" />
    <glyph glyph-name="Obreve" unicode="&#x14e;" horiz-adv-x="1021" 
d="M510 1747q-113 0 -182.5 66t-69.5 174v24h154v-24q0 -47 27.5 -75t70.5 -28t69.5 28t26.5 75v24h154v-24q0 -109 -68.5 -174.5t-181.5 -65.5zM510 -33q-170 0 -271.5 104t-101.5 275v844q0 171 101.5 275t271.5 104t272.5 -104t102.5 -275v-844q0 -171 -102.5 -275
t-272.5 -104zM510 207q63 0 99 38t36 101v844q0 63 -36 101t-99 38q-62 0 -97.5 -37.5t-35.5 -101.5v-844q0 -64 35.5 -101.5t97.5 -37.5z" />
    <glyph glyph-name="obreve" unicode="&#x14f;" horiz-adv-x="903" 
d="M453 1333q-113 0 -182.5 66t-69.5 174v24h153v-24q0 -47 28 -75t71 -28t69.5 28t26.5 75v24h153v-24q0 -109 -68 -174.5t-181 -65.5zM453 -27q-162 0 -259.5 103t-97.5 272v426q0 168 97.5 271.5t259.5 103.5q160 0 257 -103.5t97 -271.5v-426q0 -169 -96.5 -272
t-257.5 -103zM453 197q61 0 96 37t35 98v459q0 61 -35 97t-96 36q-62 0 -98 -36t-36 -97v-459q0 -61 36 -98t98 -37z" />
    <glyph glyph-name="Ohungarumlaut" unicode="&#x150;" horiz-adv-x="1021" 
d="M238 1659l124 352h240l-194 -352h-170zM592 1659l125 352h239l-194 -352h-170zM510 -33q-170 0 -271.5 104t-101.5 275v844q0 171 101.5 275t271.5 104t272.5 -104t102.5 -275v-844q0 -171 -102.5 -275t-272.5 -104zM510 207q63 0 99 38t36 101v844q0 63 -36 101t-99 38
q-62 0 -97.5 -37.5t-35.5 -101.5v-844q0 -64 35.5 -101.5t97.5 -37.5z" />
    <glyph glyph-name="ohungarumlaut" unicode="&#x151;" horiz-adv-x="903" 
d="M180 1245l125 352h240l-195 -352h-170zM535 1245l124 352h240l-194 -352h-170zM453 -27q-162 0 -259.5 103t-97.5 272v426q0 168 97.5 271.5t259.5 103.5q160 0 257 -103.5t97 -271.5v-426q0 -169 -96.5 -272t-257.5 -103zM453 197q61 0 96 37t35 98v459q0 61 -35 97
t-96 36q-62 0 -98 -36t-36 -97v-459q0 -61 36 -98t98 -37z" />
    <glyph glyph-name="OE" unicode="&#x152;" horiz-adv-x="1509" 
d="M510 -33q-170 0 -271.5 104t-101.5 275v844q0 171 101.5 275t271.5 104q176 0 281 -111v78h628v-240h-389v-376h334v-240h-334v-440h389v-240h-628v78q-105 -111 -281 -111zM510 207q63 0 99 38t36 101v844q0 63 -36 101t-99 38q-62 0 -97.5 -37.5t-35.5 -101.5v-844
q0 -64 35.5 -101.5t97.5 -37.5z" />
    <glyph glyph-name="oe" unicode="&#x153;" horiz-adv-x="1386" 
d="M1296 508h-489v-176q0 -61 36 -98t97 -37q62 0 97.5 37t35.5 98v37h223v-21q0 -169 -97 -272t-259 -103q-150 0 -244 88q-94 -88 -243 -88q-162 0 -259.5 103t-97.5 272v426q0 168 97.5 271.5t259.5 103.5q147 0 243 -90q96 90 244 90q162 0 259 -103.5t97 -271.5v-266z
M584 332v459q0 61 -35 97t-96 36q-62 0 -98 -36t-36 -97v-459q0 -61 36 -98t98 -37q61 0 96 37t35 98zM807 791v-74h266v74q0 61 -35.5 97t-97.5 36q-61 0 -97 -36.5t-36 -96.5z" />
    <glyph glyph-name="Racute" unicode="&#x154;" horiz-adv-x="1036" 
d="M797 2011l-195 -352h-170l125 352h240zM903 932q0 -177 -110 -281q110 -74 110 -215v-436h-239v436q0 58 -33.5 92.5t-91.5 34.5h-140v-563h-239v1536h379q165 0 264.5 -101.5t99.5 -267.5v-235zM664 932v235q0 59 -33.5 94t-91.5 35h-140v-493h140q58 0 91.5 35t33.5 94
z" />
    <glyph glyph-name="racute" unicode="&#x155;" horiz-adv-x="606" 
d="M651 1597l-194 -352h-170l125 352h239zM352 1055q76 82 201 82h51v-226h-121q-62 0 -96.5 -32t-34.5 -91v-788h-223v1122h223v-67z" />
    <glyph glyph-name="Rcommaaccent" unicode="&#x156;" horiz-adv-x="1036" 
d="M903 932q0 -177 -110 -281q110 -74 110 -215v-436h-239v436q0 58 -33.5 92.5t-91.5 34.5h-140v-563h-239v1536h379q165 0 264.5 -101.5t99.5 -267.5v-235zM664 932v235q0 59 -33.5 94t-91.5 35h-140v-493h140q58 0 91.5 35t33.5 94zM354 -451l56 340h239l-149 -340h-146z
" />
    <glyph glyph-name="rcommaaccent" unicode="&#x157;" horiz-adv-x="606" 
d="M553 1137h51v-226h-121q-62 0 -96.5 -32t-34.5 -91v-788h-223v1122h223v-67q76 82 201 82zM76 -451l55 340h240l-150 -340h-145z" />
    <glyph glyph-name="Rcaron" unicode="&#x158;" horiz-adv-x="1036" 
d="M610 1704h-188l-238 307h211l123 -170l119 170h211zM903 932q0 -177 -110 -281q110 -74 110 -215v-436h-239v436q0 58 -33.5 92.5t-91.5 34.5h-140v-563h-239v1536h379q165 0 264.5 -101.5t99.5 -267.5v-235zM664 932v235q0 59 -33.5 94t-91.5 35h-140v-493h140
q58 0 91.5 35t33.5 94z" />
    <glyph glyph-name="rcaron" unicode="&#x159;" horiz-adv-x="606" 
d="M465 1290h-189l-237 307h211l123 -170l119 170h210zM352 1055q76 82 201 82h51v-226h-121q-62 0 -96.5 -32t-34.5 -91v-788h-223v1122h223v-67z" />
    <glyph glyph-name="Sacute" unicode="&#x15a;" horiz-adv-x="956" 
d="M393 1659l125 352h240l-195 -352h-170zM481 -33q-171 0 -273 104t-102 275v74h240v-74q0 -63 36 -101t99 -38q62 0 97.5 37.5t35.5 101.5v146q0 64 -35.5 101.5t-97.5 37.5q-171 0 -273 104t-102 275v180q0 171 102 275t273 104q170 0 271.5 -104t101.5 -275v-72h-240v72
q0 64 -35.5 101.5t-97.5 37.5q-63 0 -99 -38t-36 -101v-180q0 -64 36.5 -102t98.5 -38q170 0 271.5 -103.5t101.5 -274.5v-146q0 -171 -101.5 -275t-271.5 -104z" />
    <glyph glyph-name="sacute" unicode="&#x15b;" horiz-adv-x="862" 
d="M346 1245l125 352h240l-195 -352h-170zM434 -27q-162 0 -259 101t-97 266v25h223v-41q0 -58 35.5 -92.5t97.5 -34.5q59 0 93 36t34 93t-35 95t-94 38q-162 0 -258 93.5t-96 246.5q0 158 96 254t258 96q160 0 256 -101t96 -266v-24h-223v41q0 57 -34.5 91t-94.5 34
t-95.5 -35t-35.5 -90q0 -58 35.5 -95.5t95.5 -37.5q160 0 256 -94t96 -246q0 -158 -95.5 -255.5t-254.5 -97.5z" />
    <glyph glyph-name="Scircumflex" unicode="&#x15c;" horiz-adv-x="956" 
d="M145 1704l238 307h188l238 -307h-211l-119 170l-123 -170h-211zM481 -33q-171 0 -273 104t-102 275v74h240v-74q0 -63 36 -101t99 -38q62 0 97.5 37.5t35.5 101.5v146q0 64 -35.5 101.5t-97.5 37.5q-171 0 -273 104t-102 275v180q0 171 102 275t273 104q170 0 271.5 -104
t101.5 -275v-72h-240v72q0 64 -35.5 101.5t-97.5 37.5q-63 0 -99 -38t-36 -101v-180q0 -64 36.5 -102t98.5 -38q170 0 271.5 -103.5t101.5 -274.5v-146q0 -171 -101.5 -275t-271.5 -104z" />
    <glyph glyph-name="scircumflex" unicode="&#x15d;" horiz-adv-x="862" 
d="M98 1290l238 307h188l238 -307h-211l-119 170l-123 -170h-211zM434 -27q-162 0 -259 101t-97 266v25h223v-41q0 -58 35.5 -92.5t97.5 -34.5q59 0 93 36t34 93t-35 95t-94 38q-162 0 -258 93.5t-96 246.5q0 158 96 254t258 96q160 0 256 -101t96 -266v-24h-223v41
q0 57 -34.5 91t-94.5 34t-95.5 -35t-35.5 -90q0 -58 35.5 -95.5t95.5 -37.5q160 0 256 -94t96 -246q0 -158 -95.5 -255.5t-254.5 -97.5z" />
    <glyph glyph-name="Scedilla" unicode="&#x15e;" horiz-adv-x="956" 
d="M854 1118h-240v72q0 64 -35.5 101.5t-97.5 37.5q-63 0 -99 -38t-36 -101v-180q0 -64 36.5 -102t98.5 -38q170 0 271.5 -103.5t101.5 -274.5v-146q0 -146 -75 -244.5t-206 -126.5v-81q102 13 168 -47t66 -148q0 -101 -63.5 -162t-168.5 -61h-167v166h167q31 0 48.5 15
t17.5 42t-18 43t-48 16h-92l-73 39v176q-141 22 -222.5 121.5t-81.5 251.5v74h240v-74q0 -63 36 -101t99 -38q62 0 97.5 37.5t35.5 101.5v146q0 64 -35.5 101.5t-97.5 37.5q-171 0 -273 104t-102 275v180q0 171 102 275t273 104q170 0 271.5 -104t101.5 -275v-72z" />
    <glyph glyph-name="scedilla" unicode="&#x15f;" horiz-adv-x="862" 
d="M784 758h-223v41q0 57 -34.5 91t-94.5 34t-95.5 -35t-35.5 -90q0 -58 35.5 -95.5t95.5 -37.5q160 0 256 -94t96 -246q0 -132 -69 -224t-189 -118v-90q102 13 168 -47t66 -148q0 -101 -63.5 -162t-168.5 -61h-168v166h168q31 0 48.5 15t17.5 42t-18 43t-48 16h-92l-74 39
v183q-132 22 -208 118t-76 242v25h223v-41q0 -58 35.5 -92.5t97.5 -34.5q59 0 93 36t34 93t-35 95t-94 38q-162 0 -258 93.5t-96 246.5q0 158 96 254t258 96q160 0 256 -101t96 -266v-24z" />
    <glyph glyph-name="Scaron" unicode="&#x160;" horiz-adv-x="956" 
d="M383 1704l-238 307h211l123 -170l119 170h211l-238 -307h-188zM481 -33q-171 0 -273 104t-102 275v74h240v-74q0 -63 36 -101t99 -38q62 0 97.5 37.5t35.5 101.5v146q0 64 -35.5 101.5t-97.5 37.5q-171 0 -273 104t-102 275v180q0 171 102 275t273 104q170 0 271.5 -104
t101.5 -275v-72h-240v72q0 64 -35.5 101.5t-97.5 37.5q-63 0 -99 -38t-36 -101v-180q0 -64 36.5 -102t98.5 -38q170 0 271.5 -103.5t101.5 -274.5v-146q0 -171 -101.5 -275t-271.5 -104z" />
    <glyph glyph-name="scaron" unicode="&#x161;" horiz-adv-x="862" 
d="M336 1290l-238 307h211l123 -170l119 170h211l-238 -307h-188zM434 -27q-162 0 -259 101t-97 266v25h223v-41q0 -58 35.5 -92.5t97.5 -34.5q59 0 93 36t34 93t-35 95t-94 38q-162 0 -258 93.5t-96 246.5q0 158 96 254t258 96q160 0 256 -101t96 -266v-24h-223v41
q0 57 -34.5 91t-94.5 34t-95.5 -35t-35.5 -90q0 -58 35.5 -95.5t95.5 -37.5q160 0 256 -94t96 -246q0 -158 -95.5 -255.5t-254.5 -97.5z" />
    <glyph glyph-name="uni0162" unicode="&#x162;" horiz-adv-x="765" 
d="M502 0h-35v-106q101 13 167 -47t66 -148q0 -101 -63.5 -162t-167.5 -61h-168v166h168q31 0 48.5 15t17.5 42t-18 43t-48 16h-92l-74 39v203h-41v1296h-235v240h712v-240h-237v-1296z" />
    <glyph glyph-name="uni0163" unicode="&#x163;" horiz-adv-x="694" 
d="M590 -106q101 13 167 -47t66 -148q0 -101 -63.5 -162t-167.5 -61h-168v166h168q65 0 65 57q0 27 -17.5 43t-47.5 16h-92l-74 39v205q-111 31 -173.5 121t-62.5 225v567h-188v207h188v271h226v-271h233v-207h-233v-567q0 -64 35 -101.5t96 -37.5h102v-223h-59v-92z" />
    <glyph glyph-name="Tcaron" unicode="&#x164;" horiz-adv-x="765" 
d="M287 1704l-238 307h211l123 -170l119 170h211l-238 -307h-188zM262 0v1296h-235v240h712v-240h-237v-1296h-240z" />
    <glyph glyph-name="tcaron" unicode="&#x165;" horiz-adv-x="1189" 
d="M752 1042l82 494h223l-82 -494h-223zM547 -14q-164 0 -260.5 96.5t-96.5 265.5v567h-188v207h188v271h226v-271h233v-207h-233v-567q0 -64 35 -101.5t96 -37.5h102v-223h-102z" />
    <glyph glyph-name="Tbar" unicode="&#x166;" horiz-adv-x="765" 
d="M739 1296h-237v-426h133v-202h-133v-668h-240v668h-129v202h129v426h-235v240h712v-240z" />
    <glyph glyph-name="tbar" unicode="&#x167;" horiz-adv-x="694" 
d="M649 915h-233v-249h229v-207h-229v-111q0 -64 35 -101.5t96 -37.5h102v-223h-102q-164 0 -260.5 96.5t-96.5 265.5v111h-159v207h159v249h-188v207h188v271h226v-271h233v-207z" />
    <glyph glyph-name="Utilde" unicode="&#x168;" horiz-adv-x="1046" 
d="M676 1694q-36 0 -69 9.5t-49.5 19t-41.5 26.5q-2 2 -9.5 7.5t-10 7.5t-9 6.5t-9.5 6t-8.5 5t-9 4.5t-8.5 3t-9.5 2.5t-8.5 0.5q-28 0 -28 -35v-53h-181v68q0 77 39 121t103 44q86 0 155 -53q3 -2 14.5 -11t15 -11.5t13 -8.5t15 -8t14 -4t16.5 -2q27 0 27 37v53h180v-71
q0 -76 -38.5 -120t-102.5 -44zM897 1536v-1190q0 -171 -102.5 -275t-272.5 -104t-271 104t-101 275v1190h239v-1190q0 -64 35.5 -101.5t97.5 -37.5q63 0 99 38t36 101v1190h240z" />
    <glyph glyph-name="utilde" unicode="&#x169;" horiz-adv-x="952" 
d="M358 1343v-53h-180v68q0 77 38.5 121.5t102.5 44.5q86 0 156 -54q3 -2 14.5 -11t15 -11.5t13 -8.5t15 -8t14 -4t16.5 -2q27 0 27 37v54h180v-72q0 -76 -38.5 -120t-102.5 -44q-36 0 -69 9.5t-49.5 19t-41.5 26.5q-2 2 -9.5 7.5t-10 7.5t-9 6.5t-9.5 6t-8.5 5t-9 4.5
t-8.5 3t-9.5 2.5t-8.5 0.5q-29 0 -29 -35zM600 1122h225v-1122h-225v55q-73 -82 -201 -82q-58 0 -106.5 18.5t-89 58.5t-63.5 112t-23 170v790h223v-790q0 -61 35 -98t96 -37t95 37t34 98v790z" />
    <glyph glyph-name="Umacron" unicode="&#x16a;" horiz-adv-x="1046" 
d="M285 1839h479v-164h-479v164zM897 1536v-1190q0 -171 -102.5 -275t-272.5 -104t-271 104t-101 275v1190h239v-1190q0 -64 35.5 -101.5t97.5 -37.5q63 0 99 38t36 101v1190h240z" />
    <glyph glyph-name="umacron" unicode="&#x16b;" horiz-adv-x="952" 
d="M717 1425v-163h-479v163h479zM600 1122h225v-1122h-225v55q-73 -82 -201 -82q-58 0 -106.5 18.5t-89 58.5t-63.5 112t-23 170v790h223v-790q0 -61 35 -98t96 -37t95 37t34 98v790z" />
    <glyph glyph-name="Ubreve" unicode="&#x16c;" horiz-adv-x="1046" 
d="M522 1747q-113 0 -182.5 66t-69.5 174v24h154v-24q0 -47 27.5 -75t70.5 -28t69.5 28t26.5 75v24h154v-24q0 -109 -68.5 -174.5t-181.5 -65.5zM897 1536v-1190q0 -171 -102.5 -275t-272.5 -104t-271 104t-101 275v1190h239v-1190q0 -64 35.5 -101.5t97.5 -37.5q63 0 99 38
t36 101v1190h240z" />
    <glyph glyph-name="ubreve" unicode="&#x16d;" horiz-adv-x="952" 
d="M475 1333q-113 0 -182.5 66t-69.5 174v24h154v-24q0 -47 27.5 -75t70.5 -28t69.5 28t26.5 75v24h154v-24q0 -109 -68.5 -174.5t-181.5 -65.5zM600 1122h225v-1122h-225v55q-73 -82 -201 -82q-58 0 -106.5 18.5t-89 58.5t-63.5 112t-23 170v790h223v-790q0 -61 35 -98
t96 -37t95 37t34 98v790z" />
    <glyph glyph-name="Uring" unicode="&#x16e;" horiz-adv-x="1046" 
d="M522 1581q-89 0 -151 59.5t-62 153.5q0 95 62 155t151 60q90 0 152.5 -60t62.5 -155t-62.5 -154t-152.5 -59zM522 1718q32 0 55 21.5t23 54.5q0 34 -23 56t-55 22t-54 -22t-22 -56q0 -33 22.5 -54.5t53.5 -21.5zM897 1536v-1190q0 -171 -102.5 -275t-272.5 -104t-271 104
t-101 275v1190h239v-1190q0 -64 35.5 -101.5t97.5 -37.5q63 0 99 38t36 101v1190h240z" />
    <glyph glyph-name="uring" unicode="&#x16f;" horiz-adv-x="952" 
d="M475 1167q-89 0 -151 59.5t-62 153.5q0 95 62 155t151 60q90 0 152.5 -60t62.5 -155t-62.5 -154t-152.5 -59zM475 1458q-32 0 -54 -22t-22 -56q0 -33 22 -54t54 -21t55 21t23 54q0 34 -23 56t-55 22zM600 1122h225v-1122h-225v55q-73 -82 -201 -82q-58 0 -106.5 18.5
t-89 58.5t-63.5 112t-23 170v790h223v-790q0 -61 35 -98t96 -37t95 37t34 98v790z" />
    <glyph glyph-name="Uhungarumlaut" unicode="&#x170;" horiz-adv-x="1046" 
d="M250 1659l125 352h239l-194 -352h-170zM604 1659l125 352h240l-195 -352h-170zM897 1536v-1190q0 -171 -102.5 -275t-272.5 -104t-271 104t-101 275v1190h239v-1190q0 -64 35.5 -101.5t97.5 -37.5q63 0 99 38t36 101v1190h240z" />
    <glyph glyph-name="uhungarumlaut" unicode="&#x171;" horiz-adv-x="952" 
d="M567 1597l-194 -352h-170l125 352h239zM727 1245h-170l125 352h240zM600 332v790h225v-1122h-225v55q-73 -82 -201 -82q-58 0 -106.5 18.5t-89 58.5t-63.5 112t-23 170v790h223v-790q0 -61 35 -98t96 -37t95 37t34 98z" />
    <glyph glyph-name="Uogonek" unicode="&#x172;" horiz-adv-x="1046" 
d="M657 1536h240v-1190q0 -158 -88.5 -260t-239.5 -117q-84 -81 -84 -170q0 -52 37.5 -85t102.5 -33h37v-164h-54q-133 0 -209.5 67.5t-76.5 175.5q0 122 98 220q-126 29 -198 126.5t-72 239.5v1190h239v-1190q0 -64 35.5 -101.5t97.5 -37.5q63 0 99 38t36 101v1190z" />
    <glyph glyph-name="uogonek" unicode="&#x173;" horiz-adv-x="952" 
d="M756 0q-119 -96 -119 -201q0 -52 37 -85t102 -33h37v-164h-53q-133 0 -210 67.5t-77 175.5q0 138 127 244v51q-73 -82 -201 -82q-58 0 -106.5 18.5t-89 58.5t-63.5 112t-23 170v790h223v-790q0 -61 35 -98t96 -37t95 37t34 98v790h225v-1122h-69z" />
    <glyph glyph-name="Wcircumflex" unicode="&#x174;" horiz-adv-x="1376" 
d="M688 1874l-123 -170h-211l238 307h188l238 -307h-211zM1067 1536h244l-197 -1536h-258l-168 897l-170 -897h-258l-197 1536h246l113 -1014l168 1014h196l168 -1014z" />
    <glyph glyph-name="wcircumflex" unicode="&#x175;" horiz-adv-x="1200" 
d="M602 1460l-123 -170h-211l238 307h188l238 -307h-211zM934 1122h233l-192 -1122h-234l-139 674l-143 -674h-234l-192 1122h233l94 -743l142 743h198l140 -743z" />
    <glyph glyph-name="Ycircumflex" unicode="&#x176;" horiz-adv-x="940" 
d="M471 1874l-123 -170h-211l238 307h188l238 -307h-211zM680 1536h246l-334 -811v-725h-240v725l-338 811h246l211 -555z" />
    <glyph glyph-name="ycircumflex" unicode="&#x177;" horiz-adv-x="866" 
d="M434 1460l-123 -170h-211l238 307h188l238 -307h-211zM616 1122h244l-411 -1491h-230l100 363l-313 1128h244l186 -747z" />
    <glyph glyph-name="Ydieresis" unicode="&#x178;" horiz-adv-x="940" 
d="M408 2011v-260h-197v260h197zM735 2011v-260h-196v260h196zM680 1536h246l-334 -811v-725h-240v725l-338 811h246l211 -555z" />
    <glyph glyph-name="Zacute" unicode="&#x179;" horiz-adv-x="884" 
d="M721 2011l-195 -352h-170l125 352h240zM817 1536v-176l-491 -1120h491v-240h-749l-2 176l493 1120h-491v240h749z" />
    <glyph glyph-name="zacute" unicode="&#x17a;" horiz-adv-x="808" 
d="M684 1597l-195 -352h-170l125 352h240zM756 1122v-176l-426 -723h424v-223h-703v176l443 723h-439v223h701z" />
    <glyph glyph-name="Zdotaccent" unicode="&#x17b;" horiz-adv-x="884" 
d="M541 1950v-260h-197v260h197zM817 1536v-176l-491 -1120h491v-240h-749l-2 176l493 1120h-491v240h749z" />
    <glyph glyph-name="zdotaccent" unicode="&#x17c;" horiz-adv-x="808" 
d="M504 1536v-260h-197v260h197zM756 1122v-176l-426 -723h424v-223h-703v176l443 723h-439v223h701z" />
    <glyph glyph-name="Zcaron" unicode="&#x17d;" horiz-adv-x="884" 
d="M535 1704h-189l-237 307h210l123 -170l119 170h211zM817 1536v-176l-491 -1120h491v-240h-749l-2 176l493 1120h-491v240h749z" />
    <glyph glyph-name="zcaron" unicode="&#x17e;" horiz-adv-x="808" 
d="M498 1290h-189l-237 307h211l123 -170l118 170h211zM756 1122v-176l-426 -723h424v-223h-703v176l443 723h-439v223h701z" />
    <glyph glyph-name="longs" unicode="&#x17f;" horiz-adv-x="606" 
d="M209 0v915h-205v207h205v72q0 160 97.5 261t258.5 101h103v-223h-103q-62 0 -97.5 -37.5t-35.5 -101.5v-1194h-223z" />
    <glyph glyph-name="florin" unicode="&#x192;" horiz-adv-x="1058" 
d="M68 -369v224h125q60 0 100.5 38t46.5 101l76 717h-207v207h227l29 276q18 158 119.5 260t251.5 102h127v-223h-127q-60 0 -100 -38t-46 -101l-28 -276h301v-207h-324l-76 -717q-17 -160 -118.5 -261.5t-251.5 -101.5h-125z" />
    <glyph glyph-name="Scommaaccent" unicode="&#x218;" horiz-adv-x="956" 
d="M481 -33q-171 0 -273 104t-102 275v74h240v-74q0 -63 36 -101t99 -38q62 0 97.5 37.5t35.5 101.5v146q0 64 -35.5 101.5t-97.5 37.5q-171 0 -273 104t-102 275v180q0 171 102 275t273 104q170 0 271.5 -104t101.5 -275v-72h-240v72q0 64 -35.5 101.5t-97.5 37.5
q-63 0 -99 -38t-36 -101v-180q0 -64 36.5 -102t98.5 -38q170 0 271.5 -103.5t101.5 -274.5v-146q0 -171 -101.5 -275t-271.5 -104zM315 -451l56 340h239l-149 -340h-146z" />
    <glyph glyph-name="scommaaccent" unicode="&#x219;" horiz-adv-x="862" 
d="M434 -27q-162 0 -259 101t-97 266v25h223v-41q0 -58 35.5 -92.5t97.5 -34.5q59 0 93 36t34 93t-35 95t-94 38q-162 0 -258 93.5t-96 246.5q0 158 96 254t258 96q160 0 256 -101t96 -266v-24h-223v41q0 57 -34.5 91t-94.5 34t-95.5 -35t-35.5 -90q0 -58 35.5 -95.5
t95.5 -37.5q160 0 256 -94t96 -246q0 -158 -95.5 -255.5t-254.5 -97.5zM268 -451l56 340h239l-149 -340h-146z" />
    <glyph glyph-name="uni021A" unicode="&#x21a;" horiz-adv-x="765" 
d="M262 0v1296h-235v240h712v-240h-237v-1296h-240zM209 -451l55 340h240l-150 -340h-145z" />
    <glyph glyph-name="uni021B" unicode="&#x21b;" horiz-adv-x="694" 
d="M547 -14q-164 0 -260.5 96.5t-96.5 265.5v567h-188v207h188v271h226v-271h233v-207h-233v-567q0 -64 35 -101.5t96 -37.5h102v-223h-102zM332 -451l55 340h240l-150 -340h-145z" />
    <glyph glyph-name="uni0237" unicode="&#x237;" 
d="M-74 -375v223h70q61 0 97 38.5t36 101.5v1134h223v-1118q0 -171 -97 -275t-259 -104h-70z" />
    <glyph glyph-name="circumflex" unicode="&#x2c6;" horiz-adv-x="704" 
d="M20 1290l238 307h188l238 -307h-211l-119 170l-123 -170h-211z" />
    <glyph glyph-name="caron" unicode="&#x2c7;" horiz-adv-x="704" 
d="M258 1290l-238 307h211l123 -170l119 170h211l-238 -307h-188z" />
    <glyph glyph-name="uni02C9" unicode="&#x2c9;" horiz-adv-x="735" 
d="M129 1536h479v-164h-479v164z" />
    <glyph glyph-name="breve" unicode="&#x2d8;" horiz-adv-x="675" 
d="M338 1333q-113 0 -182.5 66t-69.5 174v24h154v-24q0 -47 27.5 -75t70.5 -28t69.5 28t26.5 75v24h154v-24q0 -109 -68.5 -174.5t-181.5 -65.5z" />
    <glyph glyph-name="dotaccent" unicode="&#x2d9;" horiz-adv-x="454" 
d="M129 1276v260h197v-260h-197z" />
    <glyph glyph-name="ring" unicode="&#x2da;" horiz-adv-x="604" 
d="M301 1169q-89 0 -151 59.5t-62 153.5q0 95 62 155t151 60q90 0 152.5 -60t62.5 -155t-62.5 -154t-152.5 -59zM301 1307q32 0 55 21t23 54q0 34 -23 56t-55 22t-54 -22t-22 -56q0 -33 22 -54t54 -21z" />
    <glyph glyph-name="ogonek" unicode="&#x2db;" horiz-adv-x="471" 
d="M356 -483q-133 0 -209.5 67.5t-76.5 175.5q0 182 235 322h47v-82q-119 -96 -119 -201q0 -52 37.5 -85t102.5 -33h37v-164h-54z" />
    <glyph glyph-name="tilde" unicode="&#x2dc;" horiz-adv-x="815" 
d="M563 1354q-36 0 -69 9.5t-49.5 19t-41.5 26.5q-3 2 -12.5 9.5t-12.5 9.5t-11 7.5t-12 7t-10.5 4.5t-11.5 4t-11 1q-29 0 -29 -35v-53h-180v68q0 77 38.5 121t102.5 44q87 0 156 -53q3 -2 14.5 -11t15 -11.5t13 -8.5t15 -8t14 -4t16.5 -2q26 0 26 37v53h181v-71
q0 -76 -39 -120t-103 -44z" />
    <glyph glyph-name="hungarumlaut" unicode="&#x2dd;" horiz-adv-x="819" 
d="M66 1245l124 352h240l-194 -352h-170zM420 1245l125 352h239l-194 -352h-170z" />
    <glyph glyph-name="uni0326" unicode="&#x326;" horiz-adv-x="0" 
d="M-348 -451l55 340h240l-150 -340h-145z" />
    <glyph glyph-name="uni0394" unicode="&#x394;" horiz-adv-x="937" 
d="M39 0l303 1536h258l299 -1536h-860zM322 240h294l-145 850z" />
    <glyph glyph-name="uni03A9" unicode="&#x3a9;" horiz-adv-x="1210" 
d="M1018 240h131v-240h-481v240q62 0 97.5 37.5t35.5 101.5v749q0 91 -53.5 146t-141.5 55q-89 0 -142.5 -55t-53.5 -146v-749q0 -63 36 -101t99 -38v-240h-482v240h130q-23 71 -23 139v749q0 198 120 319.5t316 121.5q195 0 314.5 -121.5t119.5 -319.5v-749q0 -71 -22 -139
z" />
    <glyph glyph-name="pi" unicode="&#x3c0;" horiz-adv-x="1087" 
d="M973 -14q-164 0 -260.5 96.5t-96.5 265.5v567h-200v-915h-226v915h-188v207h1040v-207h-202v-567q0 -63 36 -101t97 -38h69v-223h-69z" />
    <glyph glyph-name="Wgrave" unicode="&#x1e80;" horiz-adv-x="1376" 
d="M778 1659h-170l-194 352h239zM1067 1536h244l-197 -1536h-258l-168 897l-170 -897h-258l-197 1536h246l113 -1014l168 1014h196l168 -1014z" />
    <glyph glyph-name="wgrave" unicode="&#x1e81;" horiz-adv-x="1200" 
d="M692 1245h-170l-194 352h239zM934 1122h233l-192 -1122h-234l-139 674l-143 -674h-234l-192 1122h233l94 -743l142 743h198l140 -743z" />
    <glyph glyph-name="Wacute" unicode="&#x1e82;" horiz-adv-x="1376" 
d="M967 2011l-195 -352h-170l125 352h240zM1067 1536h244l-197 -1536h-258l-168 897l-170 -897h-258l-197 1536h246l113 -1014l168 1014h196l168 -1014z" />
    <glyph glyph-name="wacute" unicode="&#x1e83;" horiz-adv-x="1200" 
d="M881 1597l-195 -352h-170l125 352h240zM934 1122h233l-192 -1122h-234l-139 674l-143 -674h-234l-192 1122h233l94 -743l142 743h198l140 -743z" />
    <glyph glyph-name="Wdieresis" unicode="&#x1e84;" horiz-adv-x="1376" 
d="M625 2011v-260h-197v260h197zM952 2011v-260h-196v260h196zM1067 1536h244l-197 -1536h-258l-168 897l-170 -897h-258l-197 1536h246l113 -1014l168 1014h196l168 -1014z" />
    <glyph glyph-name="wdieresis" unicode="&#x1e85;" horiz-adv-x="1200" 
d="M539 1597v-260h-197v260h197zM866 1597v-260h-196v260h196zM934 1122h233l-192 -1122h-234l-139 674l-143 -674h-234l-192 1122h233l94 -743l142 743h198l140 -743z" />
    <glyph glyph-name="endash" unicode="&#x2013;" horiz-adv-x="1067" 
d="M129 442v240h809v-240h-809z" />
    <glyph glyph-name="emdash" unicode="&#x2014;" horiz-adv-x="1271" 
d="M129 442v240h1014v-240h-1014z" />
    <glyph glyph-name="quoteleft" unicode="&#x2018;" horiz-adv-x="514" 
d="M141 1042v291l60 203h149l-61 -203h92v-291h-240z" />
    <glyph glyph-name="quoteright" unicode="&#x2019;" horiz-adv-x="514" 
d="M162 1042l61 203h-90v291h240v-291l-62 -203h-149z" />
    <glyph glyph-name="quotesinglbase" unicode="&#x201a;" horiz-adv-x="514" 
d="M162 -203l61 203h-90v291h240v-291l-62 -203h-149z" />
    <glyph glyph-name="quotedblleft" unicode="&#x201c;" horiz-adv-x="876" 
d="M141 1042v291l60 203h149l-61 -203h92v-291h-240zM504 1042v291l59 203h150l-62 -203h92v-291h-239z" />
    <glyph glyph-name="quotedblright" unicode="&#x201d;" horiz-adv-x="876" 
d="M162 1042l61 203h-90v291h240v-291l-62 -203h-149zM524 1042l62 203h-90v291h239v-291l-61 -203h-150z" />
    <glyph glyph-name="quotedblbase" unicode="&#x201e;" horiz-adv-x="876" 
d="M162 -203l61 203h-90v291h240v-291l-62 -203h-149zM524 -203l62 203h-90v291h239v-291l-61 -203h-150z" />
    <glyph glyph-name="dagger" unicode="&#x2020;" horiz-adv-x="892" 
d="M332 492v575h-248v213h248v256h229v-256h248v-213h-248v-575h-229z" />
    <glyph glyph-name="daggerdbl" unicode="&#x2021;" horiz-adv-x="989" 
d="M379 492v256h-248v213h248v106h-248v213h248v256h229v-256h248v-213h-248v-106h248v-213h-248v-256h-229z" />
    <glyph glyph-name="bullet" unicode="&#x2022;" horiz-adv-x="741" 
d="M371 319q-99 0 -169.5 71.5t-70.5 170.5t70.5 169.5t169.5 70.5q98 0 168.5 -71t70.5 -169q0 -99 -70.5 -170.5t-168.5 -71.5z" />
    <glyph glyph-name="ellipsis" unicode="&#x2026;" horiz-adv-x="1484" 
d="M178 0v270h240v-270h-240zM623 0v270h239v-270h-239zM1067 0v270h240v-270h-240z" />
    <glyph glyph-name="perthousand" unicode="&#x2030;" horiz-adv-x="2050" 
d="M340 827q-114 0 -184 70t-70 184v232q0 114 70 184t184 70q112 0 181 -70t69 -184v-232q0 -114 -69 -184t-181 -70zM279 0l677 1536h191l-678 -1536h-190zM340 1010q30 0 49 19.5t19 51.5v232q0 33 -19 53t-49 20q-32 0 -52 -20t-20 -53v-232q0 -32 20 -51.5t52 -19.5z
M1087 -31q-114 0 -182.5 69t-68.5 183v234q0 114 68.5 184t182.5 70q112 0 181 -70t69 -184v-234q0 -114 -68.5 -183t-181.5 -69zM1712 -31q-113 0 -182.5 69t-69.5 183v234q0 114 69.5 184t182.5 70q114 0 183 -70t69 -184v-234q0 -114 -69 -183t-183 -69zM1087 150
q31 0 50.5 19.5t19.5 51.5v234q0 32 -19.5 51.5t-50.5 19.5q-32 0 -51.5 -19.5t-19.5 -51.5v-234q0 -32 19.5 -51.5t51.5 -19.5zM1712 150q31 0 50.5 19.5t19.5 51.5v234q0 32 -19.5 51.5t-50.5 19.5q-32 0 -51 -19.5t-19 -51.5v-234q0 -32 19 -51.5t51 -19.5z" />
    <glyph glyph-name="guilsinglleft" unicode="&#x2039;" horiz-adv-x="643" 
d="M543 0l-508 442v142l508 442v-272l-275 -242l275 -240v-272z" />
    <glyph glyph-name="guilsinglright" unicode="&#x203a;" horiz-adv-x="643" 
d="M100 0v272l273 240l-273 242v272l508 -442v-142z" />
    <glyph glyph-name="fraction" unicode="&#x2044;" horiz-adv-x="491" 
d="M-188 0l677 1536h191l-678 -1536h-190z" />
    <glyph glyph-name="uni2070" unicode="&#x2070;" horiz-adv-x="661" 
d="M332 1618q101 0 163 -63t62 -164v-508q0 -102 -62 -165t-163 -63q-102 0 -165 63t-63 165v508q0 101 63 164t165 63zM332 1462q-33 0 -52.5 -20t-19.5 -51v-349l111 408q-15 12 -39 12zM332 811q30 0 49.5 20.5t19.5 51.5v350l-112 -410q15 -12 43 -12z" />
    <glyph glyph-name="uni2074" unicode="&#x2074;" horiz-adv-x="628" 
d="M334 676v162h-309v135l327 624h137v-602h72v-157h-72v-162h-155zM186 995h148v295z" />
    <glyph glyph-name="uni2075" unicode="&#x2075;" horiz-adv-x="641" 
d="M336 655q-102 0 -164.5 63t-62.5 165v47h155v-47q0 -31 19.5 -51.5t52.5 -20.5q31 0 50.5 20.5t19.5 51.5v174q0 33 -19 52t-53 19q-33 0 -51.5 -19t-18.5 -52v-10h-155v550h419v-155h-264v-182q30 24 82 24q95 0 155 -63t60 -164v-174q0 -102 -62 -165t-163 -63z" />
    <glyph glyph-name="uni2076" unicode="&#x2076;" horiz-adv-x="651" 
d="M332 655q-102 0 -165 63t-63 165v508q0 101 63 164t165 63q101 0 163 -63t62 -164v-48h-156v48q0 31 -19 51t-50 20q-33 0 -52.5 -20t-19.5 -51v-131q30 24 82 24q95 0 155 -63t60 -164v-174q0 -102 -62 -165t-163 -63zM332 811q30 0 49.5 20.5t19.5 51.5v174
q0 33 -19 52t-52 19t-51.5 -19t-18.5 -52v-174q0 -31 19.5 -51.5t52.5 -20.5z" />
    <glyph glyph-name="uni2077" unicode="&#x2077;" horiz-adv-x="499" 
d="M80 676l231 766h-291v155h445v-145l-223 -776h-162z" />
    <glyph glyph-name="uni2078" unicode="&#x2078;" horiz-adv-x="651" 
d="M326 655q-102 0 -164 63t-62 165v114q0 90 50 150q-50 56 -50 149v95q0 102 62 164.5t164 62.5t163.5 -62.5t61.5 -164.5v-95q0 -94 -49 -149q49 -58 49 -150v-114q0 -102 -61.5 -165t-163.5 -63zM326 1225q32 0 50.5 19.5t18.5 51.5v95q0 31 -18.5 51t-50.5 20t-51 -20
t-19 -51v-95q0 -32 19 -51.5t51 -19.5zM326 811q32 0 50.5 20.5t18.5 51.5v114q0 33 -18.5 52.5t-50.5 19.5t-51 -20t-19 -52v-114q0 -31 19 -51.5t51 -20.5z" />
    <glyph glyph-name="uni2079" unicode="&#x2079;" horiz-adv-x="651" 
d="M322 655q-102 0 -165 63t-63 165v47h156v-47q0 -31 19.5 -51.5t52.5 -20.5q30 0 49.5 20.5t19.5 51.5v131q-36 -25 -82 -25q-95 0 -155 63.5t-60 164.5v174q0 101 63 164t165 63q101 0 163 -63t62 -164v-508q0 -102 -62 -165t-163 -63zM319 1145q33 0 52.5 19.5
t19.5 52.5v174q0 31 -19 51t-50 20q-33 0 -52.5 -20t-19.5 -51v-174q0 -33 18 -52.5t51 -19.5z" />
    <glyph glyph-name="uni2080" unicode="&#x2080;" horiz-adv-x="661" 
d="M332 881q101 0 163 -63t62 -165v-508q0 -101 -62 -164t-163 -63q-102 0 -165 63t-63 164v508q0 102 63 165t165 63zM332 725q-33 0 -52.5 -20.5t-19.5 -51.5v-348l111 408q-15 12 -39 12zM332 74q31 0 50 20t19 51v351l-112 -410q15 -12 43 -12z" />
    <glyph glyph-name="uni2081" unicode="&#x2081;" horiz-adv-x="444" 
d="M166 -61v659h-141v156h38q47 0 75 24.5t28 67.5v14h156v-921h-156z" />
    <glyph glyph-name="uni2082" unicode="&#x2082;" horiz-adv-x="602" 
d="M72 -61v143q0 59 16.5 108.5t42.5 83t57.5 62t63.5 51.5t58 45t42.5 48.5t16.5 56.5v116q0 31 -20 51.5t-52 20.5t-51 -20.5t-19 -51.5v-47h-155v47q0 102 62 165t163 63q102 0 164.5 -63t62.5 -165v-116q0 -46 -16 -86t-41.5 -68.5t-56 -54t-61 -49t-56 -47.5t-41.5 -55
t-16 -66v-17h288v-155h-452z" />
    <glyph glyph-name="uni2083" unicode="&#x2083;" horiz-adv-x="614" 
d="M291 -82q-103 0 -165.5 63t-62.5 164v48h156v-48q0 -31 19.5 -51t52.5 -20q31 0 50 20t19 51v119q0 31 -19.5 51.5t-49.5 20.5h-94v156h94q31 0 50 19.5t19 51.5v90q0 31 -19.5 51.5t-49.5 20.5q-33 0 -52.5 -20.5t-19.5 -51.5v-47h-156v47q0 102 63 165t165 63
q101 0 163 -63t62 -165v-90q0 -95 -51 -149q51 -57 51 -150v-119q0 -101 -62 -164t-163 -63z" />
    <glyph glyph-name="uni2084" unicode="&#x2084;" horiz-adv-x="628" 
d="M334 -61v161h-309v136l327 624h137v-602h72v-158h-72v-161h-155zM186 258h148v295z" />
    <glyph glyph-name="uni2085" unicode="&#x2085;" horiz-adv-x="641" 
d="M336 -82q-102 0 -164.5 62.5t-62.5 164.5v48h155v-48q0 -31 19.5 -51t52.5 -20q31 0 50.5 20t19.5 51v174q0 33 -19.5 52.5t-52.5 19.5t-51.5 -19.5t-18.5 -52.5v-10h-155v551h419v-155h-264v-183q31 25 82 25q95 0 155 -63.5t60 -164.5v-174q0 -101 -62 -164t-163 -63z
" />
    <glyph glyph-name="uni2086" unicode="&#x2086;" horiz-adv-x="651" 
d="M332 -82q-102 0 -165 63t-63 164v508q0 102 63 165t165 63q101 0 163 -63t62 -165v-47h-156v47q0 31 -19.5 51.5t-49.5 20.5q-33 0 -52.5 -20.5t-19.5 -51.5v-131q31 25 82 25q95 0 155 -63.5t60 -164.5v-174q0 -101 -62 -164t-163 -63zM332 74q31 0 50 20t19 51v174
q0 33 -19 52.5t-52 19.5t-51.5 -19.5t-18.5 -52.5v-174q0 -31 19.5 -51t52.5 -20z" />
    <glyph glyph-name="uni2087" unicode="&#x2087;" horiz-adv-x="499" 
d="M80 -61l231 766h-291v155h445v-145l-223 -776h-162z" />
    <glyph glyph-name="uni2088" unicode="&#x2088;" horiz-adv-x="651" 
d="M326 -82q-102 0 -164 62.5t-62 164.5v115q0 90 50 150q-50 56 -50 149v94q0 102 62 165t164 63t163.5 -63t61.5 -165v-94q0 -94 -49 -149q49 -58 49 -150v-115q0 -102 -61.5 -164.5t-163.5 -62.5zM326 487q32 0 50.5 19.5t18.5 52.5v94q0 31 -18.5 51.5t-50.5 20.5
t-51 -20.5t-19 -51.5v-94q0 -32 19 -52t51 -20zM326 74q32 0 50.5 20t18.5 51v115q0 33 -18.5 52.5t-50.5 19.5t-51 -20t-19 -52v-115q0 -31 19 -51t51 -20z" />
    <glyph glyph-name="uni2089" unicode="&#x2089;" horiz-adv-x="651" 
d="M322 -82q-102 0 -165 63t-63 164v48h156v-48q0 -31 19.5 -51t52.5 -20q31 0 50 20t19 51v131q-35 -24 -82 -24q-95 0 -155 63t-60 164v174q0 102 63 165t165 63q101 0 163 -63t62 -165v-508q0 -101 -62 -164t-163 -63zM319 408q33 0 52.5 19t19.5 52v174q0 31 -19.5 51.5
t-49.5 20.5q-33 0 -52.5 -20.5t-19.5 -51.5v-174q0 -33 18 -52t51 -19z" />
    <glyph glyph-name="franc" unicode="&#x20a3;" horiz-adv-x="962" 
d="M864 1296h-389v-532h334v-240h-334v-153h125v-209h-125v-162h-239v162h-140v209h140v1165h628v-240z" />
    <glyph glyph-name="lira" unicode="&#x20a4;" horiz-adv-x="1110" 
d="M1022 1116h-240v72q0 64 -35.5 101.5t-97.5 37.5q-63 0 -99 -38t-36 -101v-314h231v-208h-231v-115h231v-207h-231v-135h404v-209h-781v209h137v135h-137v207h137v115h-137v208h137v314q0 171 102.5 275t272.5 104t271.5 -104t101.5 -275v-72z" />
    <glyph glyph-name="peseta" unicode="&#x20a7;" horiz-adv-x="1142" 
d="M1063 1169v-208h-94q-5 -162 -104 -259.5t-261 -97.5h-139v-604h-240v961h-110v208h110v367h379q165 0 265 -101t100 -266h94zM465 1296v-127h264q0 58 -33.5 92.5t-91.5 34.5h-139zM604 844q55 0 87.5 31t37.5 86h-264v-117h139z" />
    <glyph glyph-name="Euro" unicode="&#x20ac;" horiz-adv-x="1116" 
d="M997 1116h-239v72q0 63 -36 101t-99 38t-99.5 -38t-36.5 -101v-146h234v-206h-234v-134h234v-208h-234v-146q0 -63 36.5 -101t99.5 -38t99 38t36 101v72h239v-72q0 -171 -102 -275t-272 -104t-272.5 104t-102.5 275v146h-137v208h137v134h-137v206h137v146
q0 171 102.5 275t272.5 104t272 -104t102 -275v-72z" />
    <glyph glyph-name="uni2113" unicode="&#x2113;" horiz-adv-x="1216" 
d="M684 -27q-111 0 -198.5 65.5t-143.5 186.5q-142 -66 -248 -96l-39 168q131 37 238 88q-29 113 -29 252q0 227 66.5 416t182.5 298t255 109q145 0 242.5 -115t97.5 -288q0 -99 -36 -195.5t-93 -174t-138 -151.5t-161.5 -128.5t-171.5 -104.5q31 -79 79.5 -122.5
t110.5 -43.5q82 0 145.5 65.5t78.5 164.5l168 -19q-26 -164 -143.5 -269.5t-262.5 -105.5zM481 487q437 264 437 570q0 98 -44.5 166.5t-113.5 68.5q-76 0 -143 -79t-109 -215.5t-47 -297.5q0 -113 20 -213z" />
    <glyph glyph-name="trademark" unicode="&#x2122;" horiz-adv-x="1417" 
d="M225 614v766h-139v156h434v-156h-139v-766h-156zM600 614v922h139l174 -655l172 655h142v-922h-144v426l-118 -426h-103l-119 426v-426h-143z" />
    <glyph glyph-name="estimated" unicode="&#x212e;" horiz-adv-x="1427" 
d="M729 -33q-181 0 -325 79.5t-222 213.5t-78 295q0 163 79.5 298.5t222.5 215.5t319 80q177 0 321 -80t224 -215t80 -297v-14h-1000q-6 0 -6 -11v-317q0 -17 16 -37q71 -83 158 -128.5t211 -45.5q126 0 215 48.5t172 146.5h96q-95 -115 -205.5 -173.5t-277.5 -58.5z
M350 571h754q4 0 4 15v319q0 21 -14 39q-87 89 -165.5 129.5t-203.5 40.5q-220 0 -363 -176q-13 -14 -15.5 -20t-2.5 -19v-313q0 -15 6 -15z" />
    <glyph glyph-name="oneeighth" unicode="&#x215b;" horiz-adv-x="1587" 
d="M166 614v664h-141v156h38q47 0 75 24.5t28 67.5v14h156v-926h-156zM256 0l678 1536h190l-678 -1536h-190zM1262 -20q-102 0 -164 62.5t-62 164.5v115q0 91 49 149q-49 55 -49 150v94q0 102 62 164.5t164 62.5t163.5 -62.5t61.5 -164.5v-94q0 -95 -49 -150q49 -58 49 -149
v-115q0 -102 -61.5 -164.5t-163.5 -62.5zM1262 549q32 0 50.5 19.5t18.5 52.5v94q0 31 -18.5 51t-50.5 20t-51 -20t-19 -51v-94q0 -32 19 -52t51 -20zM1262 135q32 0 50.5 20.5t18.5 51.5v115q0 32 -18.5 51.5t-50.5 19.5t-51 -19.5t-19 -51.5v-115q0 -31 19 -51.5t51 -20.5
z" />
    <glyph glyph-name="threeeighths" unicode="&#x215c;" horiz-adv-x="1757" 
d="M291 594q-103 0 -165.5 63t-62.5 164v47h156v-47q0 -31 19.5 -51t52.5 -20q31 0 50 20t19 51v119q0 31 -19.5 51.5t-49.5 20.5h-94v155h94q31 0 50 20t19 52v90q0 31 -19.5 51.5t-49.5 20.5q-33 0 -52.5 -20.5t-19.5 -51.5v-47h-156v47q0 101 62.5 164t165.5 63
q101 0 163 -63t62 -164v-90q0 -95 -51 -149q51 -57 51 -150v-119q0 -101 -62 -164t-163 -63zM426 0l678 1536h190l-678 -1536h-190zM1432 -20q-102 0 -164 62.5t-62 164.5v115q0 91 49 149q-49 55 -49 150v94q0 102 62 164.5t164 62.5t163.5 -62.5t61.5 -164.5v-94
q0 -95 -49 -150q49 -58 49 -149v-115q0 -102 -61.5 -164.5t-163.5 -62.5zM1432 549q32 0 50.5 19.5t18.5 52.5v94q0 31 -18.5 51t-50.5 20t-51 -20t-19 -51v-94q0 -32 19 -52t51 -20zM1432 135q32 0 50.5 20.5t18.5 51.5v115q0 32 -18.5 51.5t-50.5 19.5t-51 -19.5
t-19 -51.5v-115q0 -31 19 -51.5t51 -20.5z" />
    <glyph glyph-name="fiveeighths" unicode="&#x215d;" horiz-adv-x="1783" 
d="M336 594q-102 0 -164.5 62.5t-62.5 164.5v47h155v-47q0 -31 19.5 -51t52.5 -20q31 0 50.5 20t19.5 51v174q0 33 -19.5 52.5t-52.5 19.5t-51.5 -19.5t-18.5 -52.5v-10h-155v551h419v-156h-264v-182q31 25 82 25q95 0 155 -63.5t60 -164.5v-174q0 -101 -62 -164t-163 -63z
M453 0l677 1536h191l-678 -1536h-190zM1458 -20q-102 0 -163.5 62.5t-61.5 164.5v115q0 91 49 149q-49 55 -49 150v94q0 102 61.5 164.5t163.5 62.5t163.5 -62.5t61.5 -164.5v-94q0 -95 -49 -150q49 -58 49 -149v-115q0 -102 -61.5 -164.5t-163.5 -62.5zM1458 549
q32 0 51 20t19 52v94q0 31 -19 51t-51 20t-50.5 -20t-18.5 -51v-94q0 -33 18.5 -52.5t50.5 -19.5zM1458 135q32 0 51 20.5t19 51.5v115q0 32 -19 51.5t-51 19.5t-50.5 -19.5t-18.5 -51.5v-115q0 -31 18.5 -51.5t50.5 -20.5z" />
    <glyph glyph-name="seveneighths" unicode="&#x215e;" horiz-adv-x="1642" 
d="M80 614l231 766h-291v156h445v-145l-223 -777h-162zM311 0l678 1536h191l-678 -1536h-191zM1317 -20q-102 0 -163.5 62.5t-61.5 164.5v115q0 91 49 149q-49 55 -49 150v94q0 102 61.5 164.5t163.5 62.5t163.5 -62.5t61.5 -164.5v-94q0 -95 -49 -150q49 -58 49 -149v-115
q0 -102 -61.5 -164.5t-163.5 -62.5zM1317 549q32 0 50.5 19.5t18.5 52.5v94q0 31 -18.5 51t-50.5 20t-51 -20t-19 -51v-94q0 -32 19 -52t51 -20zM1317 135q32 0 50.5 20.5t18.5 51.5v115q0 32 -18.5 51.5t-50.5 19.5t-51 -19.5t-19 -51.5v-115q0 -31 19 -51.5t51 -20.5z" />
    <glyph glyph-name="arrowleft" unicode="&#x2190;" horiz-adv-x="1132" 
d="M1020 725v-248h-571v-262l-388 387l388 389v-266h571z" />
    <glyph glyph-name="arrowup" unicode="&#x2191;" horiz-adv-x="880" 
d="M829 694h-262v-571h-250v571h-264l389 387z" />
    <glyph glyph-name="arrowright" unicode="&#x2192;" horiz-adv-x="1132" 
d="M1069 602l-387 -387v262h-569v248h569v266z" />
    <glyph glyph-name="arrowdown" unicode="&#x2193;" horiz-adv-x="880" 
d="M567 510h262l-387 -387l-389 387h264v571h250v-571z" />
    <glyph glyph-name="arrowboth" unicode="&#x2194;" horiz-adv-x="1339" 
d="M449 215l-388 387l388 389v-266h442v266l387 -389l-387 -387v262h-442v-262z" />
    <glyph glyph-name="arrowupdn" unicode="&#x2195;" horiz-adv-x="911" 
d="M455 0l-387 387h262v442h-262l387 388l389 -388h-266v-442h266z" />
    <glyph glyph-name="uni2196" unicode="&#x2196;" horiz-adv-x="983" 
d="M924 348l-174 -174l-406 404l-184 -185v547l549 2l-189 -188z" />
    <glyph glyph-name="uni2197" unicode="&#x2197;" horiz-adv-x="983" 
d="M823 940v-547l-184 185l-406 -404l-174 174l404 406l-189 188z" />
    <glyph glyph-name="uni2198" unicode="&#x2198;" horiz-adv-x="983" 
d="M639 539l184 184v-547l-549 -2l189 188l-404 406l174 174z" />
    <glyph glyph-name="uni2199" unicode="&#x2199;" horiz-adv-x="983" 
d="M924 768l-404 -406l189 -188l-549 2v547l184 -184l406 403z" />
    <glyph glyph-name="partialdiff" unicode="&#x2202;" horiz-adv-x="999" 
d="M541 1536q124 0 200 -81.5t76 -213.5v-1241h-223v55q-73 -82 -201 -82q-59 0 -108.5 18.5t-91 58.5t-64.5 112t-23 170v254q0 98 23.5 169.5t64.5 111.5t90.5 58.5t108.5 18.5q128 0 201 -82v379q0 60 -36.5 97.5t-96.5 37.5h-53v160h133zM461 197q62 0 97.5 37t35.5 98
v254q0 61 -35.5 97t-97.5 36q-61 0 -96 -36t-35 -97v-254q0 -61 35 -98t96 -37z" />
    <glyph glyph-name="emptyset" unicode="&#x2205;" horiz-adv-x="1429" 
d="M1122 1079q96 -84 149.5 -206t53.5 -273q0 -138 -47 -255.5t-128 -199t-193.5 -127t-241.5 -45.5q-102 0 -211 33l-66 -115h-239l123 215q-104 86 -163 213t-59 281q0 186 81.5 329t221 218.5t312.5 75.5q118 0 227 -39l68 116h239zM332 600q0 -177 110 -287l383 666
q-49 14 -110 14q-165 0 -274 -107.5t-109 -285.5zM715 203q163 0 272 110.5t109 286.5q0 161 -95 270l-378 -657q52 -10 92 -10z" />
    <glyph glyph-name="product" unicode="&#x220f;" horiz-adv-x="1296" 
d="M281 -246v1542h-228v240h1190v-240h-227v-1542h-240v1542h-256v-1542h-239z" />
    <glyph glyph-name="summation" unicode="&#x2211;" horiz-adv-x="931" 
d="M96 -246v176l287 715l-289 715v176h752v-240h-494l262 -651l-268 -651h502v-240h-752z" />
    <glyph glyph-name="minus" unicode="&#x2212;" horiz-adv-x="1191" 
d="M190 442v240h811v-240h-811z" />
    <glyph glyph-name="uni2215" unicode="&#x2215;" horiz-adv-x="886" 
d="M57 -102l549 1699h242l-549 -1699h-242z" />
    <glyph glyph-name="uni2219" unicode="&#x2219;" horiz-adv-x="847" 
d="M471 270q-121 0 -206 86t-85 207q0 119 85 204t206 85q119 0 205 -85.5t86 -203.5q0 -120 -86 -206.5t-205 -86.5z" />
    <glyph glyph-name="radical" unicode="&#x221a;" horiz-adv-x="1187" 
d="M293 0l-227 854h237l123 -494l281 1176h426v-215h-238l-338 -1321h-264z" />
    <glyph glyph-name="infinity" unicode="&#x221e;" horiz-adv-x="1519" 
d="M1077 915q134 0 220.5 -87t86.5 -226q0 -137 -86.5 -224t-220.5 -87h-30q-146 0 -287 182q-141 -182 -289 -182h-29q-134 0 -220.5 87t-86.5 224q0 139 86.5 226t220.5 87h29q149 0 289 -176q140 176 287 176h30zM496 467q74 0 180 139q-109 133 -180 133h-29
q-55 0 -89 -39t-34 -98q0 -58 34 -96.5t89 -38.5h29zM1053 467q55 0 89 38.5t34 96.5q0 59 -34 98t-89 39h-29q-71 0 -180 -133q106 -139 180 -139h29z" />
    <glyph glyph-name="integral" unicode="&#x222b;" horiz-adv-x="792" 
d="M49 -369v224h103q62 0 97.5 37.5t35.5 101.5v1200q0 160 97.5 261t258.5 101h102v-223h-102q-61 0 -97 -38t-36 -101v-1200q0 -160 -97.5 -261.5t-258.5 -101.5h-103z" />
    <glyph glyph-name="approxequal" unicode="&#x2248;" horiz-adv-x="1189" 
d="M133 657v58q0 132 71 204t206 72q63 0 115.5 -17t81.5 -38t63.5 -38t66.5 -17q78 0 78 75v48h229v-62q0 -130 -64 -203t-179 -73q-57 0 -110 20t-85.5 44.5t-73.5 44.5t-77 20q-43 0 -68 -25.5t-25 -69.5v-43h-229zM133 102v58q0 132 71 204t206 72q63 0 115.5 -17
t81.5 -38t63.5 -38t66.5 -17q78 0 78 75v48h229v-62q0 -130 -64 -203t-179 -73q-57 0 -110 20t-85.5 44.5t-73.5 44.5t-77 20q-43 0 -68 -25.5t-25 -69.5v-43h-229z" />
    <glyph glyph-name="notequal" unicode="&#x2260;" horiz-adv-x="991" 
d="M852 647h-258l-62 -170h320v-239h-408l-86 -238h-151l86 238h-150v239h238l61 170h-299v240h385l86 235h152l-86 -235h172v-240z" />
    <glyph glyph-name="lessequal" unicode="&#x2264;" horiz-adv-x="925" 
d="M786 303l-690 475v170l690 467v-254l-432 -297l432 -301v-260zM96 0v219h690v-219h-690z" />
    <glyph glyph-name="greaterequal" unicode="&#x2265;" horiz-adv-x="927" 
d="M137 303v260l432 301l-432 297v254l692 -467v-170zM137 0v219h692v-219h-692z" />
    <glyph glyph-name="lozenge" unicode="&#x25ca;" horiz-adv-x="962" 
d="M352 0l-278 768l278 768h262l275 -768l-275 -768h-262zM483 313l162 455l-162 455l-166 -455z" />
    <glyph glyph-name="uniF8FF" unicode="&#xf8ff;" horiz-adv-x="1478" 
d="M741 567v422h47v-268l150 158h57l-110 -119l119 -193h-58l-94 156l-64 -66v-90h-47zM285 567q-92 0 -92 86v185h-72v41h72v75h47v-75h79v-41h-79v-185q0 -22 11.5 -31.5t37.5 -9.5h30v-45h-34zM518 559q-70 0 -113 45.5t-43 120.5q0 72 43 117t113 45q71 0 114.5 -45.5
t43.5 -118.5t-43.5 -118.5t-114.5 -45.5zM1184 559q-71 0 -114.5 45.5t-43.5 120.5q0 72 43 117t113 45t113.5 -45t43.5 -119t-42.5 -119t-112.5 -45zM518 600q51 0 81 34t30 91q0 54 -30 87.5t-81 33.5q-49 0 -79.5 -33.5t-30.5 -87.5q0 -57 30 -91t80 -34zM1184 600
q51 0 79.5 34t28.5 91q0 55 -29 88t-79 33q-51 0 -81 -33.5t-30 -87.5q0 -57 30 -91t81 -34zM285 109q-92 0 -92 86v184h-72v41h72v76h47v-76h79v-41h-79v-184q0 -22 11.5 -31.5t37.5 -9.5h30v-45h-34zM707 10v410h47v-45q40 53 106 53q64 0 102.5 -45t38.5 -119t-38.5 -119
t-102.5 -45q-67 0 -106 54v-144h-47zM1206 100q-72 0 -114.5 45t-42.5 119t42 119t111 45q67 0 107.5 -43t40.5 -115q0 -18 -2 -26h-252q6 -47 35.5 -75t74.5 -28q33 0 58.5 16.5t31.5 41.5h50q-8 -44 -46.5 -71.5t-93.5 -27.5zM371 0v45h35q27 0 39.5 6.5t21.5 26.5l12 28
l-129 314h53l105 -258l94 258h53l-135 -340q-19 -46 -43 -63t-71 -17h-35zM852 141q45 0 73.5 33t28.5 90t-28.5 90t-73.5 33q-44 0 -71 -32.5t-27 -88.5v-4q0 -56 27 -88.5t71 -32.5zM1096 285h209q0 47 -28 74.5t-75 27.5q-45 0 -73 -27t-33 -75z" />
    <glyph glyph-name="G.ss03" horiz-adv-x="999" 
d="M510 -33q-170 0 -271.5 104t-101.5 275v844q0 171 101.5 275t271.5 104t272.5 -104t102.5 -275v-72h-240v72q0 63 -36 101t-99 38q-62 0 -97.5 -37.5t-35.5 -101.5v-844q0 -64 35.5 -101.5t97.5 -37.5q63 0 99 38t36 101v379h-151v240h391v-619q0 -171 -102.5 -275
t-272.5 -104z" />
    <glyph glyph-name="Gbreve.ss03" horiz-adv-x="999" 
d="M510 1747q-113 0 -182.5 66t-69.5 174v24h154v-24q0 -47 27.5 -75t70.5 -28t69.5 28t26.5 75v24h154v-24q0 -109 -68.5 -174.5t-181.5 -65.5zM510 -33q-170 0 -271.5 104t-101.5 275v844q0 171 101.5 275t271.5 104t272.5 -104t102.5 -275v-72h-240v72q0 63 -36 101
t-99 38q-62 0 -97.5 -37.5t-35.5 -101.5v-844q0 -64 35.5 -101.5t97.5 -37.5q63 0 99 38t36 101v379h-151v240h391v-619q0 -171 -102.5 -275t-272.5 -104z" />
    <glyph glyph-name="Gcircumflex.ss03" horiz-adv-x="999" 
d="M176 1704l238 307h188l238 -307h-211l-119 170l-123 -170h-211zM510 -33q-170 0 -271.5 104t-101.5 275v844q0 171 101.5 275t271.5 104t272.5 -104t102.5 -275v-72h-240v72q0 63 -36 101t-99 38q-62 0 -97.5 -37.5t-35.5 -101.5v-844q0 -64 35.5 -101.5t97.5 -37.5
q63 0 99 38t36 101v379h-151v240h391v-619q0 -171 -102.5 -275t-272.5 -104z" />
    <glyph glyph-name="Gcommaaccent.ss03" horiz-adv-x="999" 
d="M510 -33q-170 0 -271.5 104t-101.5 275v844q0 171 101.5 275t271.5 104t272.5 -104t102.5 -275v-72h-240v72q0 63 -36 101t-99 38q-62 0 -97.5 -37.5t-35.5 -101.5v-844q0 -64 35.5 -101.5t97.5 -37.5q63 0 99 38t36 101v379h-151v240h391v-619q0 -171 -102.5 -275
t-272.5 -104zM346 -451l55 340h240l-149 -340h-146z" />
    <glyph glyph-name="Gdotaccent.ss03" horiz-adv-x="999" 
d="M412 1690v260h196v-260h-196zM510 -33q-170 0 -271.5 104t-101.5 275v844q0 171 101.5 275t271.5 104t272.5 -104t102.5 -275v-72h-240v72q0 63 -36 101t-99 38q-62 0 -97.5 -37.5t-35.5 -101.5v-844q0 -64 35.5 -101.5t97.5 -37.5q63 0 99 38t36 101v379h-151v240h391
v-619q0 -171 -102.5 -275t-272.5 -104z" />
    <glyph glyph-name="IJ.ss04" horiz-adv-x="1488" 
d="M399 0h-239v1536h239v-1536zM969 -14q-170 0 -272.5 104t-102.5 275v20h240v-20q0 -64 36.5 -102t98.5 -38t98.5 38t36.5 102v1171h239v-1171q0 -171 -102 -275t-272 -104z" />
    <glyph glyph-name="J.ss04" horiz-adv-x="931" 
d="M412 -14q-170 0 -272.5 104t-102.5 275v20h239v-20q0 -63 36.5 -101.5t99.5 -38.5q62 0 98.5 38t36.5 102v1171h239v-1171q0 -171 -102 -275t-272 -104z" />
    <glyph glyph-name="Jcircumflex.ss04" horiz-adv-x="931" 
d="M330 1704l237 307h189l237 -307h-211l-118 170l-123 -170h-211zM412 -14q-170 0 -272.5 104t-102.5 275v20h239v-20q0 -63 36.5 -101.5t99.5 -38.5q62 0 98.5 38t36.5 102v1171h239v-1171q0 -171 -102 -275t-272 -104z" />
    <glyph glyph-name="a.ss01" horiz-adv-x="944" 
d="M594 1122h223v-1122h-223v55q-73 -82 -201 -82q-59 0 -109 18.5t-91.5 58.5t-65 112t-23.5 170v459q0 98 23.5 169.5t65 111.5t91.5 58.5t109 18.5q128 0 201 -82v55zM461 197q62 0 97.5 37t35.5 98v459q0 61 -35.5 97t-97.5 36q-61 0 -96 -36t-35 -97v-459q0 -61 35 -98
t96 -37z" />
    <glyph glyph-name="aacute.ss01" horiz-adv-x="944" 
d="M752 1597l-195 -352h-170l125 352h240zM594 1122h223v-1122h-223v55q-73 -82 -201 -82q-59 0 -109 18.5t-91.5 58.5t-65 112t-23.5 170v459q0 98 23.5 169.5t65 111.5t91.5 58.5t109 18.5q128 0 201 -82v55zM461 197q62 0 97.5 37t35.5 98v459q0 61 -35.5 97t-97.5 36
q-61 0 -96 -36t-35 -97v-459q0 -61 35 -98t96 -37z" />
    <glyph glyph-name="abreve.ss01" horiz-adv-x="944" 
d="M473 1333q-113 0 -182.5 66t-69.5 174v24h154v-24q0 -47 27.5 -75t70.5 -28t69.5 28t26.5 75v24h154v-24q0 -109 -68.5 -174.5t-181.5 -65.5zM594 1122h223v-1122h-223v55q-73 -82 -201 -82q-59 0 -109 18.5t-91.5 58.5t-65 112t-23.5 170v459q0 98 23.5 169.5t65 111.5
t91.5 58.5t109 18.5q128 0 201 -82v55zM461 197q62 0 97.5 37t35.5 98v459q0 61 -35.5 97t-97.5 36q-61 0 -96 -36t-35 -97v-459q0 -61 35 -98t96 -37z" />
    <glyph glyph-name="acircumflex.ss01" horiz-adv-x="944" 
d="M473 1460l-123 -170h-211l238 307h188l238 -307h-211zM594 1122h223v-1122h-223v55q-73 -82 -201 -82q-59 0 -109 18.5t-91.5 58.5t-65 112t-23.5 170v459q0 98 23.5 169.5t65 111.5t91.5 58.5t109 18.5q128 0 201 -82v55zM461 197q62 0 97.5 37t35.5 98v459
q0 61 -35.5 97t-97.5 36q-61 0 -96 -36t-35 -97v-459q0 -61 35 -98t96 -37z" />
    <glyph glyph-name="adieresis.ss01" horiz-adv-x="944" 
d="M410 1597v-260h-197v260h197zM737 1597v-260h-196v260h196zM594 1122h223v-1122h-223v55q-73 -82 -201 -82q-59 0 -109 18.5t-91.5 58.5t-65 112t-23.5 170v459q0 98 23.5 169.5t65 111.5t91.5 58.5t109 18.5q128 0 201 -82v55zM461 197q62 0 97.5 37t35.5 98v459
q0 61 -35.5 97t-97.5 36q-61 0 -96 -36t-35 -97v-459q0 -61 35 -98t96 -37z" />
    <glyph glyph-name="agrave.ss01" horiz-adv-x="944" 
d="M563 1245h-170l-194 352h239zM594 1122h223v-1122h-223v55q-73 -82 -201 -82q-59 0 -109 18.5t-91.5 58.5t-65 112t-23.5 170v459q0 98 23.5 169.5t65 111.5t91.5 58.5t109 18.5q128 0 201 -82v55zM461 197q62 0 97.5 37t35.5 98v459q0 61 -35.5 97t-97.5 36
q-61 0 -96 -36t-35 -97v-459q0 -61 35 -98t96 -37z" />
    <glyph glyph-name="amacron.ss01" horiz-adv-x="944" 
d="M715 1425v-163h-479v163h479zM594 1122h223v-1122h-223v55q-73 -82 -201 -82q-59 0 -109 18.5t-91.5 58.5t-65 112t-23.5 170v459q0 98 23.5 169.5t65 111.5t91.5 58.5t109 18.5q128 0 201 -82v55zM461 197q62 0 97.5 37t35.5 98v459q0 61 -35.5 97t-97.5 36
q-61 0 -96 -36t-35 -97v-459q0 -61 35 -98t96 -37z" />
    <glyph glyph-name="aogonek.ss01" horiz-adv-x="909" 
d="M748 0q-119 -96 -119 -201q0 -52 37 -85t102 -33h37v-164h-53q-133 0 -210 67.5t-77 175.5q0 135 129 246v49q-73 -82 -201 -82q-59 0 -109 18.5t-91.5 58.5t-65 112t-23.5 170v459q0 98 23.5 169.5t65 111.5t91.5 58.5t109 18.5q128 0 201 -82v55h223v-1122h-69z
M461 197q62 0 97.5 37t35.5 98v459q0 61 -35.5 97t-97.5 36q-61 0 -96 -36t-35 -97v-459q0 -61 35 -98t96 -37z" />
    <glyph glyph-name="aring.ss01" horiz-adv-x="944" 
d="M473 1167q-89 0 -151 59.5t-62 153.5q0 95 62 155t151 60q90 0 152.5 -60t62.5 -155t-62.5 -154t-152.5 -59zM473 1458q-32 0 -54 -22t-22 -56q0 -33 22 -54t54 -21t55 21t23 54q0 34 -23 56t-55 22zM594 1122h223v-1122h-223v55q-73 -82 -201 -82q-59 0 -109 18.5
t-91.5 58.5t-65 112t-23.5 170v459q0 98 23.5 169.5t65 111.5t91.5 58.5t109 18.5q128 0 201 -82v55zM461 197q62 0 97.5 37t35.5 98v459q0 61 -35.5 97t-97.5 36q-61 0 -96 -36t-35 -97v-459q0 -61 35 -98t96 -37z" />
    <glyph glyph-name="atilde.ss01" horiz-adv-x="944" 
d="M356 1343v-53h-180v68q0 77 38.5 121.5t102.5 44.5q86 0 156 -54q3 -2 14.5 -11t15 -11.5t13 -8.5t15 -8t14 -4t16.5 -2q27 0 27 37v54h180v-72q0 -76 -38.5 -120t-102.5 -44q-36 0 -69 9.5t-49.5 19t-41.5 26.5q-2 2 -9.5 7.5t-10 7.5t-9 6.5t-9.5 6t-8.5 5t-9 4.5
t-8.5 3t-9.5 2.5t-8.5 0.5q-29 0 -29 -35zM594 1122h223v-1122h-223v55q-73 -82 -201 -82q-59 0 -109 18.5t-91.5 58.5t-65 112t-23.5 170v459q0 98 23.5 169.5t65 111.5t91.5 58.5t109 18.5q128 0 201 -82v55zM461 197q62 0 97.5 37t35.5 98v459q0 61 -35.5 97t-97.5 36
q-61 0 -96 -36t-35 -97v-459q0 -61 35 -98t96 -37z" />
    <glyph glyph-name="y.ss02" horiz-adv-x="933" 
d="M582 1122h223v-1126q0 -167 -97.5 -269t-258.5 -102t-259 103t-98 272v39h225v-55q0 -61 35.5 -98.5t96.5 -37.5q62 0 97.5 37.5t35.5 98.5v215q-73 -82 -201 -82q-59 0 -108.5 18.5t-91 58t-64.5 111.5t-23 170v647h223v-647q0 -61 36 -98t98 -37t96.5 37t34.5 98v647z
" />
    <glyph glyph-name="yacute.ss02" horiz-adv-x="933" 
d="M729 1597l-194 -352h-170l124 352h240zM582 1122h223v-1126q0 -167 -97.5 -269t-258.5 -102t-259 103t-98 272v39h225v-55q0 -61 35.5 -98.5t96.5 -37.5q62 0 97.5 37.5t35.5 98.5v215q-73 -82 -201 -82q-59 0 -108.5 18.5t-91 58t-64.5 111.5t-23 170v647h223v-647
q0 -61 36 -98t98 -37t96.5 37t34.5 98v647z" />
    <glyph glyph-name="ycircumflex.ss02" horiz-adv-x="933" 
d="M451 1460l-123 -170h-211l237 307h189l237 -307h-211zM582 1122h223v-1126q0 -167 -97.5 -269t-258.5 -102t-259 103t-98 272v39h225v-55q0 -61 35.5 -98.5t96.5 -37.5q62 0 97.5 37.5t35.5 98.5v215q-73 -82 -201 -82q-59 0 -108.5 18.5t-91 58t-64.5 111.5t-23 170v647
h223v-647q0 -61 36 -98t98 -37t96.5 37t34.5 98v647z" />
    <glyph glyph-name="ydieresis.ss02" horiz-adv-x="933" 
d="M387 1597v-260h-197v260h197zM715 1597v-260h-197v260h197zM582 1122h223v-1126q0 -167 -97.5 -269t-258.5 -102t-259 103t-98 272v39h225v-55q0 -61 35.5 -98.5t96.5 -37.5q62 0 97.5 37.5t35.5 98.5v215q-73 -82 -201 -82q-59 0 -108.5 18.5t-91 58t-64.5 111.5
t-23 170v647h223v-647q0 -61 36 -98t98 -37t96.5 37t34.5 98v647z" />
    <glyph glyph-name="longs_t" horiz-adv-x="1300" 
d="M209 0v915h-205v207h205v72q0 160 97.5 261t258.5 101h103v-223h-103q-62 0 -97.5 -37.5t-35.5 -101.5v-1194h-223zM1153 -14q-164 0 -260 96.5t-96 265.5v567h-189v207h189v271h225v-271h233v-207h-233v-567q0 -64 35 -101.5t96 -37.5h102v-223h-102z" />
    <glyph glyph-name="zero.tf" horiz-adv-x="983" 
d="M492 1569q167 0 266.5 -104t99.5 -275v-844q0 -171 -99.5 -275t-266.5 -104t-268 104t-101 275v844q0 171 101 275t268 104zM492 1329q-61 0 -96.5 -38t-35.5 -101v-660l207 777q-31 22 -75 22zM492 207q60 0 94.5 38t34.5 101v653l-205 -772q33 -20 76 -20z" />
    <glyph glyph-name="one.tf" horiz-adv-x="983" 
d="M61 0v240h312v880h-258v240h57q94 0 147.5 40.5t53.5 112.5v23h239v-1296h310v-240h-861z" />
    <glyph glyph-name="two.tf" horiz-adv-x="983" 
d="M879 1004q0 -76 -29.5 -143t-76 -116.5t-103 -95t-113.5 -88t-103.5 -85.5t-76 -96.5t-29.5 -113.5v-26h531v-240h-783v217q0 87 23.5 162t61.5 128.5t87 102.5t99.5 85t99.5 74t87 71t61.5 75.5t23.5 88.5v186q0 63 -42 101t-110 38t-109.5 -38t-41.5 -101v-72h-240v72
q0 170 108 274.5t283 104.5t283.5 -104.5t108.5 -274.5v-186z" />
    <glyph glyph-name="three.tf" horiz-adv-x="983" 
d="M852 1190v-141q0 -153 -94 -258q94 -105 94 -261v-184q0 -170 -106 -274.5t-281 -104.5q-174 0 -279.5 104t-105.5 275v74h239v-74q0 -63 39.5 -101t106.5 -38t107 38t40 101v184q0 63 -40 101.5t-107 38.5h-150v239h150q67 0 107 38.5t40 101.5v141q0 63 -40 101
t-107 38t-106.5 -38t-39.5 -101v-72h-239v72q0 171 105.5 275t279.5 104q175 0 281 -104.5t106 -274.5z" />
    <glyph glyph-name="four.tf" horiz-adv-x="983" 
d="M803 522h125v-237h-125v-285h-240v285h-528v209l553 1042h215v-1014zM563 522v547l-276 -547h276z" />
    <glyph glyph-name="five.tf" horiz-adv-x="983" 
d="M528 1016q161 0 262 -105t101 -274v-291q0 -170 -103.5 -274.5t-273.5 -104.5q-171 0 -274 104t-103 275v74h240v-74q0 -64 36.5 -101.5t100.5 -37.5q63 0 100 38t37 101v291q0 63 -37.5 101t-103.5 38q-61 0 -97 -38t-36 -101v-16h-240v915h707v-240h-467v-327
q56 47 151 47z" />
    <glyph glyph-name="six.tf" horiz-adv-x="983" 
d="M874 1118h-239v72q0 63 -36 101t-99 38q-61 0 -97 -38t-36 -101v-221q59 47 149 47q159 0 258.5 -104.5t99.5 -274.5v-291q0 -171 -102 -275t-272 -104q-168 0 -270.5 104t-102.5 275v844q0 171 102.5 275t270.5 104q170 0 272 -104t102 -275v-72zM498 776
q-60 0 -95.5 -38t-35.5 -101v-291q0 -63 36 -101t97 -38q63 0 99 38t36 101v291q0 64 -36.5 101.5t-100.5 37.5z" />
    <glyph glyph-name="seven.tf" horiz-adv-x="983" 
d="M63 1536h836v-221l-438 -1315h-252l446 1296h-592v240z" />
    <glyph glyph-name="eight.tf" horiz-adv-x="983" 
d="M864 1190v-146q0 -157 -88 -258q88 -102 88 -260v-180q0 -171 -101 -275t-271 -104t-271.5 104t-101.5 275v180q0 154 88 260q-88 101 -88 258v146q0 171 101.5 275t271.5 104t271 -104t101 -275zM625 1044v146q0 64 -35.5 101.5t-97.5 37.5t-98 -37.5t-36 -101.5v-146
q0 -64 36 -101.5t98 -37.5t97.5 37.5t35.5 101.5zM625 346v180q0 64 -35.5 102t-97.5 38t-98 -38t-36 -102v-180q0 -64 36 -101.5t98 -37.5t97.5 37.5t35.5 101.5z" />
    <glyph glyph-name="nine.tf" horiz-adv-x="983" 
d="M483 1569q170 0 271.5 -104t101.5 -275v-844q0 -171 -101.5 -275t-271.5 -104t-271 104t-101 275v74h239v-74q0 -64 35.5 -101.5t97.5 -37.5q61 0 97 38t36 101v221q-59 -47 -149 -47q-159 0 -257.5 104.5t-98.5 274.5v291q0 171 101 275t271 104zM485 760q61 0 96 37.5
t35 101.5v291q0 63 -36 101t-97 38q-62 0 -97.5 -37.5t-35.5 -101.5v-291q0 -64 35.5 -101.5t99.5 -37.5z" />
    <glyph glyph-name="zero.dnom" horiz-adv-x="661" 
d="M332 942q101 0 163 -63t62 -164v-508q0 -101 -62 -164t-163 -63q-102 0 -165 63t-63 164v508q0 101 63 164t165 63zM332 786q-33 0 -52.5 -20t-19.5 -51v-348l111 407q-15 12 -39 12zM332 135q30 0 49.5 20.5t19.5 51.5v350l-112 -410q15 -12 43 -12z" />
    <glyph glyph-name="one.dnom" horiz-adv-x="444" 
d="M166 0v659h-141v156h38q47 0 75 24.5t28 67.5v15h156v-922h-156z" />
    <glyph glyph-name="two.dnom" horiz-adv-x="602" 
d="M72 0v143q0 59 16.5 108.5t42.5 83t57.5 62t63.5 51.5t58 45t42.5 48.5t16.5 56.5v117q0 31 -20 51t-52 20t-51 -20t-19 -51v-47h-155v47q0 101 62 164t163 63q102 0 164.5 -62.5t62.5 -164.5v-117q0 -46 -16 -86t-41.5 -68.5t-56 -54t-61 -49t-56 -47.5t-41.5 -55
t-16 -66v-16h288v-156h-452z" />
    <glyph glyph-name="three.dnom" horiz-adv-x="614" 
d="M291 -20q-103 0 -165.5 63t-62.5 164v47h156v-47q0 -31 19.5 -51.5t52.5 -20.5q30 0 49.5 20.5t19.5 51.5v119q0 31 -19 51t-50 20h-94v156h94q31 0 50 20t19 52v90q0 31 -19 51t-50 20q-33 0 -52.5 -20t-19.5 -51v-47h-156v47q0 101 62.5 164t165.5 63q101 0 163 -63
t62 -164v-90q0 -96 -51 -150q51 -57 51 -149v-119q0 -101 -62 -164t-163 -63z" />
    <glyph glyph-name="four.dnom" horiz-adv-x="628" 
d="M334 0v162h-309v135l327 625h137v-603h72v-157h-72v-162h-155zM186 319h148v295z" />
    <glyph glyph-name="five.dnom" horiz-adv-x="641" 
d="M336 -20q-102 0 -164.5 62.5t-62.5 164.5v47h155v-47q0 -31 19.5 -51.5t52.5 -20.5q31 0 50.5 20.5t19.5 51.5v174q0 33 -19.5 52.5t-52.5 19.5t-51.5 -19.5t-18.5 -52.5v-10h-155v551h419v-156h-264v-182q30 24 82 24q95 0 155 -63t60 -164v-174q0 -101 -62 -164
t-163 -63z" />
    <glyph glyph-name="six.dnom" horiz-adv-x="651" 
d="M332 -20q-102 0 -165 63t-63 164v508q0 101 63 164t165 63q101 0 163 -63t62 -164v-47h-156v47q0 31 -19 51t-50 20q-33 0 -52.5 -20t-19.5 -51v-131q30 24 82 24q95 0 155 -63t60 -164v-174q0 -101 -62 -164t-163 -63zM332 135q30 0 49.5 20.5t19.5 51.5v174
q0 33 -19 52.5t-52 19.5t-51.5 -19.5t-18.5 -52.5v-174q0 -31 19.5 -51.5t52.5 -20.5z" />
    <glyph glyph-name="seven.dnom" horiz-adv-x="499" 
d="M80 0l231 766h-291v156h445v-146l-223 -776h-162z" />
    <glyph glyph-name="eight.dnom" horiz-adv-x="651" 
d="M326 -20q-102 0 -164 62.5t-62 164.5v115q0 89 50 149q-50 56 -50 150v94q0 102 62 164.5t164 62.5t163.5 -62.5t61.5 -164.5v-94q0 -95 -49 -150q49 -58 49 -149v-115q0 -102 -61.5 -164.5t-163.5 -62.5zM326 549q32 0 50.5 19.5t18.5 52.5v94q0 31 -18.5 51t-50.5 20
t-51 -20t-19 -51v-94q0 -32 19 -52t51 -20zM326 135q32 0 50.5 20.5t18.5 51.5v115q0 32 -18.5 51.5t-50.5 19.5t-51 -19.5t-19 -51.5v-115q0 -31 19 -51.5t51 -20.5z" />
    <glyph glyph-name="nine.dnom" horiz-adv-x="651" 
d="M322 -20q-102 0 -165 63t-63 164v47h156v-47q0 -31 19.5 -51.5t52.5 -20.5q30 0 49.5 20.5t19.5 51.5v131q-36 -25 -82 -25q-95 0 -155 63.5t-60 164.5v174q0 101 63 164t165 63q101 0 163 -63t62 -164v-508q0 -101 -62 -164t-163 -63zM319 469q33 0 52.5 19.5t19.5 52.5
v174q0 31 -19 51t-50 20q-33 0 -52.5 -20t-19.5 -51v-174q0 -33 18 -52.5t51 -19.5z" />
    <glyph glyph-name="zero.numr" horiz-adv-x="661" 
d="M332 1556q101 0 163 -63t62 -164v-508q0 -101 -62 -164t-163 -63q-102 0 -165 63t-63 164v508q0 101 63 164t165 63zM332 1401q-33 0 -52.5 -20.5t-19.5 -51.5v-348l111 408q-15 12 -39 12zM332 750q31 0 50 20t19 51v350l-112 -409q15 -12 43 -12z" />
    <glyph glyph-name="one.numr" horiz-adv-x="444" 
d="M166 614v664h-141v156h38q47 0 75 24.5t28 67.5v14h156v-926h-156z" />
    <glyph glyph-name="two.numr" horiz-adv-x="602" 
d="M72 614v144q0 59 16.5 108.5t42.5 83t57.5 62t63.5 51t58 44.5t42.5 48.5t16.5 56.5v117q0 31 -20 51.5t-52 20.5t-51 -20.5t-19 -51.5v-47h-155v47q0 101 62 164t163 63q102 0 164.5 -62.5t62.5 -164.5v-117q0 -46 -16 -86t-41.5 -68.5t-56 -54t-61 -49t-56 -47.5
t-41.5 -55t-16 -66v-16h288v-156h-452z" />
    <glyph glyph-name="three.numr" horiz-adv-x="614" 
d="M291 594q-103 0 -165.5 63t-62.5 164v47h156v-47q0 -31 19.5 -51t52.5 -20q31 0 50 20t19 51v119q0 31 -19.5 51.5t-49.5 20.5h-94v155h94q31 0 50 20t19 52v90q0 31 -19.5 51.5t-49.5 20.5q-33 0 -52.5 -20.5t-19.5 -51.5v-47h-156v47q0 101 62.5 164t165.5 63
q101 0 163 -63t62 -164v-90q0 -95 -51 -149q51 -57 51 -150v-119q0 -101 -62 -164t-163 -63z" />
    <glyph glyph-name="four.numr" horiz-adv-x="628" 
d="M334 614v162h-309v135l327 625h137v-602h72v-158h-72v-162h-155zM186 934h148v295z" />
    <glyph glyph-name="five.numr" horiz-adv-x="641" 
d="M336 594q-102 0 -164.5 62.5t-62.5 164.5v47h155v-47q0 -31 19.5 -51t52.5 -20q31 0 50.5 20t19.5 51v174q0 33 -19.5 52.5t-52.5 19.5t-51.5 -19.5t-18.5 -52.5v-10h-155v551h419v-156h-264v-182q31 25 82 25q95 0 155 -63.5t60 -164.5v-174q0 -101 -62 -164t-163 -63z
" />
    <glyph glyph-name="six.numr" horiz-adv-x="651" 
d="M332 594q-102 0 -165 63t-63 164v508q0 101 63 164t165 63q101 0 163 -63t62 -164v-47h-156v47q0 31 -19.5 51.5t-49.5 20.5q-33 0 -52.5 -20.5t-19.5 -51.5v-131q31 25 82 25q95 0 155 -63.5t60 -164.5v-174q0 -101 -62 -164t-163 -63zM332 750q31 0 50 20t19 51v174
q0 33 -19 52.5t-52 19.5t-51.5 -19.5t-18.5 -52.5v-174q0 -31 19.5 -51t52.5 -20z" />
    <glyph glyph-name="seven.numr" horiz-adv-x="499" 
d="M80 614l231 766h-291v156h445v-145l-223 -777h-162z" />
    <glyph glyph-name="eight.numr" horiz-adv-x="651" 
d="M326 594q-102 0 -164 62.5t-62 164.5v115q0 89 50 149q-50 56 -50 150v94q0 102 62 164.5t164 62.5t163.5 -62.5t61.5 -164.5v-94q0 -95 -49 -150q49 -58 49 -149v-115q0 -102 -61.5 -164.5t-163.5 -62.5zM326 1163q32 0 50.5 19.5t18.5 52.5v94q0 31 -18.5 51.5
t-50.5 20.5t-51 -20.5t-19 -51.5v-94q0 -32 19 -52t51 -20zM326 750q32 0 50.5 20t18.5 51v115q0 33 -18.5 52.5t-50.5 19.5t-51 -20t-19 -52v-115q0 -31 19 -51t51 -20z" />
    <glyph glyph-name="nine.numr" horiz-adv-x="651" 
d="M322 594q-102 0 -165 63t-63 164v47h156v-47q0 -31 19.5 -51t52.5 -20q31 0 50 20t19 51v131q-35 -24 -82 -24q-95 0 -155 63t-60 164v174q0 101 63 164t165 63q101 0 163 -63t62 -164v-508q0 -101 -62 -164t-163 -63zM319 1083q33 0 52.5 19.5t19.5 52.5v174
q0 31 -19.5 51.5t-49.5 20.5q-33 0 -52.5 -20.5t-19.5 -51.5v-174q0 -33 18 -52.5t51 -19.5z" />
    <glyph glyph-name="acute.case" horiz-adv-x="464" 
d="M86 1245l125 352h240l-195 -352h-170z" />
    <glyph glyph-name="breve.case" horiz-adv-x="675" 
d="M344 1333q-113 0 -182.5 66t-69.5 174v24h154v-24q0 -47 27.5 -75t70.5 -28t69.5 28t26.5 75v24h154v-24q0 -109 -68.5 -174.5t-181.5 -65.5z" />
    <glyph glyph-name="caron.case" horiz-adv-x="704" 
d="M287 1290l-238 307h211l123 -170l119 170h211l-238 -307h-188z" />
    <glyph glyph-name="circumflex.case" horiz-adv-x="704" 
d="M49 1290l238 307h188l238 -307h-211l-119 170l-123 -170h-211z" />
    <glyph glyph-name="dieresis.case" horiz-adv-x="782" 
d="M158 1337v260h196v-260h-196zM485 1337v260h197v-260h-197z" />
    <glyph glyph-name="dotaccent.case" horiz-adv-x="454" 
d="M158 1276v260h196v-260h-196z" />
    <glyph glyph-name="grave.case" horiz-adv-x="464" 
d="M258 1245l-195 352h240l125 -352h-170z" />
    <glyph glyph-name="hungarumlaut.case" horiz-adv-x="819" 
d="M92 1245l125 352h240l-195 -352h-170zM446 1245l125 352h240l-195 -352h-170z" />
    <glyph glyph-name="macron.case" horiz-adv-x="735" 
d="M150 1536h479v-164h-479v164z" />
    <glyph glyph-name="ring.case" horiz-adv-x="604" 
d="M330 1169q-89 0 -151 59.5t-62 153.5q0 95 62 155t151 60q90 0 152.5 -60t62.5 -155t-62.5 -154t-152.5 -59zM330 1307q32 0 55 21t23 54q0 34 -23 56t-55 22t-54 -22t-22 -56q0 -33 22 -54t54 -21z" />
    <glyph glyph-name="tilde.case" horiz-adv-x="815" 
d="M571 1354q-36 0 -69 10t-48.5 19t-41.5 26q-2 2 -9.5 7.5t-10 7.5t-9 6.5t-9.5 6t-8.5 5t-9 4.5t-8.5 3t-9.5 2.5t-8.5 0.5q-29 0 -29 -35v-53h-180v68q0 77 38.5 121t102.5 44q87 0 156 -53q3 -2 14.5 -11t15 -11.5t13 -8.5t15 -8t14 -4t16.5 -2q26 0 26 37v53h181v-71
q0 -76 -39 -120t-103 -44z" />
    <glyph glyph-name="caron.salt" 
d="M88 1042l82 494h223l-82 -494h-223z" />
    </font>
</defs>
</svg>
